  0
SECTION
  2
HEADER
  9
$ACADVER
  1
AC1024
  9
$ACADMAINTVER
 70
6
  9
$DWGCODEPAGE
  3
ANSI_1252
  9
$LASTSAVEDBY
  1
ezdxf
  9
$INSBASE
 10
0.0
 20
0.0
 30
0.0
  9
$EXTMIN
 10
1e+20
 20
1e+20
 30
1e+20
  9
$EXTMAX
 10
-1e+20
 20
-1e+20
 30
-1e+20
  9
$LIMMIN
 10
0.0
 20
0.0
  9
$LIMMAX
 10
420.0
 20
297.0
  9
$ORTHOMODE
 70
0
  9
$REGENMODE
 70
1
  9
$FILLMODE
 70
1
  9
$QTEXTMODE
 70
0
  9
$MIRRTEXT
 70
1
  9
$LTSCALE
 40
1.0
  9
$ATTMODE
 70
1
  9
$TEXTSIZE
 40
2.5
  9
$TRACEWID
 40
1.0
  9
$TEXTSTYLE
  7
Standard
  9
$CLAYER
  8
0
  9
$CELTYPE
  6
ByLayer
  9
$CECOLOR
 62
256
  9
$CELTSCALE
 40
1.0
  9
$DISPSILH
 70
0
  9
$DIMSCALE
 40
1.0
  9
$DIMASZ
 40
2.5
  9
$DIMEXO
 40
0.625
  9
$DIMDLI
 40
3.75
  9
$DIMRND
 40
0.0
  9
$DIMDLE
 40
0.0
  9
$DIMEXE
 40
1.25
  9
$DIMTP
 40
0.0
  9
$DIMTM
 40
0.0
  9
$DIMTXT
 40
2.5
  9
$DIMCEN
 40
2.5
  9
$DIMTSZ
 40
0.0
  9
$DIMTOL
 70
0
  9
$DIMLIM
 70
0
  9
$DIMTIH
 70
0
  9
$DIMTOH
 70
0
  9
$DIMSE1
 70
0
  9
$DIMSE2
 70
0
  9
$DIMTAD
 70
1
  9
$DIMZIN
 70
8
  9
$DIMBLK
  1

  9
$DIMASO
 70
1
  9
$DIMSHO
 70
1
  9
$DIMPOST
  1

  9
$DIMAPOST
  1

  9
$DIMALT
 70
0
  9
$DIMALTD
 70
3
  9
$DIMALTF
 40
0.03937007874
  9
$DIMLFAC
 40
1.0
  9
$DIMTOFL
 70
1
  9
$DIMTVP
 40
0.0
  9
$DIMTIX
 70
0
  9
$DIMSOXD
 70
0
  9
$DIMSAH
 70
0
  9
$DIMBLK1
  1

  9
$DIMBLK2
  1

  9
$DIMSTYLE
  2
ISO-25
  9
$DIMCLRD
 70
0
  9
$DIMCLRE
 70
0
  9
$DIMCLRT
 70
0
  9
$DIMTFAC
 40
1.0
  9
$DIMGAP
 40
0.625
  9
$DIMJUST
 70
0
  9
$DIMSD1
 70
0
  9
$DIMSD2
 70
0
  9
$DIMTOLJ
 70
0
  9
$DIMTZIN
 70
8
  9
$DIMALTZ
 70
0
  9
$DIMALTTZ
 70
0
  9
$DIMUPT
 70
0
  9
$DIMDEC
 70
2
  9
$DIMTDEC
 70
2
  9
$DIMALTU
 70
2
  9
$DIMALTTD
 70
3
  9
$DIMTXSTY
  7
Standard
  9
$DIMAUNIT
 70
0
  9
$DIMADEC
 70
0
  9
$DIMALTRND
 40
0.0
  9
$DIMAZIN
 70
0
  9
$DIMDSEP
 70
44
  9
$DIMATFIT
 70
3
  9
$DIMFRAC
 70
0
  9
$DIMLDRBLK
  1

  9
$DIMLUNIT
 70
2
  9
$DIMLWD
 70
-2
  9
$DIMLWE
 70
-2
  9
$DIMTMOVE
 70
0
  9
$DIMFXL
 40
1.0
  9
$DIMFXLON
 70
0
  9
$DIMJOGANG
 40
0.785398163397
  9
$DIMTFILL
 70
0
  9
$DIMTFILLCLR
 70
0
  9
$DIMARCSYM
 70
0
  9
$DIMLTYPE
  6

  9
$DIMLTEX1
  6

  9
$DIMLTEX2
  6

  9
$DIMTXTDIRECTION
 70
0
  9
$LUNITS
 70
2
  9
$LUPREC
 70
4
  9
$SKETCHINC
 40
1.0
  9
$FILLETRAD
 40
10.0
  9
$AUNITS
 70
0
  9
$AUPREC
 70
2
  9
$MENU
  1
.
  9
$ELEVATION
 40
0.0
  9
$PELEVATION
 40
0.0
  9
$THICKNESS
 40
0.0
  9
$LIMCHECK
 70
0
  9
$CHAMFERA
 40
0.0
  9
$CHAMFERB
 40
0.0
  9
$CHAMFERC
 40
0.0
  9
$CHAMFERD
 40
0.0
  9
$SKPOLY
 70
0
  9
$TDCREATE
 40
2461086.2597800926
  9
$TDUCREATE
 40
2458532.153996898
  9
$TDUPDATE
 40
2461086.2597800926
  9
$TDUUPDATE
 40
2458532.1544311
  9
$TDINDWG
 40
0.0
  9
$TDUSRTIMER
 40
0.0
  9
$USRTIMER
 70
1
  9
$ANGBASE
 50
0.0
  9
$ANGDIR
 70
0
  9
$PDMODE
 70
0
  9
$PDSIZE
 40
0.0
  9
$PLINEWID
 40
0.0
  9
$SPLFRAME
 70
0
  9
$SPLINETYPE
 70
6
  9
$SPLINESEGS
 70
8
  9
$HANDSEED
  5
8D
  9
$SURFTAB1
 70
6
  9
$SURFTAB2
 70
6
  9
$SURFTYPE
 70
6
  9
$SURFU
 70
6
  9
$SURFV
 70
6
  9
$UCSBASE
  2

  9
$UCSNAME
  2

  9
$UCSORG
 10
0.0
 20
0.0
 30
0.0
  9
$UCSXDIR
 10
1.0
 20
0.0
 30
0.0
  9
$UCSYDIR
 10
0.0
 20
1.0
 30
0.0
  9
$UCSORTHOREF
  2

  9
$UCSORTHOVIEW
 70
0
  9
$UCSORGTOP
 10
0.0
 20
0.0
 30
0.0
  9
$UCSORGBOTTOM
 10
0.0
 20
0.0
 30
0.0
  9
$UCSORGLEFT
 10
0.0
 20
0.0
 30
0.0
  9
$UCSORGRIGHT
 10
0.0
 20
0.0
 30
0.0
  9
$UCSORGFRONT
 10
0.0
 20
0.0
 30
0.0
  9
$UCSORGBACK
 10
0.0
 20
0.0
 30
0.0
  9
$PUCSBASE
  2

  9
$PUCSNAME
  2

  9
$PUCSORG
 10
0.0
 20
0.0
 30
0.0
  9
$PUCSXDIR
 10
1.0
 20
0.0
 30
0.0
  9
$PUCSYDIR
 10
0.0
 20
1.0
 30
0.0
  9
$PUCSORTHOREF
  2

  9
$PUCSORTHOVIEW
 70
0
  9
$PUCSORGTOP
 10
0.0
 20
0.0
 30
0.0
  9
$PUCSORGBOTTOM
 10
0.0
 20
0.0
 30
0.0
  9
$PUCSORGLEFT
 10
0.0
 20
0.0
 30
0.0
  9
$PUCSORGRIGHT
 10
0.0
 20
0.0
 30
0.0
  9
$PUCSORGFRONT
 10
0.0
 20
0.0
 30
0.0
  9
$PUCSORGBACK
 10
0.0
 20
0.0
 30
0.0
  9
$USERI1
 70
0
  9
$USERI2
 70
0
  9
$USERI3
 70
0
  9
$USERI4
 70
0
  9
$USERI5
 70
0
  9
$USERR1
 40
0.0
  9
$USERR2
 40
0.0
  9
$USERR3
 40
0.0
  9
$USERR4
 40
0.0
  9
$USERR5
 40
0.0
  9
$WORLDVIEW
 70
1
  9
$SHADEDGE
 70
3
  9
$SHADEDIF
 70
70
  9
$TILEMODE
 70
1
  9
$MAXACTVP
 70
64
  9
$PINSBASE
 10
0.0
 20
0.0
 30
0.0
  9
$PLIMCHECK
 70
0
  9
$PEXTMIN
 10
1e+20
 20
1e+20
 30
1e+20
  9
$PEXTMAX
 10
-1e+20
 20
-1e+20
 30
-1e+20
  9
$PLIMMIN
 10
0.0
 20
0.0
  9
$PLIMMAX
 10
420.0
 20
297.0
  9
$UNITMODE
 70
0
  9
$VISRETAIN
 70
1
  9
$PLINEGEN
 70
0
  9
$PSLTSCALE
 70
1
  9
$TREEDEPTH
 70
3020
  9
$CMLSTYLE
  2
Standard
  9
$CMLJUST
 70
0
  9
$CMLSCALE
 40
20.0
  9
$PROXYGRAPHICS
 70
1
  9
$MEASUREMENT
 70
1
  9
$CELWEIGHT
370
-1
  9
$ENDCAPS
280
0
  9
$JOINSTYLE
280
0
  9
$LWDISPLAY
290
0
  9
$INSUNITS
 70
6
  9
$HYPERLINKBASE
  1

  9
$STYLESHEET
  1

  9
$XEDIT
290
1
  9
$CEPSNTYPE
380
0
  9
$PSTYLEMODE
290
1
  9
$FINGERPRINTGUID
  2
{4A5FDC8D-D493-42F2-AD58-B7BB4DAC1B54}
  9
$VERSIONGUID
  2
{1AD97FF0-D866-48C5-9951-21E52E4AA394}
  9
$EXTNAMES
290
1
  9
$PSVPSCALE
 40
0.0
  9
$OLESTARTUP
290
0
  9
$SORTENTS
280
127
  9
$INDEXCTL
280
0
  9
$HIDETEXT
280
1
  9
$XCLIPFRAME
280
1
  9
$HALOGAP
280
0
  9
$OBSCOLOR
 70
257
  9
$OBSLTYPE
280
0
  9
$INTERSECTIONDISPLAY
280
0
  9
$INTERSECTIONCOLOR
 70
257
  9
$DIMASSOC
280
2
  9
$PROJECTNAME
  1

  9
$CAMERADISPLAY
290
0
  9
$LENSLENGTH
 40
50.0
  9
$CAMERAHEIGHT
 40
0.0
  9
$STEPSPERSEC
 40
24.0
  9
$STEPSIZE
 40
100.0
  9
$3DDWFPREC
 40
2.0
  9
$PSOLWIDTH
 40
0.005
  9
$PSOLHEIGHT
 40
0.08
  9
$LOFTANG1
 40
1.570796326795
  9
$LOFTANG2
 40
1.570796326795
  9
$LOFTMAG1
 40
0.0
  9
$LOFTMAG2
 40
0.0
  9
$LOFTPARAM
 70
7
  9
$LOFTNORMALS
280
1
  9
$LATITUDE
 40
37.795
  9
$LONGITUDE
 40
-122.394
  9
$NORTHDIRECTION
 40
0.0
  9
$TIMEZONE
 70
-8000
  9
$LIGHTGLYPHDISPLAY
280
1
  9
$TILEMODELIGHTSYNCH
280
1
  9
$CMATERIAL
347
20
  9
$SOLIDHIST
280
0
  9
$SHOWHIST
280
1
  9
$DWFFRAME
280
2
  9
$DGNFRAME
280
2
  9
$REALWORLDSCALE
290
1
  9
$INTERFERECOLOR
 62
256
  9
$CSHADOW
280
0
  9
$SHADOWPLANELOCATION
 40
0.0
  0
ENDSEC
  0
SECTION
  2
CLASSES
  0
CLASS
  1
ACDBDICTIONARYWDFLT
  2
AcDbDictionaryWithDefault
  3
ObjectDBX Classes
 90
0
 91
0
280
0
281
0
  0
CLASS
  1
SUN
  2
AcDbSun
  3
SCENEOE
 90
1153
 91
0
280
0
281
0
  0
CLASS
  1
VISUALSTYLE
  2
AcDbVisualStyle
  3
ObjectDBX Classes
 90
4095
 91
0
280
0
281
0
  0
CLASS
  1
MATERIAL
  2
AcDbMaterial
  3
ObjectDBX Classes
 90
1153
 91
0
280
0
281
0
  0
CLASS
  1
SCALE
  2
AcDbScale
  3
ObjectDBX Classes
 90
1153
 91
0
280
0
281
0
  0
CLASS
  1
TABLESTYLE
  2
AcDbTableStyle
  3
ObjectDBX Classes
 90
4095
 91
0
280
0
281
0
  0
CLASS
  1
MLEADERSTYLE
  2
AcDbMLeaderStyle
  3
ACDB_MLEADERSTYLE_CLASS
 90
4095
 91
0
280
0
281
0
  0
CLASS
  1
DICTIONARYVAR
  2
AcDbDictionaryVar
  3
ObjectDBX Classes
 90
0
 91
0
280
0
281
0
  0
CLASS
  1
CELLSTYLEMAP
  2
AcDbCellStyleMap
  3
ObjectDBX Classes
 90
1152
 91
0
280
0
281
0
  0
CLASS
  1
MENTALRAYRENDERSETTINGS
  2
AcDbMentalRayRenderSettings
  3
SCENEOE
 90
1024
 91
0
280
0
281
0
  0
CLASS
  1
ACDBDETAILVIEWSTYLE
  2
AcDbDetailViewStyle
  3
ObjectDBX Classes
 90
1025
 91
0
280
0
281
0
  0
CLASS
  1
ACDBSECTIONVIEWSTYLE
  2
AcDbSectionViewStyle
  3
ObjectDBX Classes
 90
1025
 91
0
280
0
281
0
  0
CLASS
  1
RASTERVARIABLES
  2
AcDbRasterVariables
  3
ISM
 90
0
 91
0
280
0
281
0
  0
CLASS
  1
ACDBPLACEHOLDER
  2
AcDbPlaceHolder
  3
ObjectDBX Classes
 90
0
 91
0
280
0
281
0
  0
CLASS
  1
LAYOUT
  2
AcDbLayout
  3
ObjectDBX Classes
 90
0
 91
0
280
0
281
0
  0
ENDSEC
  0
SECTION
  2
TABLES
  0
TABLE
  2
VPORT
  5
8
330
0
100
AcDbSymbolTable
 70
1
  0
VPORT
  5
23
330
8
100
AcDbSymbolTableRecord
100
AcDbViewportTableRecord
  2
*Active
 70
0
 10
0.0
 20
0.0
 11
1.0
 21
1.0
 12
0.0
 22
0.0
 13
0.0
 23
0.0
 14
0.5
 24
0.5
 15
0.5
 25
0.5
 16
0.0
 26
0.0
 36
1.0
 17
0.0
 27
0.0
 37
0.0
 40
1000.0
 41
1.34
 42
50.0
 43
0.0
 44
0.0
 50
0.0
 51
0.0
 71
0
 72
1000
 73
1
 74
3
 75
0
 76
0
 77
0
 78
0
281
0
 65
0
146
0.0
  0
ENDTAB
  0
TABLE
  2
LTYPE
  5
2
330
0
100
AcDbSymbolTable
 70
3
  0
LTYPE
  5
24
330
2
100
AcDbSymbolTableRecord
100
AcDbLinetypeTableRecord
  2
ByBlock
 70
0
  3

 72
65
 73
0
 40
0.0
  0
LTYPE
  5
25
330
2
100
AcDbSymbolTableRecord
100
AcDbLinetypeTableRecord
  2
ByLayer
 70
0
  3

 72
65
 73
0
 40
0.0
  0
LTYPE
  5
26
330
2
100
AcDbSymbolTableRecord
100
AcDbLinetypeTableRecord
  2
Continuous
 70
0
  3

 72
65
 73
0
 40
0.0
  0
ENDTAB
  0
TABLE
  2
LAYER
  5
1
330
0
100
AcDbSymbolTable
 70
8
  0
LAYER
  5
27
330
1
100
AcDbSymbolTableRecord
100
AcDbLayerTableRecord
  2
0
 70
0
 62
7
  6
Continuous
370
-3
390
13
347
21
  0
LAYER
  5
28
330
1
100
AcDbSymbolTableRecord
100
AcDbLayerTableRecord
  2
Defpoints
 70
0
 62
7
  6
Continuous
290
0
370
-3
390
13
347
21
  0
LAYER
  5
2F
330
1
100
AcDbSymbolTableRecord
100
AcDbLayerTableRecord
  2
EDIFICACAO
 70
0
 62
5
  6
Continuous
370
-3
390
13
347
21
  0
LAYER
  5
30
330
1
100
AcDbSymbolTableRecord
100
AcDbLayerTableRecord
  2
VIAS
 70
0
 62
1
  6
Continuous
370
-3
390
13
347
21
  0
LAYER
  5
31
330
1
100
AcDbSymbolTableRecord
100
AcDbLayerTableRecord
  2
VEGETACAO
 70
0
 62
3
  6
Continuous
370
-3
390
13
347
21
  0
LAYER
  5
32
330
1
100
AcDbSymbolTableRecord
100
AcDbLayerTableRecord
  2
EQUIPAMENTOS
 70
0
 62
4
  6
Continuous
370
-3
390
13
347
21
  0
LAYER
  5
33
330
1
100
AcDbSymbolTableRecord
100
AcDbLayerTableRecord
  2
HIDROGRAFIA
 70
0
 62
150
  6
Continuous
370
-3
390
13
347
21
  0
LAYER
  5
34
330
1
100
AcDbSymbolTableRecord
100
AcDbLayerTableRecord
  2
TERRENO
 70
0
 62
252
  6
Continuous
370
-3
390
13
347
21
  0
ENDTAB
  0
TABLE
  2
STYLE
  5
5
330
0
100
AcDbSymbolTable
 70
1
  0
STYLE
  5
29
330
5
100
AcDbSymbolTableRecord
100
AcDbTextStyleTableRecord
  2
Standard
 70
0
 40
0.0
 41
1.0
 50
0.0
 71
0
 42
2.5
  3
txt
  4

  0
ENDTAB
  0
TABLE
  2
VIEW
  5
7
330
0
100
AcDbSymbolTable
 70
0
  0
ENDTAB
  0
TABLE
  2
UCS
  5
6
330
0
100
AcDbSymbolTable
 70
0
  0
ENDTAB
  0
TABLE
  2
APPID
  5
3
330
0
100
AcDbSymbolTable
 70
3
  0
APPID
  5
2A
330
3
100
AcDbSymbolTableRecord
100
AcDbRegAppTableRecord
  2
ACAD
 70
0
  0
APPID
  5
8A
330
3
100
AcDbSymbolTableRecord
100
AcDbRegAppTableRecord
  2
HATCHBACKGROUNDCOLOR
 70
0
  0
APPID
  5
8B
330
3
100
AcDbSymbolTableRecord
100
AcDbRegAppTableRecord
  2
EZDXF
 70
0
  0
ENDTAB
  0
TABLE
  2
DIMSTYLE
  5
4
330
0
100
AcDbSymbolTable
 70
1
100
AcDbDimStyleTable
  0
DIMSTYLE
105
2B
330
4
100
AcDbSymbolTableRecord
100
AcDbDimStyleTableRecord
  2
Standard
 70
0
 40
1.0
 41
2.5
 42
0.625
 43
3.75
 44
1.25
 45
0.0
 46
0.0
 47
0.0
 48
0.0
 49
2.5
140
2.5
141
2.5
142
0.0
143
0.03937007874
144
1.0
145
0.0
146
1.0
147
0.625
148
0.0
 69
0
 70
0
 71
0
 72
0
 73
0
 74
0
 75
0
 76
0
 77
1
 78
8
 79
3
170
0
171
3
172
1
173
0
174
0
175
0
176
0
177
0
178
0
179
2
271
2
272
2
273
2
274
3
275
0
276
0
277
2
278
44
279
0
280
0
281
0
282
0
283
0
284
8
285
0
286
0
288
0
289
3
290
0
371
-2
372
-2
  0
ENDTAB
  0
TABLE
  2
BLOCK_RECORD
  5
9
330
0
100
AcDbSymbolTable
 70
2
  0
BLOCK_RECORD
  5
17
330
9
100
AcDbSymbolTableRecord
100
AcDbBlockTableRecord
  2
*Model_Space
340
1A
 70
0
280
1
281
0
  0
BLOCK_RECORD
  5
1B
330
9
100
AcDbSymbolTableRecord
100
AcDbBlockTableRecord
  2
*Paper_Space
340
1E
 70
0
280
1
281
0
  0
ENDTAB
  0
ENDSEC
  0
SECTION
  2
BLOCKS
  0
BLOCK
  5
18
330
17
100
AcDbEntity
  8
0
100
AcDbBlockBegin
  2
*Model_Space
 70
0
 10
0.0
 20
0.0
 30
0.0
  3
*Model_Space
  1

  0
ENDBLK
  5
19
330
17
100
AcDbEntity
  8
0
100
AcDbBlockEnd
  0
BLOCK
  5
1C
330
1B
100
AcDbEntity
  8
0
100
AcDbBlockBegin
  2
*Paper_Space
 70
0
 10
0.0
 20
0.0
 30
0.0
  3
*Paper_Space
  1

  0
ENDBLK
  5
1D
330
1B
100
AcDbEntity
  8
0
100
AcDbBlockEnd
  0
ENDSEC
  0
SECTION
  2
ENTITIES
  0
CIRCLE
  5
35
330
17
100
AcDbEntity
  8
VIAS
100
AcDbCircle
 10
-39.02145780803403
 20
76.26220013108104
 30
0.0
 40
0.5
  0
CIRCLE
  5
36
330
17
100
AcDbEntity
  8
EQUIPAMENTOS
100
AcDbCircle
 10
-27.55660289770458
 20
-106.38234049733728
 30
0.0
 40
0.5
  0
CIRCLE
  5
37
330
17
100
AcDbEntity
  8
EQUIPAMENTOS
100
AcDbCircle
 10
-70.18444629019359
 20
17.230210871435702
 30
0.0
 40
0.5
  0
CIRCLE
  5
38
330
17
100
AcDbEntity
  8
VIAS
100
AcDbCircle
 10
-72.47932883759495
 20
31.34717428777367
 30
0.0
 40
0.5
  0
CIRCLE
  5
39
330
17
100
AcDbEntity
  8
VIAS
100
AcDbCircle
 10
-59.84910410892917
 20
28.655876240693033
 30
0.0
 40
0.5
  0
CIRCLE
  5
3A
330
17
100
AcDbEntity
  8
EQUIPAMENTOS
100
AcDbCircle
 10
61.87286136939656
 20
66.79055585805327
 30
0.0
 40
0.5
  0
CIRCLE
  5
3B
330
17
100
AcDbEntity
  8
VEGETACAO
100
AcDbCircle
 10
84.24086115305545
 20
-73.71023075003177
 30
0.0
 40
0.5
  0
CIRCLE
  5
3C
330
17
100
AcDbEntity
  8
EQUIPAMENTOS
100
AcDbCircle
 10
5.716689964639954
 20
34.464482800103724
 30
0.0
 40
0.5
  0
CIRCLE
  5
3D
330
17
100
AcDbEntity
  8
EQUIPAMENTOS
100
AcDbCircle
 10
-59.807952027535066
 20
54.60570795275271
 30
0.0
 40
0.5
  0
CIRCLE
  5
3E
330
17
100
AcDbEntity
  8
VIAS
100
AcDbCircle
 10
-55.978149360686075
 20
37.5048403237015
 30
0.0
 40
0.5
  0
LWPOLYLINE
  5
3F
330
17
100
AcDbEntity
  8
EQUIPAMENTOS
100
AcDbPolyline
 90
35
 70
1
 10
43.50715509447036
 20
-41.003785255365074
 10
44.66288317571161
 20
-38.48760895431042
 10
51.43983729957836
 20
-23.015787881799042
 10
45.82715212152107
 20
-20.587789106182754
 10
49.469275768555235
 20
-12.262000276707113
 10
45.73441509518307
 20
-10.654330844990909
 10
51.78467303776415
 20
3.18114619795233
 10
61.132353967113886
 20
-0.8656015982851386
 10
62.73462701012613
 20
2.785336180590093
 10
89.89513052848633
 20
-8.966285570524633
 10
88.3029353072634
 20
-12.606030001305044
 10
94.42871180601651
 20
-15.260782080702484
 10
90.19924339751014
 20
-24.911203518509865
 10
91.94359424122376
 20
-25.66660649329424
 10
87.49546160845784
 20
-35.840056891553104
 10
85.15596562757855
 20
-34.8256262158975
 10
79.19492769608041
 20
-48.42749223578721
 10
73.67464228428435
 20
-46.04273242689669
 10
71.83353874634486
 20
-50.23907772451639
 10
71.07834469951922
 20
-52.06402304302901
 10
69.44544996909099
 20
-55.715309218503535
 10
67.53700141090667
 20
-54.89532658550888
 10
59.3971231841133
 20
-73.51696614269167
 10
55.621064707578626
 20
-71.87653874326497
 10
51.54124220676022
 20
-81.21516285836697
 10
36.42717599798925
 20
-74.68680492881685
 10
29.90913695091149
 20
-89.57977294642478
 10
24.132372515741736
 20
-87.08720159437507
 10
29.834344418195542
 20
-74.05309797916561
 10
26.766357031126972
 20
-72.72579360287637
 10
29.96078590193065
 20
-65.43509832303971
 10
35.983833329344634
 20
-68.03561935387552
 10
45.835472061356995
 20
-45.518121326342225
 10
42.264593013504054
 20
-43.96396160218865
 10
43.50715509447036
 20
-41.003785255365074
  0
LWPOLYLINE
  5
40
330
17
100
AcDbEntity
  8
EQUIPAMENTOS
100
AcDbPolyline
 90
5
 70
1
 10
70.67356045992346
 20
-42.52175401058048
 10
78.79419028462144
 20
-24.000020291656256
 10
58.98040929326089
 20
-15.420862859115005
 10
50.79010144399945
 20
-34.09845628216863
 10
70.67356045992346
 20
-42.52175401058048
  0
LWPOLYLINE
  5
41
330
17
100
AcDbEntity
  8
EDIFICACAO
100
AcDbPolyline
 90
16
 70
1
 10
-101.9101252842811
 20
5.78217510227114
 10
-105.67172264133114
 20
7.046169056557119
 10
-103.2326942079817
 20
15.214305215515196
 10
-99.98356484086253
 20
14.121672078035772
 10
-98.89731607126305
 20
17.356961677782238
 10
-97.48481329315109
 20
17.051882992498577
 10
-90.76020722725661
 20
15.611237389035523
 10
-84.33229470980586
 20
14.222582765854895
 10
-75.43783096846892
 20
12.319355171173811
 10
-77.12892302678665
 20
8.4015808487311
 10
-78.68100178655004
 20
4.828724478371441
 10
-78.97931814769981
 20
4.1275814371183515
 10
-80.8794945825357
 20
-0.25773855950683355
 10
-82.8492389691528
 20
-4.809981113299727
 10
-103.17419985082233
 20
2.024319694377482
 10
-101.9101252842811
 20
5.78217510227114
  0
LWPOLYLINE
  5
42
330
17
100
AcDbEntity
  8
EDIFICACAO
100
AcDbPolyline
 90
5
 70
1
 10
-100.77671095443657
 20
7.567141708917916
 10
-88.1898431913578
 20
4.199783050455153
 10
-86.93636941711884
 20
8.88783903606236
 10
-99.5334497455624
 20
12.255082581192255
 10
-100.77671095443657
 20
7.567141708917916
  0
LWPOLYLINE
  5
43
330
17
100
AcDbEntity
  8
EDIFICACAO
100
AcDbPolyline
 90
20
 70
1
 10
48.29152975982288
 20
85.75176620204002
 10
51.40969273116207
 20
86.2967467494309
 10
55.20026487897849
 20
86.97121356986463
 10
58.85849821352167
 20
87.61094623152167
 10
60.45300010457868
 20
87.46297880634665
 10
61.661702740879264
 20
87.12233746703714
 10
62.948175060155336
 20
86.22881857585162
 10
63.943504200840835
 20
84.90004818420857
 10
64.13912296277704
 20
83.86120135057718
 10
64.10661133460235
 20
83.129863566719
 10
62.768427609757055
 20
73.32408754434437
 10
61.87286136939656
 20
66.79055585805327
 10
60.6564251742675
 20
57.949714043177664
 10
59.52569140546257
 20
49.65253611840308
 10
48.3038346375688
 20
50.610087540932
 10
49.34686062851688
 20
56.74659082200378
 10
49.700871276611
 20
59.729869895614684
 10
50.62313985143555
 20
67.50413673650473
 10
49.51355220802361
 20
76.174505982548
 10
48.29152975982288
 20
85.75176620204002
  0
LWPOLYLINE
  5
44
330
17
100
AcDbEntity
  8
EDIFICACAO
100
AcDbPolyline
 90
5
 70
1
 10
51.674222686560825
 20
61.280734749510884
 10
51.30749641387956
 20
56.72462315950543
 10
54.3017656080774
 20
56.49292368721217
 10
54.65828377637081
 20
61.04891886096448
 10
51.674222686560825
 20
61.280734749510884
  0
LWPOLYLINE
  5
45
330
17
100
AcDbEntity
  8
EDIFICACAO
100
AcDbPolyline
 90
5
 70
1
 10
51.93154599569971
 20
79.92333805095404
 10
51.29522956738947
 20
74.83254302944988
 10
53.83097909396747
 20
74.51809364650398
 10
54.467296372458804
 20
79.60888850875199
 10
51.93154599569971
 20
79.92333805095404
  0
LWPOLYLINE
  5
46
330
17
100
AcDbEntity
  8
EDIFICACAO
100
AcDbPolyline
 90
37
 70
1
 10
119.9538522522198
 20
73.56553113739938
 10
118.07737584720599
 20
80.54373095929623
 10
117.07736604748061
 20
86.76771717332304
 10
113.15483135118848
 20
86.02531240042299
 10
113.66719632374588
 20
81.37953629437834
 10
104.80828391283285
 20
80.16006051190197
 10
103.76163670321694
 20
85.99588096514344
 10
90.06729665357852
 20
84.40015142876655
 10
78.5253057050868
 20
82.08687910623848
 10
79.1792755308561
 20
87.42152906022966
 10
81.41982803825522
 20
89.71747513394803
 10
110.79209493525559
 20
93.56281313020736
 10
114.16662178456318
 20
94.0110217789188
 10
117.36797336646123
 20
94.42403205577284
 10
120.74250050901901
 20
94.87223916593939
 10
123.94372628052952
 20
95.29632180649787
 10
126.77805712487316
 20
95.6608501560986
 10
129.44916949648177
 20
96.01244439557195
 10
136.004631453834
 20
96.87342234980315
 10
137.65622681443347
 20
97.09158011246473
 10
139.2466940357699
 20
97.29796650353819
 10
142.10762604902266
 20
95.32591471541673
 10
142.7071935107815
 20
92.88510787393898
 10
143.46758653083816
 20
89.77054102439433
 10
143.98182535666274
 20
87.64994528889656
 10
144.72079131519422
 20
84.62373654451221
 10
145.7486378987669
 20
80.43791411351413
 10
146.89458234823542
 20
75.74397410172969
 10
147.91184066684218
 20
71.5912568056956
 10
148.84377043374116
 20
67.75875062588602
 10
141.2746081572841
 20
65.35785092506558
 10
126.97040365374414
 20
60.83134253881872
 10
122.48386205430143
 20
59.40692720096558
 10
120.15428251365665
 20
66.72330131474882
 10
125.18215655221138
 20
68.1317301588133
 10
123.30215662636328
 20
74.52290147636086
 10
119.9538522522198
 20
73.56553113739938
  0
LWPOLYLINE
  5
47
330
17
100
AcDbEntity
  8
EDIFICACAO
100
AcDbPolyline
 90
5
 70
1
 10
135.4169709306443
 20
81.22846345324069
 10
132.10571818327298
 20
80.60377573501319
 10
135.24762441666098
 20
67.40460952650756
 10
138.5150123690255
 20
68.29460362158716
 10
135.4169709306443
 20
81.22846345324069
  0
LWPOLYLINE
  5
48
330
17
100
AcDbEntity
  8
EDIFICACAO
100
AcDbPolyline
 90
5
 70
1
 10
132.79601100145373
 20
84.54335255455226
 10
132.1941630510264
 20
89.87477629911155
 10
128.04387623176444
 20
89.4066641703248
 10
128.94872203812702
 20
83.46955086383969
 10
132.79601100145373
 20
84.54335255455226
  0
LWPOLYLINE
  5
49
330
17
100
AcDbEntity
  8
EQUIPAMENTOS
100
AcDbPolyline
 90
5
 70
1
 10
51.070274686964694
 20
-108.88654731865972
 10
59.03102606302127
 20
-90.67672550491989
 10
94.50257490988588
 20
-106.02173902001232
 10
86.53145572188077
 20
-124.22058215830475
 10
51.070274686964694
 20
-108.88654731865972
  0
LWPOLYLINE
  5
4A
330
17
100
AcDbEntity
  8
EQUIPAMENTOS
100
AcDbPolyline
 90
10
 70
1
 10
92.49296256439993
 20
-126.79967453237623
 10
104.22569519025274
 20
-100.0078924158588
 10
95.84264500724385
 20
-96.38207160774618
 10
102.82845813338645
 20
-80.42058492731303
 10
99.61679819965502
 20
-79.02845040243119
 10
103.51793475198792
 20
-70.13488738238811
 10
125.06574771757005
 20
-79.46962234284729
 10
114.17877347295871
 20
-104.32465618196875
 10
102.44590121175861
 20
-131.10535573866218
 10
92.49296256439993
 20
-126.79967453237623
  0
LWPOLYLINE
  5
4B
330
17
100
AcDbEntity
  8
EQUIPAMENTOS
100
AcDbPolyline
 90
9
 70
1
 10
-14.644997733063065
 20
-88.08282231446356
 10
-24.721142796974164
 20
-83.72324411291629
 10
-30.413106686843093
 20
-96.73510824795812
 10
-42.6448623596807
 20
-91.37010999117047
 10
-34.51482573192334
 20
-72.79281660076231
 10
9.883683539403137
 20
-91.98976504150778
 10
1.6643748432397842
 20
-110.80062890704721
 10
-20.35688128543552
 20
-101.13921018596739
 10
-14.644997733063065
 20
-88.08282231446356
  0
LWPOLYLINE
  5
4C
330
17
100
AcDbEntity
  8
EQUIPAMENTOS
100
AcDbPolyline
 90
45
 70
1
 10
29.96078590193065
 20
-65.43509832303971
 10
26.766357031126972
 20
-72.72579360287637
 10
29.834344418195542
 20
-74.05309797916561
 10
24.132372515741736
 20
-87.08720159437507
 10
29.90913695091149
 20
-89.57977294642478
 10
36.42717599798925
 20
-74.68680492881685
 10
51.54124220676022
 20
-81.21516285836697
 10
55.621064707578626
 20
-71.87653874326497
 10
59.3971231841133
 20
-73.51696614269167
 10
67.53700141090667
 20
-54.89532658550888
 10
69.44544996909099
 20
-55.715309218503535
 10
63.78326202754397
 20
-68.66033879574388
 10
68.66743428638438
 20
-70.7754582669586
 10
66.51793187909061
 20
-75.6841345205903
 10
75.4241794954869
 20
-79.52548600453883
 10
77.57368412421783
 20
-74.61681118328124
 10
80.45702227199217
 20
-75.8687020400539
 10
84.22858552535763
 20
-67.2534905616194
 10
86.36276294325944
 20
-68.17058175243437
 10
89.35890410997672
 20
-69.46549073327333
 10
85.59754753200104
 20
-78.08058449439704
 10
87.17779309529578
 20
-78.77140394132584
 10
82.5107623701333
 20
-89.44573793094605
 10
77.92417051491793
 20
-87.46012821979821
 10
79.17782697005896
 20
-84.57735549751669
 10
57.11714422155637
 20
-75.03809846565127
 10
52.4104329610127
 20
-85.81257289368659
 10
37.31678962375736
 20
-79.2839817320928
 10
35.9038349853945
 20
-82.52298198640347
 10
34.52890085533727
 20
-81.92950629815459
 10
30.498625324922614
 20
-91.13466984499246
 10
11.752178540744353
 20
-83.03073190245777
 10
17.24530572950607
 20
-70.48631424549967
 10
23.02207784570055
 20
-72.97888329718262
 10
29.699298535764683
 20
-57.71861514262855
 10
27.852353589551058
 20
-56.92008737195283
 10
28.757774448080454
 20
-54.838696707971394
 10
34.42174727807287
 20
-57.288254550658166
 10
39.586461892176885
 20
-45.48963213060051
 10
33.922485670715105
 20
-43.040072101168334
 10
34.907561456086114
 20
-40.780570219270885
 10
42.264593013504054
 20
-43.96396160218865
 10
45.835472061356995
 20
-45.518121326342225
 10
35.983833329344634
 20
-68.03561935387552
 10
29.96078590193065
 20
-65.43509832303971
  0
LWPOLYLINE
  5
4D
330
17
100
AcDbEntity
  8
EQUIPAMENTOS
100
AcDbPolyline
 90
11
 70
1
 10
109.11071113834623
 20
-57.367870258167386
 10
104.28817331400933
 20
-55.28526135068387
 10
107.06471347628394
 20
-48.95181760843843
 10
115.08870840485906
 20
-52.42668123729527
 10
123.96547021408333
 20
-32.15754963923246
 10
115.94146703288425
 20
-28.68268068600446
 10
124.05195248126984
 20
-10.161092517897487
 10
150.43246048892615
 20
-21.56729431077838
 10
129.66336719907122
 20
-68.97329901997
 10
108.10545993031701
 20
-59.649746735580266
 10
109.11071113834623
 20
-57.367870258167386
  0
LWPOLYLINE
  5
4E
330
17
100
AcDbEntity
  8
EQUIPAMENTOS
100
AcDbPolyline
 90
19
 70
1
 10
14.81080372602446
 20
-51.27630952838808
 10
13.938627479539718
 20
-50.898612572811544
 10
7.261545178072993
 20
-66.16996242851019
 10
-23.367098003218416
 20
-52.9185573188588
 10
-25.556273567373864
 20
-57.92737857345492
 10
-27.61861940129893
 20
-57.04271025490016
 10
-24.076364809414372
 20
-48.91739220637828
 10
-38.071542323275935
 20
-42.919043590314686
 10
-27.02571149065625
 20
-17.68551361747086
 10
-24.92227208049735
 20
-18.591864594258368
 10
-23.56893633643631
 20
-15.497516161762178
 10
1.0673403966357
 20
-26.14806571882218
 10
-11.192220150667708
 20
-54.18637116625905
 10
-4.317401136097033
 20
-57.16480444278568
 10
7.9523781518801115
 20
-29.126388975419104
 10
19.824073229858186
 20
-34.25187786761671
 10
15.256386841938365
 20
-44.68144739884883
 10
17.30852238467196
 20
-45.56623801123351
 10
14.81080372602446
 20
-51.27630952838808
  0
LWPOLYLINE
  5
4F
330
17
100
AcDbEntity
  8
EQUIPAMENTOS
100
AcDbPolyline
 90
39
 70
1
 10
33.708676904963795
 20
-26.961218614131212
 10
37.21127266687108
 20
-18.936047853901982
 10
38.1963794255862
 20
-19.367836096324027
 10
40.445322956191376
 20
-14.225442493334413
 10
36.3923435548204
 20
-12.477420906536281
 10
51.18985805858392
 20
21.3378077307716
 10
67.72004173131427
 20
14.194268104620278
 10
66.5259915899951
 20
11.456152561120689
 10
93.68650706479093
 20
-0.29547689016908407
 10
94.89076996291988
 20
2.4427524888888
 10
105.50044544041157
 20
-2.14341420866549
 10
99.40023110434413
 20
-16.079111963510513
 10
101.77060792327393
 20
-17.115343899466097
 10
92.60537233040668
 20
-38.05229128804058
 10
94.8011852663476
 20
-39.001907802186906
 10
90.32305929093855
 20
-49.23107555694878
 10
83.67411709140288
 20
-46.3607791243121
 10
80.36030320642749
 20
-53.929701681248844
 10
71.83353874634486
 20
-50.23907772451639
 10
73.67464228428435
 20
-46.04273242689669
 10
79.19492769608041
 20
-48.42749223578721
 10
85.15596562757855
 20
-34.8256262158975
 10
87.49546160845784
 20
-35.840056891553104
 10
91.94359424122376
 20
-25.66660649329424
 10
90.19924339751014
 20
-24.911203518509865
 10
94.42871180601651
 20
-15.260782080702484
 10
88.3029353072634
 20
-12.606030001305044
 10
89.89513052848633
 20
-8.966285570524633
 10
62.73462701012613
 20
2.785336180590093
 10
61.132353967113886
 20
-0.8656015982851386
 10
51.78467303776415
 20
3.18114619795233
 10
45.73441509518307
 20
-10.654330844990909
 10
49.469275768555235
 20
-12.262000276707113
 10
45.82715212152107
 20
-20.587789106182754
 10
51.43983729957836
 20
-23.015787881799042
 10
44.66288317571161
 20
-38.48760895431042
 10
41.69748429761967
 20
-37.20343347918242
 10
44.19521596876439
 20
-31.49336741771549
 10
33.708676904963795
 20
-26.961218614131212
  0
LWPOLYLINE
  5
50
330
17
100
AcDbEntity
  8
EQUIPAMENTOS
100
AcDbPolyline
 90
11
 70
1
 10
6.748390967666637
 20
17.398173599503934
 10
4.648550241894554
 20
12.611882045865059
 10
15.884294222167227
 20
7.744954342953861
 10
5.953130727051757
 20
-14.961748803965747
 10
3.48027744499268
 20
-13.893473716452718
 10
0.9825575781287625
 20
-19.603547384031117
 10
-21.17066447279649
 20
-10.021151708438993
 10
-16.96142760658404
 20
-0.3930744491517544
 10
-19.06486896291608
 20
0.5132777793332934
 10
-8.73521332826931
 20
24.088411373086274
 10
6.748390967666637
 20
17.398173599503934
  0
LWPOLYLINE
  5
51
330
17
100
AcDbEntity
  8
EQUIPAMENTOS
100
AcDbPolyline
 90
9
 70
1
 10
29.49612766498467
 20
21.057452301494777
 10
31.7850285161403
 20
26.277828839607537
 10
35.80726576136658
 20
24.540532855316997
 10
31.54820338630816
 20
14.801153736189008
 10
-1.7997159576043487
 20
29.228838386945426
 10
2.4594561076373793
 20
38.95715429633856
 10
11.21202463580994
 20
35.16946147289127
 10
8.933338234666735
 20
29.949197734706104
 10
29.49612766498467
 20
21.057452301494777
  0
LWPOLYLINE
  5
52
330
17
100
AcDbEntity
  8
EDIFICACAO
100
AcDbPolyline
 90
27
 70
1
 10
-120.9655488236458
 20
-143.4861757243052
 10
-121.35477527446346
 20
-130.84264695923775
 10
-108.10516143450513
 20
-100.11272095702589
 10
-103.74767505045747
 20
-90.0620608618483
 10
-89.29236882075202
 20
-56.715721792541444
 10
-88.3792277793982
 20
-57.10402100998908
 10
-87.4557515962515
 20
-57.5032777255401
 10
-82.71043959329836
 20
-46.540032288990915
 10
-71.68065179378027
 20
-51.25418619252741
 10
-72.87454408878693
 20
-54.0033890362829
 10
-64.60473004594678
 20
-57.54180646594614
 10
-56.33492026431486
 20
-61.08022834174335
 10
-55.14089942292776
 20
-58.3421008111909
 10
-44.121213280421216
 20
-63.06746467668563
 10
-48.86654689133866
 20
-74.03069639671594
 10
-47.95340814429801
 20
-74.41899801325053
 10
-47.0299342990038
 20
-74.81825715489686
 10
-61.485312473145314
 20
-108.16455047111958
 10
-65.83261164056603
 20
-118.21508039627224
 10
-79.0317525115679
 20
-148.90008713677526
 10
-88.06581755139632
 20
-157.13233776763082
 10
-94.66929890256142
 20
-158.24870419409126
 10
-101.28298832551809
 20
-159.3651900663972
 10
-107.5621337305638
 20
-156.69011939316988
 10
-113.80057235207641
 20
-154.00351179391146
 10
-117.38312248734292
 20
-148.73930646292865
 10
-120.9655488236458
 20
-143.4861757243052
  0
LWPOLYLINE
  5
53
330
17
100
AcDbEntity
  8
VIAS
100
AcDbPolyline
 90
9
 70
0
 10
-84.17926363396691
 20
-26.9646170521155
 10
-79.46029010921484
 20
-28.9154437975958
 10
-37.871975941350684
 20
-46.0953721459955
 10
-35.29976903257193
 20
-49.61014288198203
 10
-34.360349102760665
 20
-54.095996535383165
 10
-38.4387874896056
 20
-68.03087153937668
 10
-49.11288292700192
 20
-92.72856546100229
 10
-82.33020384452539
 20
-169.4491035779938
 10
-88.53791414847365
 20
-183.78483573161066
  0
LWPOLYLINE
  5
54
330
17
100
AcDbEntity
  8
VIAS
100
AcDbPolyline
 90
3
 70
0
 10
-45.41095323377522
 20
77.8617441682145
 10
-94.63438624149421
 20
90.33624233305454
 10
-136.45307311561191
 20
97.23555653635412
  0
LWPOLYLINE
  5
55
330
17
100
AcDbEntity
  8
VIAS
100
AcDbPolyline
 90
2
 70
0
 10
4.160328555328306
 20
-115.689607844688
 10
-1.5042996766860597
 20
-128.41319176461548
  0
LWPOLYLINE
  5
56
330
17
100
AcDbEntity
  8
VIAS
100
AcDbPolyline
 90
2
 70
0
 10
71.81445489596808
 20
96.66302349139005
 10
66.1842761648004
 20
29.803975532762706
  0
LWPOLYLINE
  5
57
330
17
100
AcDbEntity
  8
VIAS
100
AcDbPolyline
 90
5
 70
0
 10
101.1107445381931
 20
-158.21066141873598
 10
97.57052540651057
 20
-156.65614121593535
 10
91.3623789177509
 20
-153.93587815761566
 10
49.59820269566262
 20
-135.6168641941622
 10
4.160328555328306
 20
-115.689607844688
  0
LWPOLYLINE
  5
58
330
17
100
AcDbEntity
  8
EQUIPAMENTOS
100
AcDbPolyline
 90
20
 70
1
 10
-77.33788579009706
 20
-26.111354375258088
 10
-8.481643962964881
 20
129.97087142057717
 10
29.091962819627952
 20
99.55434094183147
 10
13.364239813934546
 20
45.21710068080574
 10
77.76109536498552
 20
20.987016242928803
 10
156.17300439690007
 20
49.08069478254765
 10
160.32420430594357
 20
27.940977309830487
 10
161.45326895272592
 20
14.862872148863971
 10
161.5514764652471
 20
2.6479776361957192
 10
158.9049876705394
 20
-10.628161153756082
 10
96.75744040549034
 20
-152.5011010961607
 10
1.6643748432397842
 20
-110.80062890704721
 10
-20.35688128543552
 20
-101.13921018596739
 10
-30.413106686843093
 20
-96.73510824795812
 10
-42.6448623596807
 20
-91.37010999117047
 10
-34.51482573192334
 20
-72.79281660076231
 10
-27.61861940129893
 20
-57.04271025490016
 10
-24.076364809414372
 20
-48.91739220637828
 10
-38.071542323275935
 20
-42.919043590314686
 10
-77.33788579009706
 20
-26.111354375258088
  0
LWPOLYLINE
  5
59
330
17
100
AcDbEntity
  8
VIAS
100
AcDbPolyline
 90
10
 70
0
 10
64.1980772036477
 20
-242.21614005137235
 10
71.83649075293215
 20
-224.397624486126
 10
92.94858380343067
 20
-176.66641049273312
 10
98.9904861797695
 20
-162.9971725931391
 10
101.1107445381931
 20
-158.21066141873598
 10
103.07182421180187
 20
-153.79144723061472
 10
108.98431034333771
 20
-140.4116459125653
 10
118.30123864213238
 20
-119.35114800464362
 10
137.21384498960106
 20
-76.59571359027177
 10
152.24026492174016
 20
-43.143473838455975
  0
LWPOLYLINE
  5
5A
330
17
100
AcDbEntity
  8
VIAS
100
AcDbPolyline
 90
3
 70
0
 10
33.784718577575404
 20
99.90683290082961
 10
29.3517563691712
 20
84.81612064503133
 10
18.59903374488931
 20
48.17846242990345
  0
LWPOLYLINE
  5
5B
330
17
100
AcDbEntity
  8
VIAS
100
AcDbPolyline
 90
3
 70
0
 10
-70.95972636161605
 20
4.628787596710026
 10
-82.45780386781553
 20
-23.024344568140805
 10
-84.17926363396691
 20
-26.9646170521155
  0
LWPOLYLINE
  5
5C
330
17
100
AcDbEntity
  8
EQUIPAMENTOS
100
AcDbPolyline
 90
9
 70
1
 10
-20.59786320355488
 20
-33.405596104450524
 10
-24.06085037131561
 20
-41.319579229690135
 10
-13.410073844424915
 20
-45.92734259273857
 10
-1.3695119019248523
 20
16.563632373698056
 10
-3.945091776724439
 20
17.686112402938306
 10
-11.169553901592735
 20
1.1680887443944812
 10
-9.969046077865642
 20
0.6501559671014547
 10
-24.189171227277257
 20
-31.85168469697237
 10
-20.59786320355488
 20
-33.405596104450524
  0
LWPOLYLINE
  5
5D
330
17
100
AcDbEntity
  8
VIAS
100
AcDbPolyline
 90
2
 70
0
 10
-8.011048830288928
 20
-18.85323327127844
 10
-18.076902346569113
 20
-14.504605596885085
  0
LWPOLYLINE
  5
5E
330
17
100
AcDbEntity
  8
VIAS
100
AcDbPolyline
 90
2
 70
0
 10
72.45491949643474
 20
-52.80146200861782
 10
42.264807754720096
 20
-40.39772293809801
  0
LWPOLYLINE
  5
5F
330
17
100
AcDbEntity
  8
VIAS
100
AcDbPolyline
 90
8
 70
0
 10
105.46463190380018
 20
-138.8679649392143
 10
87.02468505763682
 20
-130.77152238041162
 10
57.49214009457501
 20
-117.81758582685143
 10
45.14763635984855
 20
-112.4095009630546
 10
11.961966508475598
 20
-97.85812811832875
 10
15.23565570556093
 20
-90.35609524790198
 10
5.015588189533446
 20
-85.90953502152115
 10
-38.4387874896056
 20
-68.03087153937668
  0
LWPOLYLINE
  5
60
330
17
100
AcDbEntity
  8
VIAS
100
AcDbPolyline
 90
2
 70
0
 10
137.21384498960106
 20
-76.59571359027177
 10
98.74588587257313
 20
-59.93353631068021
  0
LWPOLYLINE
  5
61
330
17
100
AcDbEntity
  8
VIAS
100
AcDbPolyline
 90
4
 70
0
 10
42.264807754720096
 20
-40.39772293809801
 10
27.61464092892129
 20
-34.262796096503735
 10
19.919065194844734
 20
-30.93929020408541
 10
-8.011048830288928
 20
-18.85323327127844
  0
LWPOLYLINE
  5
62
330
17
100
AcDbEntity
  8
VIAS
100
AcDbPolyline
 90
2
 70
0
 10
-18.076902346569113
 20
-14.504605596885085
 10
-41.60496491327649
 20
-4.339842331595719
  0
LWPOLYLINE
  5
63
330
17
100
AcDbEntity
  8
VIAS
100
AcDbPolyline
 90
5
 70
0
 10
3.8145363319199532
 20
44.58775559347123
 10
-15.524596708943136
 20
52.718143455684185
 10
-8.262163278937805
 20
68.5942338341847
 10
3.5428085511666723
 20
94.42336702812463
 10
-11.563718353805598
 20
135.21865521091968
  0
LWPOLYLINE
  5
64
330
17
100
AcDbEntity
  8
VIAS
100
AcDbPolyline
 90
3
 70
0
 10
161.45326895272592
 20
14.862872148863971
 10
130.8497663482558
 20
13.351562273688614
 10
81.18420790549135
 20
10.892135000787675
  0
LWPOLYLINE
  5
65
330
17
100
AcDbEntity
  8
VIAS
100
AcDbPolyline
 90
2
 70
0
 10
45.0659232395119
 20
26.517725055105984
 10
19.919065194844734
 20
-30.93929020408541
  0
LWPOLYLINE
  5
66
330
17
100
AcDbEntity
  8
VIAS
100
AcDbPolyline
 90
6
 70
0
 10
130.8497663482558
 20
13.351562273688614
 10
98.74588587257313
 20
-59.93353631068021
 10
96.87515955988783
 20
-64.21881761495024
 10
83.0433155320934
 20
-95.86332688201219
 10
57.268228961213026
 20
-84.71616119798273
 10
45.14763635984855
 20
-112.4095009630546
  0
LWPOLYLINE
  5
67
330
17
100
AcDbEntity
  8
VIAS
100
AcDbPolyline
 90
3
 70
0
 10
-15.524596708943136
 20
52.718143455684185
 10
-27.22779816534603
 20
27.82047131564468
 10
-41.60496491327649
 20
-4.339842331595719
  0
LWPOLYLINE
  5
68
330
17
100
AcDbEntity
  8
VIAS
100
AcDbPolyline
 90
3
 70
0
 10
-8.262163278937805
 20
68.5942338341847
 10
-27.310520900879055
 20
73.60469585284591
 10
-35.36686246615136
 20
75.42890439089388
  0
LWPOLYLINE
  5
69
330
17
100
AcDbEntity
  8
VIAS
100
AcDbPolyline
 90
3
 70
0
 10
87.02468505763682
 20
-130.77152238041162
 10
99.36829269252485
 20
-102.9317029947415
 10
83.0433155320934
 20
-95.86332688201219
  0
LWPOLYLINE
  5
6A
330
17
100
AcDbEntity
  8
VIAS
100
AcDbPolyline
 90
2
 70
0
 10
11.961966508475598
 20
-97.85812811832875
 10
4.160328555328306
 20
-115.689607844688
  0
LWPOLYLINE
  5
6B
330
17
100
AcDbEntity
  8
VIAS
100
AcDbPolyline
 90
2
 70
0
 10
64.73608579306165
 20
18.003398003987968
 10
66.1842761648004
 20
29.803975532762706
  0
LWPOLYLINE
  5
6C
330
17
100
AcDbEntity
  8
EDIFICACAO
100
AcDbPolyline
 90
14
 70
1
 10
-75.43783096846892
 20
12.319355171173811
 10
-84.33229470980586
 20
14.222582765854895
 10
-83.79114230471896
 20
16.908968315459788
 10
-81.9656664384529
 20
26.055804549716413
 10
-79.18200120766414
 20
25.48947353940457
 10
-74.14667560107773
 20
24.45042282436043
 10
-73.36220757651608
 20
23.706246820278466
 10
-72.65223227877868
 20
23.227028156630695
 10
-72.0415698334109
 20
22.503021344542503
 10
-71.72608472924912
 20
21.698122757487
 10
-71.69733521522721
 20
20.967482462525368
 10
-72.75171696819598
 20
18.518903005868196
 10
-74.56241502141347
 20
14.345034374855459
 10
-75.43783096846892
 20
12.319355171173811
  0
LWPOLYLINE
  5
6D
330
17
100
AcDbEntity
  8
EDIFICACAO
100
AcDbPolyline
 90
22
 70
1
 10
-49.81913611741038
 20
71.35461888741702
 10
-50.7353955655708
 20
69.32847626786679
 10
-52.29870703310007
 20
65.84409802313894
 10
-53.97179258585675
 20
62.13696290832013
 10
-81.59523021348286
 20
73.27391727082431
 10
-89.9326530402177
 20
75.57112875301391
 10
-90.3403155496926
 20
71.92271630000323
 10
-90.74873526237207
 20
68.34074681345373
 10
-94.67405311722541
 20
68.73900673724711
 10
-91.89032355858944
 20
85.1842982461676
 10
-86.68721338931937
 20
83.75952864903957
 10
-81.62753587309271
 20
82.37742326501757
 10
-77.06961717101512
 20
81.12249969039112
 10
-71.94856123137288
 20
79.73001550044864
 10
-66.87855156726437
 20
78.33694771956652
 10
-61.93143008387415
 20
76.9757033335045
 10
-56.64640172623331
 20
75.52970667090267
 10
-51.934973654395435
 20
74.2432994749397
 10
-50.98842202936066
 20
73.61172231566161
 10
-50.48073266353458
 20
72.96406781394035
 10
-49.88834190508351
 20
72.05157218780369
 10
-49.81913611741038
 20
71.35461888741702
  0
LWPOLYLINE
  5
6E
330
17
100
AcDbEntity
  8
EDIFICACAO
100
AcDbPolyline
 90
17
 70
1
 10
-89.9326530402177
 20
75.57112875301391
 10
-81.59523021348286
 20
73.27391727082431
 10
-53.97179258585675
 20
62.13696290832013
 10
-54.93783370958408
 20
59.99949979316443
 10
-56.41140760568669
 20
56.704423383809626
 10
-57.89506358461222
 20
53.39815657492727
 10
-58.85102067794651
 20
51.271883309818804
 10
-67.82607214670861
 20
54.86872048396617
 10
-65.89891695673577
 20
59.57552812341601
 10
-75.2551177276182
 20
63.46704890858382
 10
-77.26268043060554
 20
58.648570540361106
 10
-77.6934792190441
 20
58.82086396496743
 10
-79.44974463927792
 20
55.245680446736515
 10
-88.48705165163847
 20
58.0333008216694
 10
-84.1548541788361
 20
69.41269329469651
 10
-90.3403155496926
 20
71.92271630000323
 10
-89.9326530402177
 20
75.57112875301391
  0
LWPOLYLINE
  5
6F
330
17
100
AcDbEntity
  8
EDIFICACAO
100
AcDbPolyline
 90
22
 70
1
 10
-67.447535919433
 20
37.78388994373381
 10
-70.87651637336239
 20
38.5311468411237
 10
-76.772180511849
 20
39.804047456011176
 10
-81.67492065328406
 20
40.855684387497604
 10
-86.80314359773183
 20
41.98227606434375
 10
-91.28630588651868
 20
42.950091011822224
 10
-95.89235578553053
 20
43.94972941465676
 10
-92.9906773523544
 20
54.52647170703858
 10
-79.72671134152915
 20
51.77596261817962
 10
-79.44974463927792
 20
55.245680446736515
 10
-77.6934792190441
 20
58.82086396496743
 10
-77.26268043060554
 20
58.648570540361106
 10
-72.30849514430156
 20
56.66719528939575
 10
-73.36887516884599
 20
51.161772419698536
 10
-69.66424817178631
 20
50.41765802912414
 10
-67.82607214670861
 20
54.86872048396617
 10
-58.85102067794651
 20
51.271883309818804
 10
-60.76293396682013
 20
47.01933652628213
 10
-63.67075410496909
 20
40.562533404678106
 10
-64.38423326372867
 20
39.55762608908117
 10
-65.5298833111301
 20
37.94972775038332
 10
-67.447535919433
 20
37.78388994373381
  0
LWPOLYLINE
  5
70
330
17
100
AcDbEntity
  8
EDIFICACAO
100
AcDbPolyline
 90
29
 70
1
 10
-45.230365863710176
 20
-106.39549969974905
 10
-44.334758923447225
 20
-106.14163538627326
 10
-43.51817257766379
 20
-106.12125255167484
 10
-37.624307770689484
 20
-109.03332327026874
 10
-32.890866919071414
 20
-111.36055725254118
 10
-26.432235603395384
 20
-114.5541524020955
 10
-30.31792655395111
 20
-122.1074729533866
 10
-30.697408378415275
 20
-122.85384129639715
 10
-36.60109652200481
 20
-119.97510602138937
 10
-37.05002091318602
 20
-120.8994704009965
 10
-40.99257805378875
 20
-118.98408378567547
 10
-41.711083876143675
 20
-120.44313413649797
 10
-40.70493209769484
 20
-120.9300532983616
 10
-42.10199138568714
 20
-123.77017174381763
 10
-43.07739012228558
 20
-123.29397743195295
 10
-43.73577812901931
 20
-124.65266522578895
 10
-35.42945196799701
 20
-128.71121773216873
 10
-34.361712555459235
 20
-126.53936979267746
 10
-32.94493392750155
 20
-127.2209642091766
 10
-29.78985301213106
 20
-129.02349984273314
 10
-32.570230408455245
 20
-135.01368572656065
 10
-35.81466614326928
 20
-133.4336746511981
 10
-37.19181204919005
 20
-136.2292646272108
 10
-54.93162168614799
 20
-126.862433639355
 10
-52.78052668325836
 20
-122.09769622143358
 10
-49.90223084384343
 20
-115.74090601410717
 10
-47.16332272300497
 20
-109.69581305142492
 10
-45.858647861809004
 20
-106.81244612764567
 10
-45.230365863710176
 20
-106.39549969974905
  0
LWPOLYLINE
  5
71
330
17
100
AcDbEntity
  8
EDIFICACAO
100
AcDbPolyline
 90
6
 70
1
 10
-26.432235603395384
 20
-114.5541524020955
 10
-22.704949819482863
 20
-116.3944693589583
 10
-19.737540563510265
 20
-117.8558126213029
 10
-23.603068450291175
 20
-125.38675090204924
 10
-30.31792655395111
 20
-122.1074729533866
 10
-26.432235603395384
 20
-114.5541524020955
  0
LWPOLYLINE
  5
72
330
17
100
AcDbEntity
  8
EDIFICACAO
100
AcDbPolyline
 90
15
 70
1
 10
31.824203581665643
 20
75.71826729737222
 10
32.73329319671029
 20
77.47851581405848
 10
34.031704702065326
 20
80.01846803445369
 10
34.730946596188005
 20
81.37761622201651
 10
38.00991188228363
 20
83.94013002607971
 10
41.45413267513504
 20
84.54420339595526
 10
45.102029859030154
 20
85.19489710219204
 10
48.29152975982288
 20
85.75176620204002
 10
49.51355220802361
 20
76.174505982548
 10
45.93950855411822
 20
76.21132098417729
 10
45.77442693465855
 20
60.2278315750882
 10
44.31226654263446
 20
60.41053054574877
 10
38.432871294615325
 20
61.15204992610961
 10
39.114613787445705
 20
73.0103512108326
 10
31.824203581665643
 20
75.71826729737222
  0
LWPOLYLINE
  5
73
330
17
100
AcDbEntity
  8
EDIFICACAO
100
AcDbPolyline
 90
13
 70
1
 10
47.27051416184986
 20
44.517995700240135
 10
48.3038346375688
 20
50.610087540932
 10
59.52569140546257
 20
49.65253611840308
 10
59.130102158582304
 20
44.94104233663529
 10
58.5971053330577
 20
43.329057776369154
 10
57.395856205374
 20
42.11924631614238
 10
56.746137770300265
 20
41.790662984363735
 10
55.68780685204547
 20
41.47957581374794
 10
54.33756915840786
 20
41.696776310913265
 10
53.385608800977934
 20
41.907438108697534
 10
52.421168884728104
 20
42.317312482744455
 10
49.661196600005496
 20
43.49307787697762
 10
47.27051416184986
 20
44.517995700240135
  0
LWPOLYLINE
  5
74
330
17
100
AcDbEntity
  8
EDIFICACAO
100
AcDbPolyline
 90
11
 70
1
 10
103.59663232270395
 20
67.31003364082426
 10
104.80828391283285
 20
80.16006051190197
 10
113.66719632374588
 20
81.37953629437834
 10
113.15483135118848
 20
86.02531240042299
 10
117.07736604748061
 20
86.76771717332304
 10
118.07737584720599
 20
80.54373095929623
 10
119.9538522522198
 20
73.56553113739938
 10
113.24363114946755
 20
71.94966515619308
 10
112.82570958015276
 20
68.30114513728768
 10
107.92122730135452
 20
66.81659018527716
 10
103.59663232270395
 20
67.31003364082426
  0
LWPOLYLINE
  5
75
330
17
100
AcDbEntity
  8
EDIFICACAO
100
AcDbPolyline
 90
19
 70
1
 10
126.42510265036253
 20
45.951057177037
 10
103.43560723395785
 20
36.61864575278014
 10
106.22227198438486
 20
61.79122541565448
 10
111.81543133821106
 20
61.07964557688683
 10
110.60502336203353
 20
50.8101697107777
 10
116.96988894516835
 20
53.16414789762348
 10
113.4527649860247
 20
64.34334118198603
 10
120.15428251365665
 20
66.72330131474882
 10
122.48386205430143
 20
59.40692720096558
 10
126.97040365374414
 20
60.83134253881872
 10
128.1782340814243
 20
56.979828065261245
 10
142.32551491149934
 20
62.73390298895538
 10
141.2746081572841
 20
65.35785092506558
 10
148.84377043374116
 20
67.75875062588602
 10
149.7538950413582
 20
64.04782403726131
 10
150.65381024585804
 20
60.33678118418902
 10
151.07150182506302
 20
58.624870812520385
 10
149.41475134453503
 20
55.27235681284219
 10
126.42510265036253
 20
45.951057177037
  0
LWPOLYLINE
  5
76
330
17
100
AcDbEntity
  8
EDIFICACAO
100
AcDbPolyline
 90
13
 70
1
 10
25.511501730361488
 20
63.408180999569595
 10
26.660055329673924
 20
65.65846988651901
 10
29.027365282236133
 20
70.27059973496944
 10
30.63556911156047
 20
73.4010707475245
 10
31.824203581665643
 20
75.71826729737222
 10
39.114613787445705
 20
73.0103512108326
 10
38.432871294615325
 20
61.15204992610961
 10
36.78669599548448
 20
61.354802451096475
 10
36.3238040182041
 20
57.174153722822666
 10
35.481450041232165
 20
49.55584941338748
 10
23.52731703122845
 20
50.261384014971554
 10
24.599940532294568
 20
57.38392579741776
 10
25.511501730361488
 20
63.408180999569595
  0
LWPOLYLINE
  5
77
330
17
100
AcDbEntity
  8
EDIFICACAO
100
AcDbPolyline
 90
13
 70
1
 10
45.77442693465855
 20
60.2278315750882
 10
49.700871276611
 20
59.729869895614684
 10
49.34686062851688
 20
56.74659082200378
 10
48.3038346375688
 20
50.610087540932
 10
47.27051416184986
 20
44.517995700240135
 10
43.93593510700157
 20
45.94194575306028
 10
40.40637496783165
 20
47.452276073396206
 10
38.19012739992468
 20
48.40165272913873
 10
35.481450041232165
 20
49.55584941338748
 10
36.3238040182041
 20
57.174153722822666
 10
43.2738919914118
 20
55.65848808642477
 10
44.31226654263446
 20
60.41053054574877
 10
45.77442693465855
 20
60.2278315750882
  0
LWPOLYLINE
  5
78
330
17
100
AcDbEntity
  8
VIAS
100
AcDbPolyline
 90
2
 70
0
 10
-27.22779816534603
 20
27.82047131564468
 10
-51.71555095695658
 20
36.180092179216444
  0
LWPOLYLINE
  5
79
330
17
100
AcDbEntity
  8
VIAS
100
AcDbPolyline
 90
6
 70
0
 10
-14.767972997855395
 20
144.02020738460124
 10
-18.841969968692865
 20
130.58378417603672
 10
-22.532191063044593
 20
118.41431311145425
 10
-39.02145780803403
 20
76.26220013108104
 10
-55.978149360686075
 20
37.5048403237015
 10
-59.84910410892917
 20
28.655876240693033
  0
LWPOLYLINE
  5
7A
330
17
100
AcDbEntity
  8
VIAS
100
AcDbPolyline
 90
7
 70
0
 10
18.59903374488931
 20
48.17846242990345
 10
26.66066034027608
 20
44.992028028704226
 10
66.1842761648004
 20
29.803975532762706
 10
77.35396242159186
 20
25.357108985073864
 10
85.82086272159358
 20
26.9265479715541
 10
152.52598717802903
 20
51.94089602213353
 10
160.34091470058775
 20
55.175232463516295
  0
LWPOLYLINE
  5
7B
330
17
100
AcDbEntity
  8
VIAS
100
AcDbPolyline
 90
3
 70
0
 10
4.160328555328306
 20
-115.689607844688
 10
-26.849860126327258
 20
-102.0992306387052
 10
-49.11288292700192
 20
-92.72856546100229
  0
LWPOLYLINE
  5
7C
330
17
100
AcDbEntity
  8
VIAS
100
AcDbPolyline
 90
2
 70
0
 10
27.61464092892129
 20
-34.262796096503735
 10
5.015588189533446
 20
-85.90953502152115
  0
LWPOLYLINE
  5
7D
330
17
100
AcDbEntity
  8
VIAS
100
AcDbPolyline
 90
2
 70
0
 10
96.87515955988783
 20
-64.21881761495024
 10
72.45491949643474
 20
-52.80146200861782
  0
LWPOLYLINE
  5
7E
330
17
100
AcDbEntity
  8
VIAS
100
AcDbPolyline
 90
3
 70
0
 10
26.66066034027608
 20
44.992028028704226
 10
22.820408037805464
 20
36.13236409518868
 10
19.765349587774836
 20
29.153364858590066
  0
LWPOLYLINE
  5
7F
330
17
100
AcDbEntity
  8
VIAS
100
AcDbPolyline
 90
2
 70
0
 10
-26.849860126327258
 20
-102.0992306387052
 10
-20.42930333962431
 20
-87.61712862085551
  0
LWPOLYLINE
  5
80
330
17
100
AcDbEntity
  8
VIAS
100
AcDbPolyline
 90
2
 70
0
 10
-59.84910410892917
 20
28.655876240693033
 10
-70.95972636161605
 20
4.628787596710026
  0
LWPOLYLINE
  5
81
330
17
100
AcDbEntity
  8
VIAS
100
AcDbPolyline
 90
5
 70
0
 10
81.18420790549135
 20
10.892135000787675
 10
64.73608579306165
 20
18.003398003987968
 10
45.0659232395119
 20
26.517725055105984
 10
22.820408037805464
 20
36.13236409518868
 10
3.8145363319199532
 20
44.58775559347123
  0
LWPOLYLINE
  5
82
330
17
100
AcDbEntity
  8
EDIFICACAO
100
AcDbPolyline
 90
5
 70
1
 10
-18.59072140889475
 20
-59.907996780239046
 10
-20.886390331143048
 20
-65.42749344371259
 10
-12.689952632354107
 20
-68.80064602475613
 10
-10.394281347456854
 20
-63.28115077782422
 10
-18.59072140889475
 20
-59.907996780239046
  0
LWPOLYLINE
  5
83
330
17
100
AcDbEntity
  8
VIAS
100
AcDbPolyline
 90
4
 70
0
 10
-159.4105970322271
 20
49.29467540513724
 10
-146.49473581713391
 20
46.62885816954076
 10
-72.47932883759495
 20
31.34717428777367
 10
-59.84910410892917
 20
28.655876240693033
  0
LWPOLYLINE
  5
84
330
17
100
AcDbEntity
  8
VIAS
100
AcDbPolyline
 90
68
 70
0
 10
-341.22883631195873
 20
298.13045688252896
 10
-403.8581664529629
 20
170.10487984959036
 10
-404.5095812669606
 20
168.13711361866444
 10
-405.59451330913
 20
164.79106006678194
 10
-405.61905294604367
 20
160.6818474754691
 10
-404.98876349505736
 20
158.24140740651637
 10
-403.78846362925833
 20
154.1683348538354
 10
-402.56777434027754
 20
128.64265954028815
 10
-401.5382014995557
 20
107.33448621165007
 10
-400.72874008561485
 20
106.19190133083612
 10
-399.1774316417868
 20
105.3568221591413
 10
-371.10803669824963
 20
99.01006248313934
 10
-355.9719091214356
 20
95.94891737774014
 10
-350.90603249141714
 20
94.92138285562396
 10
-324.14410702930763
 20
89.5120817059651
 10
-286.1041509388597
 20
81.80597478803247
 10
-280.64945722330594
 20
80.7053275341168
 10
-169.16558697255095
 20
57.711377940140665
 10
-157.774649644678
 20
55.360435128211975
 10
-145.13430088327732
 20
52.68039881531149
 10
-70.99156077363295
 20
36.979297226294875
 10
-67.08174747327575
 20
36.14891922939569
 10
-64.70910776295932
 20
36.70757787954062
 10
-63.104794276412576
 20
37.49005891941488
 10
-61.66484992188634
 20
39.25636542122811
 10
-49.56473606376676
 20
67.84665747638792
 10
-45.41095323377522
 20
77.8617441682145
 10
-31.27055256953463
 20
111.990752925165
 10
-26.93233715533279
 20
130.0153535241261
 10
-22.55567060044268
 20
148.25081995129585
 10
-20.283750673290342
 20
151.37778446730226
 10
-19.038759118237067
 20
152.33336923178285
 10
-11.227660803007893
 20
151.42560179624707
 10
-9.412714857026003
 20
151.64563715830445
 10
7.931238261284307
 20
153.7481986992061
 10
42.1141840313212
 20
164.63696720078588
 10
48.07198935042834
 20
166.87558280024678
 10
48.50453949562507
 20
168.3424446862191
 10
47.867018768854905
 20
170.52808539941907
 10
33.122209462861065
 20
206.46549145691097
 10
29.85609368700534
 20
214.4246270051226
 10
26.055441377975512
 20
222.69885539542884
 10
22.209505541191902
 20
234.05149086285383
 10
21.500188663660083
 20
243.43523514270782
 10
21.103603901166935
 20
274.66296411212534
 10
20.859529384644702
 20
293.3995312182233
 10
16.367240265302826
 20
317.5699588889256
 10
-2.105062519025523
 20
426.14076055958867
 10
-3.9232176964287646
 20
439.6429439717904
 10
-15.367791836324614
 20
524.6481074942276
 10
-22.685898077732418
 20
570.0951373446733
 10
-67.84327207313618
 20
651.227426010184
 10
-72.93939850112656
 20
658.4790240162984
 10
-101.43621941207675
 20
673.5820815246552
 10
-111.603002507356
 20
676.8884518770501
 10
-114.56246719905175
 20
675.846867623739
 10
-118.64784379355842
 20
673.2529859663919
 10
-121.98046510649147
 20
669.1171468421817
 10
-137.42133092007134
 20
649.603700010106
 10
-183.50108938483754
 20
593.0706349788234
 10
-192.43307883810485
 20
583.012100206688
 10
-201.9127838369459
 20
570.843010163866
 10
-204.87152559467359
 20
567.0547461090609
 10
-208.82720509177307
 20
561.1508082682267
 10
-254.8404815151007
 20
468.41315191145986
 10
-263.1047671744018
 20
451.750241198577
 10
-317.72117966465885
 20
343.48628664109856
 10
-322.01296091626864
 20
335.72890041116625
  0
LWPOLYLINE
  5
85
330
17
100
AcDbEntity
  8
VIAS
100
AcDbPolyline
 90
19
 70
0
 10
-154.18679982004687
 20
41.57940864376724
 10
-152.52790851367172
 20
42.05241447221488
 10
-147.7382180924178
 20
41.06596324313432
 10
-73.9379834253923
 20
25.84828623663634
 10
-71.25666112167528
 20
25.302937627770007
 10
-69.66667622007662
 20
23.75944886635989
 10
-69.70508193963906
 20
21.754386668093503
 10
-97.39805278478889
 20
-42.498881035484374
 10
-99.27792501804652
 20
-46.87289772182703
 10
-100.47450052987551
 20
-47.59535830933601
 10
-102.89945105084917
 20
-47.14677023794502
 10
-104.87811196933035
 20
-46.438362611457705
 10
-168.10374294262147
 20
-23.746258297003806
 10
-169.41604878817452
 20
-23.27391452062875
 10
-171.10307749238564
 20
-22.17455419059843
 10
-171.5139849773259
 20
-21.060637992806733
 10
-170.6823476785794
 20
-17.883622216060758
 10
-155.27952223009197
 20
40.703074536286294
 10
-154.18679982004687
 20
41.57940864376724
  0
LWPOLYLINE
  5
86
330
17
100
AcDbEntity
  8
VIAS
100
AcDbPolyline
 90
3
 70
0
 10
-70.99156077363295
 20
36.979297226294875
 10
-72.47932883759495
 20
31.34717428777367
 10
-73.9379834253923
 20
25.84828623663634
  0
LWPOLYLINE
  5
87
330
17
100
AcDbEntity
  8
VIAS
100
AcDbPolyline
 90
3
 70
0
 10
-35.36686246615136
 20
75.42890439089388
 10
-39.02145780803403
 20
76.26220013108104
 10
-45.41095323377522
 20
77.8617441682145
  0
LWPOLYLINE
  5
88
330
17
100
AcDbEntity
  8
VIAS
100
AcDbPolyline
 90
3
 70
0
 10
-61.66484992188634
 20
39.25636542122811
 10
-55.978149360686075
 20
37.5048403237015
 10
-51.71555095695658
 20
36.180092179216444
  0
LWPOLYLINE
  5
89
330
17
100
AcDbEntity
  8
VIAS
100
AcDbPolyline
 90
28
 70
0
 10
117.49985991994618
 20
-111.74049132596701
 10
105.46463190380018
 20
-138.8679649392143
 10
97.57052540651057
 20
-156.65614121593535
 10
89.45184480043827
 20
-174.44688125420362
 10
67.88286740507465
 20
-220.610616969876
 10
65.97963793284725
 20
-222.93595281708986
 10
63.724020094261505
 20
-225.69723863434047
 10
59.45889677206287
 20
-227.72829803917557
 10
53.26519129454391
 20
-229.85885613784194
 10
52.49889927043114
 20
-229.8122094841674
 10
48.504350278002676
 20
-229.60298533178866
 10
37.79777128639398
 20
-225.4609840027988
 10
-8.165943449537735
 20
-204.166439617984
 10
-18.237101101491135
 20
-199.34164388570935
 10
-30.36139411170734
 20
-193.54348074831069
 10
-59.989621099084616
 20
-179.36151665821671
 10
-72.24262432713294
 20
-173.91926201898605
 10
-82.33020384452539
 20
-169.4491035779938
 10
-102.39270612125983
 20
-160.5407475605607
 10
-115.35078664828325
 20
-155.05119002331048
 10
-119.04972274857573
 20
-153.01121813151985
 10
-121.54769435268827
 20
-149.73927108291537
 10
-124.68562381033553
 20
-143.17418946698308
 10
-123.12554627424106
 20
-132.24724987056106
 10
-122.16245418827748
 20
-128.95798487588763
 10
-90.83492932101944
 20
-56.644706391729414
 10
-86.69193023833213
 20
-46.585423779673874
 10
-79.46029010921484
 20
-28.9154437975958
  0
ENDSEC
  0
SECTION
  2
OBJECTS
  0
DICTIONARY
  5
A
330
0
100
AcDbDictionary
281
1
  3
ACAD_COLOR
350
B
  3
ACAD_GROUP
350
C
  3
ACAD_LAYOUT
350
D
  3
ACAD_MATERIAL
350
E
  3
ACAD_MLEADERSTYLE
350
F
  3
ACAD_MLINESTYLE
350
10
  3
ACAD_PLOTSETTINGS
350
11
  3
ACAD_PLOTSTYLENAME
350
12
  3
ACAD_SCALELIST
350
14
  3
ACAD_TABLESTYLE
350
15
  3
ACAD_VISUALSTYLE
350
16
  3
EZDXF_META
350
2D
  0
DICTIONARY
  5
B
330
A
100
AcDbDictionary
281
1
  0
DICTIONARY
  5
C
330
A
100
AcDbDictionary
281
1
  0
DICTIONARY
  5
D
330
A
100
AcDbDictionary
281
1
  3
Model
350
1A
  3
Layout1
350
1E
  0
DICTIONARY
  5
E
330
A
100
AcDbDictionary
281
1
  3
ByBlock
350
1F
  3
ByLayer
350
20
  3
Global
350
21
  0
DICTIONARY
  5
F
330
A
100
AcDbDictionary
281
1
  3
Standard
350
2C
  0
DICTIONARY
  5
10
330
A
100
AcDbDictionary
281
1
  3
Standard
350
22
  0
DICTIONARY
  5
11
330
A
100
AcDbDictionary
281
1
  0
ACDBDICTIONARYWDFLT
  5
12
330
A
100
AcDbDictionary
281
1
  3
Normal
350
13
100
AcDbDictionaryWithDefault
340
13
  0
ACDBPLACEHOLDER
  5
13
330
12
  0
DICTIONARY
  5
14
330
A
100
AcDbDictionary
281
1
  0
DICTIONARY
  5
15
330
A
100
AcDbDictionary
281
1
  0
DICTIONARY
  5
16
330
A
100
AcDbDictionary
281
1
  0
LAYOUT
  5
1A
330
D
100
AcDbPlotSettings
  1

  4
A3
  6

 40
7.5
 41
20.0
 42
7.5
 43
20.0
 44
420.0
 45
297.0
 46
0.0
 47
0.0
 48
0.0
 49
0.0
140
0.0
141
0.0
142
1.0
143
1.0
 70
1024
 72
1
 73
0
 74
5
  7

 75
16
 76
0
 77
2
 78
300
147
1.0
148
0.0
149
0.0
100
AcDbLayout
  1
Model
 70
1
 71
0
 10
0.0
 20
0.0
 11
420.0
 21
297.0
 12
0.0
 22
0.0
 32
0.0
 14
1e+20
 24
1e+20
 34
1e+20
 15
-1e+20
 25
-1e+20
 35
-1e+20
146
0.0
 13
0.0
 23
0.0
 33
0.0
 16
1.0
 26
0.0
 36
0.0
 17
0.0
 27
1.0
 37
0.0
 76
1
330
17
  0
LAYOUT
  5
1E
330
D
100
AcDbPlotSettings
  1

  4
A3
  6

 40
7.5
 41
20.0
 42
7.5
 43
20.0
 44
420.0
 45
297.0
 46
0.0
 47
0.0
 48
0.0
 49
0.0
140
0.0
141
0.0
142
1.0
143
1.0
 70
0
 72
1
 73
0
 74
5
  7

 75
16
 76
0
 77
2
 78
300
147
1.0
148
0.0
149
0.0
100
AcDbLayout
  1
Layout1
 70
1
 71
1
 10
0.0
 20
0.0
 11
420.0
 21
297.0
 12
0.0
 22
0.0
 32
0.0
 14
1e+20
 24
1e+20
 34
1e+20
 15
-1e+20
 25
-1e+20
 35
-1e+20
146
0.0
 13
0.0
 23
0.0
 33
0.0
 16
1.0
 26
0.0
 36
0.0
 17
0.0
 27
1.0
 37
0.0
 76
1
330
1B
  0
MATERIAL
  5
1F
102
{ACAD_REACTORS
330
E
102
}
330
E
100
AcDbMaterial
  1
ByBlock
  2

 70
0
 40
1.0
 71
1
 41
1.0
 91
-1023410177
 42
1.0
 72
1
  3

 73
1
 74
1
 75
1
 44
0.5
 73
0
 45
1.0
 46
1.0
 77
1
  4

 78
1
 79
1
170
1
 48
1.0
171
1
  6

172
1
173
1
174
1
140
1.0
141
1.0
175
1
  7

176
1
177
1
178
1
143
1.0
179
1
  8

270
1
271
1
272
1
145
1.0
146
1.0
273
1
  9

274
1
275
1
276
1
 42
1.0
 72
1
  3

 73
1
 74
1
 75
1
 94
63
  0
MATERIAL
  5
20
102
{ACAD_REACTORS
330
E
102
}
330
E
100
AcDbMaterial
  1
ByLayer
  2

 70
0
 40
1.0
 71
1
 41
1.0
 91
-1023410177
 42
1.0
 72
1
  3

 73
1
 74
1
 75
1
 44
0.5
 73
0
 45
1.0
 46
1.0
 77
1
  4

 78
1
 79
1
170
1
 48
1.0
171
1
  6

172
1
173
1
174
1
140
1.0
141
1.0
175
1
  7

176
1
177
1
178
1
143
1.0
179
1
  8

270
1
271
1
272
1
145
1.0
146
1.0
273
1
  9

274
1
275
1
276
1
 42
1.0
 72
1
  3

 73
1
 74
1
 75
1
 94
63
  0
MATERIAL
  5
21
102
{ACAD_REACTORS
330
E
102
}
330
E
100
AcDbMaterial
  1
Global
  2

 70
0
 40
1.0
 71
1
 41
1.0
 91
-1023410177
 42
1.0
 72
1
  3

 73
1
 74
1
 75
1
 44
0.5
 73
0
 45
1.0
 46
1.0
 77
1
  4

 78
1
 79
1
170
1
 48
1.0
171
1
  6

172
1
173
1
174
1
140
1.0
141
1.0
175
1
  7

176
1
177
1
178
1
143
1.0
179
1
  8

270
1
271
1
272
1
145
1.0
146
1.0
273
1
  9

274
1
275
1
276
1
 42
1.0
 72
1
  3

 73
1
 74
1
 75
1
 94
63
  0
MLINESTYLE
  5
22
102
{ACAD_REACTORS
330
10
102
}
330
10
100
AcDbMlineStyle
  2
Standard
 70
0
  3

 62
256
 51
90.0
 52
90.0
 71
2
 49
0.5
 62
256
  6
BYLAYER
 49
-0.5
 62
256
  6
BYLAYER
  0
MLEADERSTYLE
  5
2C
102
{ACAD_REACTORS
330
F
102
}
330
F
100
AcDbMLeaderStyle
179
2
170
2
171
1
172
0
 90
2
 40
0.0
 41
0.0
173
1
 91
-1056964608
 92
-2
290
1
 42
2.0
291
1
 43
8.0
  3
Standard
 44
4.0
300

342
29
174
1
175
1
176
0
178
1
 93
-1056964608
 45
4.0
292
0
297
0
 46
4.0
 94
-1056964608
 47
1.0
 49
1.0
140
1.0
294
1
141
0.0
177
0
142
1.0
295
0
296
0
143
3.75
271
0
272
9
273
9
  0
DICTIONARY
  5
2D
330
A
100
AcDbDictionary
280
1
281
1
  3
CREATED_BY_EZDXF
350
2E
  3
WRITTEN_BY_EZDXF
350
8C
  0
DICTIONARYVAR
  5
2E
330
2D
100
DictionaryVariables
280
0
  1
1.4.3 @ 2026-02-14T09:14:05.294286+00:00
  0
DICTIONARYVAR
  5
8C
330
2D
100
DictionaryVariables
280
0
  1
1.4.3 @ 2026-02-14T09:14:05.327820+00:00
  0
ENDSEC
  0
EOF
