  0
SECTION
  2
HEADER
  9
$ACADVER
  1
AC1027
  9
$ACADMAINTVER
 70
105
  9
$DWGCODEPAGE
  3
ANSI_1252
  9
$LASTSAVEDBY
  1
ezdxf
  9
$REQUIREDVERSIONS
160
0
  9
$INSBASE
 10
0.0
 20
0.0
 30
0.0
  9
$EXTMIN
 10
1e+20
 20
1e+20
 30
1e+20
  9
$EXTMAX
 10
-1e+20
 20
-1e+20
 30
-1e+20
  9
$LIMMIN
 10
0.0
 20
0.0
  9
$LIMMAX
 10
420.0
 20
297.0
  9
$ORTHOMODE
 70
0
  9
$REGENMODE
 70
1
  9
$FILLMODE
 70
1
  9
$QTEXTMODE
 70
0
  9
$MIRRTEXT
 70
1
  9
$LTSCALE
 40
1.0
  9
$ATTMODE
 70
1
  9
$TEXTSIZE
 40
2.5
  9
$TRACEWID
 40
1.0
  9
$TEXTSTYLE
  7
Standard
  9
$CLAYER
  8
0
  9
$CELTYPE
  6
ByLayer
  9
$CECOLOR
 62
256
  9
$CELTSCALE
 40
1.0
  9
$DISPSILH
 70
0
  9
$DIMSCALE
 40
1.0
  9
$DIMASZ
 40
2.5
  9
$DIMEXO
 40
0.625
  9
$DIMDLI
 40
3.75
  9
$DIMRND
 40
0.0
  9
$DIMDLE
 40
0.0
  9
$DIMEXE
 40
1.25
  9
$DIMTP
 40
0.0
  9
$DIMTM
 40
0.0
  9
$DIMTXT
 40
2.5
  9
$DIMCEN
 40
2.5
  9
$DIMTSZ
 40
0.0
  9
$DIMTOL
 70
0
  9
$DIMLIM
 70
0
  9
$DIMTIH
 70
0
  9
$DIMTOH
 70
0
  9
$DIMSE1
 70
0
  9
$DIMSE2
 70
0
  9
$DIMTAD
 70
1
  9
$DIMZIN
 70
8
  9
$DIMBLK
  1

  9
$DIMASO
 70
1
  9
$DIMSHO
 70
1
  9
$DIMPOST
  1

  9
$DIMAPOST
  1

  9
$DIMALT
 70
0
  9
$DIMALTD
 70
3
  9
$DIMALTF
 40
0.03937007874
  9
$DIMLFAC
 40
1.0
  9
$DIMTOFL
 70
1
  9
$DIMTVP
 40
0.0
  9
$DIMTIX
 70
0
  9
$DIMSOXD
 70
0
  9
$DIMSAH
 70
0
  9
$DIMBLK1
  1

  9
$DIMBLK2
  1

  9
$DIMSTYLE
  2
ISO-25
  9
$DIMCLRD
 70
0
  9
$DIMCLRE
 70
0
  9
$DIMCLRT
 70
0
  9
$DIMTFAC
 40
1.0
  9
$DIMGAP
 40
0.625
  9
$DIMJUST
 70
0
  9
$DIMSD1
 70
0
  9
$DIMSD2
 70
0
  9
$DIMTOLJ
 70
0
  9
$DIMTZIN
 70
8
  9
$DIMALTZ
 70
0
  9
$DIMALTTZ
 70
0
  9
$DIMUPT
 70
0
  9
$DIMDEC
 70
2
  9
$DIMTDEC
 70
2
  9
$DIMALTU
 70
2
  9
$DIMALTTD
 70
3
  9
$DIMTXSTY
  7
Standard
  9
$DIMAUNIT
 70
0
  9
$DIMADEC
 70
0
  9
$DIMALTRND
 40
0.0
  9
$DIMAZIN
 70
0
  9
$DIMDSEP
 70
44
  9
$DIMATFIT
 70
3
  9
$DIMFRAC
 70
0
  9
$DIMLDRBLK
  1

  9
$DIMLUNIT
 70
2
  9
$DIMLWD
 70
-2
  9
$DIMLWE
 70
-2
  9
$DIMTMOVE
 70
0
  9
$DIMFXL
 40
1.0
  9
$DIMFXLON
 70
0
  9
$DIMJOGANG
 40
0.785398163397
  9
$DIMTFILL
 70
0
  9
$DIMTFILLCLR
 70
0
  9
$DIMARCSYM
 70
0
  9
$DIMLTYPE
  6

  9
$DIMLTEX1
  6

  9
$DIMLTEX2
  6

  9
$DIMTXTDIRECTION
 70
0
  9
$LUNITS
 70
2
  9
$LUPREC
 70
4
  9
$SKETCHINC
 40
1.0
  9
$FILLETRAD
 40
10.0
  9
$AUNITS
 70
0
  9
$AUPREC
 70
2
  9
$MENU
  1
.
  9
$ELEVATION
 40
0.0
  9
$PELEVATION
 40
0.0
  9
$THICKNESS
 40
0.0
  9
$LIMCHECK
 70
0
  9
$CHAMFERA
 40
0.0
  9
$CHAMFERB
 40
0.0
  9
$CHAMFERC
 40
0.0
  9
$CHAMFERD
 40
0.0
  9
$SKPOLY
 70
0
  9
$TDCREATE
 40
2461087.935034722
  9
$TDUCREATE
 40
2458532.153996898
  9
$TDUPDATE
 40
2461087.935034722
  9
$TDUUPDATE
 40
2458532.1544311
  9
$TDINDWG
 40
0.0
  9
$TDUSRTIMER
 40
0.0
  9
$USRTIMER
 70
1
  9
$ANGBASE
 50
0.0
  9
$ANGDIR
 70
0
  9
$PDMODE
 70
0
  9
$PDSIZE
 40
0.0
  9
$PLINEWID
 40
0.0
  9
$SPLFRAME
 70
0
  9
$SPLINETYPE
 70
6
  9
$SPLINESEGS
 70
8
  9
$HANDSEED
  5
107
  9
$SURFTAB1
 70
6
  9
$SURFTAB2
 70
6
  9
$SURFTYPE
 70
6
  9
$SURFU
 70
6
  9
$SURFV
 70
6
  9
$UCSBASE
  2

  9
$UCSNAME
  2

  9
$UCSORG
 10
0.0
 20
0.0
 30
0.0
  9
$UCSXDIR
 10
1.0
 20
0.0
 30
0.0
  9
$UCSYDIR
 10
0.0
 20
1.0
 30
0.0
  9
$UCSORTHOREF
  2

  9
$UCSORTHOVIEW
 70
0
  9
$UCSORGTOP
 10
0.0
 20
0.0
 30
0.0
  9
$UCSORGBOTTOM
 10
0.0
 20
0.0
 30
0.0
  9
$UCSORGLEFT
 10
0.0
 20
0.0
 30
0.0
  9
$UCSORGRIGHT
 10
0.0
 20
0.0
 30
0.0
  9
$UCSORGFRONT
 10
0.0
 20
0.0
 30
0.0
  9
$UCSORGBACK
 10
0.0
 20
0.0
 30
0.0
  9
$PUCSBASE
  2

  9
$PUCSNAME
  2

  9
$PUCSORG
 10
0.0
 20
0.0
 30
0.0
  9
$PUCSXDIR
 10
1.0
 20
0.0
 30
0.0
  9
$PUCSYDIR
 10
0.0
 20
1.0
 30
0.0
  9
$PUCSORTHOREF
  2

  9
$PUCSORTHOVIEW
 70
0
  9
$PUCSORGTOP
 10
0.0
 20
0.0
 30
0.0
  9
$PUCSORGBOTTOM
 10
0.0
 20
0.0
 30
0.0
  9
$PUCSORGLEFT
 10
0.0
 20
0.0
 30
0.0
  9
$PUCSORGRIGHT
 10
0.0
 20
0.0
 30
0.0
  9
$PUCSORGFRONT
 10
0.0
 20
0.0
 30
0.0
  9
$PUCSORGBACK
 10
0.0
 20
0.0
 30
0.0
  9
$USERI1
 70
0
  9
$USERI2
 70
0
  9
$USERI3
 70
0
  9
$USERI4
 70
0
  9
$USERI5
 70
0
  9
$USERR1
 40
0.0
  9
$USERR2
 40
0.0
  9
$USERR3
 40
0.0
  9
$USERR4
 40
0.0
  9
$USERR5
 40
0.0
  9
$WORLDVIEW
 70
1
  9
$SHADEDGE
 70
3
  9
$SHADEDIF
 70
70
  9
$TILEMODE
 70
1
  9
$MAXACTVP
 70
64
  9
$PINSBASE
 10
0.0
 20
0.0
 30
0.0
  9
$PLIMCHECK
 70
0
  9
$PEXTMIN
 10
1e+20
 20
1e+20
 30
1e+20
  9
$PEXTMAX
 10
-1e+20
 20
-1e+20
 30
-1e+20
  9
$PLIMMIN
 10
0.0
 20
0.0
  9
$PLIMMAX
 10
420.0
 20
297.0
  9
$UNITMODE
 70
0
  9
$VISRETAIN
 70
1
  9
$PLINEGEN
 70
0
  9
$PSLTSCALE
 70
1
  9
$TREEDEPTH
 70
3020
  9
$CMLSTYLE
  2
Standard
  9
$CMLJUST
 70
0
  9
$CMLSCALE
 40
20.0
  9
$PROXYGRAPHICS
 70
1
  9
$MEASUREMENT
 70
1
  9
$CELWEIGHT
370
-1
  9
$ENDCAPS
280
0
  9
$JOINSTYLE
280
0
  9
$LWDISPLAY
290
0
  9
$INSUNITS
 70
6
  9
$HYPERLINKBASE
  1

  9
$STYLESHEET
  1

  9
$XEDIT
290
1
  9
$CEPSNTYPE
380
0
  9
$PSTYLEMODE
290
1
  9
$FINGERPRINTGUID
  2
{DC2B585F-9EFE-4148-B24B-AA20801B02E2}
  9
$VERSIONGUID
  2
{CB2DDDCA-6221-4B00-9841-42A19F6CA9F6}
  9
$EXTNAMES
290
1
  9
$PSVPSCALE
 40
0.0
  9
$OLESTARTUP
290
0
  9
$SORTENTS
280
127
  9
$INDEXCTL
280
0
  9
$HIDETEXT
280
1
  9
$XCLIPFRAME
280
1
  9
$HALOGAP
280
0
  9
$OBSCOLOR
 70
257
  9
$OBSLTYPE
280
0
  9
$INTERSECTIONDISPLAY
280
0
  9
$INTERSECTIONCOLOR
 70
257
  9
$DIMASSOC
280
2
  9
$PROJECTNAME
  1

  9
$CAMERADISPLAY
290
0
  9
$LENSLENGTH
 40
50.0
  9
$CAMERAHEIGHT
 40
0.0
  9
$STEPSPERSEC
 40
24.0
  9
$STEPSIZE
 40
100.0
  9
$3DDWFPREC
 40
2.0
  9
$PSOLWIDTH
 40
0.005
  9
$PSOLHEIGHT
 40
0.08
  9
$LOFTANG1
 40
1.570796326795
  9
$LOFTANG2
 40
1.570796326795
  9
$LOFTMAG1
 40
0.0
  9
$LOFTMAG2
 40
0.0
  9
$LOFTPARAM
 70
7
  9
$LOFTNORMALS
280
1
  9
$LATITUDE
 40
37.795
  9
$LONGITUDE
 40
-122.394
  9
$NORTHDIRECTION
 40
0.0
  9
$TIMEZONE
 70
-8000
  9
$LIGHTGLYPHDISPLAY
280
1
  9
$TILEMODELIGHTSYNCH
280
1
  9
$CMATERIAL
347
20
  9
$SOLIDHIST
280
0
  9
$SHOWHIST
280
1
  9
$DWFFRAME
280
2
  9
$DGNFRAME
280
2
  9
$REALWORLDSCALE
290
1
  9
$INTERFERECOLOR
 62
256
  9
$CSHADOW
280
0
  9
$SHADOWPLANELOCATION
 40
0.0
  0
ENDSEC
  0
SECTION
  2
CLASSES
  0
CLASS
  1
ACDBDICTIONARYWDFLT
  2
AcDbDictionaryWithDefault
  3
ObjectDBX Classes
 90
0
 91
0
280
0
281
0
  0
CLASS
  1
SUN
  2
AcDbSun
  3
SCENEOE
 90
1153
 91
0
280
0
281
0
  0
CLASS
  1
VISUALSTYLE
  2
AcDbVisualStyle
  3
ObjectDBX Classes
 90
4095
 91
0
280
0
281
0
  0
CLASS
  1
MATERIAL
  2
AcDbMaterial
  3
ObjectDBX Classes
 90
1153
 91
0
280
0
281
0
  0
CLASS
  1
SCALE
  2
AcDbScale
  3
ObjectDBX Classes
 90
1153
 91
0
280
0
281
0
  0
CLASS
  1
TABLESTYLE
  2
AcDbTableStyle
  3
ObjectDBX Classes
 90
4095
 91
0
280
0
281
0
  0
CLASS
  1
MLEADERSTYLE
  2
AcDbMLeaderStyle
  3
ACDB_MLEADERSTYLE_CLASS
 90
4095
 91
0
280
0
281
0
  0
CLASS
  1
DICTIONARYVAR
  2
AcDbDictionaryVar
  3
ObjectDBX Classes
 90
0
 91
0
280
0
281
0
  0
CLASS
  1
CELLSTYLEMAP
  2
AcDbCellStyleMap
  3
ObjectDBX Classes
 90
1152
 91
0
280
0
281
0
  0
CLASS
  1
MENTALRAYRENDERSETTINGS
  2
AcDbMentalRayRenderSettings
  3
SCENEOE
 90
1024
 91
0
280
0
281
0
  0
CLASS
  1
ACDBDETAILVIEWSTYLE
  2
AcDbDetailViewStyle
  3
ObjectDBX Classes
 90
1025
 91
0
280
0
281
0
  0
CLASS
  1
ACDBSECTIONVIEWSTYLE
  2
AcDbSectionViewStyle
  3
ObjectDBX Classes
 90
1025
 91
0
280
0
281
0
  0
CLASS
  1
RASTERVARIABLES
  2
AcDbRasterVariables
  3
ISM
 90
0
 91
0
280
0
281
0
  0
CLASS
  1
ACDBPLACEHOLDER
  2
AcDbPlaceHolder
  3
ObjectDBX Classes
 90
0
 91
0
280
0
281
0
  0
CLASS
  1
LAYOUT
  2
AcDbLayout
  3
ObjectDBX Classes
 90
0
 91
0
280
0
281
0
  0
ENDSEC
  0
SECTION
  2
TABLES
  0
TABLE
  2
VPORT
  5
8
330
0
100
AcDbSymbolTable
 70
1
  0
VPORT
  5
23
330
8
100
AcDbSymbolTableRecord
100
AcDbViewportTableRecord
  2
*Active
 70
0
 10
0.0
 20
0.0
 11
1.0
 21
1.0
 12
0.0
 22
0.0
 13
0.0
 23
0.0
 14
0.5
 24
0.5
 15
0.5
 25
0.5
 16
0.0
 26
0.0
 36
1.0
 17
0.0
 27
0.0
 37
0.0
 40
1000.0
 41
1.34
 42
50.0
 43
0.0
 44
0.0
 50
0.0
 51
0.0
 71
0
 72
1000
 73
1
 74
3
 75
0
 76
0
 77
0
 78
0
281
0
 65
0
146
0.0
  0
ENDTAB
  0
TABLE
  2
LTYPE
  5
2
330
0
100
AcDbSymbolTable
 70
5
  0
LTYPE
  5
24
330
2
100
AcDbSymbolTableRecord
100
AcDbLinetypeTableRecord
  2
ByBlock
 70
0
  3

 72
65
 73
0
 40
0.0
  0
LTYPE
  5
25
330
2
100
AcDbSymbolTableRecord
100
AcDbLinetypeTableRecord
  2
ByLayer
 70
0
  3

 72
65
 73
0
 40
0.0
  0
LTYPE
  5
26
330
2
100
AcDbSymbolTableRecord
100
AcDbLinetypeTableRecord
  2
Continuous
 70
0
  3

 72
65
 73
0
 40
0.0
  0
LTYPE
  5
2F
330
2
100
AcDbSymbolTableRecord
100
AcDbLinetypeTableRecord
  2
DASHED
 70
0
  3
Dashed
 72
65
 73
1
 40
1.0
 49
-0.5
 74
0
  0
LTYPE
  5
30
330
2
100
AcDbSymbolTableRecord
100
AcDbLinetypeTableRecord
  2
HIDDEN
 70
0
  3
Hidden
 72
65
 73
1
 40
0.5
 49
-0.25
 74
0
  0
ENDTAB
  0
TABLE
  2
LAYER
  5
1
330
0
100
AcDbSymbolTable
 70
20
  0
LAYER
  5
27
330
1
100
AcDbSymbolTableRecord
100
AcDbLayerTableRecord
  2
0
 70
0
 62
7
  6
Continuous
370
-3
390
13
347
21
  0
LAYER
  5
28
330
1
100
AcDbSymbolTableRecord
100
AcDbLayerTableRecord
  2
Defpoints
 70
0
 62
7
  6
Continuous
290
0
370
-3
390
13
347
21
  0
LAYER
  5
32
330
1
100
AcDbSymbolTableRecord
100
AcDbLayerTableRecord
  2
EDIFICACAO
 70
0
 62
7
  6
Continuous
370
30
390
13
347
21
  0
LAYER
  5
33
330
1
100
AcDbSymbolTableRecord
100
AcDbLayerTableRecord
  2
VIAS
 70
0
 62
8
  6
Continuous
370
15
390
13
347
21
  0
LAYER
  5
34
330
1
100
AcDbSymbolTableRecord
100
AcDbLayerTableRecord
  2
VIAS_MEIO_FIO
 70
0
 62
251
  6
Continuous
370
9
390
13
347
21
  0
LAYER
  5
35
330
1
100
AcDbSymbolTableRecord
100
AcDbLayerTableRecord
  2
VEGETACAO
 70
0
 62
3
  6
Continuous
370
13
390
13
347
21
  0
LAYER
  5
36
330
1
100
AcDbSymbolTableRecord
100
AcDbLayerTableRecord
  2
MOBILIARIO_URBANO
 70
0
 62
40
  6
Continuous
370
15
390
13
347
21
  0
LAYER
  5
37
330
1
100
AcDbSymbolTableRecord
100
AcDbLayerTableRecord
  2
EQUIPAMENTOS
 70
0
 62
4
  6
Continuous
370
15
390
13
347
21
  0
LAYER
  5
38
330
1
100
AcDbSymbolTableRecord
100
AcDbLayerTableRecord
  2
INFRA_POWER_HV
 70
0
 62
1
  6
Continuous
370
35
390
13
347
21
  0
LAYER
  5
39
330
1
100
AcDbSymbolTableRecord
100
AcDbLayerTableRecord
  2
INFRA_POWER_LV
 70
0
 62
30
  6
Continuous
370
20
390
13
347
21
  0
LAYER
  5
3A
330
1
100
AcDbSymbolTableRecord
100
AcDbLayerTableRecord
  2
INFRA_TELECOM
 70
0
 62
94
  6
Continuous
370
15
390
13
347
21
  0
LAYER
  5
3B
330
1
100
AcDbSymbolTableRecord
100
AcDbLayerTableRecord
  2
TOPOGRAFIA_CURVAS
 70
0
 62
252
  6
Continuous
370
9
390
13
347
21
  0
LAYER
  5
3C
330
1
100
AcDbSymbolTableRecord
100
AcDbLayerTableRecord
  2
MALHA_COORD
 70
0
 62
253
  6
Continuous
370
5
390
13
347
21
  0
LAYER
  5
3D
330
1
100
AcDbSymbolTableRecord
100
AcDbLayerTableRecord
  2
ANNOT_AREA
 70
0
 62
2
  6
Continuous
370
13
390
13
347
21
  0
LAYER
  5
3E
330
1
100
AcDbSymbolTableRecord
100
AcDbLayerTableRecord
  2
ANNOT_LENGTH
 70
0
 62
2
  6
Continuous
370
13
390
13
347
21
  0
LAYER
  5
3F
330
1
100
AcDbSymbolTableRecord
100
AcDbLayerTableRecord
  2
LEGENDA
 70
0
 62
7
  6
Continuous
370
15
390
13
347
21
  0
LAYER
  5
40
330
1
100
AcDbSymbolTableRecord
100
AcDbLayerTableRecord
  2
TEXTO
 70
0
 62
7
  6
Continuous
370
15
390
13
347
21
  0
LAYER
  5
41
330
1
100
AcDbSymbolTableRecord
100
AcDbLayerTableRecord
  2
CURVAS_NIVEL_MESTRA
 70
0
 62
251
  6
Continuous
370
25
390
13
347
21
  0
LAYER
  5
42
330
1
100
AcDbSymbolTableRecord
100
AcDbLayerTableRecord
  2
CURVAS_NIVEL_INTERM
 70
0
 62
252
  6
Continuous
370
9
390
13
347
21
  0
LAYER
  5
43
330
1
100
AcDbSymbolTableRecord
100
AcDbLayerTableRecord
  2
QUADRO
 70
0
 62
7
  6
Continuous
370
50
390
13
347
21
  0
ENDTAB
  0
TABLE
  2
STYLE
  5
5
330
0
100
AcDbSymbolTable
 70
2
  0
STYLE
  5
29
330
5
100
AcDbSymbolTableRecord
100
AcDbTextStyleTableRecord
  2
Standard
 70
0
 40
0.0
 41
1.0
 50
0.0
 71
0
 42
2.5
  3
txt
  4

  0
STYLE
  5
31
330
5
100
AcDbSymbolTableRecord
100
AcDbTextStyleTableRecord
  2
PRO_STYLE
 70
0
 40
0.0
 41
1.0
 50
0.0
 71
0
 42
2.5
  3
arial.ttf
  4

  0
ENDTAB
  0
TABLE
  2
VIEW
  5
7
330
0
100
AcDbSymbolTable
 70
0
  0
ENDTAB
  0
TABLE
  2
UCS
  5
6
330
0
100
AcDbSymbolTable
 70
0
  0
ENDTAB
  0
TABLE
  2
APPID
  5
3
330
0
100
AcDbSymbolTable
 70
3
  0
APPID
  5
2A
330
3
100
AcDbSymbolTableRecord
100
AcDbRegAppTableRecord
  2
ACAD
 70
0
  0
APPID
  5
104
330
3
100
AcDbSymbolTableRecord
100
AcDbRegAppTableRecord
  2
HATCHBACKGROUNDCOLOR
 70
0
  0
APPID
  5
105
330
3
100
AcDbSymbolTableRecord
100
AcDbRegAppTableRecord
  2
EZDXF
 70
0
  0
ENDTAB
  0
TABLE
  2
DIMSTYLE
  5
4
330
0
100
AcDbSymbolTable
 70
1
100
AcDbDimStyleTable
  0
DIMSTYLE
105
2B
330
4
100
AcDbSymbolTableRecord
100
AcDbDimStyleTableRecord
  2
Standard
 70
0
 40
1.0
 41
2.5
 42
0.625
 43
3.75
 44
1.25
 45
0.0
 46
0.0
 47
0.0
 48
0.0
 49
2.5
140
2.5
141
2.5
142
0.0
143
0.03937007874
144
1.0
145
0.0
146
1.0
147
0.625
148
0.0
 69
0
 70
0
 71
0
 72
0
 73
0
 74
0
 75
0
 76
0
 77
1
 78
8
 79
3
170
0
171
3
172
1
173
0
174
0
175
0
176
0
177
0
178
0
179
2
271
2
272
2
273
2
274
3
275
0
276
0
277
2
278
44
279
0
280
0
281
0
282
0
283
0
284
8
285
0
286
0
288
0
289
3
290
0
371
-2
372
-2
  0
ENDTAB
  0
TABLE
  2
BLOCK_RECORD
  5
9
330
0
100
AcDbSymbolTable
 70
11
  0
BLOCK_RECORD
  5
17
330
9
100
AcDbSymbolTableRecord
100
AcDbBlockTableRecord
  2
*Model_Space
340
1A
 70
0
280
1
281
0
  0
BLOCK_RECORD
  5
1B
330
9
100
AcDbSymbolTableRecord
100
AcDbBlockTableRecord
  2
*Paper_Space
340
1E
 70
0
280
1
281
0
  0
BLOCK_RECORD
  5
44
330
9
100
AcDbSymbolTableRecord
100
AcDbBlockTableRecord
  2
ARVORE
340
0
 70
0
280
1
281
0
  0
BLOCK_RECORD
  5
4A
330
9
100
AcDbSymbolTableRecord
100
AcDbBlockTableRecord
  2
POSTE
340
0
 70
0
280
1
281
0
  0
BLOCK_RECORD
  5
53
330
9
100
AcDbSymbolTableRecord
100
AcDbBlockTableRecord
  2
BANCO
340
0
 70
0
280
1
281
0
  0
BLOCK_RECORD
  5
58
330
9
100
AcDbSymbolTableRecord
100
AcDbBlockTableRecord
  2
LIXEIRA
340
0
 70
0
280
1
281
0
  0
BLOCK_RECORD
  5
5D
330
9
100
AcDbSymbolTableRecord
100
AcDbBlockTableRecord
  2
POSTE_LUZ
340
0
 70
0
280
1
281
0
  0
BLOCK_RECORD
  5
62
330
9
100
AcDbSymbolTableRecord
100
AcDbBlockTableRecord
  2
TORRE
340
0
 70
0
280
1
281
0
  0
BLOCK_RECORD
  5
69
330
9
100
AcDbSymbolTableRecord
100
AcDbBlockTableRecord
  2
NORTE
340
0
 70
0
280
1
281
0
  0
BLOCK_RECORD
  5
6E
330
9
100
AcDbSymbolTableRecord
100
AcDbBlockTableRecord
  2
ESCALA
340
0
 70
0
280
1
281
0
  0
BLOCK_RECORD
  5
76
330
9
100
AcDbSymbolTableRecord
100
AcDbBlockTableRecord
  2
LOGO
340
0
 70
0
280
1
281
0
  0
ENDTAB
  0
ENDSEC
  0
SECTION
  2
BLOCKS
  0
BLOCK
  5
18
330
17
100
AcDbEntity
  8
0
100
AcDbBlockBegin
  2
*Model_Space
 70
0
 10
0.0
 20
0.0
 30
0.0
  3
*Model_Space
  1

  0
ENDBLK
  5
19
330
17
100
AcDbEntity
  8
0
100
AcDbBlockEnd
  0
BLOCK
  5
1C
330
1B
100
AcDbEntity
  8
0
100
AcDbBlockBegin
  2
*Paper_Space
 70
0
 10
0.0
 20
0.0
 30
0.0
  3
*Paper_Space
  1

  0
ENDBLK
  5
1D
330
1B
100
AcDbEntity
  8
0
100
AcDbBlockEnd
  0
BLOCK
  5
45
330
44
100
AcDbEntity
  8
0
100
AcDbBlockBegin
  2
ARVORE
 70
0
 10
0.0
 20
0.0
 30
0.0
  3
ARVORE
  1

  0
CIRCLE
  5
47
330
44
100
AcDbEntity
  8
VEGETACAO
 62
3
100
AcDbCircle
 10
0.0
 20
0.0
 30
0.0
 40
2.0
  0
LINE
  5
48
330
44
100
AcDbEntity
  8
VEGETACAO
100
AcDbLine
 10
-1.5
 20
0.0
 30
0.0
 11
1.5
 21
0.0
 31
0.0
  0
LINE
  5
49
330
44
100
AcDbEntity
  8
VEGETACAO
100
AcDbLine
 10
0.0
 20
-1.5
 30
0.0
 11
0.0
 21
1.5
 31
0.0
  0
ENDBLK
  5
46
330
44
100
AcDbEntity
  8
0
100
AcDbBlockEnd
  0
BLOCK
  5
4B
330
4A
100
AcDbEntity
  8
0
100
AcDbBlockBegin
  2
POSTE
 70
2
 10
0.0
 20
0.0
 30
0.0
  3
POSTE
  1

  0
CIRCLE
  5
4D
330
4A
100
AcDbEntity
  8
0
 62
7
100
AcDbCircle
 10
0.0
 20
0.0
 30
0.0
 40
0.4
  0
LINE
  5
4E
330
4A
100
AcDbEntity
  8
0
100
AcDbLine
 10
-0.3
 20
-0.3
 30
0.0
 11
0.3
 21
0.3
 31
0.0
  0
LINE
  5
4F
330
4A
100
AcDbEntity
  8
0
100
AcDbLine
 10
-0.3
 20
0.3
 30
0.0
 11
0.3
 21
-0.3
 31
0.0
  0
ATTDEF
  5
50
330
4A
100
AcDbEntity
  8
0
 62
2
100
AcDbText
 10
0.5
 20
0.5
 30
0.0
 40
0.3
  1
000
100
AcDbAttributeDefinition
  3

  2
ID
 70
0
  0
ATTDEF
  5
51
330
4A
100
AcDbEntity
  8
0
 62
8
100
AcDbText
 10
0.5
 20
0.1
 30
0.0
 40
0.2
  1
POLE
100
AcDbAttributeDefinition
  3

  2
TYPE
 70
0
  0
ATTDEF
  5
52
330
4A
100
AcDbEntity
  8
0
 62
1
100
AcDbText
 10
0.5
 20
-0.3
 30
0.0
 40
0.2
  1
0V
100
AcDbAttributeDefinition
  3

  2
V_LEVEL
 70
0
  0
ENDBLK
  5
4C
330
4A
100
AcDbEntity
  8
0
100
AcDbBlockEnd
  0
BLOCK
  5
54
330
53
100
AcDbEntity
  8
0
100
AcDbBlockBegin
  2
BANCO
 70
0
 10
0.0
 20
0.0
 30
0.0
  3
BANCO
  1

  0
LWPOLYLINE
  5
56
330
53
100
AcDbEntity
  8
0
100
AcDbPolyline
 90
4
 70
1
 10
-0.8
 20
-0.4
 10
0.8
 20
-0.4
 10
0.8
 20
0.4
 10
-0.8
 20
0.4
  0
LINE
  5
57
330
53
100
AcDbEntity
  8
0
100
AcDbLine
 10
-0.8
 20
0.0
 30
0.0
 11
0.8
 21
0.0
 31
0.0
  0
ENDBLK
  5
55
330
53
100
AcDbEntity
  8
0
100
AcDbBlockEnd
  0
BLOCK
  5
59
330
58
100
AcDbEntity
  8
0
100
AcDbBlockBegin
  2
LIXEIRA
 70
0
 10
0.0
 20
0.0
 30
0.0
  3
LIXEIRA
  1

  0
CIRCLE
  5
5B
330
58
100
AcDbEntity
  8
0
100
AcDbCircle
 10
0.0
 20
0.0
 30
0.0
 40
0.3
  0
CIRCLE
  5
5C
330
58
100
AcDbEntity
  8
0
100
AcDbCircle
 10
0.0
 20
0.0
 30
0.0
 40
0.1
  0
ENDBLK
  5
5A
330
58
100
AcDbEntity
  8
0
100
AcDbBlockEnd
  0
BLOCK
  5
5E
330
5D
100
AcDbEntity
  8
0
100
AcDbBlockBegin
  2
POSTE_LUZ
 70
0
 10
0.0
 20
0.0
 30
0.0
  3
POSTE_LUZ
  1

  0
CIRCLE
  5
60
330
5D
100
AcDbEntity
  8
0
 62
2
100
AcDbCircle
 10
0.0
 20
0.0
 30
0.0
 40
0.2
  0
CIRCLE
  5
61
330
5D
100
AcDbEntity
  8
0
100
AcDbCircle
 10
0.0
 20
0.0
 30
0.0
 40
0.4
  0
ENDBLK
  5
5F
330
5D
100
AcDbEntity
  8
0
100
AcDbBlockEnd
  0
BLOCK
  5
63
330
62
100
AcDbEntity
  8
0
100
AcDbBlockBegin
  2
TORRE
 70
2
 10
0.0
 20
0.0
 30
0.0
  3
TORRE
  1

  0
LWPOLYLINE
  5
65
330
62
100
AcDbEntity
  8
0
100
AcDbPolyline
 90
4
 70
1
 10
-1.0
 20
-1.0
 10
1.0
 20
-1.0
 10
1.0
 20
1.0
 10
-1.0
 20
1.0
  0
LINE
  5
66
330
62
100
AcDbEntity
  8
0
100
AcDbLine
 10
-1.0
 20
-1.0
 30
0.0
 11
1.0
 21
1.0
 31
0.0
  0
LINE
  5
67
330
62
100
AcDbEntity
  8
0
100
AcDbLine
 10
-1.0
 20
1.0
 30
0.0
 11
1.0
 21
-1.0
 31
0.0
  0
ATTDEF
  5
68
330
62
100
AcDbEntity
  8
0
 62
2
100
AcDbText
 10
1.2
 20
1.2
 30
0.0
 40
0.5
  1

100
AcDbAttributeDefinition
  3

  2
ID
 70
0
  0
ENDBLK
  5
64
330
62
100
AcDbEntity
  8
0
100
AcDbBlockEnd
  0
BLOCK
  5
6A
330
69
100
AcDbEntity
  8
0
100
AcDbBlockBegin
  2
NORTE
 70
0
 10
0.0
 20
0.0
 30
0.0
  3
NORTE
  1

  0
LWPOLYLINE
  5
6C
330
69
100
AcDbEntity
  8
0
 62
7
100
AcDbPolyline
 90
4
 70
1
 10
0.0
 20
0.0
 10
-1.0
 20
-3.0
 10
0.0
 20
1.0
 10
1.0
 20
-3.0
  0
TEXT
  5
6D
330
69
100
AcDbEntity
  8
0
 62
7
100
AcDbText
 10
0.0
 20
1.5
 30
0.0
 40
1.5
  1
N
 72
1
 11
0.0
 21
1.5
 31
0.0
100
AcDbText
  0
ENDBLK
  5
6B
330
69
100
AcDbEntity
  8
0
100
AcDbBlockEnd
  0
BLOCK
  5
6F
330
6E
100
AcDbEntity
  8
0
100
AcDbBlockBegin
  2
ESCALA
 70
0
 10
0.0
 20
0.0
 30
0.0
  3
ESCALA
  1

  0
LWPOLYLINE
  5
71
330
6E
100
AcDbEntity
  8
0
100
AcDbPolyline
 90
4
 70
1
 10
0.0
 20
0.0
 10
10.0
 20
0.0
 10
10.0
 20
1.0
 10
0.0
 20
1.0
  0
LINE
  5
72
330
6E
100
AcDbEntity
  8
0
100
AcDbLine
 10
5.0
 20
0.0
 30
0.0
 11
5.0
 21
1.0
 31
0.0
  0
TEXT
  5
73
330
6E
100
AcDbEntity
  8
0
100
AcDbText
 10
0.0
 20
-1.5
 30
0.0
 40
1.0
  1
0
 72
1
 11
0.0
 21
-1.5
 31
0.0
100
AcDbText
  0
TEXT
  5
74
330
6E
100
AcDbEntity
  8
0
100
AcDbText
 10
5.0
 20
-1.5
 30
0.0
 40
1.0
  1
5m
 72
1
 11
5.0
 21
-1.5
 31
0.0
100
AcDbText
  0
TEXT
  5
75
330
6E
100
AcDbEntity
  8
0
100
AcDbText
 10
10.0
 20
-1.5
 30
0.0
 40
1.0
  1
10m
 72
1
 11
10.0
 21
-1.5
 31
0.0
100
AcDbText
  0
ENDBLK
  5
70
330
6E
100
AcDbEntity
  8
0
100
AcDbBlockEnd
  0
BLOCK
  5
77
330
76
100
AcDbEntity
  8
0
100
AcDbBlockBegin
  2
LOGO
 70
0
 10
0.0
 20
0.0
 30
0.0
  3
LOGO
  1

  0
LWPOLYLINE
  5
79
330
76
100
AcDbEntity
  8
0
 62
7
100
AcDbPolyline
 90
4
 70
1
 10
0.0
 20
5.0
 10
5.0
 20
0.0
 10
0.0
 20
-5.0
 10
-5.0
 20
0.0
  0
CIRCLE
  5
7A
330
76
100
AcDbEntity
  8
0
 62
2
100
AcDbCircle
 10
0.0
 20
0.0
 30
0.0
 40
1.0
  0
TEXT
  5
7B
330
76
100
AcDbEntity
  8
0
 62
7
100
AcDbText
 10
0.0
 20
-7.0
 30
0.0
 40
1.5
  1
RUAS
 72
1
 11
0.0
 21
-7.0
 31
0.0
100
AcDbText
  0
ENDBLK
  5
78
330
76
100
AcDbEntity
  8
0
100
AcDbBlockEnd
  0
ENDSEC
  0
SECTION
  2
ENTITIES
  0
TEXT
  5
7C
330
17
100
AcDbEntity
  8
0
100
AcDbText
 10
0.0
 20
0.0
 30
0.0
 40
2.0
  1
TEST 0
 72
1
 11
0.0
 21
0.0
 31
0.0
100
AcDbText
  0
TEXT
  5
7D
330
17
100
AcDbEntity
  8
0
100
AcDbText
 10
1.0
 20
1.0
 30
0.0
 40
2.0
  1
TEST 1
 50
3.6
 72
1
 11
1.0
 21
1.0
 31
0.0
100
AcDbText
  0
TEXT
  5
7E
330
17
100
AcDbEntity
  8
0
100
AcDbText
 10
2.0
 20
2.0
 30
0.0
 40
2.0
  1
TEST 2
 50
7.2
 72
1
 11
2.0
 21
2.0
 31
0.0
100
AcDbText
  0
TEXT
  5
7F
330
17
100
AcDbEntity
  8
0
100
AcDbText
 10
3.0
 20
3.0
 30
0.0
 40
2.0
  1
TEST 3
 50
10.8
 72
1
 11
3.0
 21
3.0
 31
0.0
100
AcDbText
  0
TEXT
  5
80
330
17
100
AcDbEntity
  8
0
100
AcDbText
 10
4.0
 20
4.0
 30
0.0
 40
2.0
  1
TEST 4
 50
14.4
 72
1
 11
4.0
 21
4.0
 31
0.0
100
AcDbText
  0
TEXT
  5
81
330
17
100
AcDbEntity
  8
0
100
AcDbText
 10
5.0
 20
5.0
 30
0.0
 40
2.0
  1
TEST 5
 50
18.0
 72
1
 11
5.0
 21
5.0
 31
0.0
100
AcDbText
  0
TEXT
  5
82
330
17
100
AcDbEntity
  8
0
100
AcDbText
 10
6.0
 20
6.0
 30
0.0
 40
2.0
  1
TEST 6
 50
21.6
 72
1
 11
6.0
 21
6.0
 31
0.0
100
AcDbText
  0
TEXT
  5
83
330
17
100
AcDbEntity
  8
0
100
AcDbText
 10
7.0
 20
7.0
 30
0.0
 40
2.0
  1
TEST 7
 50
25.2
 72
1
 11
7.0
 21
7.0
 31
0.0
100
AcDbText
  0
TEXT
  5
84
330
17
100
AcDbEntity
  8
0
100
AcDbText
 10
8.0
 20
8.0
 30
0.0
 40
2.0
  1
TEST 8
 50
28.8
 72
1
 11
8.0
 21
8.0
 31
0.0
100
AcDbText
  0
TEXT
  5
85
330
17
100
AcDbEntity
  8
0
100
AcDbText
 10
9.0
 20
9.0
 30
0.0
 40
2.0
  1
TEST 9
 50
32.4
 72
1
 11
9.0
 21
9.0
 31
0.0
100
AcDbText
  0
TEXT
  5
86
330
17
100
AcDbEntity
  8
0
100
AcDbText
 10
10.0
 20
10.0
 30
0.0
 40
2.0
  1
TEST 10
 50
36.0
 72
1
 11
10.0
 21
10.0
 31
0.0
100
AcDbText
  0
TEXT
  5
87
330
17
100
AcDbEntity
  8
0
100
AcDbText
 10
11.0
 20
11.0
 30
0.0
 40
2.0
  1
TEST 11
 50
39.6
 72
1
 11
11.0
 21
11.0
 31
0.0
100
AcDbText
  0
TEXT
  5
88
330
17
100
AcDbEntity
  8
0
100
AcDbText
 10
12.0
 20
12.0
 30
0.0
 40
2.0
  1
TEST 12
 50
43.2
 72
1
 11
12.0
 21
12.0
 31
0.0
100
AcDbText
  0
TEXT
  5
89
330
17
100
AcDbEntity
  8
0
100
AcDbText
 10
13.0
 20
13.0
 30
0.0
 40
2.0
  1
TEST 13
 50
46.800000000000004
 72
1
 11
13.0
 21
13.0
 31
0.0
100
AcDbText
  0
TEXT
  5
8A
330
17
100
AcDbEntity
  8
0
100
AcDbText
 10
14.0
 20
14.0
 30
0.0
 40
2.0
  1
TEST 14
 50
50.4
 72
1
 11
14.0
 21
14.0
 31
0.0
100
AcDbText
  0
TEXT
  5
8B
330
17
100
AcDbEntity
  8
0
100
AcDbText
 10
15.0
 20
15.0
 30
0.0
 40
2.0
  1
TEST 15
 50
54.0
 72
1
 11
15.0
 21
15.0
 31
0.0
100
AcDbText
  0
TEXT
  5
8C
330
17
100
AcDbEntity
  8
0
100
AcDbText
 10
16.0
 20
16.0
 30
0.0
 40
2.0
  1
TEST 16
 50
57.6
 72
1
 11
16.0
 21
16.0
 31
0.0
100
AcDbText
  0
TEXT
  5
8D
330
17
100
AcDbEntity
  8
0
100
AcDbText
 10
17.0
 20
17.0
 30
0.0
 40
2.0
  1
TEST 17
 50
61.2
 72
1
 11
17.0
 21
17.0
 31
0.0
100
AcDbText
  0
TEXT
  5
8E
330
17
100
AcDbEntity
  8
0
100
AcDbText
 10
18.0
 20
18.0
 30
0.0
 40
2.0
  1
TEST 18
 50
64.8
 72
1
 11
18.0
 21
18.0
 31
0.0
100
AcDbText
  0
TEXT
  5
8F
330
17
100
AcDbEntity
  8
0
100
AcDbText
 10
19.0
 20
19.0
 30
0.0
 40
2.0
  1
TEST 19
 50
68.4
 72
1
 11
19.0
 21
19.0
 31
0.0
100
AcDbText
  0
TEXT
  5
90
330
17
100
AcDbEntity
  8
0
100
AcDbText
 10
20.0
 20
20.0
 30
0.0
 40
2.0
  1
TEST 20
 50
72.0
 72
1
 11
20.0
 21
20.0
 31
0.0
100
AcDbText
  0
TEXT
  5
91
330
17
100
AcDbEntity
  8
0
100
AcDbText
 10
21.0
 20
21.0
 30
0.0
 40
2.0
  1
TEST 21
 50
75.60000000000001
 72
1
 11
21.0
 21
21.0
 31
0.0
100
AcDbText
  0
TEXT
  5
92
330
17
100
AcDbEntity
  8
0
100
AcDbText
 10
22.0
 20
22.0
 30
0.0
 40
2.0
  1
TEST 22
 50
79.2
 72
1
 11
22.0
 21
22.0
 31
0.0
100
AcDbText
  0
TEXT
  5
93
330
17
100
AcDbEntity
  8
0
100
AcDbText
 10
23.0
 20
23.0
 30
0.0
 40
2.0
  1
TEST 23
 50
82.8
 72
1
 11
23.0
 21
23.0
 31
0.0
100
AcDbText
  0
TEXT
  5
94
330
17
100
AcDbEntity
  8
0
100
AcDbText
 10
24.0
 20
24.0
 30
0.0
 40
2.0
  1
TEST 24
 50
86.4
 72
1
 11
24.0
 21
24.0
 31
0.0
100
AcDbText
  0
TEXT
  5
95
330
17
100
AcDbEntity
  8
0
100
AcDbText
 10
25.0
 20
25.0
 30
0.0
 40
2.0
  1
TEST 25
 50
90.0
 72
1
 11
25.0
 21
25.0
 31
0.0
100
AcDbText
  0
TEXT
  5
96
330
17
100
AcDbEntity
  8
0
100
AcDbText
 10
26.0
 20
26.0
 30
0.0
 40
2.0
  1
TEST 26
 50
93.60000000000001
 72
1
 11
26.0
 21
26.0
 31
0.0
100
AcDbText
  0
TEXT
  5
97
330
17
100
AcDbEntity
  8
0
100
AcDbText
 10
27.0
 20
27.0
 30
0.0
 40
2.0
  1
TEST 27
 50
97.2
 72
1
 11
27.0
 21
27.0
 31
0.0
100
AcDbText
  0
TEXT
  5
98
330
17
100
AcDbEntity
  8
0
100
AcDbText
 10
28.0
 20
28.0
 30
0.0
 40
2.0
  1
TEST 28
 50
100.8
 72
1
 11
28.0
 21
28.0
 31
0.0
100
AcDbText
  0
TEXT
  5
99
330
17
100
AcDbEntity
  8
0
100
AcDbText
 10
29.0
 20
29.0
 30
0.0
 40
2.0
  1
TEST 29
 50
104.4
 72
1
 11
29.0
 21
29.0
 31
0.0
100
AcDbText
  0
TEXT
  5
9A
330
17
100
AcDbEntity
  8
0
100
AcDbText
 10
30.0
 20
30.0
 30
0.0
 40
2.0
  1
TEST 30
 50
108.0
 72
1
 11
30.0
 21
30.0
 31
0.0
100
AcDbText
  0
TEXT
  5
9B
330
17
100
AcDbEntity
  8
0
100
AcDbText
 10
31.0
 20
31.0
 30
0.0
 40
2.0
  1
TEST 31
 50
111.60000000000001
 72
1
 11
31.0
 21
31.0
 31
0.0
100
AcDbText
  0
TEXT
  5
9C
330
17
100
AcDbEntity
  8
0
100
AcDbText
 10
32.0
 20
32.0
 30
0.0
 40
2.0
  1
TEST 32
 50
115.2
 72
1
 11
32.0
 21
32.0
 31
0.0
100
AcDbText
  0
TEXT
  5
9D
330
17
100
AcDbEntity
  8
0
100
AcDbText
 10
33.0
 20
33.0
 30
0.0
 40
2.0
  1
TEST 33
 50
118.8
 72
1
 11
33.0
 21
33.0
 31
0.0
100
AcDbText
  0
TEXT
  5
9E
330
17
100
AcDbEntity
  8
0
100
AcDbText
 10
34.0
 20
34.0
 30
0.0
 40
2.0
  1
TEST 34
 50
122.4
 72
1
 11
34.0
 21
34.0
 31
0.0
100
AcDbText
  0
TEXT
  5
9F
330
17
100
AcDbEntity
  8
0
100
AcDbText
 10
35.0
 20
35.0
 30
0.0
 40
2.0
  1
TEST 35
 50
126.0
 72
1
 11
35.0
 21
35.0
 31
0.0
100
AcDbText
  0
TEXT
  5
A0
330
17
100
AcDbEntity
  8
0
100
AcDbText
 10
36.0
 20
36.0
 30
0.0
 40
2.0
  1
TEST 36
 50
129.6
 72
1
 11
36.0
 21
36.0
 31
0.0
100
AcDbText
  0
TEXT
  5
A1
330
17
100
AcDbEntity
  8
0
100
AcDbText
 10
37.0
 20
37.0
 30
0.0
 40
2.0
  1
TEST 37
 50
133.20000000000002
 72
1
 11
37.0
 21
37.0
 31
0.0
100
AcDbText
  0
TEXT
  5
A2
330
17
100
AcDbEntity
  8
0
100
AcDbText
 10
38.0
 20
38.0
 30
0.0
 40
2.0
  1
TEST 38
 50
136.8
 72
1
 11
38.0
 21
38.0
 31
0.0
100
AcDbText
  0
TEXT
  5
A3
330
17
100
AcDbEntity
  8
0
100
AcDbText
 10
39.0
 20
39.0
 30
0.0
 40
2.0
  1
TEST 39
 50
140.4
 72
1
 11
39.0
 21
39.0
 31
0.0
100
AcDbText
  0
TEXT
  5
A4
330
17
100
AcDbEntity
  8
0
100
AcDbText
 10
40.0
 20
40.0
 30
0.0
 40
2.0
  1
TEST 40
 50
144.0
 72
1
 11
40.0
 21
40.0
 31
0.0
100
AcDbText
  0
TEXT
  5
A5
330
17
100
AcDbEntity
  8
0
100
AcDbText
 10
41.0
 20
41.0
 30
0.0
 40
2.0
  1
TEST 41
 50
147.6
 72
1
 11
41.0
 21
41.0
 31
0.0
100
AcDbText
  0
TEXT
  5
A6
330
17
100
AcDbEntity
  8
0
100
AcDbText
 10
42.0
 20
42.0
 30
0.0
 40
2.0
  1
TEST 42
 50
151.20000000000002
 72
1
 11
42.0
 21
42.0
 31
0.0
100
AcDbText
  0
TEXT
  5
A7
330
17
100
AcDbEntity
  8
0
100
AcDbText
 10
43.0
 20
43.0
 30
0.0
 40
2.0
  1
TEST 43
 50
154.8
 72
1
 11
43.0
 21
43.0
 31
0.0
100
AcDbText
  0
TEXT
  5
A8
330
17
100
AcDbEntity
  8
0
100
AcDbText
 10
44.0
 20
44.0
 30
0.0
 40
2.0
  1
TEST 44
 50
158.4
 72
1
 11
44.0
 21
44.0
 31
0.0
100
AcDbText
  0
TEXT
  5
A9
330
17
100
AcDbEntity
  8
0
100
AcDbText
 10
45.0
 20
45.0
 30
0.0
 40
2.0
  1
TEST 45
 50
162.0
 72
1
 11
45.0
 21
45.0
 31
0.0
100
AcDbText
  0
TEXT
  5
AA
330
17
100
AcDbEntity
  8
0
100
AcDbText
 10
46.0
 20
46.0
 30
0.0
 40
2.0
  1
TEST 46
 50
165.6
 72
1
 11
46.0
 21
46.0
 31
0.0
100
AcDbText
  0
TEXT
  5
AB
330
17
100
AcDbEntity
  8
0
100
AcDbText
 10
47.0
 20
47.0
 30
0.0
 40
2.0
  1
TEST 47
 50
169.20000000000002
 72
1
 11
47.0
 21
47.0
 31
0.0
100
AcDbText
  0
TEXT
  5
AC
330
17
100
AcDbEntity
  8
0
100
AcDbText
 10
48.0
 20
48.0
 30
0.0
 40
2.0
  1
TEST 48
 50
172.8
 72
1
 11
48.0
 21
48.0
 31
0.0
100
AcDbText
  0
TEXT
  5
AD
330
17
100
AcDbEntity
  8
0
100
AcDbText
 10
49.0
 20
49.0
 30
0.0
 40
2.0
  1
TEST 49
 50
176.4
 72
1
 11
49.0
 21
49.0
 31
0.0
100
AcDbText
  0
TEXT
  5
AE
330
17
100
AcDbEntity
  8
0
100
AcDbText
 10
50.0
 20
50.0
 30
0.0
 40
2.0
  1
TEST 50
 50
180.0
 72
1
 11
50.0
 21
50.0
 31
0.0
100
AcDbText
  0
TEXT
  5
AF
330
17
100
AcDbEntity
  8
0
100
AcDbText
 10
51.0
 20
51.0
 30
0.0
 40
2.0
  1
TEST 51
 50
183.6
 72
1
 11
51.0
 21
51.0
 31
0.0
100
AcDbText
  0
TEXT
  5
B0
330
17
100
AcDbEntity
  8
0
100
AcDbText
 10
52.0
 20
52.0
 30
0.0
 40
2.0
  1
TEST 52
 50
187.20000000000002
 72
1
 11
52.0
 21
52.0
 31
0.0
100
AcDbText
  0
TEXT
  5
B1
330
17
100
AcDbEntity
  8
0
100
AcDbText
 10
53.0
 20
53.0
 30
0.0
 40
2.0
  1
TEST 53
 50
190.8
 72
1
 11
53.0
 21
53.0
 31
0.0
100
AcDbText
  0
TEXT
  5
B2
330
17
100
AcDbEntity
  8
0
100
AcDbText
 10
54.0
 20
54.0
 30
0.0
 40
2.0
  1
TEST 54
 50
194.4
 72
1
 11
54.0
 21
54.0
 31
0.0
100
AcDbText
  0
TEXT
  5
B3
330
17
100
AcDbEntity
  8
0
100
AcDbText
 10
55.0
 20
55.0
 30
0.0
 40
2.0
  1
TEST 55
 50
198.0
 72
1
 11
55.0
 21
55.0
 31
0.0
100
AcDbText
  0
TEXT
  5
B4
330
17
100
AcDbEntity
  8
0
100
AcDbText
 10
56.0
 20
56.0
 30
0.0
 40
2.0
  1
TEST 56
 50
201.6
 72
1
 11
56.0
 21
56.0
 31
0.0
100
AcDbText
  0
TEXT
  5
B5
330
17
100
AcDbEntity
  8
0
100
AcDbText
 10
57.0
 20
57.0
 30
0.0
 40
2.0
  1
TEST 57
 50
205.20000000000002
 72
1
 11
57.0
 21
57.0
 31
0.0
100
AcDbText
  0
TEXT
  5
B6
330
17
100
AcDbEntity
  8
0
100
AcDbText
 10
58.0
 20
58.0
 30
0.0
 40
2.0
  1
TEST 58
 50
208.8
 72
1
 11
58.0
 21
58.0
 31
0.0
100
AcDbText
  0
TEXT
  5
B7
330
17
100
AcDbEntity
  8
0
100
AcDbText
 10
59.0
 20
59.0
 30
0.0
 40
2.0
  1
TEST 59
 50
212.4
 72
1
 11
59.0
 21
59.0
 31
0.0
100
AcDbText
  0
TEXT
  5
B8
330
17
100
AcDbEntity
  8
0
100
AcDbText
 10
60.0
 20
60.0
 30
0.0
 40
2.0
  1
TEST 60
 50
216.0
 72
1
 11
60.0
 21
60.0
 31
0.0
100
AcDbText
  0
TEXT
  5
B9
330
17
100
AcDbEntity
  8
0
100
AcDbText
 10
61.0
 20
61.0
 30
0.0
 40
2.0
  1
TEST 61
 50
219.6
 72
1
 11
61.0
 21
61.0
 31
0.0
100
AcDbText
  0
TEXT
  5
BA
330
17
100
AcDbEntity
  8
0
100
AcDbText
 10
62.0
 20
62.0
 30
0.0
 40
2.0
  1
TEST 62
 50
223.20000000000002
 72
1
 11
62.0
 21
62.0
 31
0.0
100
AcDbText
  0
TEXT
  5
BB
330
17
100
AcDbEntity
  8
0
100
AcDbText
 10
63.0
 20
63.0
 30
0.0
 40
2.0
  1
TEST 63
 50
226.8
 72
1
 11
63.0
 21
63.0
 31
0.0
100
AcDbText
  0
TEXT
  5
BC
330
17
100
AcDbEntity
  8
0
100
AcDbText
 10
64.0
 20
64.0
 30
0.0
 40
2.0
  1
TEST 64
 50
230.4
 72
1
 11
64.0
 21
64.0
 31
0.0
100
AcDbText
  0
TEXT
  5
BD
330
17
100
AcDbEntity
  8
0
100
AcDbText
 10
65.0
 20
65.0
 30
0.0
 40
2.0
  1
TEST 65
 50
234.0
 72
1
 11
65.0
 21
65.0
 31
0.0
100
AcDbText
  0
TEXT
  5
BE
330
17
100
AcDbEntity
  8
0
100
AcDbText
 10
66.0
 20
66.0
 30
0.0
 40
2.0
  1
TEST 66
 50
237.6
 72
1
 11
66.0
 21
66.0
 31
0.0
100
AcDbText
  0
TEXT
  5
BF
330
17
100
AcDbEntity
  8
0
100
AcDbText
 10
67.0
 20
67.0
 30
0.0
 40
2.0
  1
TEST 67
 50
241.20000000000002
 72
1
 11
67.0
 21
67.0
 31
0.0
100
AcDbText
  0
TEXT
  5
C0
330
17
100
AcDbEntity
  8
0
100
AcDbText
 10
68.0
 20
68.0
 30
0.0
 40
2.0
  1
TEST 68
 50
244.8
 72
1
 11
68.0
 21
68.0
 31
0.0
100
AcDbText
  0
TEXT
  5
C1
330
17
100
AcDbEntity
  8
0
100
AcDbText
 10
69.0
 20
69.0
 30
0.0
 40
2.0
  1
TEST 69
 50
248.4
 72
1
 11
69.0
 21
69.0
 31
0.0
100
AcDbText
  0
TEXT
  5
C2
330
17
100
AcDbEntity
  8
0
100
AcDbText
 10
70.0
 20
70.0
 30
0.0
 40
2.0
  1
TEST 70
 50
252.0
 72
1
 11
70.0
 21
70.0
 31
0.0
100
AcDbText
  0
TEXT
  5
C3
330
17
100
AcDbEntity
  8
0
100
AcDbText
 10
71.0
 20
71.0
 30
0.0
 40
2.0
  1
TEST 71
 50
255.6
 72
1
 11
71.0
 21
71.0
 31
0.0
100
AcDbText
  0
TEXT
  5
C4
330
17
100
AcDbEntity
  8
0
100
AcDbText
 10
72.0
 20
72.0
 30
0.0
 40
2.0
  1
TEST 72
 50
259.2
 72
1
 11
72.0
 21
72.0
 31
0.0
100
AcDbText
  0
TEXT
  5
C5
330
17
100
AcDbEntity
  8
0
100
AcDbText
 10
73.0
 20
73.0
 30
0.0
 40
2.0
  1
TEST 73
 50
262.8
 72
1
 11
73.0
 21
73.0
 31
0.0
100
AcDbText
  0
TEXT
  5
C6
330
17
100
AcDbEntity
  8
0
100
AcDbText
 10
74.0
 20
74.0
 30
0.0
 40
2.0
  1
TEST 74
 50
266.40000000000003
 72
1
 11
74.0
 21
74.0
 31
0.0
100
AcDbText
  0
TEXT
  5
C7
330
17
100
AcDbEntity
  8
0
100
AcDbText
 10
75.0
 20
75.0
 30
0.0
 40
2.0
  1
TEST 75
 50
270.0
 72
1
 11
75.0
 21
75.0
 31
0.0
100
AcDbText
  0
TEXT
  5
C8
330
17
100
AcDbEntity
  8
0
100
AcDbText
 10
76.0
 20
76.0
 30
0.0
 40
2.0
  1
TEST 76
 50
273.6
 72
1
 11
76.0
 21
76.0
 31
0.0
100
AcDbText
  0
TEXT
  5
C9
330
17
100
AcDbEntity
  8
0
100
AcDbText
 10
77.0
 20
77.0
 30
0.0
 40
2.0
  1
TEST 77
 50
277.2
 72
1
 11
77.0
 21
77.0
 31
0.0
100
AcDbText
  0
TEXT
  5
CA
330
17
100
AcDbEntity
  8
0
100
AcDbText
 10
78.0
 20
78.0
 30
0.0
 40
2.0
  1
TEST 78
 50
280.8
 72
1
 11
78.0
 21
78.0
 31
0.0
100
AcDbText
  0
TEXT
  5
CB
330
17
100
AcDbEntity
  8
0
100
AcDbText
 10
79.0
 20
79.0
 30
0.0
 40
2.0
  1
TEST 79
 50
284.40000000000003
 72
1
 11
79.0
 21
79.0
 31
0.0
100
AcDbText
  0
TEXT
  5
CC
330
17
100
AcDbEntity
  8
0
100
AcDbText
 10
80.0
 20
80.0
 30
0.0
 40
2.0
  1
TEST 80
 50
288.0
 72
1
 11
80.0
 21
80.0
 31
0.0
100
AcDbText
  0
TEXT
  5
CD
330
17
100
AcDbEntity
  8
0
100
AcDbText
 10
81.0
 20
81.0
 30
0.0
 40
2.0
  1
TEST 81
 50
291.6
 72
1
 11
81.0
 21
81.0
 31
0.0
100
AcDbText
  0
TEXT
  5
CE
330
17
100
AcDbEntity
  8
0
100
AcDbText
 10
82.0
 20
82.0
 30
0.0
 40
2.0
  1
TEST 82
 50
295.2
 72
1
 11
82.0
 21
82.0
 31
0.0
100
AcDbText
  0
TEXT
  5
CF
330
17
100
AcDbEntity
  8
0
100
AcDbText
 10
83.0
 20
83.0
 30
0.0
 40
2.0
  1
TEST 83
 50
298.8
 72
1
 11
83.0
 21
83.0
 31
0.0
100
AcDbText
  0
TEXT
  5
D0
330
17
100
AcDbEntity
  8
0
100
AcDbText
 10
84.0
 20
84.0
 30
0.0
 40
2.0
  1
TEST 84
 50
302.40000000000003
 72
1
 11
84.0
 21
84.0
 31
0.0
100
AcDbText
  0
TEXT
  5
D1
330
17
100
AcDbEntity
  8
0
100
AcDbText
 10
85.0
 20
85.0
 30
0.0
 40
2.0
  1
TEST 85
 50
306.0
 72
1
 11
85.0
 21
85.0
 31
0.0
100
AcDbText
  0
TEXT
  5
D2
330
17
100
AcDbEntity
  8
0
100
AcDbText
 10
86.0
 20
86.0
 30
0.0
 40
2.0
  1
TEST 86
 50
309.6
 72
1
 11
86.0
 21
86.0
 31
0.0
100
AcDbText
  0
TEXT
  5
D3
330
17
100
AcDbEntity
  8
0
100
AcDbText
 10
87.0
 20
87.0
 30
0.0
 40
2.0
  1
TEST 87
 50
313.2
 72
1
 11
87.0
 21
87.0
 31
0.0
100
AcDbText
  0
TEXT
  5
D4
330
17
100
AcDbEntity
  8
0
100
AcDbText
 10
88.0
 20
88.0
 30
0.0
 40
2.0
  1
TEST 88
 50
316.8
 72
1
 11
88.0
 21
88.0
 31
0.0
100
AcDbText
  0
TEXT
  5
D5
330
17
100
AcDbEntity
  8
0
100
AcDbText
 10
89.0
 20
89.0
 30
0.0
 40
2.0
  1
TEST 89
 50
320.40000000000003
 72
1
 11
89.0
 21
89.0
 31
0.0
100
AcDbText
  0
TEXT
  5
D6
330
17
100
AcDbEntity
  8
0
100
AcDbText
 10
90.0
 20
90.0
 30
0.0
 40
2.0
  1
TEST 90
 50
324.0
 72
1
 11
90.0
 21
90.0
 31
0.0
100
AcDbText
  0
TEXT
  5
D7
330
17
100
AcDbEntity
  8
0
100
AcDbText
 10
91.0
 20
91.0
 30
0.0
 40
2.0
  1
TEST 91
 50
327.6
 72
1
 11
91.0
 21
91.0
 31
0.0
100
AcDbText
  0
TEXT
  5
D8
330
17
100
AcDbEntity
  8
0
100
AcDbText
 10
92.0
 20
92.0
 30
0.0
 40
2.0
  1
TEST 92
 50
331.2
 72
1
 11
92.0
 21
92.0
 31
0.0
100
AcDbText
  0
TEXT
  5
D9
330
17
100
AcDbEntity
  8
0
100
AcDbText
 10
93.0
 20
93.0
 30
0.0
 40
2.0
  1
TEST 93
 50
334.8
 72
1
 11
93.0
 21
93.0
 31
0.0
100
AcDbText
  0
TEXT
  5
DA
330
17
100
AcDbEntity
  8
0
100
AcDbText
 10
94.0
 20
94.0
 30
0.0
 40
2.0
  1
TEST 94
 50
338.40000000000003
 72
1
 11
94.0
 21
94.0
 31
0.0
100
AcDbText
  0
TEXT
  5
DB
330
17
100
AcDbEntity
  8
0
100
AcDbText
 10
95.0
 20
95.0
 30
0.0
 40
2.0
  1
TEST 95
 50
342.0
 72
1
 11
95.0
 21
95.0
 31
0.0
100
AcDbText
  0
TEXT
  5
DC
330
17
100
AcDbEntity
  8
0
100
AcDbText
 10
96.0
 20
96.0
 30
0.0
 40
2.0
  1
TEST 96
 50
345.6
 72
1
 11
96.0
 21
96.0
 31
0.0
100
AcDbText
  0
TEXT
  5
DD
330
17
100
AcDbEntity
  8
0
100
AcDbText
 10
97.0
 20
97.0
 30
0.0
 40
2.0
  1
TEST 97
 50
349.2
 72
1
 11
97.0
 21
97.0
 31
0.0
100
AcDbText
  0
TEXT
  5
DE
330
17
100
AcDbEntity
  8
0
100
AcDbText
 10
98.0
 20
98.0
 30
0.0
 40
2.0
  1
TEST 98
 50
352.8
 72
1
 11
98.0
 21
98.0
 31
0.0
100
AcDbText
  0
TEXT
  5
DF
330
17
100
AcDbEntity
  8
0
100
AcDbText
 10
99.0
 20
99.0
 30
0.0
 40
2.0
  1
TEST 99
 50
356.40000000000003
 72
1
 11
99.0
 21
99.0
 31
0.0
100
AcDbText
  0
CIRCLE
  5
E0
330
17
100
AcDbEntity
  8
POSTE
100
AcDbCircle
 10
50.0
 20
50.0
 30
0.0
 40
0.5
  0
INSERT
  5
E1
330
17
100
AcDbEntity
  8
0
100
AcDbBlockReference
  2
NORTE
 10
90.0
 20
90.0
 30
0.0
  0
INSERT
  5
E3
330
17
100
AcDbEntity
  8
0
100
AcDbBlockReference
  2
ESCALA
 10
70.0
 20
10.0
 30
0.0
  0
TEXT
  5
E5
330
17
100
AcDbEntity
  8
QUADRO
100
AcDbText
 10
120.0
 20
100.0
 30
0.0
 40
4.0
  1
LEGENDA TÉCNICA
  7
PRO_STYLE
 11
120.0
 21
100.0
 31
0.0
100
AcDbText
  0
LINE
  5
E6
330
17
100
AcDbEntity
  8
EDIFICACAO
 62
5
100
AcDbLine
 10
120.0
 20
90.0
 30
0.0
 11
130.0
 21
90.0
 31
0.0
  0
TEXT
  5
E7
330
17
100
AcDbEntity
  8
QUADRO
100
AcDbText
 10
132.0
 20
89.0
 30
0.0
 40
2.5
  1
EDIFICAÇÕES
 11
132.0
 21
89.0
 31
0.0
100
AcDbText
  0
LINE
  5
E8
330
17
100
AcDbEntity
  8
VIAS
 62
1
100
AcDbLine
 10
120.0
 20
82.0
 30
0.0
 11
130.0
 21
82.0
 31
0.0
  0
TEXT
  5
E9
330
17
100
AcDbEntity
  8
QUADRO
100
AcDbText
 10
132.0
 20
81.0
 30
0.0
 40
2.5
  1
VIAS / RUAS
 11
132.0
 21
81.0
 31
0.0
100
AcDbText
  0
LINE
  5
EA
330
17
100
AcDbEntity
  8
VIAS_MEIO_FIO
 62
9
100
AcDbLine
 10
120.0
 20
74.0
 30
0.0
 11
130.0
 21
74.0
 31
0.0
  0
TEXT
  5
EB
330
17
100
AcDbEntity
  8
QUADRO
100
AcDbText
 10
132.0
 20
73.0
 30
0.0
 40
2.5
  1
MEIO-FIO
 11
132.0
 21
73.0
 31
0.0
100
AcDbText
  0
LINE
  5
EC
330
17
100
AcDbEntity
  8
VEGETACAO
 62
3
100
AcDbLine
 10
120.0
 20
66.0
 30
0.0
 11
130.0
 21
66.0
 31
0.0
  0
TEXT
  5
ED
330
17
100
AcDbEntity
  8
QUADRO
100
AcDbText
 10
132.0
 20
65.0
 30
0.0
 40
2.5
  1
VEGETAÇÃO
 11
132.0
 21
65.0
 31
0.0
100
AcDbText
  0
LINE
  5
EE
330
17
100
AcDbEntity
  8
MOBILIARIO_URBANO
 62
2
100
AcDbLine
 10
120.0
 20
58.0
 30
0.0
 11
130.0
 21
58.0
 31
0.0
  0
TEXT
  5
EF
330
17
100
AcDbEntity
  8
QUADRO
100
AcDbText
 10
132.0
 20
57.0
 30
0.0
 40
2.5
  1
ILUMINAÇÃO PÚBLICA
 11
132.0
 21
57.0
 31
0.0
100
AcDbText
  0
LINE
  5
F0
330
17
100
AcDbEntity
  8
INFRA_POWER_HV
 62
1
100
AcDbLine
 10
120.0
 20
50.0
 30
0.0
 11
130.0
 21
50.0
 31
0.0
  0
TEXT
  5
F1
330
17
100
AcDbEntity
  8
QUADRO
100
AcDbText
 10
132.0
 20
49.0
 30
0.0
 40
2.5
  1
REDE ELÉTRICA (AT)
 11
132.0
 21
49.0
 31
0.0
100
AcDbText
  0
LINE
  5
F2
330
17
100
AcDbEntity
  8
INFRA_POWER_LV
 62
30
100
AcDbLine
 10
120.0
 20
42.0
 30
0.0
 11
130.0
 21
42.0
 31
0.0
  0
TEXT
  5
F3
330
17
100
AcDbEntity
  8
QUADRO
100
AcDbText
 10
132.0
 20
41.0
 30
0.0
 40
2.5
  1
REDE ELÉTRICA (BT)
 11
132.0
 21
41.0
 31
0.0
100
AcDbText
  0
LINE
  5
F4
330
17
100
AcDbEntity
  8
INFRA_TELECOM
 62
90
100
AcDbLine
 10
120.0
 20
34.0
 30
0.0
 11
130.0
 21
34.0
 31
0.0
  0
TEXT
  5
F5
330
17
100
AcDbEntity
  8
QUADRO
100
AcDbText
 10
132.0
 20
33.0
 30
0.0
 40
2.5
  1
TELECOMUNICAÇÕES
 11
132.0
 21
33.0
 31
0.0
100
AcDbText
  0
LINE
  5
F6
330
17
100
AcDbEntity
  8
TOPOGRAFIA_CURVAS
 62
8
100
AcDbLine
 10
120.0
 20
26.0
 30
0.0
 11
130.0
 21
26.0
 31
0.0
  0
TEXT
  5
F7
330
17
100
AcDbEntity
  8
QUADRO
100
AcDbText
 10
132.0
 20
25.0
 30
0.0
 40
2.5
  1
CURVAS DE NÍVEL
 11
132.0
 21
25.0
 31
0.0
100
AcDbText
  0
LWPOLYLINE
  5
F8
330
1B
100
AcDbEntity
 67
1
  8
QUADRO
370
50
100
AcDbPolyline
 90
4
 70
1
 10
0.0
 20
0.0
 10
420.0
 20
0.0
 10
420.0
 20
297.0
 10
0.0
 20
297.0
  0
VIEWPORT
  5
F9
330
1B
100
AcDbEntity
 67
1
  8
VIEWPORTS
100
AcDbViewport
 10
210.0
 20
168.5
 30
0.0
 40
380.0
 41
217.0
 68
1
 69
3
 12
0.0
 22
0.0
 13
0.0
 23
0.0
 14
10.0
 24
10.0
 15
10.0
 25
10.0
 16
0.0
 26
0.0
 36
1.0
 17
0.0
 27
0.0
 37
0.0
 42
50.0
 43
0.0
 44
0.0
 45
200.0
 50
0.0
 51
0.0
 72
100
 90
0
  1

281
0
 71
0
 74
0
110
0.0
120
0.0
130
0.0
111
1.0
121
0.0
131
0.0
112
0.0
122
1.0
132
0.0
 79
0
146
0.0
282
0
  0
LWPOLYLINE
  5
FA
330
1B
100
AcDbEntity
 67
1
  8
QUADRO
100
AcDbPolyline
 90
4
 70
1
 10
235.0
 20
0.0
 10
420.0
 20
0.0
 10
420.0
 20
50.0
 10
235.0
 20
50.0
  0
LINE
  5
FB
330
1B
100
AcDbEntity
 67
1
  8
QUADRO
100
AcDbLine
 10
235.0
 20
25.0
 30
0.0
 11
420.0
 21
25.0
 31
0.0
  0
LINE
  5
FC
330
1B
100
AcDbEntity
 67
1
  8
QUADRO
100
AcDbLine
 10
335.0
 20
0.0
 30
0.0
 11
335.0
 21
25.0
 31
0.0
  0
TEXT
  5
FD
330
1B
100
AcDbEntity
 67
1
  8
0
100
AcDbText
 10
240.0
 20
35.0
 30
0.0
 40
4.0
  1
PROJETO: EXTRACAO ESPACIAL OSM
  7
PRO_STYLE
 11
240.0
 21
35.0
 31
0.0
100
AcDbText
  0
TEXT
  5
FE
330
1B
100
AcDbEntity
 67
1
  8
0
100
AcDbText
 10
240.0
 20
15.0
 30
0.0
 40
3.0
  1
CLIENTE: CLIENTE PADRÃO
  7
PRO_STYLE
 11
240.0
 21
15.0
 31
0.0
100
AcDbText
  0
TEXT
  5
FF
330
1B
100
AcDbEntity
 67
1
  8
0
100
AcDbText
 10
340.0
 20
15.0
 30
0.0
 40
2.5
  1
DATA: 15/02/2026
  7
PRO_STYLE
 11
340.0
 21
15.0
 31
0.0
100
AcDbText
  0
TEXT
  5
100
330
1B
100
AcDbEntity
 67
1
  8
0
100
AcDbText
 10
340.0
 20
5.0
 30
0.0
 40
2.0
  1
ENGINE: sisRUA Unified v1.5
  7
PRO_STYLE
 11
340.0
 21
5.0
 31
0.0
100
AcDbText
  0
TEXT
  5
101
330
1B
100
AcDbEntity
 67
1
  8
0
100
AcDbText
 10
240.0
 20
5.0
 30
0.0
 40
2.5
  1
RESPONSÁVEL: sisRUA AI
  7
PRO_STYLE
 11
240.0
 21
5.0
 31
0.0
100
AcDbText
  0
INSERT
  5
102
330
1B
100
AcDbEntity
 67
1
  8
0
100
AcDbBlockReference
  2
LOGO
 10
400.0
 20
40.0
 30
0.0
  0
ENDSEC
  0
SECTION
  2
OBJECTS
  0
DICTIONARY
  5
A
330
0
100
AcDbDictionary
281
1
  3
ACAD_COLOR
350
B
  3
ACAD_GROUP
350
C
  3
ACAD_LAYOUT
350
D
  3
ACAD_MATERIAL
350
E
  3
ACAD_MLEADERSTYLE
350
F
  3
ACAD_MLINESTYLE
350
10
  3
ACAD_PLOTSETTINGS
350
11
  3
ACAD_PLOTSTYLENAME
350
12
  3
ACAD_SCALELIST
350
14
  3
ACAD_TABLESTYLE
350
15
  3
ACAD_VISUALSTYLE
350
16
  3
EZDXF_META
350
2D
  0
DICTIONARY
  5
B
330
A
100
AcDbDictionary
281
1
  0
DICTIONARY
  5
C
330
A
100
AcDbDictionary
281
1
  0
DICTIONARY
  5
D
330
A
100
AcDbDictionary
281
1
  3
Model
350
1A
  3
Layout1
350
1E
  0
DICTIONARY
  5
E
330
A
100
AcDbDictionary
281
1
  3
ByBlock
350
1F
  3
ByLayer
350
20
  3
Global
350
21
  0
DICTIONARY
  5
F
330
A
100
AcDbDictionary
281
1
  3
Standard
350
2C
  0
DICTIONARY
  5
10
330
A
100
AcDbDictionary
281
1
  3
Standard
350
22
  0
DICTIONARY
  5
11
330
A
100
AcDbDictionary
281
1
  0
ACDBDICTIONARYWDFLT
  5
12
330
A
100
AcDbDictionary
281
1
  3
Normal
350
13
100
AcDbDictionaryWithDefault
340
13
  0
ACDBPLACEHOLDER
  5
13
330
12
  0
DICTIONARY
  5
14
330
A
100
AcDbDictionary
281
1
  0
DICTIONARY
  5
15
330
A
100
AcDbDictionary
281
1
  0
DICTIONARY
  5
16
330
A
100
AcDbDictionary
281
1
  0
LAYOUT
  5
1A
330
D
100
AcDbPlotSettings
  1

  4
A3
  6

 40
7.5
 41
20.0
 42
7.5
 43
20.0
 44
420.0
 45
297.0
 46
0.0
 47
0.0
 48
0.0
 49
0.0
140
0.0
141
0.0
142
1.0
143
1.0
 70
1024
 72
1
 73
0
 74
5
  7

 75
16
 76
0
 77
2
 78
300
147
1.0
148
0.0
149
0.0
100
AcDbLayout
  1
Model
 70
1
 71
0
 10
0.0
 20
0.0
 11
420.0
 21
297.0
 12
0.0
 22
0.0
 32
0.0
 14
1e+20
 24
1e+20
 34
1e+20
 15
-1e+20
 25
-1e+20
 35
-1e+20
146
0.0
 13
0.0
 23
0.0
 33
0.0
 16
1.0
 26
0.0
 36
0.0
 17
0.0
 27
1.0
 37
0.0
 76
1
330
17
  0
LAYOUT
  5
1E
330
D
100
AcDbPlotSettings
  1

  4
A3
  6

 40
7.5
 41
20.0
 42
7.5
 43
20.0
 44
420.0
 45
297.0
 46
0.0
 47
0.0
 48
0.0
 49
0.0
140
0.0
141
0.0
142
1.0
143
1.0
 70
0
 72
1
 73
0
 74
5
  7

 75
16
 76
0
 77
2
 78
300
147
1.0
148
0.0
149
0.0
100
AcDbLayout
  1
Layout1
 70
1
 71
1
 10
0.0
 20
0.0
 11
420.0
 21
297.0
 12
0.0
 22
0.0
 32
0.0
 14
1e+20
 24
1e+20
 34
1e+20
 15
-1e+20
 25
-1e+20
 35
-1e+20
146
0.0
 13
0.0
 23
0.0
 33
0.0
 16
1.0
 26
0.0
 36
0.0
 17
0.0
 27
1.0
 37
0.0
 76
1
330
1B
  0
MATERIAL
  5
1F
102
{ACAD_REACTORS
330
E
102
}
330
E
100
AcDbMaterial
  1
ByBlock
  2

 70
0
 40
1.0
 71
1
 41
1.0
 91
-1023410177
 42
1.0
 72
1
  3

 73
1
 74
1
 75
1
 44
0.5
 73
0
 45
1.0
 46
1.0
 77
1
  4

 78
1
 79
1
170
1
 48
1.0
171
1
  6

172
1
173
1
174
1
140
1.0
141
1.0
175
1
  7

176
1
177
1
178
1
143
1.0
179
1
  8

270
1
271
1
272
1
145
1.0
146
1.0
273
1
  9

274
1
275
1
276
1
 42
1.0
 72
1
  3

 73
1
 74
1
 75
1
 94
63
  0
MATERIAL
  5
20
102
{ACAD_REACTORS
330
E
102
}
330
E
100
AcDbMaterial
  1
ByLayer
  2

 70
0
 40
1.0
 71
1
 41
1.0
 91
-1023410177
 42
1.0
 72
1
  3

 73
1
 74
1
 75
1
 44
0.5
 73
0
 45
1.0
 46
1.0
 77
1
  4

 78
1
 79
1
170
1
 48
1.0
171
1
  6

172
1
173
1
174
1
140
1.0
141
1.0
175
1
  7

176
1
177
1
178
1
143
1.0
179
1
  8

270
1
271
1
272
1
145
1.0
146
1.0
273
1
  9

274
1
275
1
276
1
 42
1.0
 72
1
  3

 73
1
 74
1
 75
1
 94
63
  0
MATERIAL
  5
21
102
{ACAD_REACTORS
330
E
102
}
330
E
100
AcDbMaterial
  1
Global
  2

 70
0
 40
1.0
 71
1
 41
1.0
 91
-1023410177
 42
1.0
 72
1
  3

 73
1
 74
1
 75
1
 44
0.5
 73
0
 45
1.0
 46
1.0
 77
1
  4

 78
1
 79
1
170
1
 48
1.0
171
1
  6

172
1
173
1
174
1
140
1.0
141
1.0
175
1
  7

176
1
177
1
178
1
143
1.0
179
1
  8

270
1
271
1
272
1
145
1.0
146
1.0
273
1
  9

274
1
275
1
276
1
 42
1.0
 72
1
  3

 73
1
 74
1
 75
1
 94
63
  0
MLINESTYLE
  5
22
102
{ACAD_REACTORS
330
10
102
}
330
10
100
AcDbMlineStyle
  2
Standard
 70
0
  3

 62
256
 51
90.0
 52
90.0
 71
2
 49
0.5
 62
256
  6
BYLAYER
 49
-0.5
 62
256
  6
BYLAYER
  0
MLEADERSTYLE
  5
2C
102
{ACAD_REACTORS
330
F
102
}
330
F
100
AcDbMLeaderStyle
179
2
170
2
171
1
172
0
 90
2
 40
0.0
 41
0.0
173
1
 91
-1056964608
 92
-2
290
1
 42
2.0
291
1
 43
8.0
  3
Standard
 44
4.0
300

342
29
174
1
175
1
176
0
178
1
 93
-1056964608
 45
4.0
292
0
297
0
 46
4.0
 94
-1056964608
 47
1.0
 49
1.0
140
1.0
294
1
141
0.0
177
0
142
1.0
295
0
296
0
143
3.75
271
0
272
9
273
9
  0
DICTIONARY
  5
2D
330
A
100
AcDbDictionary
280
1
281
1
  3
CREATED_BY_EZDXF
350
2E
  3
WRITTEN_BY_EZDXF
350
106
  0
DICTIONARYVAR
  5
2E
330
2D
100
DictionaryVariables
280
0
  1
1.4.3 @ 2026-02-16T01:26:27.696420+00:00
  0
DICTIONARYVAR
  5
106
330
2D
100
DictionaryVariables
280
0
  1
1.4.3 @ 2026-02-16T01:26:27.701355+00:00
  0
ENDSEC
  0
EOF
