  0
SECTION
  2
HEADER
  9
$ACADVER
  1
AC1032
  9
$ACADMAINTVER
 90
4
  9
$DWGCODEPAGE
  3
ANSI_1252
  9
$LASTSAVEDBY
  1
ezdxf
  9
$REQUIREDVERSIONS
160
0
  9
$INSBASE
 10
0.0
 20
0.0
 30
0.0
  9
$EXTMIN
 10
1e+20
 20
1e+20
 30
1e+20
  9
$EXTMAX
 10
-1e+20
 20
-1e+20
 30
-1e+20
  9
$LIMMIN
 10
0.0
 20
0.0
  9
$LIMMAX
 10
420.0
 20
297.0
  9
$ORTHOMODE
 70
0
  9
$REGENMODE
 70
1
  9
$FILLMODE
 70
1
  9
$QTEXTMODE
 70
0
  9
$MIRRTEXT
 70
1
  9
$LTSCALE
 40
1.0
  9
$ATTMODE
 70
1
  9
$TEXTSIZE
 40
2.5
  9
$TRACEWID
 40
1.0
  9
$TEXTSTYLE
  7
Standard
  9
$CLAYER
  8
0
  9
$CELTYPE
  6
ByLayer
  9
$CECOLOR
 62
256
  9
$CELTSCALE
 40
1.0
  9
$DISPSILH
 70
0
  9
$DIMSCALE
 40
1.0
  9
$DIMASZ
 40
2.5
  9
$DIMEXO
 40
0.625
  9
$DIMDLI
 40
3.75
  9
$DIMRND
 40
0.0
  9
$DIMDLE
 40
0.0
  9
$DIMEXE
 40
1.25
  9
$DIMTP
 40
0.0
  9
$DIMTM
 40
0.0
  9
$DIMTXT
 40
2.5
  9
$DIMCEN
 40
2.5
  9
$DIMTSZ
 40
0.0
  9
$DIMTOL
 70
0
  9
$DIMLIM
 70
0
  9
$DIMTIH
 70
0
  9
$DIMTOH
 70
0
  9
$DIMSE1
 70
0
  9
$DIMSE2
 70
0
  9
$DIMTAD
 70
1
  9
$DIMZIN
 70
8
  9
$DIMBLK
  1

  9
$DIMASO
 70
1
  9
$DIMSHO
 70
1
  9
$DIMPOST
  1

  9
$DIMAPOST
  1

  9
$DIMALT
 70
0
  9
$DIMALTD
 70
3
  9
$DIMALTF
 40
0.03937007874
  9
$DIMLFAC
 40
1.0
  9
$DIMTOFL
 70
1
  9
$DIMTVP
 40
0.0
  9
$DIMTIX
 70
0
  9
$DIMSOXD
 70
0
  9
$DIMSAH
 70
0
  9
$DIMBLK1
  1

  9
$DIMBLK2
  1

  9
$DIMSTYLE
  2
ISO-25
  9
$DIMCLRD
 70
0
  9
$DIMCLRE
 70
0
  9
$DIMCLRT
 70
0
  9
$DIMTFAC
 40
1.0
  9
$DIMGAP
 40
0.625
  9
$DIMJUST
 70
0
  9
$DIMSD1
 70
0
  9
$DIMSD2
 70
0
  9
$DIMTOLJ
 70
0
  9
$DIMTZIN
 70
8
  9
$DIMALTZ
 70
0
  9
$DIMALTTZ
 70
0
  9
$DIMUPT
 70
0
  9
$DIMDEC
 70
2
  9
$DIMTDEC
 70
2
  9
$DIMALTU
 70
2
  9
$DIMALTTD
 70
3
  9
$DIMTXSTY
  7
Standard
  9
$DIMAUNIT
 70
0
  9
$DIMADEC
 70
0
  9
$DIMALTRND
 40
0.0
  9
$DIMAZIN
 70
0
  9
$DIMDSEP
 70
44
  9
$DIMATFIT
 70
3
  9
$DIMFRAC
 70
0
  9
$DIMLDRBLK
  1

  9
$DIMLUNIT
 70
2
  9
$DIMLWD
 70
-2
  9
$DIMLWE
 70
-2
  9
$DIMTMOVE
 70
0
  9
$DIMFXL
 40
1.0
  9
$DIMFXLON
 70
0
  9
$DIMJOGANG
 40
0.785398163397
  9
$DIMTFILL
 70
0
  9
$DIMTFILLCLR
 70
0
  9
$DIMARCSYM
 70
0
  9
$DIMLTYPE
  6

  9
$DIMLTEX1
  6

  9
$DIMLTEX2
  6

  9
$DIMTXTDIRECTION
 70
0
  9
$LUNITS
 70
2
  9
$LUPREC
 70
4
  9
$SKETCHINC
 40
1.0
  9
$FILLETRAD
 40
10.0
  9
$AUNITS
 70
0
  9
$AUPREC
 70
2
  9
$MENU
  1
.
  9
$ELEVATION
 40
0.0
  9
$PELEVATION
 40
0.0
  9
$THICKNESS
 40
0.0
  9
$LIMCHECK
 70
0
  9
$CHAMFERA
 40
0.0
  9
$CHAMFERB
 40
0.0
  9
$CHAMFERC
 40
0.0
  9
$CHAMFERD
 40
0.0
  9
$SKPOLY
 70
0
  9
$TDCREATE
 40
2461091.4090046296
  9
$TDUCREATE
 40
2458532.153996898
  9
$TDUPDATE
 40
2461091.4091666667
  9
$TDUUPDATE
 40
2458532.1544311
  9
$TDINDWG
 40
0.0
  9
$TDUSRTIMER
 40
0.0
  9
$USRTIMER
 70
1
  9
$ANGBASE
 50
0.0
  9
$ANGDIR
 70
0
  9
$PDMODE
 70
0
  9
$PDSIZE
 40
0.0
  9
$PLINEWID
 40
0.0
  9
$SPLFRAME
 70
0
  9
$SPLINETYPE
 70
6
  9
$SPLINESEGS
 70
8
  9
$HANDSEED
  5
64
  9
$SURFTAB1
 70
6
  9
$SURFTAB2
 70
6
  9
$SURFTYPE
 70
6
  9
$SURFU
 70
6
  9
$SURFV
 70
6
  9
$UCSBASE
  2

  9
$UCSNAME
  2

  9
$UCSORG
 10
0.0
 20
0.0
 30
0.0
  9
$UCSXDIR
 10
1.0
 20
0.0
 30
0.0
  9
$UCSYDIR
 10
0.0
 20
1.0
 30
0.0
  9
$UCSORTHOREF
  2

  9
$UCSORTHOVIEW
 70
0
  9
$UCSORGTOP
 10
0.0
 20
0.0
 30
0.0
  9
$UCSORGBOTTOM
 10
0.0
 20
0.0
 30
0.0
  9
$UCSORGLEFT
 10
0.0
 20
0.0
 30
0.0
  9
$UCSORGRIGHT
 10
0.0
 20
0.0
 30
0.0
  9
$UCSORGFRONT
 10
0.0
 20
0.0
 30
0.0
  9
$UCSORGBACK
 10
0.0
 20
0.0
 30
0.0
  9
$PUCSBASE
  2

  9
$PUCSNAME
  2

  9
$PUCSORG
 10
0.0
 20
0.0
 30
0.0
  9
$PUCSXDIR
 10
1.0
 20
0.0
 30
0.0
  9
$PUCSYDIR
 10
0.0
 20
1.0
 30
0.0
  9
$PUCSORTHOREF
  2

  9
$PUCSORTHOVIEW
 70
0
  9
$PUCSORGTOP
 10
0.0
 20
0.0
 30
0.0
  9
$PUCSORGBOTTOM
 10
0.0
 20
0.0
 30
0.0
  9
$PUCSORGLEFT
 10
0.0
 20
0.0
 30
0.0
  9
$PUCSORGRIGHT
 10
0.0
 20
0.0
 30
0.0
  9
$PUCSORGFRONT
 10
0.0
 20
0.0
 30
0.0
  9
$PUCSORGBACK
 10
0.0
 20
0.0
 30
0.0
  9
$USERI1
 70
0
  9
$USERI2
 70
0
  9
$USERI3
 70
0
  9
$USERI4
 70
0
  9
$USERI5
 70
0
  9
$USERR1
 40
0.0
  9
$USERR2
 40
0.0
  9
$USERR3
 40
0.0
  9
$USERR4
 40
0.0
  9
$USERR5
 40
0.0
  9
$WORLDVIEW
 70
1
  9
$SHADEDGE
 70
3
  9
$SHADEDIF
 70
70
  9
$TILEMODE
 70
1
  9
$MAXACTVP
 70
64
  9
$PINSBASE
 10
0.0
 20
0.0
 30
0.0
  9
$PLIMCHECK
 70
0
  9
$PEXTMIN
 10
1e+20
 20
1e+20
 30
1e+20
  9
$PEXTMAX
 10
-1e+20
 20
-1e+20
 30
-1e+20
  9
$PLIMMIN
 10
0.0
 20
0.0
  9
$PLIMMAX
 10
420.0
 20
297.0
  9
$UNITMODE
 70
0
  9
$VISRETAIN
 70
1
  9
$PLINEGEN
 70
0
  9
$PSLTSCALE
 70
1
  9
$TREEDEPTH
 70
3020
  9
$CMLSTYLE
  2
Standard
  9
$CMLJUST
 70
0
  9
$CMLSCALE
 40
20.0
  9
$PROXYGRAPHICS
 70
1
  9
$MEASUREMENT
 70
1
  9
$CELWEIGHT
370
-1
  9
$ENDCAPS
280
0
  9
$JOINSTYLE
280
0
  9
$LWDISPLAY
290
0
  9
$INSUNITS
 70
6
  9
$HYPERLINKBASE
  1

  9
$STYLESHEET
  1

  9
$XEDIT
290
1
  9
$CEPSNTYPE
380
0
  9
$PSTYLEMODE
290
1
  9
$FINGERPRINTGUID
  2
{9111E0B0-92D0-4CA2-B707-A1EA8B039A6F}
  9
$VERSIONGUID
  2
{D42BA0FC-90BE-439F-8E5E-A77B089F4D11}
  9
$EXTNAMES
290
1
  9
$PSVPSCALE
 40
0.0
  9
$OLESTARTUP
290
0
  9
$SORTENTS
280
127
  9
$INDEXCTL
280
0
  9
$HIDETEXT
280
1
  9
$XCLIPFRAME
280
1
  9
$HALOGAP
280
0
  9
$OBSCOLOR
 70
257
  9
$OBSLTYPE
280
0
  9
$INTERSECTIONDISPLAY
280
0
  9
$INTERSECTIONCOLOR
 70
257
  9
$DIMASSOC
280
2
  9
$PROJECTNAME
  1

  9
$CAMERADISPLAY
290
0
  9
$LENSLENGTH
 40
50.0
  9
$CAMERAHEIGHT
 40
0.0
  9
$STEPSPERSEC
 40
24.0
  9
$STEPSIZE
 40
100.0
  9
$3DDWFPREC
 40
2.0
  9
$PSOLWIDTH
 40
0.005
  9
$PSOLHEIGHT
 40
0.08
  9
$LOFTANG1
 40
1.570796326795
  9
$LOFTANG2
 40
1.570796326795
  9
$LOFTMAG1
 40
0.0
  9
$LOFTMAG2
 40
0.0
  9
$LOFTPARAM
 70
7
  9
$LOFTNORMALS
280
1
  9
$LATITUDE
 40
37.795
  9
$LONGITUDE
 40
-122.394
  9
$NORTHDIRECTION
 40
0.0
  9
$TIMEZONE
 70
-8000
  9
$LIGHTGLYPHDISPLAY
280
1
  9
$TILEMODELIGHTSYNCH
280
1
  9
$CMATERIAL
347
20
  9
$SOLIDHIST
280
0
  9
$SHOWHIST
280
1
  9
$DWFFRAME
280
2
  9
$DGNFRAME
280
2
  9
$REALWORLDSCALE
290
1
  9
$INTERFERECOLOR
 62
256
  9
$CSHADOW
280
0
  9
$SHADOWPLANELOCATION
 40
0.0
  0
ENDSEC
  0
SECTION
  2
CLASSES
  0
CLASS
  1
ACDBDICTIONARYWDFLT
  2
AcDbDictionaryWithDefault
  3
ObjectDBX Classes
 90
0
 91
0
280
0
281
0
  0
CLASS
  1
SUN
  2
AcDbSun
  3
SCENEOE
 90
1153
 91
0
280
0
281
0
  0
CLASS
  1
VISUALSTYLE
  2
AcDbVisualStyle
  3
ObjectDBX Classes
 90
4095
 91
0
280
0
281
0
  0
CLASS
  1
MATERIAL
  2
AcDbMaterial
  3
ObjectDBX Classes
 90
1153
 91
0
280
0
281
0
  0
CLASS
  1
SCALE
  2
AcDbScale
  3
ObjectDBX Classes
 90
1153
 91
0
280
0
281
0
  0
CLASS
  1
TABLESTYLE
  2
AcDbTableStyle
  3
ObjectDBX Classes
 90
4095
 91
0
280
0
281
0
  0
CLASS
  1
MLEADERSTYLE
  2
AcDbMLeaderStyle
  3
ACDB_MLEADERSTYLE_CLASS
 90
4095
 91
0
280
0
281
0
  0
CLASS
  1
DICTIONARYVAR
  2
AcDbDictionaryVar
  3
ObjectDBX Classes
 90
0
 91
0
280
0
281
0
  0
CLASS
  1
CELLSTYLEMAP
  2
AcDbCellStyleMap
  3
ObjectDBX Classes
 90
1152
 91
0
280
0
281
0
  0
CLASS
  1
MENTALRAYRENDERSETTINGS
  2
AcDbMentalRayRenderSettings
  3
SCENEOE
 90
1024
 91
0
280
0
281
0
  0
CLASS
  1
ACDBDETAILVIEWSTYLE
  2
AcDbDetailViewStyle
  3
ObjectDBX Classes
 90
1025
 91
0
280
0
281
0
  0
CLASS
  1
ACDBSECTIONVIEWSTYLE
  2
AcDbSectionViewStyle
  3
ObjectDBX Classes
 90
1025
 91
0
280
0
281
0
  0
CLASS
  1
RASTERVARIABLES
  2
AcDbRasterVariables
  3
ISM
 90
0
 91
0
280
0
281
0
  0
CLASS
  1
LAYOUT
  2
AcDbLayout
  3
ObjectDBX Classes
 90
0
 91
0
280
0
281
0
  0
CLASS
  1
ACDBPLACEHOLDER
  2
AcDbPlaceHolder
  3
ObjectDBX Classes
 90
0
 91
0
280
0
281
0
  0
ENDSEC
  0
SECTION
  2
TABLES
  0
TABLE
  2
VPORT
  5
8
330
0
100
AcDbSymbolTable
 70
1
  0
VPORT
  5
23
330
8
100
AcDbSymbolTableRecord
100
AcDbViewportTableRecord
  2
*Active
 70
0
 10
0.0
 20
0.0
 11
1.0
 21
1.0
 12
0.0
 22
0.0
 13
0.0
 23
0.0
 14
0.5
 24
0.5
 15
0.5
 25
0.5
 16
0.0
 26
0.0
 36
1.0
 17
0.0
 27
0.0
 37
0.0
 40
1000.0
 41
1.34
 42
50.0
 43
0.0
 44
0.0
 50
0.0
 51
0.0
 71
0
 72
1000
 73
1
 74
3
 75
0
 76
0
 77
0
 78
0
281
0
 65
0
146
0.0
  0
ENDTAB
  0
TABLE
  2
LTYPE
  5
2
330
0
100
AcDbSymbolTable
 70
3
  0
LTYPE
  5
24
330
2
100
AcDbSymbolTableRecord
100
AcDbLinetypeTableRecord
  2
ByBlock
 70
0
  3

 72
65
 73
0
 40
0.0
  0
LTYPE
  5
25
330
2
100
AcDbSymbolTableRecord
100
AcDbLinetypeTableRecord
  2
ByLayer
 70
0
  3

 72
65
 73
0
 40
0.0
  0
LTYPE
  5
26
330
2
100
AcDbSymbolTableRecord
100
AcDbLinetypeTableRecord
  2
Continuous
 70
0
  3

 72
65
 73
0
 40
0.0
  0
ENDTAB
  0
TABLE
  2
LAYER
  5
1
330
0
100
AcDbSymbolTable
 70
9
  0
LAYER
  5
27
330
1
100
AcDbSymbolTableRecord
100
AcDbLayerTableRecord
  2
0
 70
0
 62
7
  6
Continuous
370
-3
390
13
347
21
  0
LAYER
  5
28
330
1
100
AcDbSymbolTableRecord
100
AcDbLayerTableRecord
  2
Defpoints
 70
0
 62
7
  6
Continuous
290
0
370
-3
390
13
347
21
  0
LAYER
  5
2F
330
1
100
AcDbSymbolTableRecord
100
AcDbLayerTableRecord
  2
AOI
 70
0
 62
6
  6
Continuous
370
-3
390
13
347
21
  0
LAYER
  5
30
330
1
100
AcDbSymbolTableRecord
100
AcDbLayerTableRecord
  2
TERRAIN
 70
0
 62
8
  6
Continuous
370
-3
390
13
347
21
  0
LAYER
  5
31
330
1
100
AcDbSymbolTableRecord
100
AcDbLayerTableRecord
  2
ELEVATION
 70
0
 62
9
  6
Continuous
370
-3
390
13
347
21
  0
LAYER
  5
32
330
1
100
AcDbSymbolTableRecord
100
AcDbLayerTableRecord
  2
BUILDINGS
 70
0
 62
1
  6
Continuous
370
-3
390
13
347
21
  0
LAYER
  5
33
330
1
100
AcDbSymbolTableRecord
100
AcDbLayerTableRecord
  2
ROADS
 70
0
 62
3
  6
Continuous
370
-3
390
13
347
21
  0
LAYER
  5
34
330
1
100
AcDbSymbolTableRecord
100
AcDbLayerTableRecord
  2
TREES
 70
0
 62
2
  6
Continuous
370
-3
390
13
347
21
  0
LAYER
  5
35
330
1
100
AcDbSymbolTableRecord
100
AcDbLayerTableRecord
  2
LABELS
 70
0
 62
7
  6
Continuous
370
-3
390
13
347
21
  0
ENDTAB
  0
TABLE
  2
STYLE
  5
5
330
0
100
AcDbSymbolTable
 70
1
  0
STYLE
  5
29
330
5
100
AcDbSymbolTableRecord
100
AcDbTextStyleTableRecord
  2
Standard
 70
0
 40
0.0
 41
1.0
 50
0.0
 71
0
 42
2.5
  3
txt
  4

  0
ENDTAB
  0
TABLE
  2
VIEW
  5
7
330
0
100
AcDbSymbolTable
 70
0
  0
ENDTAB
  0
TABLE
  2
UCS
  5
6
330
0
100
AcDbSymbolTable
 70
0
  0
ENDTAB
  0
TABLE
  2
APPID
  5
3
330
0
100
AcDbSymbolTable
 70
3
  0
APPID
  5
2A
330
3
100
AcDbSymbolTableRecord
100
AcDbRegAppTableRecord
  2
ACAD
 70
0
  0
APPID
  5
61
330
3
100
AcDbSymbolTableRecord
100
AcDbRegAppTableRecord
  2
HATCHBACKGROUNDCOLOR
 70
0
  0
APPID
  5
62
330
3
100
AcDbSymbolTableRecord
100
AcDbRegAppTableRecord
  2
EZDXF
 70
0
  0
ENDTAB
  0
TABLE
  2
DIMSTYLE
  5
4
330
0
100
AcDbSymbolTable
 70
1
100
AcDbDimStyleTable
  0
DIMSTYLE
105
2B
330
4
100
AcDbSymbolTableRecord
100
AcDbDimStyleTableRecord
  2
Standard
 70
0
 40
1.0
 41
2.5
 42
0.625
 43
3.75
 44
1.25
 45
0.0
 46
0.0
 47
0.0
 48
0.0
 49
2.5
140
2.5
141
2.5
142
0.0
143
0.03937007874
144
1.0
145
0.0
146
1.0
147
0.625
148
0.0
 69
0
 70
0
 71
0
 72
0
 73
0
 74
0
 75
0
 76
0
 77
1
 78
8
 79
3
170
0
171
3
172
1
173
0
174
0
175
0
176
0
177
0
178
0
179
2
271
2
272
2
273
2
274
3
275
0
276
0
277
2
278
44
279
0
280
0
281
0
282
0
283
0
284
8
285
0
286
0
288
0
289
3
290
0
371
-2
372
-2
  0
ENDTAB
  0
TABLE
  2
BLOCK_RECORD
  5
9
330
0
100
AcDbSymbolTable
 70
2
  0
BLOCK_RECORD
  5
17
330
9
100
AcDbSymbolTableRecord
100
AcDbBlockTableRecord
  2
*Model_Space
340
1A
 70
0
280
1
281
0
  0
BLOCK_RECORD
  5
1B
330
9
100
AcDbSymbolTableRecord
100
AcDbBlockTableRecord
  2
*Paper_Space
340
1E
 70
0
280
1
281
0
  0
ENDTAB
  0
ENDSEC
  0
SECTION
  2
BLOCKS
  0
BLOCK
  5
18
330
17
100
AcDbEntity
  8
0
100
AcDbBlockBegin
  2
*Model_Space
 70
0
 10
0.0
 20
0.0
 30
0.0
  3
*Model_Space
  1

  0
ENDBLK
  5
19
330
17
100
AcDbEntity
  8
0
100
AcDbBlockEnd
  0
BLOCK
  5
1C
330
1B
100
AcDbEntity
  8
0
100
AcDbBlockBegin
  2
*Paper_Space
 70
0
 10
0.0
 20
0.0
 30
0.0
  3
*Paper_Space
  1

  0
ENDBLK
  5
1D
330
1B
100
AcDbEntity
  8
0
100
AcDbBlockEnd
  0
ENDSEC
  0
SECTION
  2
ENTITIES
  0
CIRCLE
  5
36
330
17
100
AcDbEntity
  8
AOI
100
AcDbCircle
 10
0.0
 20
0.0
 30
0.0
 40
500.0
  0
POINT
  5
37
330
17
100
AcDbEntity
  8
ELEVATION
100
AcDbPoint
 10
8.854833510704339
 20
500.23601854313165
 30
278.0
  0
POINT
  5
38
330
17
100
AcDbEntity
  8
ELEVATION
100
AcDbPoint
 10
199.6130394525826
 20
458.76950338389724
 30
311.0
  0
POINT
  5
39
330
17
100
AcDbEntity
  8
ELEVATION
100
AcDbPoint
 10
359.982233482413
 20
347.45920712593943
 30
287.0
  0
POINT
  5
3A
330
17
100
AcDbEntity
  8
ELEVATION
100
AcDbPoint
 10
465.54738212912343
 20
183.25100956391543
 30
240.0
  0
POINT
  5
3B
330
17
100
AcDbEntity
  8
ELEVATION
100
AcDbPoint
 10
500.2368788656313
 20
-8.85575686674565
 30
216.0
  0
POINT
  5
3C
330
17
100
AcDbEntity
  8
ELEVATION
100
AcDbPoint
 10
458.7694586389698
 20
-199.614300805144
 30
175.0
  0
POINT
  5
3D
330
17
100
AcDbEntity
  8
ELEVATION
100
AcDbPoint
 10
347.4582834118046
 20
-359.98309363331646
 30
181.0
  0
POINT
  5
3E
330
17
100
AcDbEntity
  8
ELEVATION
100
AcDbPoint
 10
183.2497482318431
 20
-465.54733698721975
 30
193.0
  0
POINT
  5
3F
330
17
100
AcDbEntity
  8
ELEVATION
100
AcDbPoint
 10
-8.856616642326117
 20
-500.2359550194815
 30
186.0
  0
POINT
  5
40
330
17
100
AcDbEntity
  8
ELEVATION
100
AcDbPoint
 10
-199.61425539804623
 20
-458.76819760072976
 30
226.0
  0
POINT
  5
41
330
17
100
AcDbEntity
  8
ELEVATION
100
AcDbPoint
 10
-359.98216995853
 20
-347.4574239933863
 30
272.0
  0
POINT
  5
42
330
17
100
AcDbEntity
  8
ELEVATION
100
AcDbPoint
 10
-465.54607634758577
 20
-183.24979361798614
 30
249.0
  0
POINT
  5
43
330
17
100
AcDbEntity
  8
ELEVATION
100
AcDbPoint
 10
-500.2350957337767
 20
8.855693342164159
 30
273.0
  0
POINT
  5
44
330
17
100
AcDbEntity
  8
ELEVATION
100
AcDbPoint
 10
-458.7682426904794
 20
199.61299502383918
 30
293.0
  0
POINT
  5
45
330
17
100
AcDbEntity
  8
ELEVATION
100
AcDbPoint
 10
-347.4583469348727
 20
359.981310502626
 30
292.0
  0
POINT
  5
46
330
17
100
AcDbEntity
  8
ELEVATION
100
AcDbPoint
 10
-183.25105401373003
 20
465.54612104129046
 30
264.0
  0
POINT
  5
47
330
17
100
AcDbEntity
  8
ELEVATION
100
AcDbPoint
 10
0.0
 20
0.0
 30
237.0
  0
LWPOLYLINE
  5
48
330
17
100
AcDbEntity
  8
TERRAIN
100
AcDbPolyline
 90
17
 70
1
 10
8.854833510704339
 20
500.23601854313165
 10
199.6130394525826
 20
458.76950338389724
 10
359.982233482413
 20
347.45920712593943
 10
465.54738212912343
 20
183.25100956391543
 10
500.2368788656313
 20
-8.85575686674565
 10
458.7694586389698
 20
-199.614300805144
 10
347.4582834118046
 20
-359.98309363331646
 10
183.2497482318431
 20
-465.54733698721975
 10
-8.856616642326117
 20
-500.2359550194815
 10
-199.61425539804623
 20
-458.76819760072976
 10
-359.98216995853
 20
-347.4574239933863
 10
-465.54607634758577
 20
-183.24979361798614
 10
-500.2350957337767
 20
8.855693342164159
 10
-458.7682426904794
 20
199.61299502383918
 10
-347.4583469348727
 20
359.981310502626
 10
-183.25105401373003
 20
465.54612104129046
 10
0.0
 20
0.0
  0
LWPOLYLINE
  5
49
330
17
100
AcDbEntity
  8
CONTOURS
 62
42
100
AcDbPolyline
 90
4
 70
1
 10
465.54738212912343
 20
183.25100956391543
 10
500.2368788656313
 20
-8.85575686674565
 10
-199.61425539804623
 20
-458.76819760072976
 10
0.0
 20
0.0
  0
LWPOLYLINE
  5
4A
330
17
100
AcDbEntity
  8
CONTOURS
 62
42
100
AcDbPolyline
 90
6
 70
1
 10
8.854833510704339
 20
500.23601854313165
 10
359.982233482413
 20
347.45920712593943
 10
-359.98216995853
 20
-347.4574239933863
 10
-500.2350957337767
 20
8.855693342164159
 10
-458.7682426904794
 20
199.61299502383918
 10
-347.4583469348727
 20
359.981310502626
  0
LWPOLYLINE
  5
4B
330
17
100
AcDbEntity
  8
ROADS
 62
3
100
AcDbPolyline
 90
48
 70
0
 10
-133.9369868207723
 20
214.3769892565906
 10
-108.49822397436947
 20
204.86273093894124
 10
-99.3876622292446
 20
200.00323220249265
 10
-92.17936859279871
 20
194.40172935370356
 10
-84.74402268487029
 20
186.38057563547045
 10
-79.3209721124731
 20
177.85206621978432
 10
-76.35068261949345
 20
170.90720156673342
 10
-73.4116610432975
 20
158.0900291064754
 10
-72.47681901813485
 20
139.94518386479467
 10
-70.77627611393109
 20
129.87582114245743
 10
-68.88757199677639
 20
120.46797994431108
 10
-61.881303025293164
 20
101.69487795699388
 10
-55.460742165800184
 20
86.77719909511507
 10
-28.4063922209898
 20
34.262558746151626
 10
-23.033221039222553
 20
23.507645490579307
 10
-15.80495341855567
 20
14.936065644957125
 10
23.588132104603574
 20
-24.234131844714284
 10
69.13121618214063
 20
-72.47778893727809
 10
72.82308756606653
 20
-77.93955565150827
 10
74.70284741348587
 20
-81.98412331100553
 10
76.65263027185574
 20
-87.93584360834211
 10
84.03120556450449
 20
-172.41421755868942
 10
90.221289613517
 20
-207.9494418175891
 10
97.32942400104366
 20
-230.9130430109799
 10
104.07153023674618
 20
-251.0999451642856
 10
111.8293409878388
 20
-270.7840412547812
 10
119.33418431784958
 20
-285.4107765229419
 10
123.68260897067375
 20
-291.3052681433037
 10
129.57535697659478
 20
-296.739557354711
 10
134.68840283504687
 20
-299.8995354482904
 10
154.01114560174756
 20
-311.8435237593949
 10
183.44706007489003
 20
-327.689892581664
 10
220.70044571207836
 20
-346.367500863038
 10
244.85971316718496
 20
-360.0816122600809
 10
252.66712867817841
 20
-365.23961979243904
 10
261.06393817346543
 20
-372.28075015638024
 10
275.7974013343919
 20
-385.4732844075188
 10
284.9418111728737
 20
-393.66901340149343
 10
304.4790605909657
 20
-410.481531961821
 10
314.78539717022795
 20
-422.2216069633141
 10
322.12598694022745
 20
-435.56017425935715
 10
335.40761761402246
 20
-463.8968126261607
 10
344.0704027158208
 20
-481.6912005543709
 10
353.03040970140137
 20
-498.52682568784803
 10
386.07223026209977
 20
-555.0823758011684
 10
409.6646522746887
 20
-595.4696039697155
 10
411.306459736079
 20
-598.2911108834669
 10
416.0511978175491
 20
-606.4089203318581
  0
LWPOLYLINE
  5
4C
330
17
100
AcDbEntity
  8
ROADS
 62
251
100
AcDbPolyline
 90
48
 70
0
 10
-133.06121845462943
 20
216.71857627587121
 10
-107.46756424364327
 20
207.14638760749227
 10
-98.02246248164485
 20
202.10844797631415
 10
-90.4844530281193
 20
196.25072580825034
 10
-82.75622626045728
 20
187.9136160570173
 10
-77.10229989070608
 20
179.02202199270002
 10
-73.96399532387571
 20
171.68431955386308
 10
-70.92618732989266
 20
158.436336185729
 10
-69.9875884345296
 20
140.21857185553435
 10
-68.31759894597582
 20
130.33012395976542
 10
-66.47569956891078
 20
121.15542227674202
 10
-59.56062682265047
 20
102.62667802732159
 10
-53.198652352875676
 20
87.84512013160426
 10
-26.176888006991362
 20
35.39373101623722
 10
-20.92996572214291
 20
24.891516937564518
 10
-13.964463916610065
 20
16.63153570496015
 10
25.378910100066438
 20
-22.489231548400035
 10
71.088627213331
 20
-70.9094025332212
 10
75.0060745547664
 20
-76.70488706373833
 10
77.03244986654055
 20
-81.06491851310521
 10
79.11808138829807
 20
-87.43131742133404
 10
86.51243585916261
 20
-172.09034946149856
 10
92.65676630083983
 20
-207.36291740031612
 10
99.7094405324899
 20
-230.1473485285055
 10
106.42174870951176
 20
-250.24503071494692
 10
114.10997457705145
 20
-269.75256726071405
 10
121.46611207137951
 20
-284.08947890488736
 10
125.55280049511605
 20
-289.62917490792137
 10
131.09378798121168
 20
-294.7390707470064
 10
136.00271314938462
 20
-297.77289763295244
 10
155.26201862885267
 20
-309.6776733746383
 10
184.60005902309365
 20
-325.4713532018423
 10
221.8785450107585
 20
-344.1615459639529
 10
246.1673101587897
 20
-357.94916727969377
 10
254.16418864622253
 20
-363.232344461112
 10
262.7013874468482
 20
-370.3911980389891
 10
277.46508776352744
 20
-383.610807032065
 10
286.59159863825215
 20
-391.79049361177124
 10
306.2423790625347
 20
-408.7007097603266
 10
316.8441167807135
 20
-420.77727983936103
 10
324.35528548902124
 20
-434.42580569720946
 10
337.66347528496146
 20
-462.8191085096713
 10
346.29847653860185
 20
-480.5564251188482
 10
355.2140253993458
 20
-497.3085145670195
 10
388.23082844023907
 20
-553.8212438075476
 10
411.8243925701569
 20
-594.210427126762
 10
413.46604560113667
 20
-597.031668646135
 10
418.2095623809245
 20
-605.1473885599374
  0
LWPOLYLINE
  5
4D
330
17
100
AcDbEntity
  8
ROADS
 62
251
100
AcDbPolyline
 90
48
 70
0
 10
-134.81275518691515
 20
212.03540223731
 10
-109.52888370509567
 20
202.5790742703902
 10
-100.75286197684434
 20
197.89801642867116
 10
-93.87428415747812
 20
192.55273289915678
 10
-86.7318191092833
 20
184.8475352139236
 10
-81.53964433424012
 20
176.68211044686862
 10
-78.7373699151112
 20
170.13008357960376
 10
-75.89713475670234
 20
157.74372202722182
 10
-74.9660496017401
 20
139.671795874055
 10
-73.23495328188636
 20
129.42151832514944
 10
-71.29944442464199
 20
119.78053761188015
 10
-64.20197922793575
 20
100.76307788666591
 10
-57.72283197872469
 20
85.70927805862587
 10
-30.63589643498824
 20
33.131386476066034
 10
-25.136476356302197
 20
22.123774043594096
 10
-17.645442920501296
 20
13.24059558495412
 10
21.79735410914071
 20
-25.979032141028533
 10
67.17380515095027
 20
-74.04617534133499
 10
70.64010057736667
 20
-79.17422423927822
 10
72.3732449604312
 20
-82.90332810890585
 10
74.18717915541342
 20
-88.44036979535018
 10
81.54997526984637
 20
-172.73808565588027
 10
87.78581292619417
 20
-208.5359662348621
 10
94.94940746959743
 20
-231.6787374934543
 10
101.72131176398061
 20
-251.95485961362428
 10
109.54870739862616
 20
-271.8155152488483
 10
117.20225656431964
 20
-286.7320741409964
 10
121.81241744623146
 20
-292.981361378686
 10
128.05692597197788
 20
-298.7400439624156
 10
133.37400906829265
 20
-302.02612168814574
 10
152.76027257464244
 20
-314.0093741441515
 10
182.29406112668642
 20
-329.90843196148575
 10
219.52234641339822
 20
-348.5734557621231
 10
243.55211617558024
 20
-362.214057240468
 10
251.1700687101343
 20
-367.2468951237661
 10
259.42648890008263
 20
-374.17030227377137
 10
274.12927955795567
 20
-387.3353719673459
 10
283.2920237074953
 20
-395.5475331912156
 10
302.7157421193966
 20
-412.2623541633154
 10
312.7266775597424
 20
-423.6659340872672
 10
319.89668839143366
 20
-436.69454282150485
 10
333.15175994308345
 20
-464.97451674265005
 10
341.8423288930398
 20
-482.82597598989355
 10
350.8467940034569
 20
-499.7451368086766
 10
383.9135939784803
 20
-556.3434425721
 10
407.50491197922054
 20
-596.728780812669
 10
409.1468738710213
 20
-599.5505531207988
 10
413.8928332541737
 20
-607.6704521037788
  0
LWPOLYLINE
  5
4E
330
17
100
AcDbEntity
  8
ROADS
 62
3
100
AcDbPolyline
 90
13
 70
0
 10
134.68840283504687
 20
-299.8995354482904
 10
131.91094603738748
 20
-278.5639407308772
 10
130.88580551813357
 20
-269.63674417417496
 10
130.14501397893764
 20
-258.72002400737256
 10
130.80471385794226
 20
-250.775628590025
 10
132.11810001765843
 20
-243.43009934481233
 10
135.70539566327352
 20
-233.11084570083767
 10
144.63010285189375
 20
-216.80272685550153
 10
153.24032440502197
 20
-202.42819639388472
 10
161.75933594536036
 20
-192.61738145630807
 10
172.4440772878006
 20
-183.0111492499709
 10
185.23521318868734
 20
-174.02952643763274
 10
210.12929920805618
 20
-157.41706319060177
  0
LWPOLYLINE
  5
4F
330
17
100
AcDbEntity
  8
ROADS
 62
251
100
AcDbPolyline
 90
13
 70
0
 10
132.20932071449343
 20
-300.22226108959006
 10
129.42942424421656
 20
-278.8679255347845
 10
128.39548421436223
 20
-269.86410049714965
 10
127.63798059965464
 20
-258.7011017997294
 10
128.3230283250195
 20
-250.4514564939511
 10
129.69188168436597
 20
-242.7957093177664
 10
133.41237235106308
 20
-232.09330542846973
 10
142.46039906915382
 20
-215.5598447875932
 10
151.2085668794875
 20
-200.95501680528764
 10
159.97297931434966
 20
-190.86158894363078
 10
170.88441452739485
 20
-181.0515451623578
 10
183.8228440418967
 20
-171.96649637672
 10
208.74160009267547
 20
-155.3375701838399
  0
LWPOLYLINE
  5
50
330
17
100
AcDbEntity
  8
ROADS
 62
251
100
AcDbPolyline
 90
13
 70
0
 10
137.16748495560032
 20
-299.57680980699075
 10
134.3924678305584
 20
-278.25995592696995
 10
133.3761268219049
 20
-269.4093878512003
 10
132.65204735822064
 20
-258.73894621501574
 10
133.28639939086503
 20
-251.09980068609892
 10
134.5443183509509
 20
-244.06448937185826
 10
137.99841897548396
 20
-234.1283859732056
 10
146.79980663463368
 20
-218.04560892340987
 10
155.27208193055642
 20
-203.9013759824818
 10
163.54569257637107
 20
-194.37317396898536
 10
174.00374004820637
 20
-184.97075333758403
 10
186.64758233547798
 20
-176.0925564985455
 10
211.5169983234369
 20
-159.49655619736365
  0
LWPOLYLINE
  5
51
330
17
100
AcDbEntity
  8
ROADS
 62
3
100
AcDbPolyline
 90
121
 70
0
 10
-150.7840851561632
 20
-631.4820556305349
 10
-164.8876326372847
 20
-620.2291379058734
 10
-175.47198491054587
 20
-610.7006455464289
 10
-181.2403458263725
 20
-604.1051726285368
 10
-202.7517765064258
 20
-579.1914611151442
 10
-215.54104330344126
 20
-562.2884522918612
 10
-220.85182465892285
 20
-551.5346897123381
 10
-234.55261006881483
 20
-511.64494445640594
 10
-240.4092186128255
 20
-488.91420452669263
 10
-252.8830635631457
 20
-430.7073746146634
 10
-267.52270087145735
 20
-371.1214739335701
 10
-270.72115472028963
 20
-360.64888829458505
 10
-276.7180633582175
 20
-349.94950811285526
 10
-282.84580071107484
 20
-341.95154604595155
 10
-287.1597199316602
 20
-338.2074763132259
 10
-293.28830910357647
 20
-334.364825126715
 10
-300.6865343390964
 20
-331.2975415671244
 10
-312.2442675351631
 20
-328.0791274541989
 10
-319.4392833139282
 20
-325.2592261051759
 10
-327.44461455754936
 20
-321.3058312339708
 10
-336.30018125579227
 20
-314.36773625109345
 10
-352.27963946026284
 20
-297.0649616988376
 10
-363.6382230363088
 20
-286.1045975489542
 10
-371.8205514168367
 20
-280.41948654688895
 10
-379.5191371042747
 20
-277.31369039975107
 10
-440.5752503044205
 20
-264.023117098026
 10
-460.5666242528241
 20
-262.8718961952254
 10
-468.21708209021017
 20
-264.67580732982606
 10
-476.73660384188406
 20
-268.0821624463424
 10
-493.45632600132376
 20
-279.1444889018312
 10
-502.50502375746146
 20
-283.1287867994979
 10
-511.37751501309685
 20
-284.77814731094986
 10
-524.3905250310199
 20
-284.6146443458274
 10
-533.123621074832
 20
-282.48791588749737
 10
-540.9214863608358
 20
-279.1255859984085
 10
-547.7692425488494
 20
-274.86034137848765
 10
-558.2240417341236
 20
-265.61147068534046
 10
-568.5261546369875
 20
-253.59509911667556
 10
-574.8040568751749
 20
-238.81315090693533
 10
-579.6469398809131
 20
-217.41914704162627
 10
-587.412495432538
 20
-184.61565961223096
 10
-599.5645118018147
 20
-156.86510444898158
 10
-603.3773673569085
 20
-150.60355981159955
 10
-607.4271127085667
 20
-145.4126712884754
 10
-624.3891950168181
 20
-134.35353130474687
 10
-637.6408626837656
 20
-124.1910178810358
 10
-658.7526493351907
 20
-103.60667718015611
 10
-666.4768404543865
 20
-97.8301057452336
 10
-674.0400818112539
 20
-94.1063327146694
 10
-680.4683605898172
 20
-92.53012629691511
 10
-690.3766388166696
 20
-91.1140763843432
 10
-702.5933718157467
 20
-89.34700062591583
 10
-710.833223714726
 20
-86.90775206591934
 10
-716.9688414656557
 20
-83.45299105811864
 10
-725.5627199222799
 20
-77.5502850851044
 10
-731.228712329641
 20
-71.01227707322687
 10
-737.3775642297696
 20
-60.66502689663321
 10
-742.5130961299874
 20
-48.18599614035338
 10
-743.0001270620851
 20
-40.49839453864843
 10
-740.8850466365693
 20
-31.81514468230307
 10
-738.6743502042955
 20
-27.709958042018116
 10
-730.4011700460687
 20
-18.271146685816348
 10
-718.6810775811318
 20
-7.020550197921693
 10
-712.2648232211359
 20
-0.4632076062262058
 10
-706.9625760482159
 20
7.077836931683123
 10
-703.0705255430657
 20
13.524622180499136
 10
-697.4554525630083
 20
24.08520235028118
 10
-692.6552868154831
 20
39.63545844051987
 10
-689.9949817417655
 20
52.74140258785337
 10
-689.6615475218277
 20
65.74438947532326
 10
-691.8960045962594
 20
79.10298829060048
 10
-694.1354691246524
 20
86.3007424743846
 10
-700.7292284031864
 20
99.082554532215
 10
-707.1533911792794
 20
107.9498409871012
 10
-718.5772765126312
 20
117.00513757672161
 10
-724.144432050176
 20
120.91524064913392
 10
-731.1889564769808
 20
124.04252874199301
 10
-744.989013926941
 20
129.0287800738588
 10
-752.6761278274935
 20
133.38629244919866
 10
-757.3528606607579
 20
136.58257029484957
 10
-761.7109012915753
 20
141.9561387784779
 10
-766.9179547603708
 20
152.1537645831704
 10
-768.312204767717
 20
156.07882332336158
 10
-769.4053636670578
 20
161.18421234656125
 10
-770.3164973127423
 20
168.9568616328761
 10
-769.7091142395511
 20
175.72759128268808
 10
-768.4650577871362
 20
183.28489873930812
 10
-765.5523204731289
 20
190.11465561576188
 10
-762.7237096659373
 20
193.94299921020865
 10
-760.000220766291
 20
197.10835005436093
 10
-723.6521723249462
 20
221.68650871980935
 10
-713.0049985784572
 20
231.53772217966616
 10
-703.9626235550968
 20
239.2675907248631
 10
-699.1178685658379
 20
247.34859868418425
 10
-697.6113821992185
 20
252.13106852117926
 10
-697.2890290555079
 20
258.62981209065765
 10
-697.4154127815273
 20
264.992428987287
 10
-699.0695147776278
 20
271.83633560780436
 10
-730.4282321257051
 20
327.02949750516564
 10
-762.1358859698521
 20
391.86902566533536
 10
-767.250970781548
 20
399.6383183756843
 10
-770.930285395938
 20
404.0691041229293
 10
-775.17444059439
 20
408.25500103551894
 10
-832.0965071446262
 20
442.44668812770396
 10
-847.0549487303942
 20
454.74441770929843
 10
-857.1593725738348
 20
463.88709381222725
 10
-864.6294721458107
 20
472.3184288162738
 10
-867.5006347525632
 20
477.2557231364772
 10
-873.7713549826294
 20
492.48057476338
 10
-875.6083865029505
 20
497.7874466171488
 10
-876.8828565115109
 20
500.85715257097036
 10
-878.8705683760345
 20
503.50729275867343
 10
-882.9690594678978
 20
505.95089972857386
 10
-887.4103574685287
 20
507.7911107344553
 10
-891.757856949931
 20
509.0645451275632
 10
-912.6413891979028
 20
510.88458982948214
 10
-934.7958093269262
 20
513.6245714416727
 10
-950.6850254600868
 20
516.1210318179801
 10
-967.721177924308
 20
518.9147271504626
 10
-978.6814468614757
 20
521.3242139359936
 10
-986.1107154208003
 20
524.4249052833766
  0
LWPOLYLINE
  5
52
330
17
100
AcDbEntity
  8
ROADS
 62
251
100
AcDbPolyline
 90
121
 70
0
 10
-152.34329356187916
 20
-633.4362483404652
 10
-166.5049988464456
 20
-622.1369277531134
 10
-177.25555887600646
 20
-612.4588079724442
 10
-183.1273969196637
 20
-605.7450205794028
 10
-204.69674188302506
 20
-580.7642349709255
 10
-217.67766566785448
 20
-563.6079215753413
 10
-223.16425244071897
 20
-552.4981718835305
 10
-236.94899528761013
 20
-512.363985110266
 10
-242.84296059723363
 20
-489.488255649943
 10
-255.31975299981448
 20
-431.267672011369
 10
-269.9339436586334
 20
-371.78534367277365
 10
-273.03352974659003
 20
-361.63647728741574
 10
-278.8113858629631
 20
-351.32791950258854
 10
-284.67603030370077
 20
-343.6733479908012
 10
-288.65199166957206
 20
-340.2225933875601
 10
-294.4390717937779
 20
-336.59406981028786
 10
-301.50359765045835
 20
-333.6651370829544
 10
-313.03777413193006
 20
-330.4532826700514
 10
-320.4507336535271
 20
-327.54796387743687
 10
-328.7831513305708
 20
-323.4330389222189
 10
-338.0003283816918
 20
-316.2116320903598
 10
-354.06739723723376
 20
-298.813991534234
 10
-365.2296464007418
 20
-288.04307852869107
 10
-373.01636091502303
 20
-282.6328414548002
 10
-380.2579369651428
 20
-279.7114140772539
 10
-440.915069793204
 20
-266.50769002948897
 10
-460.3470599286628
 20
-265.38868173697784
 10
-467.46197023662944
 20
-267.06631544191845
 10
-475.5706918590417
 20
-270.3084205966454
 10
-492.25422263615957
 20
-281.34680162515275
 10
-501.7629874645593
 20
-285.5336750003301
 10
-511.1626993306067
 20
-287.281043707066
 10
-524.7060146076018
 20
-287.1108776807333
 10
-533.9199375392849
 20
-284.867055786028
 10
-542.083813357112
 20
-281.3469073009857
 10
-549.268807407352
 20
-276.8716081846719
 10
-560.0097191202528
 20
-267.3696271519751
 10
-570.6759684073152
 20
-254.92852736149246
 10
-577.1928330804705
 20
-239.58391821761356
 10
-582.0825342531472
 20
-217.9830896069491
 10
-589.7931992471047
 20
-185.41147248051743
 10
-601.7871698990073
 20
-158.0218332562387
 10
-605.4374235567957
 20
-152.02731657818774
 10
-609.1417595321577
 20
-147.2791673908742
 10
-625.8346830666156
 20
-136.3955167428968
 10
-639.2799216873213
 20
-126.08455653758442
 10
-660.3808421513643
 20
-105.51081054888546
 10
-667.7887566723418
 20
-99.97076800541699
 10
-674.8999954322671
 20
-96.46953911972658
 10
-680.9440418318931
 20
-94.98754603068004
 10
-690.7324295919658
 20
-93.58863036495856
 10
-703.1299150760725
 20
-91.79540986434884
 10
-711.8136943896764
 20
-89.22474519152152
 10
-718.2924638472101
 20
-85.57676694238332
 10
-727.2421873281534
 20
-79.42964879143133
 10
-733.2639845820416
 20
-72.48107635058673
 10
-739.6199801659849
 20
-61.78524605631522
 10
-744.9820063840775
 20
-48.75584785732446
 10
-745.5191919764972
 20
-40.276573650014235
 10
-743.2381635082579
 20
-30.91204080283982
 10
-740.7411437627312
 20
-26.275161695326776
 10
-732.2101803900553
 20
-16.542247335751842
 10
-720.4405887530726
 20
-5.244134566493598
 10
-714.1933859906891
 20
1.140439120008647
 10
-709.0577629223935
 20
8.44450492926116
 10
-705.2459327904245
 20
14.758413300504825
 10
-699.7742364672961
 20
25.04933701428845
 10
-695.0806488913332
 20
40.254330472236404
 10
-692.4885503661113
 20
53.02425630952771
 10
-692.1668768580103
 20
65.56860886177958
 10
-694.3336790238939
 20
78.52273591900905
 10
-696.4575826105972
 20
85.34907129218774
 10
-702.8644856933596
 20
97.76866800740338
 10
-708.9760252111275
 20
106.20443986954848
 10
-720.0734527586043
 20
115.00096529779712
 10
-725.3817234310461
 20
118.72924005598084
 10
-732.1220921655637
 20
121.72150377852957
 10
-746.0376794580799
 20
126.74949847511715
 10
-754.0001920010573
 20
131.26312314540192
 10
-759.0647270026155
 20
134.72444146336647
 10
-763.8180128700175
 20
140.58535679080262
 10
-769.2189419133778
 20
151.16267344636307
 10
-770.7226229998065
 20
155.3957999011948
 10
-771.8746365561855
 20
160.7760583145522
 10
-772.8296051749263
 20
168.92265260186235
 10
-772.1908820068002
 20
176.04274218508394
 10
-770.8829000560361
 20
183.98837980502097
 10
-767.7370429129843
 20
191.36475368940006
 10
-764.6792890236361
 20
195.50322777212602
 10
-761.6773808324114
 20
198.99216897118686
 10
-725.2102660406954
 20
223.65083901968407
 10
-714.6667941160011
 20
233.40610318755031
 10
-705.8970959376671
 20
240.9028741049749
 10
-701.4137344590288
 20
248.38108092321738
 10
-700.0923970848754
 20
252.57577944582238
 10
-699.7902600754671
 20
258.6669592134252
 10
-699.9095045207422
 20
264.6701587252012
 10
-701.4169208044773
 20
270.9071479244474
 10
-732.6401003019936
 20
325.8617553412091
 10
-764.3116708266405
 20
390.62749609905836
 10
-769.262841373802
 20
398.1478197409654
 10
-772.7742454673538
 20
402.37640056133824
 10
-776.7175172539598
 20
406.2655442012966
 10
-833.5417974388489
 20
440.39849342592936
 10
-848.6883627562763
 20
452.85088449191466
 10
-858.9390571824025
 20
462.12590901783136
 10
-866.6656016383807
 20
470.8466876506093
 10
-869.747387415515
 20
476.1461727364572
 10
-876.1103175505777
 20
491.5949032912335
 10
-877.9461948575249
 20
496.8984408187269
 10
-879.0713116776534
 20
499.6084126331241
 10
-880.574540686782
 20
501.61261036394944
 10
-884.0935595385524
 20
503.71072374291197
 10
-888.2426321957875
 20
505.42985386364717
 10
-892.2222997579494
 20
506.59554590535345
 10
-912.903430159277
 20
508.3979508514941
 10
-935.1433451543346
 20
511.14850617130173
 10
-951.0813266884085
 20
513.6526284039332
 10
-968.192189379553
 20
516.4585751888891
 10
-979.4373257345696
 20
518.9306867405522
 10
-987.0736198189924
 20
522.1177825905095
  0
LWPOLYLINE
  5
53
330
17
100
AcDbEntity
  8
ROADS
 62
251
100
AcDbPolyline
 90
121
 70
0
 10
-149.22487675044724
 20
-629.5278629206045
 10
-163.2702664281238
 20
-618.3213480586334
 10
-173.68841094508528
 20
-608.9424831204135
 10
-179.3532947330813
 20
-602.4653246776709
 10
-200.80681112982657
 20
-577.6186872593629
 10
-213.40442093902803
 20
-560.9689830083811
 10
-218.53939687712673
 20
-550.5712075411458
 10
-232.15622485001947
 20
-510.92590380254603
 10
-237.97547662841737
 20
-488.34015340344223
 10
-250.4463741264769
 20
-430.1470772179579
 10
-265.1114580842813
 20
-370.4576041943665
 10
-268.40877969398923
 20
-359.66129930175435
 10
-274.62474085347185
 20
-348.57109672312197
 10
-281.0155711184489
 20
-340.2297441011019
 10
-285.6674481937484
 20
-336.19235923889175
 10
-292.13754641337505
 20
-332.13558044314215
 10
-299.86947102773445
 20
-328.92994605129445
 10
-311.4507609383961
 20
-325.7049722383464
 10
-318.42783297432925
 20
-322.97048833291495
 10
-326.10607778452794
 20
-319.17862354572276
 10
-334.6000341298927
 20
-312.5238404118271
 10
-350.4918816832919
 20
-295.31593186344116
 10
-362.04679967187576
 20
-284.1661165692173
 10
-370.62474191865033
 20
-278.2061316389777
 10
-378.7803372434066
 20
-274.91596672224824
 10
-440.23543081563696
 20
-261.538544166563
 10
-460.7861885769854
 20
-260.355110653473
 10
-468.9721939437909
 20
-262.28529921773367
 10
-477.90251582472644
 20
-265.8559042960394
 10
-494.65842936648795
 20
-276.94217617850967
 10
-503.24706005036364
 20
-280.7238985986657
 10
-511.592330695587
 20
-282.27525091483375
 10
-524.0750354544381
 20
-282.1184110109215
 10
-532.3273046103792
 20
-280.1087759889667
 10
-539.7591593645597
 20
-276.9042646958313
 10
-546.2696776903468
 20
-272.8490745723034
 10
-556.4383643479944
 20
-263.8533142187058
 10
-566.3763408666598
 20
-252.26167087185866
 10
-572.4152806698793
 20
-238.0423835962571
 10
-577.2113455086791
 20
-216.85520447630344
 10
-585.0317916179713
 20
-183.81984674394448
 10
-597.341853704622
 20
-155.70837564172447
 10
-601.3173111570213
 20
-149.17980304501137
 10
-605.7124658849757
 20
-143.5461751860766
 10
-622.9437069670206
 20
-132.31154586659693
 10
-636.0018036802098
 20
-122.29747922448719
 10
-657.124456519017
 20
-101.70254381142676
 10
-665.1649242364313
 20
-95.6894434850502
 10
-673.1801681902407
 20
-91.74312630961224
 10
-679.9926793477413
 20
-90.07270656315019
 10
-690.0208480413734
 20
-88.63952240372785
 10
-702.0568285554208
 20
-86.89859138748281
 10
-709.8527530397757
 20
-84.59075894031716
 10
-715.6452190841013
 20
-81.32921517385397
 10
-723.8832525164065
 20
-75.67092137877748
 10
-729.1934400772403
 20
-69.543477795867
 10
-735.1351482935544
 20
-59.54480773695119
 10
-740.0441858758973
 20
-47.6161444233823
 10
-740.481062147673
 20
-40.72021542728262
 10
-738.5319297648807
 20
-32.71824856176632
 10
-736.6075566458597
 20
-29.144754388709455
 10
-728.5921597020822
 20
-20.000046035880853
 10
-716.9215664091911
 20
-8.796965829349789
 10
-710.3362604515827
 20
-2.066854332461059
 10
-704.8673891740382
 20
5.711168934105079
 10
-700.895118295707
 20
12.290831060493447
 10
-695.1366686587205
 20
23.121067686273907
 10
-690.229924739633
 20
39.016586408803335
 10
-687.5014131174197
 20
52.45854886617904
 10
-687.1562181856452
 20
65.92017008886694
 10
-689.458330168625
 20
79.6832406621919
 10
-691.8133556387077
 20
87.25241365658147
 10
-698.5939711130133
 20
100.39644105702662
 10
-705.3307571474313
 20
109.69524210465391
 10
-717.0811002666582
 20
119.0093098556461
 10
-722.9071406693058
 20
123.101241242287
 10
-730.255820788398
 20
126.36355370545644
 10
-743.9403483958022
 20
131.3080616726005
 10
-751.3520636539297
 20
135.5094617529954
 10
-755.6409943189002
 20
138.44069912633267
 10
-759.6037897131331
 20
143.3269207661532
 10
-764.6169676073638
 20
153.14485571997776
 10
-765.9017865356276
 20
156.76184674552835
 10
-766.9360907779302
 20
161.59236637857032
 10
-767.8033894505583
 20
168.99107066388984
 10
-767.2273464723021
 20
175.41244038029222
 10
-766.0472155182363
 20
182.58141767359527
 10
-763.3675980332736
 20
188.8645575421237
 10
-760.7681303082386
 20
192.38277064829128
 10
-758.3230607001707
 20
195.224531137535
 10
-722.0940786091969
 20
219.72217841993464
 10
-711.3432030409132
 20
229.669341171782
 10
-702.0281511725265
 20
237.63230734475133
 10
-696.8220026726469
 20
246.31611644515112
 10
-695.1303673135616
 20
251.68635759653614
 10
-694.7877980355486
 20
258.59266496789013
 10
-694.9213210423123
 20
265.3146992493728
 10
-696.7221087507783
 20
272.76552329116134
 10
-728.2163639494166
 20
328.19723966912215
 10
-759.9601011130637
 20
393.11055523161235
 10
-765.2391001892939
 20
401.1288170104032
 10
-769.0863253245221
 20
405.7618076845203
 10
-773.6313639348202
 20
410.24445786974127
 10
-830.6512168504036
 20
444.49488282947857
 10
-845.4215347045122
 20
456.6379509266822
 10
-855.3796879652672
 20
465.64827860662314
 10
-862.5933426532407
 20
473.79016998193833
 10
-865.2538820896114
 20
478.36527353649717
 10
-871.4323924146811
 20
493.3662462355265
 10
-873.270578148376
 20
498.67645241557074
 10
-874.6944013453684
 20
502.1058925088166
 10
-877.166596065287
 20
505.4019751533974
 10
-881.8445593972431
 20
508.19107571423575
 10
-886.5780827412699
 20
510.1523676052634
 10
-891.2934141419126
 20
511.5335443497729
 10
-912.3793482365285
 20
513.3712288074702
 10
-934.4482734995179
 20
516.1006367120438
 10
-950.2887242317651
 20
518.589435232027
 10
-967.250166469063
 20
521.370879112036
 10
-977.9255679883818
 20
523.717741131435
 10
-985.1478110226082
 20
526.7320279762437
  0
LWPOLYLINE
  5
54
330
17
100
AcDbEntity
  8
ROADS
 62
3
100
AcDbPolyline
 90
14
 70
0
 10
275.7974013343919
 20
-385.4732844075188
 10
248.01799670606852
 20
-405.6025334680453
 10
235.82824233919382
 20
-414.04070188384503
 10
226.9788587251678
 20
-418.48245972860605
 10
219.26289951382205
 20
-421.6367594609037
 10
210.9648934310535
 20
-424.83615335728973
 10
202.50563553511165
 20
-426.5921766413376
 10
195.69936670432799
 20
-427.6129104886204
 10
171.05805939622223
 20
-429.9797869483009
 10
161.66318499238696
 20
-431.8189821075648
 10
151.5583882117644
 20
-434.4766726838425
 10
143.6451357085025
 20
-437.05130334664136
 10
129.6303556978237
 20
-442.4653679924086
 10
120.36656328698155
 20
-446.8665939392522
  0
LWPOLYLINE
  5
55
330
17
100
AcDbEntity
  8
ROADS
 62
251
100
AcDbPolyline
 90
14
 70
0
 10
277.26430341257816
 20
-387.497685131934
 10
249.46307724751514
 20
-407.6427463077233
 10
237.10672551905384
 20
-416.19623916340805
 10
228.01414182537027
 20
-420.76006605939125
 10
220.1856824076365
 20
-423.9603561036091
 10
211.67335851509444
 20
-427.2423827536515
 10
202.9454330105724
 20
-429.0541776647309
 10
196.00448705669766
 20
-430.09510899486537
 10
171.41858178821266
 20
-432.45666391126264
 10
162.22185580764352
 20
-434.25706838475236
 10
152.26366203666132
 20
-436.8762004975959
 10
144.48293543383815
 20
-439.4077129549863
 10
130.6185990301663
 20
-444.76365957012746
 10
121.43938919759452
 20
-449.1247003507212
  0
LWPOLYLINE
  5
56
330
17
100
AcDbEntity
  8
ROADS
 62
251
100
AcDbPolyline
 90
14
 70
0
 10
274.33049925620566
 20
-383.4488836831036
 10
246.5729161646219
 20
-403.5623206283673
 10
234.5497591593338
 20
-411.885164604282
 10
225.94357562496535
 20
-416.20485339782084
 10
218.3401166200076
 20
-419.3131628181983
 10
210.25642834701256
 20
-422.42992396092797
 10
202.0658380596509
 20
-424.13017561794425
 10
195.39424635195832
 20
-425.13071198237543
 10
170.6975370042318
 20
-427.50290998533916
 10
161.1045141771304
 20
-429.38089583037726
 10
150.85311438686747
 20
-432.07714487008906
 10
142.80733598316684
 20
-434.6948937382964
 10
128.64211236548107
 20
-440.1670764146897
 10
119.29373737636857
 20
-444.6084875277832
  0
LWPOLYLINE
  5
57
330
17
100
AcDbEntity
  8
ROADS
 62
3
100
AcDbPolyline
 90
127
 70
0
 10
-133.9369868207723
 20
214.3769892565906
 10
-142.06630705075804
 20
250.64442770835012
 10
-126.01060863374732
 20
276.93226460926235
 10
-82.47708139219321
 20
282.8104829574004
 10
15.767048469977453
 20
233.457165597938
 10
92.52299716230482
 20
291.89067950099707
 10
256.1534798828652
 20
349.9596467735246
 10
269.82194204465486
 20
367.4247649302706
 10
270.813847813406
 20
391.774083471857
 10
261.85008533112705
 20
420.15592804923654
 10
246.2725102310069
 20
452.5443178797141
 10
237.32847588101868
 20
482.044957392849
 10
231.3319774552947
 20
520.9010536624119
 10
229.6014715996571
 20
548.6117712939158
 10
223.33041805028915
 20
571.9705541282892
 10
219.03570361435413
 20
580.9113333234563
 10
202.68225718848407
 20
600.5703646903858
 10
185.856696031522
 20
625.2241333918646
 10
167.71328655909747
 20
669.8357232520357
 10
166.19933044235222
 20
678.7161577800289
 10
168.06426824012306
 20
721.3112908545882
 10
167.27566365082748
 20
771.1559827914461
 10
162.81905687309336
 20
865.3448171457276
 10
159.50566575839184
 20
898.0588362896815
 10
156.4484393997118
 20
914.1691596070305
 10
147.42542223911732
 20
939.2387250540778
 10
138.28490184934344
 20
957.6729160938412
 10
120.396902669454
 20
985.6696157837287
 10
114.50951541867107
 20
999.0598036050797
 10
109.31954660080373
 20
1020.1831729896367
 10
113.03335569007322
 20
1041.1600117804483
 10
118.23161057324614
 20
1051.5837434688583
 10
126.75113807211164
 20
1061.394637268968
 10
139.72305628133472
 20
1070.5726647032425
 10
166.138678108342
 20
1084.4990714704618
 10
184.23069495894015
 20
1099.6809038044885
 10
193.35969007748645
 20
1112.2512001655996
 10
215.81357996095903
 20
1153.927727674134
 10
228.2650524392957
 20
1164.7770481677726
 10
245.64991514361463
 20
1171.6717707542703
 10
309.3812952351291
 20
1186.0452222758904
 10
322.84455458517186
 20
1191.8901603026316
 10
336.37706908525433
 20
1201.0581291960552
 10
344.87794637097977
 20
1209.2182130841538
 10
392.09735690709203
 20
1265.9580228859559
 10
417.4310090672225
 20
1313.1127108661458
 10
426.51179064495955
 20
1322.3594987532124
 10
453.55717316351365
 20
1340.152681532316
 10
460.40629172022454
 20
1349.9930445449427
 10
467.19576508912724
 20
1387.514553583227
 10
487.4397204492707
 20
1429.784043722786
 10
504.95112468942534
 20
1475.4262179387733
 10
520.4588469744194
 20
1501.7233930686489
 10
538.1579494224861
 20
1526.3195847654715
 10
560.2405311849434
 20
1546.9708320265636
 10
581.821493037045
 20
1570.9441398689523
 10
588.6909671517788
 20
1581.3381544230506
 10
596.2086411311757
 20
1597.2611317439005
 10
606.5460164078977
 20
1646.3436109470204
 10
616.52054092451
 20
1674.9549986803904
 10
634.4063143262174
 20
1710.0636019324884
 10
656.7640004683053
 20
1746.2120848977938
 10
682.737961095525
 20
1797.7875512326136
 10
693.6077938971575
 20
1813.6510711694136
 10
703.7792024060618
 20
1822.324374561198
 10
736.9485419781413
 20
1840.0086443303153
 10
755.0318847288145
 20
1854.6250419439748
 10
765.281934825005
 20
1867.729288493283
 10
773.4585078676464
 20
1889.1809954149649
 10
775.4336382374167
 20
1906.3103147847578
 10
773.9001422995934
 20
1914.0830754376948
 10
767.9538733161753
 20
1924.1502780281007
 10
754.8725095221307
 20
1939.8844683850184
 10
725.7120345351286
 20
1959.7820794759318
 10
704.3057401949773
 20
1977.3148853946477
 10
696.1087323080283
 20
1986.324947017245
 10
691.8724914535414
 20
1998.57797604613
 10
693.3753082107287
 20
2020.6909968480468
 10
710.0414998887572
 20
2112.2895328542218
 10
713.4803011306794
 20
2149.3274629479274
 10
718.7774071833119
 20
2165.2897926140577
 10
726.7281461267266
 20
2174.0024798298255
 10
748.1629563743481
 20
2189.6786793963984
 10
761.8037759691942
 20
2205.481977089308
 10
776.9690988207003
 20
2212.4156611217186
 10
787.0034650464077
 20
2213.345815689303
 10
803.1220916132443
 20
2211.397836616263
 10
813.6186425329652
 20
2206.779317894019
 10
833.4529218790121
 20
2194.2496147099882
 10
841.2467573273461
 20
2194.111380676739
 10
851.3302420398686
 20
2197.81085487362
 10
867.6844488305505
 20
2209.1446612970904
 10
897.7093397076242
 20
2237.954349716194
 10
907.9700876916759
 20
2251.0583586879075
 10
913.1587728385348
 20
2261.482111985795
 10
916.2253837664612
 20
2276.9299296410754
 10
917.7088231081143
 20
2297.9352173460647
 10
914.612549910089
 20
2311.8302267855033
 10
902.2185332266381
 20
2335.3089606277645
 10
901.2749143284746
 20
2344.733407082036
 10
884.8114201189019
 20
2389.8699509901926
 10
902.4038081911858
 20
2408.373308171518
 10
952.5983378089732
 20
2380.910779119469
 10
965.0804226682521
 20
2362.981988281943
 10
971.105842691497
 20
2325.7761130444705
 10
976.895131133846
 20
2306.8579629352316
 10
981.7504684040323
 20
2297.9070610692725
 10
998.6261899416568
 20
2276.021938680671
 10
1017.8115724497475
 20
2258.517097908072
 10
1027.197119874647
 20
2254.4722022870556
 10
1031.6596581337508
 20
2254.393002984114
 10
1056.8596048380714
 20
2262.2564488379285
 10
1072.6044704039814
 20
2270.8306567613035
 10
1102.2069096156629
 20
2307.3931117700413
 10
1115.7803031872027
 20
2318.787151377648
 10
1131.4859250534791
 20
2325.1458204928786
 10
1149.3634928262327
 20
2328.706758289598
 10
1167.310257603298
 20
2335.579653591849
 10
1183.6355418097228
 20
2345.2626420399174
 10
1267.6980832593981
 20
2406.3218089975417
 10
1300.2301502024056
 20
2419.5840997006744
 10
1309.8030254300684
 20
2425.497504832223
 10
1330.1972047960153
 20
2445.0698799733073
 10
1338.7875587160233
 20
2458.20335311722
 10
1370.4158746425528
 20
2514.664113325067
 10
1406.4079347620718
 20
2534.5022618789226
 10
1415.8973015540978
 20
2540.383859277703
  0
LWPOLYLINE
  5
58
330
17
100
AcDbEntity
  8
ROADS
 62
251
100
AcDbPolyline
 90
127
 70
0
 10
-136.3764548544494
 20
213.83018425234545
 10
-144.72697133440911
 20
251.08444831248735
 10
-127.52406722112383
 20
279.2505938021753
 10
-82.04557502364928
 20
285.3914356824461
 10
15.494587078422196
 20
236.3917592410085
 10
91.31914446396597
 20
294.1162145264445
 10
254.6325656352187
 20
352.0726634196089
 10
267.35679655398144
 20
368.3312734826458
 10
268.298104988397
 20
391.438527858556
 10
259.5198480474461
 20
419.2330086528562
 10
243.9359858113827
 20
451.6344704928434
 10
234.88470014664819
 20
481.48886338502746
 10
228.8439132146437
 20
520.6319402124919
 10
227.1219595087852
 20
548.2057116401448
 10
220.97621849093474
 20
571.0977231119236
 10
216.91605687543273
 20
579.5502079144419
 10
200.6843087486404
 20
599.0629416376473
 10
183.64138645039623
 20
624.0352002398116
 10
165.29469554398264
 20
669.1466249283313
 10
163.6900542725248
 20
678.5589926941368
 10
165.56340268488503
 20
721.3462239974425
 10
164.77659863450546
 20
771.0771107284905
 10
160.32502149505763
 20
865.1596454267699
 10
157.02930569128736
 20
897.6991513786
 10
154.02916005992216
 20
913.5086827805515
 10
145.1218079614339
 20
938.2568842322967
 10
136.105286339426
 20
956.4410001257642
 10
118.18613848313532
 20
984.486450943722
 10
112.13354214068383
 20
998.2523879171172
 10
106.76581138420619
 20
1020.0992551151587
 10
110.63469640731783
 20
1041.9520147695227
 10
116.13596391328664
 20
1052.9833585025922
 10
125.06113550588667
 20
1063.2613828008193
 10
138.4125494677343
 20
1072.7079150446834
 10
164.73637324436837
 20
1086.5859255637165
 10
182.38836446948682
 20
1101.3985124275519
 10
191.23832200071124
 20
1113.5845841151938
 10
213.8283774789177
 20
1155.5138477502567
 10
226.94546939154733
 20
1166.943141301861
 10
244.90960338585086
 20
1174.0675990847012
 10
308.60164838010394
 20
1188.4321792918643
 10
321.63525183984234
 20
1194.0905865546679
 10
334.79903822088653
 20
1203.0087505854806
 10
343.0457994125783
 20
1210.9249056912977
 10
390.0144188886508
 20
1267.3633598242109
 10
415.39746659251733
 20
1314.6099899940923
 10
424.91494568563945
 20
1324.3014586898544
 10
451.7805514594093
 20
1341.9763661782615
 10
458.0432258249203
 20
1350.974164752812
 10
464.79564083117646
 20
1388.2908735638275
 10
485.14158973095414
 20
1430.7733267751366
 10
502.6917319288496
 20
1476.516468600102
 10
518.3631784422636
 20
1503.0912786159163
 10
536.2716345786973
 20
1527.9784061648038
 10
558.4544131710965
 20
1548.7233557625232
 10
579.8386707001617
 20
1572.4781537292913
 10
586.5066555784505
 20
1582.5673003966888
 10
593.82274283316
 20
1598.063302451761
 10
604.1326696377158
 20
1647.0154546590832
 10
614.215817282721
 20
1675.9384220008928
 10
632.2256947722652
 20
1711.2906334595789
 10
654.5803244632615
 20
1747.4341746760144
 10
680.5806923021954
 20
1799.0620767667176
 10
691.7331069582619
 20
1815.3379988962097
 10
702.3635793850821
 20
1824.4027525608662
 10
735.5622284816494
 20
1842.1026487351076
 10
753.2384857874364
 20
1856.390007475411
 10
763.0802813974842
 20
1868.972318288692
 10
771.010854643754
 20
1889.7786306780874
 10
772.9054079017212
 20
1906.2091449952652
 10
771.5301701623922
 20
1913.1797495629328
 10
765.9032978131535
 20
1922.7062045632204
 10
753.1740705976116
 20
1938.0168470359092
 10
724.2125740016343
 20
1957.7786854879384
 10
702.5798474213476
 20
1975.4969505270863
 10
693.9138098705993
 20
1985.0225644380237
 10
689.3438195857156
 20
1998.2409402447472
 10
690.8905746104583
 20
2021.0004855279813
 10
707.5623123407771
 20
2112.6295030190818
 10
711.0174503769499
 20
2149.843390081754
 10
716.5721815942424
 20
2166.5820488920876
 10
725.0502501021616
 20
2175.872601585247
 10
746.4568746482427
 20
2191.528187734805
 10
760.2678958398246
 20
2207.528669070701
 10
776.3156498345785
 20
2214.8658063488847
 10
787.0384574542244
 20
2215.859777294373
 10
803.7898418327135
 20
2213.8353277497145
 10
814.7961820490208
 20
2208.9924999731265
 10
834.1966940727781
 20
2196.7368161121267
 10
840.8241284148256
 20
2196.6192697531783
 10
850.1690046755244
 20
2200.047759961188
 10
866.0970218131175
 20
2211.0862080655656
 10
895.8503921112484
 20
2239.6353652037815
 10
905.8451806781114
 20
2252.399717203667
 10
910.7717252006845
 20
2262.296845909858
 10
913.7426573512982
 20
2277.2626890531624
 10
915.1893387227865
 20
2297.7474891877564
 10
912.2452716910067
 20
2310.959449690147
 10
899.7796352445796
 20
2334.5738571720126
 10
898.8186435738633
 20
2344.1718151625664
 10
881.9316876579296
 20
2390.46932755404
 10
901.9169060382736
 20
2411.4894205919427
 10
954.3141135604075
 20
2382.8217581040185
 10
967.4572972892712
 20
2363.9433900532836
 10
973.5463875817669
 20
2326.3443624571464
 10
979.2122810617108
 20
2307.829440558896
 10
983.8525089977034
 20
2299.2750966318963
 10
1000.4725756521643
 20
2277.721517898765
 10
1019.1865128248348
 20
2260.646826252775
 10
1027.734102527953
 20
2256.9630658288847
 10
1031.3003612905968
 20
2256.899773327687
 10
1055.8800442211852
 20
2264.5696707324887
 10
1070.9734357030322
 20
2272.7891043181558
 10
1100.4152943028894
 20
2309.1532235967493
 10
1114.475713096465
 20
2320.956091301805
 10
1130.7663012072344
 20
2327.5515932418657
 10
1148.6673024844422
 20
2331.117198633908
 10
1166.217698536073
 20
2337.8383005190817
 10
1182.2602942888784
 20
2347.3536184386503
 10
1266.4738927490612
 20
2408.522506266779
 10
1299.093508009721
 20
2421.8204876391005
 10
1308.263421974025
 20
2427.4849734913423
 10
1328.2608023590988
 20
2446.676539070547
 10
1336.6483948408338
 20
2459.5000177801235
 10
1368.5837492055623
 20
2516.5088825305584
 10
1405.1451911564948
 20
2536.6608636718775
 10
1414.5802451660893
 20
2542.50879750523
  0
LWPOLYLINE
  5
59
330
17
100
AcDbEntity
  8
ROADS
 62
251
100
AcDbPolyline
 90
127
 70
0
 10
-131.49751878709517
 20
214.92379426083576
 10
-139.40564276710697
 20
250.2044071042129
 10
-124.49715004637082
 20
274.6139354163494
 10
-82.90858776073715
 20
280.22953023235465
 10
16.03950986153271
 20
230.52257195486752
 10
93.72684986064367
 20
289.66514447554965
 10
257.67439413051176
 20
347.84663012744033
 10
272.2870875353283
 20
366.5182563778954
 10
273.3295906384151
 20
392.10963908515805
 10
264.180322614808
 20
421.0788474456169
 10
248.6090346506311
 20
453.45416526658477
 10
239.77225161538917
 20
482.6010514006706
 10
233.8200416959457
 20
521.1701671123318
 10
232.08098369052897
 20
549.0178309476868
 10
225.68461760964357
 20
572.8433851446548
 10
221.15535035327554
 20
582.2724587324708
 10
204.68020562832774
 20
602.0777877431242
 10
188.07200561264779
 20
626.4130665439176
 10
170.1318775742123
 20
670.52482157574
 10
168.70860661217964
 20
678.873322865921
 10
170.56513379536108
 20
721.2763577117338
 10
169.7747286671495
 20
771.2348548544018
 10
165.3130922511291
 20
865.5299888646853
 10
161.98202582549632
 20
898.4185212007629
 10
158.8677187395014
 20
914.8296364335094
 10
149.72903651680076
 20
940.2205658758589
 10
140.4645173592609
 20
958.9048320619182
 10
122.60766685577266
 20
986.8527806237353
 10
116.88548869665831
 20
999.8672192930421
 10
111.87328181740128
 20
1020.2670908641146
 10
115.43201497282861
 20
1040.3680087913738
 10
120.32725723320564
 20
1050.1841284351244
 10
128.44114063833666
 20
1059.5278917371165
 10
141.03356309493515
 20
1068.4374143618015
 10
167.54098297231562
 20
1082.412217377207
 10
186.07302544839348
 20
1097.963295181425
 10
195.48105815426166
 20
1110.9178162160053
 10
217.79878244300036
 20
1152.3416075980115
 10
229.58463548704404
 20
1162.6109550336841
 10
246.3902269013784
 20
1169.2759424238393
 10
310.1609420901542
 20
1183.6582652599166
 10
324.0538573305014
 20
1189.6897340505952
 10
337.95509994962214
 20
1199.1075078066299
 10
346.71009332938127
 20
1207.51152047701
 10
394.18029492553325
 20
1264.5526859477009
 10
419.4645515419276
 20
1311.6154317381993
 10
428.10863560427964
 20
1320.4175388165704
 10
455.333794867618
 20
1338.3289968863703
 10
462.7693576155288
 20
1349.0119243370734
 10
469.595889347078
 20
1386.7382336026267
 10
489.7378511675872
 20
1428.7947606704354
 10
507.2105174500011
 20
1474.3359672774448
 10
522.5545155065753
 20
1500.3555075213815
 10
540.0442642662749
 20
1524.6607633661392
 10
562.0266491987903
 20
1545.218308290604
 10
583.8043153739283
 20
1569.4101260086134
 10
590.875278725107
 20
1580.1090084494124
 10
598.5945394291914
 20
1596.45896103604
 10
608.9593631780796
 20
1645.6717672349575
 10
618.825264566299
 20
1673.971575359888
 10
636.5869338801696
 20
1708.8365704053979
 10
658.9476764733491
 20
1744.9899951195732
 10
684.8952298888545
 20
1796.5130256985096
 10
695.4824808360531
 20
1811.9641434426176
 10
705.1948254270416
 20
1820.2459965615299
 10
738.3348554746332
 20
1837.914639925523
 10
756.8252836701926
 20
1852.8600764125385
 10
767.4835882525258
 20
1866.4862586978743
 10
775.9061610915388
 20
1888.5833601518423
 10
777.9618685731123
 20
1906.4114845742504
 10
776.2701144367946
 20
1914.9864013124568
 10
770.0044488191971
 20
1925.594351492981
 10
756.5709484466498
 20
1941.7520897341276
 10
727.211495068623
 20
1961.7854734639252
 10
706.0316329686069
 20
1979.1328202622092
 10
698.3036547454573
 20
1987.6273295964663
 10
694.4011633213673
 20
1998.915011847513
 10
695.8600418109991
 20
2020.3815081681123
 10
712.5206874367374
 20
2111.9495626893618
 10
715.943151884409
 20
2148.811535814101
 10
720.9826327723814
 20
2163.9975363360277
 10
728.4060421512917
 20
2172.132358074404
 10
749.8690381004536
 20
2187.8291710579915
 10
763.3396560985639
 20
2203.435285107915
 10
777.6225478068221
 20
2209.9655158945525
 10
786.9684726385909
 20
2210.831854084233
 10
802.454341393775
 20
2208.960345482811
 10
812.4411030169096
 20
2204.566135814912
 10
832.7091496852462
 20
2191.76241330785
 10
841.6693862398666
 20
2191.6034916002995
 10
852.4914794042128
 20
2195.573949786052
 10
869.2718758479836
 20
2207.203114528615
 10
899.5682873039999
 20
2236.2733342286065
 10
910.0949947052403
 20
2249.717000172148
 10
915.5458204763851
 20
2260.6673780617325
 10
918.7081101816241
 20
2276.5971702289885
 10
920.2283074934421
 20
2298.122945504373
 10
916.9798281291713
 20
2312.70100388086
 10
904.6574312086966
 20
2336.0440640835163
 10
903.7311850830858
 20
2345.294999001506
 10
887.6911525798741
 20
2389.2705744263453
 10
902.890710344098
 20
2405.2571957510936
 10
950.8825620575388
 20
2378.99980013492
 10
962.7035480472331
 20
2362.0205865106022
 10
968.665297801227
 20
2325.2078636317947
 10
974.5779812059812
 20
2305.8864853115674
 10
979.6484278103612
 20
2296.5390255066486
 10
996.7798042311492
 20
2274.3223594625774
 10
1016.4366320746601
 20
2256.3873695633692
 10
1026.6601372213408
 20
2251.9813387452264
 10
1032.0189549769048
 20
2251.886232640541
 10
1057.8391654549575
 20
2259.9432269433682
 10
1074.2355051049306
 20
2268.8722092044513
 10
1103.9985249284364
 20
2305.6329999433333
 10
1117.0848932779404
 20
2316.6182114534913
 10
1132.205548899724
 20
2322.7400477438914
 10
1150.0596831680232
 20
2326.2963179452877
 10
1168.402816670523
 20
2333.321006664616
 10
1185.0107893305671
 20
2343.1716656411845
 10
1268.922273769735
 20
2404.121111728304
 10
1301.3667923950902
 20
2417.3477117622483
 10
1311.3426288861117
 20
2423.510036173104
 10
1332.1336072329318
 20
2443.4632208760677
 10
1340.9267225912129
 20
2456.9066884543167
 10
1372.2480000795433
 20
2512.8193441195754
 10
1407.6706783676489
 20
2532.3436600859677
 10
1417.2143579421063
 20
2538.2589210501756
  0
LWPOLYLINE
  5
5A
330
17
100
AcDbEntity
  8
BUILDINGS
100
AcDbPolyline
 90
5
 70
1
 10
3.099394562887028
 20
175.08259926456958
 10
175.08270461321808
 20
-3.0995076717808843
 10
-3.0996129964478314
 20
-175.08259148336947
 10
-175.0824861789588
 20
3.0994998905807734
 10
0.0
 20
0.0
  0
CIRCLE
  5
5B
330
17
100
AcDbEntity
  8
TREES
100
AcDbCircle
 10
5.313114085933194
 20
300.14160350337625
 30
0.0
 40
1.4285714285714286
  0
CIRCLE
  5
5C
330
17
100
AcDbEntity
  8
TREES
100
AcDbCircle
 10
262.58713142666966
 20
145.46949862595648
 30
0.0
 40
1.4285714285714286
  0
CIRCLE
  5
5D
330
17
100
AcDbEntity
  8
TREES
100
AcDbCircle
 10
257.2736765630543
 20
-154.6726495353505
 30
0.0
 40
1.4285714285714286
  0
CIRCLE
  5
5E
330
17
100
AcDbEntity
  8
TREES
100
AcDbCircle
 10
-5.313756013172679
 20
-300.1415806347504
 30
0.0
 40
1.4285714285714286
  0
CIRCLE
  5
5F
330
17
100
AcDbEntity
  8
TREES
100
AcDbCircle
 10
-262.5867906578351
 20
-145.4689541356638
 30
0.0
 40
1.4285714285714286
  0
CIRCLE
  5
60
330
17
100
AcDbEntity
  8
TREES
100
AcDbCircle
 10
-257.27337540348526
 20
154.6720821755007
 30
0.0
 40
1.4285714285714286
  0
ENDSEC
  0
SECTION
  2
OBJECTS
  0
DICTIONARY
  5
A
330
0
100
AcDbDictionary
281
1
  3
ACAD_COLOR
350
B
  3
ACAD_GROUP
350
C
  3
ACAD_LAYOUT
350
D
  3
ACAD_MATERIAL
350
E
  3
ACAD_MLEADERSTYLE
350
F
  3
ACAD_MLINESTYLE
350
10
  3
ACAD_PLOTSETTINGS
350
11
  3
ACAD_PLOTSTYLENAME
350
12
  3
ACAD_SCALELIST
350
14
  3
ACAD_TABLESTYLE
350
15
  3
ACAD_VISUALSTYLE
350
16
  3
EZDXF_META
350
2D
  0
DICTIONARY
  5
B
330
A
100
AcDbDictionary
281
1
  0
DICTIONARY
  5
C
330
A
100
AcDbDictionary
281
1
  0
DICTIONARY
  5
D
330
A
100
AcDbDictionary
281
1
  3
Model
350
1A
  3
Layout1
350
1E
  0
DICTIONARY
  5
E
330
A
100
AcDbDictionary
281
1
  3
ByBlock
350
1F
  3
ByLayer
350
20
  3
Global
350
21
  0
DICTIONARY
  5
F
330
A
100
AcDbDictionary
281
1
  3
Standard
350
2C
  0
DICTIONARY
  5
10
330
A
100
AcDbDictionary
281
1
  3
Standard
350
22
  0
DICTIONARY
  5
11
330
A
100
AcDbDictionary
281
1
  0
ACDBDICTIONARYWDFLT
  5
12
330
A
100
AcDbDictionary
281
1
  3
Normal
350
13
100
AcDbDictionaryWithDefault
340
13
  0
ACDBPLACEHOLDER
  5
13
330
12
  0
DICTIONARY
  5
14
330
A
100
AcDbDictionary
281
1
  0
DICTIONARY
  5
15
330
A
100
AcDbDictionary
281
1
  0
DICTIONARY
  5
16
330
A
100
AcDbDictionary
281
1
  0
LAYOUT
  5
1A
330
D
100
AcDbPlotSettings
  1

  4
A3
  6

 40
7.5
 41
20.0
 42
7.5
 43
20.0
 44
420.0
 45
297.0
 46
0.0
 47
0.0
 48
0.0
 49
0.0
140
0.0
141
0.0
142
1.0
143
1.0
 70
1024
 72
1
 73
0
 74
5
  7

 75
16
 76
0
 77
2
 78
300
147
1.0
148
0.0
149
0.0
100
AcDbLayout
  1
Model
 70
1
 71
0
 10
0.0
 20
0.0
 11
420.0
 21
297.0
 12
0.0
 22
0.0
 32
0.0
 14
1e+20
 24
1e+20
 34
1e+20
 15
-1e+20
 25
-1e+20
 35
-1e+20
146
0.0
 13
0.0
 23
0.0
 33
0.0
 16
1.0
 26
0.0
 36
0.0
 17
0.0
 27
1.0
 37
0.0
 76
1
330
17
  0
LAYOUT
  5
1E
330
D
100
AcDbPlotSettings
  1

  4
A3
  6

 40
7.5
 41
20.0
 42
7.5
 43
20.0
 44
420.0
 45
297.0
 46
0.0
 47
0.0
 48
0.0
 49
0.0
140
0.0
141
0.0
142
1.0
143
1.0
 70
0
 72
1
 73
0
 74
5
  7

 75
16
 76
0
 77
2
 78
300
147
1.0
148
0.0
149
0.0
100
AcDbLayout
  1
Layout1
 70
1
 71
1
 10
0.0
 20
0.0
 11
420.0
 21
297.0
 12
0.0
 22
0.0
 32
0.0
 14
1e+20
 24
1e+20
 34
1e+20
 15
-1e+20
 25
-1e+20
 35
-1e+20
146
0.0
 13
0.0
 23
0.0
 33
0.0
 16
1.0
 26
0.0
 36
0.0
 17
0.0
 27
1.0
 37
0.0
 76
1
330
1B
  0
MATERIAL
  5
1F
102
{ACAD_REACTORS
330
E
102
}
330
E
100
AcDbMaterial
  1
ByBlock
  2

 70
0
 40
1.0
 71
1
 41
1.0
 91
-1023410177
 42
1.0
 72
1
  3

 73
1
 74
1
 75
1
 44
0.5
 73
0
 45
1.0
 46
1.0
 77
1
  4

 78
1
 79
1
170
1
 48
1.0
171
1
  6

172
1
173
1
174
1
140
1.0
141
1.0
175
1
  7

176
1
177
1
178
1
143
1.0
179
1
  8

270
1
271
1
272
1
145
1.0
146
1.0
273
1
  9

274
1
275
1
276
1
 42
1.0
 72
1
  3

 73
1
 74
1
 75
1
 94
63
  0
MATERIAL
  5
20
102
{ACAD_REACTORS
330
E
102
}
330
E
100
AcDbMaterial
  1
ByLayer
  2

 70
0
 40
1.0
 71
1
 41
1.0
 91
-1023410177
 42
1.0
 72
1
  3

 73
1
 74
1
 75
1
 44
0.5
 73
0
 45
1.0
 46
1.0
 77
1
  4

 78
1
 79
1
170
1
 48
1.0
171
1
  6

172
1
173
1
174
1
140
1.0
141
1.0
175
1
  7

176
1
177
1
178
1
143
1.0
179
1
  8

270
1
271
1
272
1
145
1.0
146
1.0
273
1
  9

274
1
275
1
276
1
 42
1.0
 72
1
  3

 73
1
 74
1
 75
1
 94
63
  0
MATERIAL
  5
21
102
{ACAD_REACTORS
330
E
102
}
330
E
100
AcDbMaterial
  1
Global
  2

 70
0
 40
1.0
 71
1
 41
1.0
 91
-1023410177
 42
1.0
 72
1
  3

 73
1
 74
1
 75
1
 44
0.5
 73
0
 45
1.0
 46
1.0
 77
1
  4

 78
1
 79
1
170
1
 48
1.0
171
1
  6

172
1
173
1
174
1
140
1.0
141
1.0
175
1
  7

176
1
177
1
178
1
143
1.0
179
1
  8

270
1
271
1
272
1
145
1.0
146
1.0
273
1
  9

274
1
275
1
276
1
 42
1.0
 72
1
  3

 73
1
 74
1
 75
1
 94
63
  0
MLINESTYLE
  5
22
102
{ACAD_REACTORS
330
10
102
}
330
10
100
AcDbMlineStyle
  2
Standard
 70
0
  3

 62
256
 51
90.0
 52
90.0
 71
2
 49
0.5
 62
256
  6
BYLAYER
 49
-0.5
 62
256
  6
BYLAYER
  0
MLEADERSTYLE
  5
2C
102
{ACAD_REACTORS
330
F
102
}
330
F
100
AcDbMLeaderStyle
179
2
170
2
171
1
172
0
 90
2
 40
0.0
 41
0.0
173
1
 91
-1056964608
 92
-2
290
1
 42
2.0
291
1
 43
8.0
  3
Standard
 44
4.0
300

342
29
174
1
175
1
176
0
178
1
 93
-1056964608
 45
4.0
292
0
297
0
 46
4.0
 94
-1056964608
 47
1.0
 49
1.0
140
1.0
294
1
141
0.0
177
0
142
1.0
295
0
296
0
143
3.75
271
0
272
9
273
9
  0
DICTIONARY
  5
2D
330
A
100
AcDbDictionary
280
1
281
1
  3
CREATED_BY_EZDXF
350
2E
  3
WRITTEN_BY_EZDXF
350
63
  0
DICTIONARYVAR
  5
2E
330
2D
100
DictionaryVariables
280
0
  1
1.4.3 @ 2026-02-19T12:48:58.408780+00:00
  0
DICTIONARYVAR
  5
63
330
2D
100
DictionaryVariables
280
0
  1
1.4.3 @ 2026-02-19T12:49:12.667222+00:00
  0
ENDSEC
  0
EOF
