  0
SECTION
  2
HEADER
  9
$ACADVER
  1
AC1032
  9
$ACADMAINTVER
 90
4
  9
$DWGCODEPAGE
  3
ANSI_1252
  9
$LASTSAVEDBY
  1
ezdxf
  9
$REQUIREDVERSIONS
160
0
  9
$INSBASE
 10
0.0
 20
0.0
 30
0.0
  9
$EXTMIN
 10
1e+20
 20
1e+20
 30
1e+20
  9
$EXTMAX
 10
-1e+20
 20
-1e+20
 30
-1e+20
  9
$LIMMIN
 10
0.0
 20
0.0
  9
$LIMMAX
 10
420.0
 20
297.0
  9
$ORTHOMODE
 70
0
  9
$REGENMODE
 70
1
  9
$FILLMODE
 70
1
  9
$QTEXTMODE
 70
0
  9
$MIRRTEXT
 70
1
  9
$LTSCALE
 40
1.0
  9
$ATTMODE
 70
1
  9
$TEXTSIZE
 40
2.5
  9
$TRACEWID
 40
1.0
  9
$TEXTSTYLE
  7
Standard
  9
$CLAYER
  8
0
  9
$CELTYPE
  6
ByLayer
  9
$CECOLOR
 62
256
  9
$CELTSCALE
 40
1.0
  9
$DISPSILH
 70
0
  9
$DIMSCALE
 40
1.0
  9
$DIMASZ
 40
2.5
  9
$DIMEXO
 40
0.625
  9
$DIMDLI
 40
3.75
  9
$DIMRND
 40
0.0
  9
$DIMDLE
 40
0.0
  9
$DIMEXE
 40
1.25
  9
$DIMTP
 40
0.0
  9
$DIMTM
 40
0.0
  9
$DIMTXT
 40
2.5
  9
$DIMCEN
 40
2.5
  9
$DIMTSZ
 40
0.0
  9
$DIMTOL
 70
0
  9
$DIMLIM
 70
0
  9
$DIMTIH
 70
0
  9
$DIMTOH
 70
0
  9
$DIMSE1
 70
0
  9
$DIMSE2
 70
0
  9
$DIMTAD
 70
1
  9
$DIMZIN
 70
8
  9
$DIMBLK
  1

  9
$DIMASO
 70
1
  9
$DIMSHO
 70
1
  9
$DIMPOST
  1

  9
$DIMAPOST
  1

  9
$DIMALT
 70
0
  9
$DIMALTD
 70
3
  9
$DIMALTF
 40
0.03937007874
  9
$DIMLFAC
 40
1.0
  9
$DIMTOFL
 70
1
  9
$DIMTVP
 40
0.0
  9
$DIMTIX
 70
0
  9
$DIMSOXD
 70
0
  9
$DIMSAH
 70
0
  9
$DIMBLK1
  1

  9
$DIMBLK2
  1

  9
$DIMSTYLE
  2
ISO-25
  9
$DIMCLRD
 70
0
  9
$DIMCLRE
 70
0
  9
$DIMCLRT
 70
0
  9
$DIMTFAC
 40
1.0
  9
$DIMGAP
 40
0.625
  9
$DIMJUST
 70
0
  9
$DIMSD1
 70
0
  9
$DIMSD2
 70
0
  9
$DIMTOLJ
 70
0
  9
$DIMTZIN
 70
8
  9
$DIMALTZ
 70
0
  9
$DIMALTTZ
 70
0
  9
$DIMUPT
 70
0
  9
$DIMDEC
 70
2
  9
$DIMTDEC
 70
2
  9
$DIMALTU
 70
2
  9
$DIMALTTD
 70
3
  9
$DIMTXSTY
  7
Standard
  9
$DIMAUNIT
 70
0
  9
$DIMADEC
 70
0
  9
$DIMALTRND
 40
0.0
  9
$DIMAZIN
 70
0
  9
$DIMDSEP
 70
44
  9
$DIMATFIT
 70
3
  9
$DIMFRAC
 70
0
  9
$DIMLDRBLK
  1

  9
$DIMLUNIT
 70
2
  9
$DIMLWD
 70
-2
  9
$DIMLWE
 70
-2
  9
$DIMTMOVE
 70
0
  9
$DIMFXL
 40
1.0
  9
$DIMFXLON
 70
0
  9
$DIMJOGANG
 40
0.785398163397
  9
$DIMTFILL
 70
0
  9
$DIMTFILLCLR
 70
0
  9
$DIMARCSYM
 70
0
  9
$DIMLTYPE
  6

  9
$DIMLTEX1
  6

  9
$DIMLTEX2
  6

  9
$DIMTXTDIRECTION
 70
0
  9
$LUNITS
 70
2
  9
$LUPREC
 70
4
  9
$SKETCHINC
 40
1.0
  9
$FILLETRAD
 40
10.0
  9
$AUNITS
 70
0
  9
$AUPREC
 70
2
  9
$MENU
  1
.
  9
$ELEVATION
 40
0.0
  9
$PELEVATION
 40
0.0
  9
$THICKNESS
 40
0.0
  9
$LIMCHECK
 70
0
  9
$CHAMFERA
 40
0.0
  9
$CHAMFERB
 40
0.0
  9
$CHAMFERC
 40
0.0
  9
$CHAMFERD
 40
0.0
  9
$SKPOLY
 70
0
  9
$TDCREATE
 40
2461091.417048611
  9
$TDUCREATE
 40
2458532.153996898
  9
$TDUPDATE
 40
2461091.4172337963
  9
$TDUUPDATE
 40
2458532.1544311
  9
$TDINDWG
 40
0.0
  9
$TDUSRTIMER
 40
0.0
  9
$USRTIMER
 70
1
  9
$ANGBASE
 50
0.0
  9
$ANGDIR
 70
0
  9
$PDMODE
 70
0
  9
$PDSIZE
 40
0.0
  9
$PLINEWID
 40
0.0
  9
$SPLFRAME
 70
0
  9
$SPLINETYPE
 70
6
  9
$SPLINESEGS
 70
8
  9
$HANDSEED
  5
10D
  9
$SURFTAB1
 70
6
  9
$SURFTAB2
 70
6
  9
$SURFTYPE
 70
6
  9
$SURFU
 70
6
  9
$SURFV
 70
6
  9
$UCSBASE
  2

  9
$UCSNAME
  2

  9
$UCSORG
 10
0.0
 20
0.0
 30
0.0
  9
$UCSXDIR
 10
1.0
 20
0.0
 30
0.0
  9
$UCSYDIR
 10
0.0
 20
1.0
 30
0.0
  9
$UCSORTHOREF
  2

  9
$UCSORTHOVIEW
 70
0
  9
$UCSORGTOP
 10
0.0
 20
0.0
 30
0.0
  9
$UCSORGBOTTOM
 10
0.0
 20
0.0
 30
0.0
  9
$UCSORGLEFT
 10
0.0
 20
0.0
 30
0.0
  9
$UCSORGRIGHT
 10
0.0
 20
0.0
 30
0.0
  9
$UCSORGFRONT
 10
0.0
 20
0.0
 30
0.0
  9
$UCSORGBACK
 10
0.0
 20
0.0
 30
0.0
  9
$PUCSBASE
  2

  9
$PUCSNAME
  2

  9
$PUCSORG
 10
0.0
 20
0.0
 30
0.0
  9
$PUCSXDIR
 10
1.0
 20
0.0
 30
0.0
  9
$PUCSYDIR
 10
0.0
 20
1.0
 30
0.0
  9
$PUCSORTHOREF
  2

  9
$PUCSORTHOVIEW
 70
0
  9
$PUCSORGTOP
 10
0.0
 20
0.0
 30
0.0
  9
$PUCSORGBOTTOM
 10
0.0
 20
0.0
 30
0.0
  9
$PUCSORGLEFT
 10
0.0
 20
0.0
 30
0.0
  9
$PUCSORGRIGHT
 10
0.0
 20
0.0
 30
0.0
  9
$PUCSORGFRONT
 10
0.0
 20
0.0
 30
0.0
  9
$PUCSORGBACK
 10
0.0
 20
0.0
 30
0.0
  9
$USERI1
 70
0
  9
$USERI2
 70
0
  9
$USERI3
 70
0
  9
$USERI4
 70
0
  9
$USERI5
 70
0
  9
$USERR1
 40
0.0
  9
$USERR2
 40
0.0
  9
$USERR3
 40
0.0
  9
$USERR4
 40
0.0
  9
$USERR5
 40
0.0
  9
$WORLDVIEW
 70
1
  9
$SHADEDGE
 70
3
  9
$SHADEDIF
 70
70
  9
$TILEMODE
 70
1
  9
$MAXACTVP
 70
64
  9
$PINSBASE
 10
0.0
 20
0.0
 30
0.0
  9
$PLIMCHECK
 70
0
  9
$PEXTMIN
 10
1e+20
 20
1e+20
 30
1e+20
  9
$PEXTMAX
 10
-1e+20
 20
-1e+20
 30
-1e+20
  9
$PLIMMIN
 10
0.0
 20
0.0
  9
$PLIMMAX
 10
420.0
 20
297.0
  9
$UNITMODE
 70
0
  9
$VISRETAIN
 70
1
  9
$PLINEGEN
 70
0
  9
$PSLTSCALE
 70
1
  9
$TREEDEPTH
 70
3020
  9
$CMLSTYLE
  2
Standard
  9
$CMLJUST
 70
0
  9
$CMLSCALE
 40
20.0
  9
$PROXYGRAPHICS
 70
1
  9
$MEASUREMENT
 70
1
  9
$CELWEIGHT
370
-1
  9
$ENDCAPS
280
0
  9
$JOINSTYLE
280
0
  9
$LWDISPLAY
290
0
  9
$INSUNITS
 70
6
  9
$HYPERLINKBASE
  1

  9
$STYLESHEET
  1

  9
$XEDIT
290
1
  9
$CEPSNTYPE
380
0
  9
$PSTYLEMODE
290
1
  9
$FINGERPRINTGUID
  2
{1829528B-6D77-425B-8A39-467B990BDA52}
  9
$VERSIONGUID
  2
{B81357F1-3BD7-4D89-9637-197DBE3C7A4F}
  9
$EXTNAMES
290
1
  9
$PSVPSCALE
 40
0.0
  9
$OLESTARTUP
290
0
  9
$SORTENTS
280
127
  9
$INDEXCTL
280
0
  9
$HIDETEXT
280
1
  9
$XCLIPFRAME
280
1
  9
$HALOGAP
280
0
  9
$OBSCOLOR
 70
257
  9
$OBSLTYPE
280
0
  9
$INTERSECTIONDISPLAY
280
0
  9
$INTERSECTIONCOLOR
 70
257
  9
$DIMASSOC
280
2
  9
$PROJECTNAME
  1

  9
$CAMERADISPLAY
290
0
  9
$LENSLENGTH
 40
50.0
  9
$CAMERAHEIGHT
 40
0.0
  9
$STEPSPERSEC
 40
24.0
  9
$STEPSIZE
 40
100.0
  9
$3DDWFPREC
 40
2.0
  9
$PSOLWIDTH
 40
0.005
  9
$PSOLHEIGHT
 40
0.08
  9
$LOFTANG1
 40
1.570796326795
  9
$LOFTANG2
 40
1.570796326795
  9
$LOFTMAG1
 40
0.0
  9
$LOFTMAG2
 40
0.0
  9
$LOFTPARAM
 70
7
  9
$LOFTNORMALS
280
1
  9
$LATITUDE
 40
37.795
  9
$LONGITUDE
 40
-122.394
  9
$NORTHDIRECTION
 40
0.0
  9
$TIMEZONE
 70
-8000
  9
$LIGHTGLYPHDISPLAY
280
1
  9
$TILEMODELIGHTSYNCH
280
1
  9
$CMATERIAL
347
20
  9
$SOLIDHIST
280
0
  9
$SHOWHIST
280
1
  9
$DWFFRAME
280
2
  9
$DGNFRAME
280
2
  9
$REALWORLDSCALE
290
1
  9
$INTERFERECOLOR
 62
256
  9
$CSHADOW
280
0
  9
$SHADOWPLANELOCATION
 40
0.0
  0
ENDSEC
  0
SECTION
  2
CLASSES
  0
CLASS
  1
ACDBDICTIONARYWDFLT
  2
AcDbDictionaryWithDefault
  3
ObjectDBX Classes
 90
0
 91
0
280
0
281
0
  0
CLASS
  1
SUN
  2
AcDbSun
  3
SCENEOE
 90
1153
 91
0
280
0
281
0
  0
CLASS
  1
VISUALSTYLE
  2
AcDbVisualStyle
  3
ObjectDBX Classes
 90
4095
 91
0
280
0
281
0
  0
CLASS
  1
MATERIAL
  2
AcDbMaterial
  3
ObjectDBX Classes
 90
1153
 91
0
280
0
281
0
  0
CLASS
  1
SCALE
  2
AcDbScale
  3
ObjectDBX Classes
 90
1153
 91
0
280
0
281
0
  0
CLASS
  1
TABLESTYLE
  2
AcDbTableStyle
  3
ObjectDBX Classes
 90
4095
 91
0
280
0
281
0
  0
CLASS
  1
MLEADERSTYLE
  2
AcDbMLeaderStyle
  3
ACDB_MLEADERSTYLE_CLASS
 90
4095
 91
0
280
0
281
0
  0
CLASS
  1
DICTIONARYVAR
  2
AcDbDictionaryVar
  3
ObjectDBX Classes
 90
0
 91
0
280
0
281
0
  0
CLASS
  1
CELLSTYLEMAP
  2
AcDbCellStyleMap
  3
ObjectDBX Classes
 90
1152
 91
0
280
0
281
0
  0
CLASS
  1
MENTALRAYRENDERSETTINGS
  2
AcDbMentalRayRenderSettings
  3
SCENEOE
 90
1024
 91
0
280
0
281
0
  0
CLASS
  1
ACDBDETAILVIEWSTYLE
  2
AcDbDetailViewStyle
  3
ObjectDBX Classes
 90
1025
 91
0
280
0
281
0
  0
CLASS
  1
ACDBSECTIONVIEWSTYLE
  2
AcDbSectionViewStyle
  3
ObjectDBX Classes
 90
1025
 91
0
280
0
281
0
  0
CLASS
  1
RASTERVARIABLES
  2
AcDbRasterVariables
  3
ISM
 90
0
 91
0
280
0
281
0
  0
CLASS
  1
ACDBPLACEHOLDER
  2
AcDbPlaceHolder
  3
ObjectDBX Classes
 90
0
 91
0
280
0
281
0
  0
CLASS
  1
LAYOUT
  2
AcDbLayout
  3
ObjectDBX Classes
 90
0
 91
0
280
0
281
0
  0
ENDSEC
  0
SECTION
  2
TABLES
  0
TABLE
  2
VPORT
  5
8
330
0
100
AcDbSymbolTable
 70
1
  0
VPORT
  5
23
330
8
100
AcDbSymbolTableRecord
100
AcDbViewportTableRecord
  2
*Active
 70
0
 10
0.0
 20
0.0
 11
1.0
 21
1.0
 12
0.0
 22
0.0
 13
0.0
 23
0.0
 14
0.5
 24
0.5
 15
0.5
 25
0.5
 16
0.0
 26
0.0
 36
1.0
 17
0.0
 27
0.0
 37
0.0
 40
1000.0
 41
1.34
 42
50.0
 43
0.0
 44
0.0
 50
0.0
 51
0.0
 71
0
 72
1000
 73
1
 74
3
 75
0
 76
0
 77
0
 78
0
281
0
 65
0
146
0.0
  0
ENDTAB
  0
TABLE
  2
LTYPE
  5
2
330
0
100
AcDbSymbolTable
 70
3
  0
LTYPE
  5
24
330
2
100
AcDbSymbolTableRecord
100
AcDbLinetypeTableRecord
  2
ByBlock
 70
0
  3

 72
65
 73
0
 40
0.0
  0
LTYPE
  5
25
330
2
100
AcDbSymbolTableRecord
100
AcDbLinetypeTableRecord
  2
ByLayer
 70
0
  3

 72
65
 73
0
 40
0.0
  0
LTYPE
  5
26
330
2
100
AcDbSymbolTableRecord
100
AcDbLinetypeTableRecord
  2
Continuous
 70
0
  3

 72
65
 73
0
 40
0.0
  0
ENDTAB
  0
TABLE
  2
LAYER
  5
1
330
0
100
AcDbSymbolTable
 70
9
  0
LAYER
  5
27
330
1
100
AcDbSymbolTableRecord
100
AcDbLayerTableRecord
  2
0
 70
0
 62
7
  6
Continuous
370
-3
390
13
347
21
  0
LAYER
  5
28
330
1
100
AcDbSymbolTableRecord
100
AcDbLayerTableRecord
  2
Defpoints
 70
0
 62
7
  6
Continuous
290
0
370
-3
390
13
347
21
  0
LAYER
  5
2F
330
1
100
AcDbSymbolTableRecord
100
AcDbLayerTableRecord
  2
AOI
 70
0
 62
6
  6
Continuous
370
-3
390
13
347
21
  0
LAYER
  5
30
330
1
100
AcDbSymbolTableRecord
100
AcDbLayerTableRecord
  2
TERRAIN
 70
0
 62
8
  6
Continuous
370
-3
390
13
347
21
  0
LAYER
  5
31
330
1
100
AcDbSymbolTableRecord
100
AcDbLayerTableRecord
  2
ELEVATION
 70
0
 62
9
  6
Continuous
370
-3
390
13
347
21
  0
LAYER
  5
32
330
1
100
AcDbSymbolTableRecord
100
AcDbLayerTableRecord
  2
BUILDINGS
 70
0
 62
1
  6
Continuous
370
-3
390
13
347
21
  0
LAYER
  5
33
330
1
100
AcDbSymbolTableRecord
100
AcDbLayerTableRecord
  2
ROADS
 70
0
 62
3
  6
Continuous
370
-3
390
13
347
21
  0
LAYER
  5
34
330
1
100
AcDbSymbolTableRecord
100
AcDbLayerTableRecord
  2
TREES
 70
0
 62
2
  6
Continuous
370
-3
390
13
347
21
  0
LAYER
  5
35
330
1
100
AcDbSymbolTableRecord
100
AcDbLayerTableRecord
  2
LABELS
 70
0
 62
7
  6
Continuous
370
-3
390
13
347
21
  0
ENDTAB
  0
TABLE
  2
STYLE
  5
5
330
0
100
AcDbSymbolTable
 70
1
  0
STYLE
  5
29
330
5
100
AcDbSymbolTableRecord
100
AcDbTextStyleTableRecord
  2
Standard
 70
0
 40
0.0
 41
1.0
 50
0.0
 71
0
 42
2.5
  3
txt
  4

  0
ENDTAB
  0
TABLE
  2
VIEW
  5
7
330
0
100
AcDbSymbolTable
 70
0
  0
ENDTAB
  0
TABLE
  2
UCS
  5
6
330
0
100
AcDbSymbolTable
 70
0
  0
ENDTAB
  0
TABLE
  2
APPID
  5
3
330
0
100
AcDbSymbolTable
 70
3
  0
APPID
  5
2A
330
3
100
AcDbSymbolTableRecord
100
AcDbRegAppTableRecord
  2
ACAD
 70
0
  0
APPID
  5
10A
330
3
100
AcDbSymbolTableRecord
100
AcDbRegAppTableRecord
  2
HATCHBACKGROUNDCOLOR
 70
0
  0
APPID
  5
10B
330
3
100
AcDbSymbolTableRecord
100
AcDbRegAppTableRecord
  2
EZDXF
 70
0
  0
ENDTAB
  0
TABLE
  2
DIMSTYLE
  5
4
330
0
100
AcDbSymbolTable
 70
1
100
AcDbDimStyleTable
  0
DIMSTYLE
105
2B
330
4
100
AcDbSymbolTableRecord
100
AcDbDimStyleTableRecord
  2
Standard
 70
0
 40
1.0
 41
2.5
 42
0.625
 43
3.75
 44
1.25
 45
0.0
 46
0.0
 47
0.0
 48
0.0
 49
2.5
140
2.5
141
2.5
142
0.0
143
0.03937007874
144
1.0
145
0.0
146
1.0
147
0.625
148
0.0
 69
0
 70
0
 71
0
 72
0
 73
0
 74
0
 75
0
 76
0
 77
1
 78
8
 79
3
170
0
171
3
172
1
173
0
174
0
175
0
176
0
177
0
178
0
179
2
271
2
272
2
273
2
274
3
275
0
276
0
277
2
278
44
279
0
280
0
281
0
282
0
283
0
284
8
285
0
286
0
288
0
289
3
290
0
371
-2
372
-2
  0
ENDTAB
  0
TABLE
  2
BLOCK_RECORD
  5
9
330
0
100
AcDbSymbolTable
 70
2
  0
BLOCK_RECORD
  5
17
330
9
100
AcDbSymbolTableRecord
100
AcDbBlockTableRecord
  2
*Model_Space
340
1A
 70
0
280
1
281
0
  0
BLOCK_RECORD
  5
1B
330
9
100
AcDbSymbolTableRecord
100
AcDbBlockTableRecord
  2
*Paper_Space
340
1E
 70
0
280
1
281
0
  0
ENDTAB
  0
ENDSEC
  0
SECTION
  2
BLOCKS
  0
BLOCK
  5
18
330
17
100
AcDbEntity
  8
0
100
AcDbBlockBegin
  2
*Model_Space
 70
0
 10
0.0
 20
0.0
 30
0.0
  3
*Model_Space
  1

  0
ENDBLK
  5
19
330
17
100
AcDbEntity
  8
0
100
AcDbBlockEnd
  0
BLOCK
  5
1C
330
1B
100
AcDbEntity
  8
0
100
AcDbBlockBegin
  2
*Paper_Space
 70
0
 10
0.0
 20
0.0
 30
0.0
  3
*Paper_Space
  1

  0
ENDBLK
  5
1D
330
1B
100
AcDbEntity
  8
0
100
AcDbBlockEnd
  0
ENDSEC
  0
SECTION
  2
ENTITIES
  0
CIRCLE
  5
36
330
17
100
AcDbEntity
  8
AOI
100
AcDbCircle
 10
0.0
 20
0.0
 30
0.0
 40
500.0
  0
POINT
  5
37
330
17
100
AcDbEntity
  8
ELEVATION
100
AcDbPoint
 10
6.8406128763454035
 20
500.0369984395802
 30
806.0
  0
POINT
  5
38
330
17
100
AcDbEntity
  8
ELEVATION
100
AcDbPoint
 10
197.67592637287453
 20
459.3563700951636
 30
704.0
  0
POINT
  5
39
330
17
100
AcDbEntity
  8
ELEVATION
100
AcDbPoint
 10
358.4170696280198
 20
348.7426900546998
 30
617.0
  0
POINT
  5
3A
330
17
100
AcDbEntity
  8
ELEVATION
100
AcDbPoint
 10
464.5924553804798
 20
185.0358096137643
 30
568.0
  0
POINT
  5
3B
330
17
100
AcDbEntity
  8
ELEVATION
100
AcDbPoint
 10
500.037642703508
 20
-6.841293089091778
 30
581.0
  0
POINT
  5
3C
330
17
100
AcDbEntity
  8
ELEVATION
100
AcDbPoint
 10
459.35634450416546
 20
-197.67686302401125
 30
598.0
  0
POINT
  5
3D
330
17
100
AcDbEntity
  8
ELEVATION
100
AcDbPoint
 10
348.7420094833942
 20
-358.4177137259394
 30
600.0
  0
POINT
  5
3E
330
17
100
AcDbEntity
  8
ELEVATION
100
AcDbPoint
 10
185.0348729797406
 20
-464.5924293939024
 30
621.0
  0
POINT
  5
3F
330
17
100
AcDbEntity
  8
ELEVATION
100
AcDbPoint
 10
-6.841936815413646
 20
-500.0369619950652
 30
618.0
  0
POINT
  5
40
330
17
100
AcDbEntity
  8
ELEVATION
100
AcDbPoint
 10
-197.6768367702607
 20
-459.35540816001594
 30
579.0
  0
POINT
  5
41
330
17
100
AcDbEntity
  8
ELEVATION
100
AcDbPoint
 10
-358.417033184669
 20
-348.74136611633
 30
609.0
  0
POINT
  5
42
330
17
100
AcDbEntity
  8
ELEVATION
100
AcDbPoint
 10
-464.59149344509933
 20
-185.03489921800792
 30
620.0
  0
POINT
  5
43
330
17
100
AcDbEntity
  8
ELEVATION
100
AcDbPoint
 10
-500.03631876409054
 20
6.841256646439433
 30
615.0
  0
POINT
  5
44
330
17
100
AcDbEntity
  8
ELEVATION
100
AcDbPoint
 10
-459.3554341063136
 20
197.6759010888636
 30
793.0
  0
POINT
  5
45
330
17
100
AcDbEntity
  8
ELEVATION
100
AcDbPoint
 10
-348.7420459262794
 20
358.416389785707
 30
705.0
  0
POINT
  5
46
330
17
100
AcDbEntity
  8
ELEVATION
100
AcDbPoint
 10
-185.03583491465542
 20
464.5915189962834
 30
742.0
  0
POINT
  5
47
330
17
100
AcDbEntity
  8
ELEVATION
100
AcDbPoint
 10
0.0
 20
0.0
 30
585.0
  0
LWPOLYLINE
  5
48
330
17
100
AcDbEntity
  8
TERRAIN
100
AcDbPolyline
 90
17
 70
1
 10
6.8406128763454035
 20
500.0369984395802
 10
197.67592637287453
 20
459.3563700951636
 10
358.4170696280198
 20
348.7426900546998
 10
464.5924553804798
 20
185.0358096137643
 10
500.037642703508
 20
-6.841293089091778
 10
459.35634450416546
 20
-197.67686302401125
 10
348.7420094833942
 20
-358.4177137259394
 10
185.0348729797406
 20
-464.5924293939024
 10
-6.841936815413646
 20
-500.0369619950652
 10
-197.6768367702607
 20
-459.35540816001594
 10
-358.417033184669
 20
-348.74136611633
 10
-464.59149344509933
 20
-185.03489921800792
 10
-500.03631876409054
 20
6.841256646439433
 10
-459.3554341063136
 20
197.6759010888636
 10
-348.7420459262794
 20
358.416389785707
 10
-185.03583491465542
 20
464.5915189962834
 10
0.0
 20
0.0
  0
LWPOLYLINE
  5
49
330
17
100
AcDbEntity
  8
CONTOURS
 62
42
100
AcDbPolyline
 90
8
 70
1
 10
358.4170696280198
 20
348.7426900546998
 10
459.35634450416546
 20
-197.67686302401125
 10
348.7420094833942
 20
-358.4177137259394
 10
185.0348729797406
 20
-464.5924293939024
 10
-6.841936815413646
 20
-500.0369619950652
 10
-358.417033184669
 20
-348.74136611633
 10
-464.59149344509933
 20
-185.03489921800792
 10
-500.03631876409054
 20
6.841256646439433
  0
LWPOLYLINE
  5
4A
330
17
100
AcDbEntity
  8
BUILDINGS
100
AcDbPolyline
 90
7
 70
1
 10
-264.71004698670004
 20
-307.4308890812099
 10
-259.99040857714135
 20
-311.63785558380187
 10
-261.1533274548128
 20
-312.92894297651947
 10
-257.1066677570343
 20
-316.5507554858923
 10
-250.53812894865405
 20
-309.2859930638224
 10
-259.30442844482604
 20
-301.4572108415887
 10
-264.71004698670004
 20
-307.4308890812099
  0
LWPOLYLINE
  5
4B
330
17
100
AcDbEntity
  8
BUILDINGS
100
AcDbPolyline
 90
5
 70
1
 10
-201.64578573743347
 20
-179.73245764430612
 10
-182.93634369422216
 20
-146.2946902429685
 10
-164.39066976634786
 20
-157.29206456057727
 10
-180.90725939010736
 20
-190.3278231676668
 10
-201.64578573743347
 20
-179.73245764430612
  0
LWPOLYLINE
  5
4C
330
17
100
AcDbEntity
  8
ROADS
 62
3
100
AcDbPolyline
 90
47
 70
0
 10
495.3534625718603
 20
203.58437404222786
 10
496.2646994884126
 20
197.04802483692765
 10
482.47784177272115
 20
173.58947769738734
 10
480.9117069316562
 20
169.98904929868877
 10
478.25235805485863
 20
166.42576221562922
 10
452.0783438452054
 20
124.50694353692234
 10
443.2178567670053
 20
114.1725283274427
 10
426.6686028284021
 20
98.43866290990263
 10
418.6739635276608
 20
90.29652110487223
 10
408.6329105751356
 20
78.13963205553591
 10
386.7786101475358
 20
55.51155044697225
 10
375.29031913902145
 20
44.659312889911234
 10
359.76373387966305
 20
32.765872256830335
 10
342.45916601631325
 20
22.137310901656747
 10
329.37225272564683
 20
15.84817024692893
 10
314.51022805436514
 20
11.787494082003832
 10
302.1739913203055
 20
10.58307280857116
 10
291.1274233896984
 20
12.384760309942067
 10
281.21289397601504
 20
16.231093865819275
 10
273.3339692115551
 20
21.799565583467484
 10
259.8841785081895
 20
34.965041963383555
 10
241.56090122263413
 20
50.89983332064003
 10
220.46725234249607
 20
66.46272334828973
 10
204.54334559570998
 20
76.02905436977744
 10
187.25392294011544
 20
81.5712763722986
 10
180.67221602157224
 20
83.16775231994689
 10
173.4547034923453
 20
84.29665717110038
 10
152.54964326310437
 20
85.75694695487618
 10
146.87864694360178
 20
86.04503255337477
 10
136.94739545194898
 20
85.66041383706033
 10
127.68928656692151
 20
83.94851469062269
 10
124.41589547565673
 20
83.00754879787564
 10
117.98987651441712
 20
80.90243941824883
 10
107.89377594843972
 20
76.01207490824163
 10
92.43077524658293
 20
66.48780787736177
 10
82.68380313215312
 20
59.2112828604877
 10
75.97035375400446
 20
54.19707027729601
 10
67.01652528147679
 20
46.82107283361256
 10
29.90318461030256
 20
14.44393247179687
 10
-22.345917176106013
 20
-26.94154692068696
 10
-35.206815095152706
 20
-36.33537946920842
 10
-41.48601673054509
 20
-40.53594271093607
 10
-47.56087869743351
 20
-44.13011669740081
 10
-55.91708163975272
 20
-48.557025119662285
 10
-63.231376018724404
 20
-52.24501250311732
 10
-69.93033980659675
 20
-56.20724594220519
 10
-76.26305583468638
 20
-61.30425513815135
  0
LWPOLYLINE
  5
4D
330
17
100
AcDbEntity
  8
ROADS
 62
251
100
AcDbPolyline
 90
47
 70
0
 10
497.8295168827343
 20
203.92956246845628
 10
498.86089268275714
 20
196.53145088145908
 10
484.7099235422694
 20
172.4533626398946
 10
483.08859884040356
 20
168.72605682493693
 10
480.317963370929
 20
165.01365576827902
 10
454.09902476643464
 20
123.02288872328364
 10
445.032808386103
 20
112.4485214648682
 10
428.42233113701155
 20
96.65644923442814
 10
420.5330799123272
 20
88.62163993403433
 10
410.49860754101604
 20
76.47271811642938
 10
388.53702796129704
 20
53.733558991699354
 10
376.91313848616534
 20
42.75323042693195
 10
361.18181835432256
 20
30.702961875107857
 10
343.6579753066082
 20
19.93972048810163
 10
330.2503342276409
 20
13.496448593431806
 10
314.9643969251435
 20
9.319948914842735
 10
302.09288683829675
 20
8.063267407831825
 10
290.46695644827463
 20
9.959448521014892
 10
280.0215255602878
 20
14.011744868495706
 10
271.72793989260987
 20
19.87328037098918
 10
258.1880474167709
 20
33.12695386738456
 10
239.99599919782193
 20
48.94762220157086
 10
219.07830663440868
 20
64.38069169307629
 10
203.5042914512357
 20
73.73682438997105
 10
186.57681156914225
 20
79.16302359387653
 10
180.18355366168217
 20
80.71378885928452
 10
173.1739208921332
 20
81.81017884216355
 10
152.39910719009075
 20
83.26137046162151
 10
146.86357268853857
 20
83.54257462400211
 10
137.22448823042163
 20
83.16927098811661
 10
128.26325865113387
 20
81.512267224354
 10
125.15062204902588
 20
80.61751166431245
 10
118.92817104942579
 20
78.57908942458106
 10
109.09730785716742
 20
73.81720099607548
 10
93.8369033303948
 20
64.41772087480916
 10
84.1795901347024
 20
57.20813001528358
 10
77.51401123141173
 20
52.22967144226996
 10
68.6333623461507
 20
44.913957982165684
 10
31.50194730705336
 20
12.521049803801688
 10
-20.83192287734561
 20
-28.9315729589645
 10
-33.77388852163598
 20
-38.38461884086456
 10
-40.15346972889968
 20
-42.65233245684463
 10
-46.33852863628975
 20
-46.311704134894434
 10
-54.76901304417744
 20
-50.77796502954234
 10
-62.03088760812754
 20
-54.439521481122604
 10
-68.50288044895983
 20
-58.26750850471385
 10
-74.69554257224107
 20
-63.251792601734024
  0
LWPOLYLINE
  5
4E
330
17
100
AcDbEntity
  8
ROADS
 62
251
100
AcDbPolyline
 90
47
 70
0
 10
492.8774082609863
 20
203.23918561599945
 10
493.66850629406804
 20
197.56459879239623
 10
480.2457600031729
 20
174.72559275488007
 10
478.7348150229089
 20
171.2520417724406
 10
476.18675273878824
 20
167.83786866297942
 10
450.0576629239761
 20
125.99099835056103
 10
441.4029051479076
 20
115.89653519001722
 10
424.9148745197926
 20
100.22087658537713
 10
416.81484714299444
 20
91.97140227571012
 10
406.7672136092552
 20
79.80654599464245
 10
385.02019233377456
 20
57.28954190224515
 10
373.66749979187756
 20
46.56539535289052
 10
358.3456494050035
 20
34.8287826385528
 10
341.2603567260183
 20
24.334901315211862
 10
328.49417122365276
 20
18.199891900426053
 10
314.0560591835868
 20
14.255039249164929
 10
302.25509580231426
 20
13.102878209310495
 10
291.7878903311221
 20
14.810072098869242
 10
282.4042623917423
 20
18.450442863142843
 10
274.9399985305003
 20
23.72585079594579
 10
261.5803095996081
 20
36.80313005938255
 10
243.12580324744633
 20
52.852044439709196
 10
221.85619805058346
 20
68.54475500350317
 10
205.58239974018426
 20
78.32128434958383
 10
187.93103431108864
 20
83.97952915072067
 10
181.1608783814623
 20
85.62171578060925
 10
173.73548609255738
 20
86.7831355000372
 10
152.700179336118
 20
88.25252344813086
 10
146.893721198665
 20
88.54749048274742
 10
136.67030267347633
 20
88.15155668600406
 10
127.11531448270917
 20
86.38476215689137
 10
123.68116890228755
 20
85.39758593143884
 10
117.05158197940845
 20
83.22578941191661
 10
106.69024403971203
 20
78.20694882040777
 10
91.02464716277105
 20
68.55789487991439
 10
81.18779201750712
 20
61.214268318461784
 10
74.4266962765972
 20
56.16446911232205
 10
65.39968821680287
 20
48.72818768505944
 10
28.304421913551803
 20
16.366815139792088
 10
-23.859911474866415
 20
-24.95152088240942
 10
-36.63974166866943
 20
-34.28614009755228
 10
-42.8185637321905
 20
-38.419552965027506
 10
-48.783228758577266
 20
-41.94852925990718
 10
-57.065150235328005
 20
-46.33608520978223
 10
-64.43186442932131
 20
-50.05050352511206
 10
-71.35779916423367
 20
-54.14698337969653
 10
-77.8305690971317
 20
-59.35671767456867
  0
LWPOLYLINE
  5
4F
330
17
100
AcDbEntity
  8
ROADS
 62
3
100
AcDbPolyline
 90
2
 70
0
 10
-181.32803549210075
 20
-12.040983900427818
 10
-128.83637727913447
 20
-68.3385754507035
  0
LWPOLYLINE
  5
50
330
17
100
AcDbEntity
  8
ROADS
 62
251
100
AcDbPolyline
 90
2
 70
0
 10
-179.49954277937448
 20
-10.336104315381741
 10
-127.00788456640818
 20
-66.63369586565743
  0
LWPOLYLINE
  5
51
330
17
100
AcDbEntity
  8
ROADS
 62
251
100
AcDbPolyline
 90
2
 70
0
 10
-183.15652820482703
 20
-13.745863485473896
 10
-130.66486999186074
 20
-70.04345503574957
  0
LWPOLYLINE
  5
52
330
17
100
AcDbEntity
  8
ROADS
 62
3
100
AcDbPolyline
 90
17
 70
0
 10
-300.9738597172545
 20
-357.03255812451243
 10
-311.01570245972835
 20
-352.6975001115352
 10
-315.14619809330907
 20
-350.6805914323777
 10
-319.8665664125001
 20
-347.28218731097877
 10
-327.8629684635671
 20
-339.74086622614413
 10
-339.802134839003
 20
-328.52379800658673
 10
-342.43768396775704
 20
-324.32317683286965
 10
-344.18138194666244
 20
-319.79138111229986
 10
-344.4222672568867
 20
-316.27696559298784
 10
-343.59517380734906
 20
-312.37840059865266
 10
-340.7685249777278
 20
-307.1226399373263
 10
-304.5161594536621
 20
-252.31495718751103
 10
-287.1524920979282
 20
-227.48699058406055
 10
-277.7669876307482
 20
-214.16884976252913
 10
-265.1318493508734
 20
-199.37769530154765
 10
-257.7097483369289
 20
-193.07713638432324
 10
-230.14505176513921
 20
-176.0533004552126
  0
LWPOLYLINE
  5
53
330
17
100
AcDbEntity
  8
ROADS
 62
251
100
AcDbPolyline
 90
17
 70
0
 10
-301.9647200674968
 20
-359.32781317925424
 10
-312.06017827707643
 20
-354.9696093984874
 10
-316.4342742920745
 20
-352.833751380773
 10
-321.4614893764195
 20
-349.2144345591728
 10
-329.57650246152843
 20
-341.5612526791702
 10
-341.7486606389296
 20
-330.1252843408726
 10
-344.6840104318168
 20
-325.44683143034126
 10
-346.6497913583478
 20
-320.33785172272974
 10
-346.94028763672816
 20
-316.0996330115435
 10
-345.96646617225
 20
-311.5094548711304
 10
-342.9164141277577
 20
-305.8383069795161
 10
-306.58342248537537
 20
-250.9087306470292
 10
-289.1986179342808
 20
-226.05054038346398
 10
-279.74346967898975
 20
-212.63357421049292
 10
-266.9025389469369
 20
-197.6015115869219
 10
-259.18386379130874
 20
-191.04919338354756
 10
-231.4587047702425
 20
-173.92625654824144
  0
LWPOLYLINE
  5
54
330
17
100
AcDbEntity
  8
ROADS
 62
251
100
AcDbPolyline
 90
17
 70
0
 10
-299.98299936701227
 20
-354.73730306977063
 10
-309.97122664238026
 20
-350.42539082458296
 10
-313.8581218945436
 20
-348.5274314839824
 10
-318.27164344858073
 20
-345.34994006278475
 10
-326.14943446560574
 20
-337.9204797731181
 10
-337.85560903907634
 20
-326.92231167230085
 10
-340.1913575036973
 20
-323.19952223539804
 10
-341.7129725349771
 20
-319.24491050187
 10
-341.90424687704524
 20
-316.45429817443215
 10
-341.2238814424481
 20
-313.2473463261749
 10
-338.62063582769787
 20
-308.4069728951365
 10
-302.44889642194886
 20
-253.72118372799287
 10
-285.1063662615756
 20
-228.92344078465712
 10
-275.7905055825066
 20
-215.70412531456535
 10
-263.3611597548099
 20
-201.1538790161734
 10
-256.23563288254906
 20
-195.10507938509892
 10
-228.83139876003594
 20
-178.18034436218375
  0
LWPOLYLINE
  5
55
330
17
100
AcDbEntity
  8
ROADS
 62
3
100
AcDbPolyline
 90
61
 70
0
 10
-242.8794176998781
 20
269.25833546277136
 10
-257.88266372703947
 20
280.53943949658424
 10
-267.84594588389155
 20
290.6551345679909
 10
-277.1233469857834
 20
300.37378797866404
 10
-294.96941633394454
 20
320.333045585081
 10
-309.3734650857514
 20
334.6961369654164
 10
-317.86176742310636
 20
341.7567949760705
 10
-326.2937451292528
 20
347.65368826221675
 10
-348.65261833614204
 20
362.0589302815497
 10
-407.33196628221776
 20
401.3828474357724
 10
-455.50200594821945
 20
441.11687325965613
 10
-470.36291467933916
 20
457.55725376307964
 10
-514.2388771211263
 20
507.26738563738763
 10
-563.7279307119315
 20
581.9640366556123
 10
-578.6931628301973
 20
611.1985778026283
 10
-580.7695070479531
 20
621.6162587925792
 10
-580.9551172296051
 20
632.9717669710517
 10
-578.5813828195678
 20
645.111993518658
 10
-575.3547810839955
 20
653.2088950108737
 10
-567.5560707136756
 20
672.7293170345947
 10
-565.2082177600823
 20
681.4584645759314
 10
-563.9063008950325
 20
690.6670750519261
 10
-563.5105368164368
 20
704.5510740168393
 10
-565.385242945631
 20
714.6226467741653
 10
-567.9278421209892
 20
720.3615085501224
 10
-571.0479728681967
 20
725.3661506613716
 10
-575.9849001507973
 20
733.3418092224747
 10
-599.4014970621793
 20
761.7944226879627
 10
-607.4211251499364
 20
772.2266952730715
 10
-613.4675934839761
 20
780.5608284547925
 10
-621.6331745623611
 20
793.1549157239497
 10
-626.4969336579088
 20
799.6896664584056
 10
-632.6408029928571
 20
807.6928361514583
 10
-641.7016978512984
 20
818.1946654487401
 10
-650.1233317856677
 20
827.1481985971332
 10
-661.1160688664531
 20
838.2412340007722
 10
-672.1063056454295
 20
848.0050981370732
 10
-683.5490770740435
 20
857.1216346053407
 10
-703.3438456406584
 20
871.9786525219679
 10
-721.1861455156468
 20
887.7615707218647
 10
-734.2700369555969
 20
900.6330650560558
 10
-742.5765713726869
 20
908.9536342937499
 10
-755.5960328683723
 20
922.0125220613554
 10
-769.7083415429806
 20
937.4122607680038
 10
-790.2446929687867
 20
959.9549621082842
 10
-794.2417123001069
 20
964.9825708474964
 10
-798.7256930026924
 20
971.3791677514091
 10
-829.9230447654845
 20
1017.2713850792497
 10
-835.9706369210035
 20
1025.5389687009156
 10
-842.5414354264503
 20
1031.0003590835258
 10
-856.4376760008745
 20
1038.0346391033381
 10
-876.5727079935605
 20
1047.6349091082811
 10
-883.0929678746033
 20
1050.7474695863202
 10
-900.2629963021027
 20
1059.8532082624733
 10
-912.7502910870826
 20
1065.029623143375
 10
-933.8423667581519
 20
1074.0668902080506
 10
-947.4370831541019
 20
1081.2741930894554
 10
-956.9775038573425
 20
1086.8977951472625
 10
-999.9248194366228
 20
1114.109212813899
 10
-1019.7679759428138
 20
1125.455321884714
 10
-1037.0847572603961
 20
1136.67841495201
  0
LWPOLYLINE
  5
56
330
17
100
AcDbEntity
  8
ROADS
 62
251
100
AcDbPolyline
 90
61
 70
0
 10
-244.38186027279448
 20
267.26016972512883
 10
-259.5335080101203
 20
278.6528586205196
 10
-269.6407936245291
 20
288.91476003667697
 10
-278.9598412247538
 20
298.6770407389396
 10
-296.7853636257242
 20
318.6133183936369
 10
-311.05887660841626
 20
332.8462451784128
 10
-319.3801623088675
 20
339.7679770165063
 10
-327.68762723520575
 20
345.57779244252544
 10
-350.0256073453279
 20
359.96957358157704
 10
-408.8269304253115
 20
399.3752322722783
 10
-457.2339395780109
 20
439.304727142258
 10
-472.2274503148187
 20
455.8918030778703
 10
-516.2275424034522
 20
505.7425700692411
 10
-565.8894361477851
 20
580.7000985885135
 10
-581.076974914834
 20
610.3689151827625
 10
-583.2654779828997
 20
621.3493328869519
 10
-583.4590775731726
 20
633.1936278018463
 10
-580.9901492412389
 20
645.820714114762
 10
-577.6771734377652
 20
654.1343644891126
 10
-569.932129389172
 20
673.5204605833749
 10
-567.6621733893703
 20
681.9599928821442
 10
-566.4012942873827
 20
690.8783384533735
 10
-566.017120017375
 20
704.3557495060893
 10
-567.7894815177347
 20
713.8774913541453
 10
-570.1423337201652
 20
719.1880781347386
 10
-573.1715701737894
 20
724.0469271859548
 10
-578.0220938240018
 20
731.8829997594747
 10
-601.3582175406292
 20
760.2378333164067
 10
-609.4242985188044
 20
770.7305337929222
 10
-615.5296156421779
 20
779.1457810433517
 10
-623.6868949443764
 20
791.7270641663276
 10
-628.491307838083
 20
798.182079735359
 10
-634.5803332144876
 20
806.1138082106817
 10
-643.559492197362
 20
816.5209033535475
 10
-651.9220404256835
 20
825.4116190211738
 10
-662.835899847185
 20
836.4250570815341
 10
-673.7165742230167
 20
846.0915846053248
 10
-685.0786536878344
 20
855.143833218571
 10
-704.9249494764568
 20
870.0395250332023
 10
-722.8921618849149
 20
885.9329381979694
 10
-736.031323242325
 20
898.8588052264544
 10
-744.3458298549442
 20
907.1873601295953
 10
-757.4036172878176
 20
920.2846891057529
 10
-771.5539585169502
 20
935.7259299801559
 10
-792.1493490232472
 20
958.3334383706916
 10
-796.2455559177947
 20
963.4858091434011
 10
-800.7831164621028
 20
969.9588400626245
 10
-831.9663050828741
 20
1015.8302229941162
 10
-837.8061141863092
 20
1023.8137491406594
 10
-843.92235677166
 20
1028.8973304444623
 10
-857.540344981415
 20
1035.7907590563868
 10
-877.6486526880908
 20
1045.3782870720704
 10
-884.2176178598988
 20
1048.5140975734291
 10
-901.3297031557717
 20
1057.5891074120093
 10
-913.721293841007
 20
1062.7258496388563
 10
-934.9220091921686
 20
1071.8096652660408
 10
-948.6579523632576
 20
1079.0918401869753
 10
-958.2816032787268
 20
1084.7645023027526
 10
-1001.214967358605
 20
1111.9670802998498
 10
-1021.0692886374342
 20
1123.3195732707297
 10
-1038.4444321957844
 20
1134.5804911998023
  0
LWPOLYLINE
  5
57
330
17
100
AcDbEntity
  8
ROADS
 62
251
100
AcDbPolyline
 90
61
 70
0
 10
-241.37697512696172
 20
271.2565012004139
 10
-256.23181944395867
 20
282.42602037264885
 10
-266.05109814325397
 20
292.39550909930483
 10
-275.28685274681305
 20
302.0705352183885
 10
-293.1534690421649
 20
322.05277277652505
 10
-307.6880535630865
 20
336.54602875241994
 10
-316.3433725373452
 20
343.74561293563477
 10
-324.8998630232998
 20
349.72958408190806
 10
-347.2796293269562
 20
364.14828698152235
 10
-405.837002139124
 20
403.3904625992665
 10
-453.770072318428
 20
442.92901937705426
 10
-468.4983790438596
 20
459.222704448289
 10
-512.2502118388004
 20
508.7922012055342
 10
-561.566425276078
 20
583.2279747227111
 10
-576.3093507455606
 20
612.028240422494
 10
-578.2735361130065
 20
621.8831846982065
 10
-578.4511568860376
 20
632.749906140257
 10
-576.1726163978967
 20
644.4032729225539
 10
-573.0327947496605
 20
652.2824066590222
 10
-565.1800120381791
 20
671.9381734858146
 10
-562.7542621307944
 20
680.9569362697187
 10
-561.4113075026822
 20
690.4558116504786
 10
-561.0039536154986
 20
704.7463985275892
 10
-562.9810043735274
 20
715.3678021941854
 10
-565.7133505218133
 20
721.5349389655062
 10
-568.9243755626039
 20
726.6853741367885
 10
-573.9477064775929
 20
734.8006186854747
 10
-597.4447765837293
 20
763.3510120595186
 10
-605.4179517810684
 20
773.7228567532209
 10
-611.4055713257743
 20
781.9758758662333
 10
-619.5794541803458
 20
794.5827672815717
 10
-624.5025594777346
 20
801.1972531814521
 10
-630.7012727712265
 20
809.271864092235
 10
-639.8439035052347
 20
819.8684275439327
 10
-648.3246231456519
 20
828.8847781730925
 10
-659.3962378857212
 20
840.0574109200104
 10
-670.4960370678424
 20
849.9186116688217
 10
-682.0195004602525
 20
859.0994359921103
 10
-701.76274180486
 20
873.9177800107335
 10
-719.4801291463787
 20
889.59020324576
 10
-732.5087506688687
 20
902.4073248856572
 10
-740.8067231796772
 20
910.7193177507698
 10
-753.7884484489269
 20
923.7403550169579
 10
-767.8627245690111
 20
939.0985915558516
 10
-788.3400369143262
 20
961.5764858458768
 10
-792.237868682419
 20
966.4793325515917
 10
-796.668269543282
 20
972.7994954401937
 10
-827.8797844480949
 20
1018.7125471643833
 10
-834.1351596556977
 20
1027.2641882611717
 10
-841.1605140812406
 20
1033.1033877225893
 10
-855.3350070203339
 20
1040.2785191502894
 10
-875.4962364868511
 20
1049.891279963408
 10
-881.9683178893079
 20
1052.9808415992113
 10
-899.1962894484337
 20
1062.1173091129374
 10
-911.7792883331582
 20
1067.3333966478936
 10
-932.7627243241352
 20
1076.3241151500604
 10
-946.2162139449462
 20
1083.4565459919354
 10
-955.6734044359582
 20
1089.0310879917724
 10
-998.6346715146406
 20
1116.251345327948
 10
-1018.4666632481934
 20
1127.5910704986984
 10
-1035.7250823250079
 20
1138.7763387042176
  0
LWPOLYLINE
  5
58
330
17
100
AcDbEntity
  8
ROADS
 62
3
100
AcDbPolyline
 90
12
 70
0
 10
-92.69048647792079
 20
-58.377012461423874
 10
-108.75824591051787
 20
1.0334815829992294
 10
-111.04099183122162
 20
7.643909143283963
 10
-112.63809012249112
 20
10.82244106195867
 10
-116.9064666936174
 20
14.83498022891581
 10
-123.12456531974021
 20
18.121002056635916
 10
-130.06732671998907
 20
19.72228425554931
 10
-134.17115852166899
 20
19.922385366633534
 10
-139.65033987665083
 20
19.1444398034364
 10
-145.41621010005474
 20
17.01912635564804
 10
-151.7597373626195
 20
13.39535733871162
 10
-181.32803549210075
 20
-12.040983900427818
  0
LWPOLYLINE
  5
59
330
17
100
AcDbEntity
  8
ROADS
 62
251
100
AcDbPolyline
 90
12
 70
0
 10
-95.1037837207086
 20
-59.02969647222288
 10
-111.14922253843912
 20
0.2982671632678932
 10
-113.34966954734851
 20
6.670371662815721
 10
-114.67311010293429
 20
9.304272200680689
 10
-118.37291659737551
 20
12.782320170846203
 10
-124.00425391050769
 20
15.758261602921122
 10
-130.41184983864656
 20
17.236112951404877
 10
-134.05528031086226
 20
17.413765087476836
 10
-139.03541499728766
 20
16.706675208090715
 10
-144.3565886885856
 20
14.745277957381058
 10
-150.31129120808285
 20
11.343626856648967
 10
-179.6976571334838
 20
-13.936205894747607
  0
LWPOLYLINE
  5
5A
330
17
100
AcDbEntity
  8
ROADS
 62
251
100
AcDbPolyline
 90
12
 70
0
 10
-90.27718923513297
 20
-57.72432845062487
 10
-106.36726928259662
 20
1.7686960027305656
 10
-108.73231411509472
 20
8.617446623752208
 10
-110.60307014204795
 20
12.340609923236654
 10
-115.4400167898593
 20
16.887640286985416
 10
-122.24487672897276
 20
20.483742510350712
 10
-129.72280360133158
 20
22.208455559693746
 10
-134.2870367324757
 20
22.431005645790233
 10
-140.265264756014
 20
21.582204398782082
 10
-146.47583151152392
 20
19.292974753915022
 10
-153.20818351715613
 20
15.447087820774271
 10
-182.9584138507177
 20
-10.14576190610803
  0
LWPOLYLINE
  5
5B
330
17
100
AcDbEntity
  8
ROADS
 62
3
100
AcDbPolyline
 90
13
 70
0
 10
-242.91034258774016
 20
25.374028714373708
 10
-246.24611680896487
 20
13.06975731626153
 10
-247.08196999365464
 20
7.022550248540938
 10
-247.0415626737522
 20
-3.6110631562769413
 10
-241.26537386514246
 20
-48.293480072170496
 10
-240.909260963439
 20
-54.70033645629883
 10
-241.16348335170187
 20
-60.467513668350875
 10
-242.77029021689668
 20
-67.05798991024494
 10
-244.41525613248814
 20
-71.1558207590133
 10
-265.0755650096107
 20
-104.65560405235738
 10
-267.78786001889966
 20
-110.59963697940111
 10
-269.3851447039051
 20
-115.73927507176995
 10
-270.997126729344
 20
-130.2601737510413
  0
LWPOLYLINE
  5
5C
330
17
100
AcDbEntity
  8
ROADS
 62
251
100
AcDbPolyline
 90
13
 70
0
 10
-240.4974433599361
 20
24.719874820811455
 10
-243.79149406424654
 20
12.569503969244229
 10
-244.58131647206872
 20
6.855319068938856
 10
-244.5421740887691
 20
-3.4454128963748434
 10
-238.77429548382244
 20
-48.063545212676125
 10
-238.4062002467446
 20
-54.68597677401091
 10
-238.67668214032247
 20
-60.82200996752392
 10
-240.38372718812073
 20
-67.8236229647358
 10
-242.17497944487656
 20
-72.28587272084742
 10
-262.86587067971726
 20
-105.83524396383208
 10
-265.44758343884524
 20
-111.49310404021386
 10
-266.92679671033017
 20
-116.2528196677606
 10
-268.51239015071025
 20
-130.53600727837153
  0
LWPOLYLINE
  5
5D
330
17
100
AcDbEntity
  8
ROADS
 62
251
100
AcDbPolyline
 90
13
 70
0
 10
-245.3232418155442
 20
26.02818260793596
 10
-248.7007395536832
 20
13.57001066327883
 10
-249.58262351524056
 20
7.18978142814302
 10
-249.5409512587353
 20
-3.7767134161790397
 10
-243.7564522464625
 20
-48.52341493166487
 10
-243.41232168013343
 20
-54.714696138586746
 10
-243.65028456308127
 20
-60.11301736917783
 10
-245.15685324567264
 20
-66.29235685575408
 10
-246.65553282009972
 20
-70.02576879717917
 10
-267.2852593395042
 20
-103.47596414088267
 10
-270.1281365989541
 20
-109.70616991858836
 10
-271.84349269748003
 20
-115.2257304757793
 10
-273.4818633079778
 20
-129.98434022371106
  0
LWPOLYLINE
  5
5E
330
17
100
AcDbEntity
  8
ROADS
 62
3
100
AcDbPolyline
 90
62
 70
0
 10
407.87590052722953
 20
-50.853909673169255
 10
397.82503782911226
 20
-67.49650452006608
 10
390.7775813973276
 20
-77.30198228172958
 10
384.02081495604943
 20
-85.4721766859293
 10
380.341437104973
 20
-91.19241932593286
 10
377.90073925675824
 20
-97.62743761576712
 10
376.99819893960375
 20
-103.25282720383257
 10
377.59314150200225
 20
-110.28326037712395
 10
381.4291688204976
 20
-133.0308697540313
 10
383.96753823314793
 20
-149.58020275086164
 10
384.75812643556856
 20
-162.6608970137313
 10
384.7950804325519
 20
-170.50331825669855
 10
386.2762709663948
 20
-178.36553606390953
 10
394.66221056261566
 20
-217.6900641452521
 10
394.8276469799457
 20
-225.9440652988851
 10
393.74667537235655
 20
-234.04806678649038
 10
390.1757685592165
 20
-242.39484008215368
 10
383.69212944607716
 20
-250.96751481480896
 10
369.38185208209325
 20
-265.2257391959429
 10
365.7457741344115
 20
-267.7898724200204
 10
351.67056238115765
 20
-275.43887061439455
 10
343.0086500386242
 20
-281.0908294804394
 10
338.6550068295328
 20
-285.57238386478275
 10
331.74162778188474
 20
-295.39079130161554
 10
322.6984600800788
 20
-309.28926530946046
 10
316.36962938751094
 20
-316.35772767290473
 10
309.54110550356563
 20
-319.98573888652027
 10
298.4137441822095
 20
-324.09757825918496
 10
287.16745652712416
 20
-327.10018084198236
 10
274.7946164716268
 20
-331.74877783097327
 10
262.6684540443821
 20
-337.2203981652856
 10
252.26762954553124
 20
-341.77419144660234
 10
246.66990722331684
 20
-344.4333125744015
 10
200.096896321862
 20
-369.9350514113903
 10
185.33828824874945
 20
-377.0210158266127
 10
174.40369200124405
 20
-386.6514937337488
 10
162.69950323703233
 20
-392.959673541598
 10
153.3908538086107
 20
-396.1218134406954
 10
128.97788272274192
 20
-399.97430643439293
 10
122.02608246996533
 20
-399.8015893474221
 10
97.78997498296667
 20
-399.02672705054283
 10
75.58288591448218
 20
-397.0059218853712
 10
62.59722589724697
 20
-395.17782541178167
 10
53.13865566230379
 20
-392.71129598654807
 10
50.2749414970167
 20
-391.6198671553284
 10
38.48132634733338
 20
-387.12768363952637
 10
23.80803373665549
 20
-379.6941540315747
 10
-12.015939329285175
 20
-351.0927211744711
 10
-39.979081772384234
 20
-329.3664372134954
 10
-51.54127125570085
 20
-324.5452111326158
 10
-61.730201809783466
 20
-321.9136997880414
 10
-71.82656512258109
 20
-320.81196639686823
 10
-84.0285135472659
 20
-322.7827528100461
 10
-90.13271085452288
 20
-325.5125943440944
 10
-95.22990652709268
 20
-327.7910142317414
 10
-114.68141141661908
 20
-338.5346407946199
 10
-168.19529468810651
 20
-391.03467147797346
 10
-170.32237357704435
 20
-394.92653261777014
 10
-174.1646731075598
 20
-402.0180915147066
 10
-177.02734420599882
 20
-412.1689770752564
 10
-176.2539740408538
 20
-470.3070084191859
 10
-173.92904124979395
 20
-491.9372255448252
  0
LWPOLYLINE
  5
5F
330
17
100
AcDbEntity
  8
ROADS
 62
251
100
AcDbPolyline
 90
62
 70
0
 10
410.01591918510707
 20
-52.14631833297311
 10
399.9134076281032
 20
-68.87443529459503
 10
392.75815686567245
 20
-78.82989268681237
 10
386.04258015181745
 20
-86.95028100648513
 10
382.58593207791716
 20
-92.32425087425119
 10
380.3287473834989
 20
-98.27542783076784
 10
379.51508926153286
 20
-103.34682889790629
 10
380.0755223409269
 20
-109.96946368956975
 10
383.8974527434609
 20
-132.63347847470752
 10
386.4560546570838
 20
-149.31472071779834
 10
387.2577707948898
 20
-162.57953247711797
 10
387.2939807028
 20
-170.26404225095908
 10
388.7275236550471
 20
-177.87334481469946
 10
397.1569333171895
 20
-217.40171884656638
 10
397.3309760108604
 20
-226.08510680627444
 10
396.17955351962314
 20
-234.7172757886402
 10
392.35405324656466
 20
-243.65914551322132
 10
385.5805684863705
 20
-252.61505447768957
 10
370.99605612646434
 20
-267.14651633742466
 10
367.0674872633363
 20
-269.91691182673077
 10
352.95256668463924
 20
-277.5874892867985
 10
344.6078928756001
 20
-283.03244777335095
 10
340.5855861703788
 20
-287.1729309007499
 10
333.81211756230294
 20
-296.79263699473455
 10
324.6891506980748
 20
-310.81375459621216
 10
317.93543172544764
 20
-318.3567606727304
 10
310.56548580281435
 20
-322.2724307217023
 10
299.1710925162294
 20
-326.48294510964485
 10
287.93137851301987
 20
-329.4837926187054
 10
275.7493565351821
 20
-334.06069739012344
 10
263.68394222096595
 20
-339.5049066937397
 10
253.30557067522813
 20
-344.0488693979668
 10
247.80754899621155
 20
-346.66062910418736
 10
201.23908390671144
 20
-372.15987881481243
 10
186.7315605976499
 20
-379.1252913667117
 10
175.84148339751866
 20
-388.7165598057998
 10
163.70157817218737
 20
-395.2595767166174
 10
153.9921408164871
 20
-398.5578639167459
 10
129.14303566379917
 20
-402.4791811199517
 10
121.95509112984416
 20
-402.3005970415733
 10
97.63661897780179
 20
-401.5231014310082
 10
75.29517840667776
 20
-399.49007052073125
 10
62.10592564087086
 20
-397.6333126479353
 10
52.375804994676
 20
-395.0959705033214
 10
49.3848324299522
 20
-393.95604050259124
 10
37.46869919557287
 20
-389.41718989502186
 10
22.449019918763454
 20
-381.8081798678619
 10
-13.562838855347215
 20
-353.0567413020909
 10
-41.2493343503267
 20
-331.54540135765467
 10
-52.33896507299496
 20
-326.9212238223705
 10
-62.18071489091818
 20
-324.3793794002441
 10
-71.76168773365063
 20
-323.33388634757415
 10
-83.30673305340682
 20
-325.1985736633858
 10
-89.11210212071862
 20
-327.79477703013913
 10
-94.11346916261971
 20
-330.0303620624953
 10
-113.1741202582708
 20
-340.55810881422656
 10
-166.1795666714638
 20
-392.55933528025975
 10
-168.12645263593095
 20
-396.12150209416143
 10
-171.83403962694902
 20
-402.9644281345457
 10
-174.52274061358005
 20
-412.4984245607196
 10
-173.75575545007408
 20
-470.1564639911374
 10
-171.44335870231697
 20
-491.6700509330667
  0
LWPOLYLINE
  5
60
330
17
100
AcDbEntity
  8
ROADS
 62
251
100
AcDbPolyline
 90
62
 70
0
 10
405.735881869352
 20
-49.5615010133654
 10
395.73666803012134
 20
-66.11857374553713
 10
388.79700592898274
 20
-75.77407187664679
 10
381.9990497602814
 20
-83.99407236537347
 10
378.09694213202886
 20
-90.06058777761453
 10
375.47273113001756
 20
-96.9794474007664
 10
374.48130861767464
 20
-103.15882550975884
 10
375.1107606630776
 20
-110.59705706467815
 10
378.96088489753424
 20
-133.42826103335508
 10
381.47902180921204
 20
-149.84568478392495
 10
382.25848207624733
 20
-162.74226155034464
 10
382.2961801623038
 20
-170.74259426243802
 10
383.8250182777425
 20
-178.8577273131196
 10
392.1674878080418
 20
-217.97840944393784
 10
392.324317949031
 20
-225.80302379149578
 10
391.31379722508996
 20
-233.37885778434057
 10
387.9974838718684
 20
-241.13053465108604
 10
381.8036904057838
 20
-249.31997515192836
 10
367.76764803772215
 20
-263.3049620544611
 10
364.42406100548664
 20
-265.66283301331003
 10
350.38855807767607
 20
-273.2902519419906
 10
341.40940720164826
 20
-279.1492111875279
 10
336.7244274886868
 20
-283.9718368288156
 10
329.67113800146655
 20
-293.9889456084965
 10
320.7077694620828
 20
-307.76477602270876
 10
314.80382704957424
 20
-314.35869467307907
 10
308.5167252043169
 20
-317.69904705133825
 10
297.65639584818956
 20
-321.71221140872507
 10
286.40353454122845
 20
-324.7165690652593
 10
273.8398764080715
 20
-329.4368582718231
 10
261.65296586779823
 20
-334.93588963683146
 10
251.22968841583435
 20
-339.49951349523786
 10
245.53226545042213
 20
-342.20599604461563
 10
198.95470873701257
 20
-367.7102240079682
 10
183.945015899849
 20
-374.91674028651374
 10
172.96590060496945
 20
-384.58642766169777
 10
161.6974283018773
 20
-390.65977036657864
 10
152.7895668007343
 20
-393.68576296464494
 10
128.81272978168468
 20
-397.46943174883415
 10
122.0970738100865
 20
-397.3025816532709
 10
97.94333098813155
 20
-396.5303526700775
 10
75.87059342228659
 20
-394.52177325001117
 10
63.088526153623086
 20
-392.722338175628
 10
53.90150632993158
 20
-390.32662146977475
 10
51.164822170948575
 20
-389.2836068132084
 10
39.49395349909389
 20
-384.83817738403087
 10
25.167047554547523
 20
-377.58012819528756
 10
-10.469039803223135
 20
-349.12870104685123
 10
-38.70882919444177
 20
-327.1874730693361
 10
-50.74357743840674
 20
-322.1691984428611
 10
-61.27968872864875
 20
-319.44802017583874
 10
-71.89144251151154
 20
-318.2900464461623
 10
-84.75029404112499
 20
-320.36693195670637
 10
-91.1531174991688
 20
-323.2303212823049
 10
-96.34634389156565
 20
-325.55166640098753
 10
-116.18870257496737
 20
-336.5111727750133
 10
-170.21102270474924
 20
-389.5100076756872
 10
-172.51829451815775
 20
-393.73156314137884
 10
-176.49530658817056
 20
-401.0717548948675
 10
-179.53194779841758
 20
-411.8395295897932
 10
-178.7521926316335
 20
-470.45755284723435
 10
-176.41472379727094
 20
-492.2044001565837
  0
LWPOLYLINE
  5
61
330
17
100
AcDbEntity
  8
ROADS
 62
3
100
AcDbPolyline
 90
2
 70
0
 10
-276.4674682666082
 20
-130.39586819522083
 10
-276.0932790300576
 20
-146.05151816178113
  0
LWPOLYLINE
  5
62
330
17
100
AcDbEntity
  8
ROADS
 62
251
100
AcDbPolyline
 90
2
 70
0
 10
-273.9681820465906
 20
-130.3361321890769
 10
-273.59399281004
 20
-145.9917821556372
  0
LWPOLYLINE
  5
63
330
17
100
AcDbEntity
  8
ROADS
 62
251
100
AcDbPolyline
 90
2
 70
0
 10
-278.9667544866258
 20
-130.45560420136476
 10
-278.5925652500752
 20
-146.11125416792507
  0
LWPOLYLINE
  5
64
330
17
100
AcDbEntity
  8
ROADS
 62
3
100
AcDbPolyline
 90
2
 70
0
 10
-309.35524508100934
 20
-129.97972926311195
 10
-310.7658082495909
 20
-146.37524190265685
  0
LWPOLYLINE
  5
65
330
17
100
AcDbEntity
  8
ROADS
 62
251
100
AcDbPolyline
 90
2
 70
0
 10
-306.8644462355344
 20
-130.19402138004756
 10
-308.27500940411596
 20
-146.58953401959246
  0
LWPOLYLINE
  5
66
330
17
100
AcDbEntity
  8
ROADS
 62
251
100
AcDbPolyline
 90
2
 70
0
 10
-311.8460439264843
 20
-129.76543714617634
 10
-313.2566070950659
 20
-146.16094978572124
  0
LWPOLYLINE
  5
67
330
17
100
AcDbEntity
  8
ROADS
 62
3
100
AcDbPolyline
 90
7
 70
0
 10
-181.32803549210075
 20
-12.040983900427818
 10
-221.50661547586787
 20
30.20975064113736
 10
-224.203575200052
 20
32.18492900952697
 10
-226.31186446000356
 20
32.69001551158726
 10
-229.03773221711162
 20
32.55005173757672
 10
-231.0799894881202
 20
31.846939573064446
 10
-242.91034258774016
 20
25.374028714373708
  0
LWPOLYLINE
  5
68
330
17
100
AcDbEntity
  8
ROADS
 62
251
100
AcDbPolyline
 90
7
 70
0
 10
-183.13966922869022
 20
-13.763767463285003
 10
-223.16416119540378
 20
28.324932185379627
 10
-225.2750362289864
 20
29.870878410426556
 10
-226.54371297603785
 20
30.174817491550638
 10
-228.55734957525422
 20
30.071424296052747
 10
-230.06585435848575
 20
29.55207343934543
 10
-241.71035702405453
 20
23.180849595618
  0
LWPOLYLINE
  5
69
330
17
100
AcDbEntity
  8
ROADS
 62
251
100
AcDbPolyline
 90
7
 70
0
 10
-179.51640175551128
 20
-10.318200337570634
 10
-219.84906975633197
 20
32.0945690968951
 10
-223.1321141711176
 20
34.49897960862738
 10
-226.08001594396927
 20
35.20521353162389
 10
-229.51811485896903
 20
35.0286791791007
 10
-232.09412461775463
 20
34.14180570678346
 10
-244.1103281514258
 20
27.567207833129416
  0
LWPOLYLINE
  5
6A
330
17
100
AcDbEntity
  8
ROADS
 62
3
100
AcDbPolyline
 90
32
 70
0
 10
-276.4674682666082
 20
-130.39586819522083
 10
-309.35524508100934
 20
-129.97972926311195
 10
-350.5772590112174
 20
-125.59532891586423
 10
-364.65115018642973
 20
-124.86035776138306
 10
-376.3713051128434
 20
-124.78888480179012
 10
-389.1636839621933
 20
-125.41164692305028
 10
-397.2027865377022
 20
-127.02972617559135
 10
-410.56924737547524
 20
-130.40261317789555
 10
-479.3106121328892
 20
-157.87419645488262
 10
-493.03445915761404
 20
-164.00021718163043
 10
-499.09872540074866
 20
-166.83044626563787
 10
-503.1732230085181
 20
-169.77644739486277
 10
-508.3843630703632
 20
-174.3572714421898
 10
-514.9983177477261
 20
-181.9316451381892
 10
-523.0983646515524
 20
-192.55381353385746
 10
-543.5842058388516
 20
-223.15434180013835
 10
-566.4811994064366
 20
-255.79321341216564
 10
-577.305965212523
 20
-265.7247304720804
 10
-581.6390747647965
 20
-268.7225997503847
 10
-588.039133232669
 20
-271.96916712261736
 10
-593.5713774308097
 20
-273.62154608685523
 10
-601.2795930699212
 20
-273.68250790052116
 10
-608.4035952157574
 20
-271.00457578804344
 10
-625.1776504089357
 20
-262.49080267362297
 10
-634.5068396580173
 20
-259.6055802293122
 10
-642.6311042191228
 20
-258.39821364730597
 10
-650.3379652079893
 20
-258.3595340028405
 10
-658.7181838715915
 20
-259.2752918219194
 10
-673.2142802266171
 20
-263.7848896048963
 10
-688.8912694808096
 20
-270.15025080926716
 10
-702.9931960579706
 20
-277.53395477309823
 10
-747.7835214412771
 20
-306.35228235833347
  0
LWPOLYLINE
  5
6B
330
17
100
AcDbEntity
  8
ROADS
 62
251
100
AcDbPolyline
 90
32
 70
0
 10
-276.4990989865321
 20
-132.89566808672356
 10
-309.50358823024584
 20
-132.4780523571415
 10
-350.7747960397028
 20
-128.08841971674025
 10
-364.72400063416643
 20
-127.35995998394482
 10
-376.3181071312484
 20
-127.28925570483034
 10
-388.85451919444904
 20
-127.89955678029193
 10
-396.64997456052896
 20
-129.46859567157205
 10
-409.79612020848
 20
-132.7858884332482
 10
-478.336839383775
 20
-160.1772863394939
 10
-491.9962271155784
 20
-166.27453386848188
 10
-497.8263062057909
 20
-168.9954664168942
 10
-501.61201310946564
 20
-171.73266198963762
 10
-506.60982081878205
 20
-176.1259574042781
 10
-513.0606530751177
 20
-183.51352150823627
 10
-521.0637408923441
 20
-194.00854054815593
 10
-541.521932814982
 20
-224.56776799124526
 10
-564.5907317500865
 20
-257.4515422065848
 10
-575.7423646375734
 20
-267.6829536063317
 10
-580.3564835323244
 20
-270.87523968037283
 10
-587.1084532078471
 20
-274.3003215849985
 10
-593.1963314330231
 20
-276.11865815074583
 10
-601.7243851183507
 20
-276.18610380146947
 10
-609.4122243799522
 20
-273.29622375753337
 10
-626.1194886958991
 20
-264.8163507566104
 10
-635.063137449149
 20
-262.05036376374824
 10
-642.8220933384493
 20
-260.89728658592594
 10
-650.2080311867286
 20
-260.86021760927923
 10
-658.2063466792962
 20
-261.734242529845
 10
-672.3712251149977
 20
-266.1408015665219
 10
-687.8387360452566
 20
-272.42110784263434
 10
-701.7345066312984
 20
-279.6968694767088
 10
-746.4308122784503
 20
-308.4547042762187
  0
LWPOLYLINE
  5
6C
330
17
100
AcDbEntity
  8
ROADS
 62
251
100
AcDbPolyline
 90
32
 70
0
 10
-276.4358375466843
 20
-127.8960683037181
 10
-309.20690193177285
 20
-127.48140616908239
 10
-350.3797219827317
 20
-123.10223811498822
 10
-364.57829973869303
 20
-122.3607555388213
 10
-376.4245030944384
 20
-122.2885138987499
 10
-389.4728487299376
 20
-122.92373706580864
 10
-397.7555985148752
 20
-124.59085667961057
 10
-411.3423745424705
 20
-128.0193379225429
 10
-480.28438488200345
 20
-155.57110657027135
 10
-494.0726911996497
 20
-161.72590049477898
 10
-500.3711445957064
 20
-164.66542611438155
 10
-504.7344329075706
 20
-167.82023280008792
 10
-510.1589053219443
 20
-172.58858548010153
 10
-516.9359824203345
 20
-180.34976876814216
 10
-525.1329884107607
 20
-191.099086519559
 10
-545.6464788627212
 20
-221.74091560903145
 10
-568.3716670627867
 20
-254.13488461774654
 10
-578.8695657874727
 20
-263.7665073378291
 10
-582.9216659972686
 20
-266.56995982039655
 10
-588.9698132574908
 20
-269.6380126602362
 10
-593.9464234285962
 20
-271.12443402296464
 10
-600.8348010214918
 20
-271.17891199957285
 10
-607.3949660515625
 20
-268.7129278185535
 10
-624.2358121219723
 20
-260.1652545906355
 10
-633.9505418668855
 20
-257.1607966948761
 10
-642.440115099796
 20
-255.89914070868605
 10
-650.4678992292503
 20
-255.8588503964018
 10
-659.2300210638867
 20
-256.81634111399376
 10
-674.0573353382365
 20
-261.42897764327074
 10
-689.9438029163625
 20
-267.8793937759
 10
-704.2518854846429
 20
-275.37104006948766
 10
-749.136230604104
 20
-304.24986044044823
  0
LWPOLYLINE
  5
6D
330
17
100
AcDbEntity
  8
ROADS
 62
3
100
AcDbPolyline
 90
2
 70
0
 10
-270.997126729344
 20
-130.2601737510413
 10
-276.4674682666082
 20
-130.39586819522083
  0
LWPOLYLINE
  5
6E
330
17
100
AcDbEntity
  8
ROADS
 62
251
100
AcDbPolyline
 90
2
 70
0
 10
-270.93513210098564
 20
-132.75940496604616
 10
-276.4054736382498
 20
-132.8950994102257
  0
LWPOLYLINE
  5
6F
330
17
100
AcDbEntity
  8
ROADS
 62
251
100
AcDbPolyline
 90
2
 70
0
 10
-271.0591213577024
 20
-127.76094253603642
 10
-276.52946289496657
 20
-127.89663698021596
  0
LWPOLYLINE
  5
70
330
17
100
AcDbEntity
  8
ROADS
 62
3
100
AcDbPolyline
 90
10
 70
0
 10
-125.97192088270094
 20
-156.90913215558976
 10
-29.22733655560296
 20
-229.0198630131781
 10
-23.668516091885976
 20
-232.21938158757985
 10
-17.754878664272837
 20
-234.37152511626482
 10
-12.397557426593266
 20
-235.70750229991972
 10
-5.221453299862333
 20
-236.83576847426593
 10
3.6875728708691895
 20
-237.99882604926825
 10
7.33955956727732
 20
-238.03772136569023
 10
12.301668020081706
 20
-238.0945449117571
 10
18.653232109034434
 20
-237.64980559796095
  0
LWPOLYLINE
  5
71
330
17
100
AcDbEntity
  8
ROADS
 62
251
100
AcDbPolyline
 90
10
 70
0
 10
-124.4778641407074
 20
-154.90468847922875
 10
-27.8519473447181
 20
-226.92696784925496
 10
-22.609551408196626
 20
-229.9443603487517
 10
-17.02293958987784
 20
-231.97748980912894
 10
-11.899983255776917
 20
-233.25502245493752
 10
-4.865433453258967
 20
-234.36103268747723
 10
3.863320592511803
 20
-235.5005560561051
 10
7.366184192346328
 20
-235.53786314384246
 10
12.228548745892862
 20
-235.59354367149433
 10
18.478608562565654
 20
-235.15591173153064
  0
LWPOLYLINE
  5
72
330
17
100
AcDbEntity
  8
ROADS
 62
251
100
AcDbPolyline
 90
10
 70
0
 10
-127.46597762469449
 20
-158.91357583195077
 10
-30.602725766487822
 20
-231.11275817710126
 10
-24.727480775575327
 20
-234.494402826408
 10
-18.486817738667835
 20
-236.7655604234007
 10
-12.895131597409616
 20
-238.15998214490193
 10
-5.577473146465699
 20
-239.31050426105463
 10
3.511825149226576
 20
-240.4970960424314
 10
7.311933823568614
 20
-240.53756892516995
 10
12.37478729427055
 20
-240.5955461520199
 10
18.827855655503214
 20
-240.14369946439126
  0
LWPOLYLINE
  5
73
330
17
100
AcDbEntity
  8
ROADS
 62
3
100
AcDbPolyline
 90
7
 70
0
 10
-178.71835806325544
 20
-129.08469544909894
 10
-184.95427064516116
 20
-127.10543090291321
 10
-192.54914737434592
 20
-125.66139739751816
 10
-201.29422358691227
 20
-125.33140829391778
 10
-211.74582629313227
 20
-125.29930500872433
 10
-219.45867528545205
 20
-125.69230640027672
 10
-270.997126729344
 20
-130.2601737510413
  0
LWPOLYLINE
  5
74
330
17
100
AcDbEntity
  8
ROADS
 62
251
100
AcDbPolyline
 90
7
 70
0
 10
-179.47467042716255
 20
-131.46754911816913
 10
-185.5680967561289
 20
-129.53350938632414
 10
-192.83135270501575
 20
-128.15252779538548
 10
-201.34521268232692
 20
-127.83126346860293
 10
-211.68601210702175
 20
-127.79950052827785
 10
-219.2846487671797
 20
-128.18668233156697
 10
-270.7764162117056
 20
-132.75041206642473
  0
LWPOLYLINE
  5
75
330
17
100
AcDbEntity
  8
ROADS
 62
251
100
AcDbPolyline
 90
7
 70
0
 10
-177.96204569934832
 20
-126.70184178002876
 10
-184.3404445341934
 20
-124.67735241950228
 10
-192.26694204367598
 20
-123.17026699965086
 10
-201.24323449149762
 20
-122.83155311923262
 10
-211.80564047924278
 20
-122.79910948917082
 10
-219.63270180372515
 20
-123.19793046898651
 10
-271.2178372469824
 20
-127.76993543565784
  0
LWPOLYLINE
  5
76
330
17
100
AcDbEntity
  8
ROADS
 62
3
100
AcDbPolyline
 90
49
 70
0
 10
-262.7544377188897
 20
-642.9530069129542
 10
-256.7399375877576
 20
-628.6584238111973
 10
-249.63739903026726
 20
-610.2473247181624
 10
-243.54608446813654
 20
-591.844556754455
 10
-240.93094622239005
 20
-580.1728529352695
 10
-238.6469245092012
 20
-564.7972011286765
 10
-237.63741784915328
 20
-552.0845465604216
 10
-236.79382844560314
 20
-535.6591261103749
 10
-237.43775333778467
 20
-526.9112706035376
 10
-238.3388345328858
 20
-522.6346496874467
 10
-242.4946933950996
 20
-512.6647207383066
 10
-247.06243050273042
 20
-502.63378304056823
 10
-263.47747801605146
 20
-468.6383548025042
 10
-266.62628992367536
 20
-461.229705048725
 10
-279.8747490737587
 20
-437.8663426153362
 10
-299.0248444590252
 20
-363.9042245550081
 10
-300.9738597172545
 20
-357.03255812451243
 10
-301.16212151863147
 20
-352.688151890412
 10
-300.429122991045
 20
-347.37056077457964
 10
-298.24678843002766
 20
-340.9430113788694
 10
-296.48018612212036
 20
-337.00190527178347
 10
-255.00705816003028
 20
-288.9999400265515
 10
-236.10618071071804
 20
-267.20573598332703
 10
-232.22890860389452
 20
-262.8393636280671
 10
-226.6172479762463
 20
-256.8906627576798
 10
-220.98081899422687
 20
-252.14959813281894
 10
-214.21872006112244
 20
-248.0884890779853
 10
-204.78797759732697
 20
-244.2964610317722
 10
-192.94043171207886
 20
-240.32703133672476
 10
-173.04560204118025
 20
-234.89482194464654
 10
-168.08794893638697
 20
-233.01320745423436
 10
-163.9919861628441
 20
-230.76537728030235
 10
-161.40381137281656
 20
-228.61876979470253
 10
-158.44808778807055
 20
-225.2477393951267
 10
-155.86012183653656
 20
-220.85267856158316
 10
-152.16894185903948
 20
-211.23370016086847
 10
-142.9249514377443
 20
-187.9008852764964
 10
-139.6451268796809
 20
-180.4472025791183
 10
-136.59052774391603
 20
-175.12813086807728
 10
-125.97192088270094
 20
-156.90913215558976
 10
-124.01455454598181
 20
-153.35831279866397
 10
-122.26034514489584
 20
-148.8189411945641
 10
-120.93715265986975
 20
-143.35435805190355
 10
-118.32824356330093
 20
-132.1477765692398
 10
-115.71655081503559
 20
-123.00139095075428
 10
-112.80656397005077
 20
-115.43189324066043
 10
-99.5141339286929
 20
-94.84595442656428
 10
-82.85509786638431
 20
-70.27436094172299
 10
-76.26305583468638
 20
-61.30425513815135
  0
LWPOLYLINE
  5
77
330
17
100
AcDbEntity
  8
ROADS
 62
251
100
AcDbPolyline
 90
49
 70
0
 10
-265.0587723627375
 20
-641.9834493596533
 10
-259.0588579571607
 20
-627.7235319593683
 10
-251.9916957782665
 20
-609.4041350100973
 10
-245.95845817416344
 20
-591.1768261811496
 10
-243.39040708160735
 20
-579.7152784814812
 10
-241.1323255984017
 20
-564.5142519604982
 10
-240.13233640871348
 20
-551.921450304398
 10
-239.29854902030291
 20
-535.6868836266339
 10
-239.91867599987043
 20
-527.262327783219
 10
-240.73671800989302
 20
-523.3798190932991
 10
-244.78667572226973
 20
-513.6639476024399
 10
-249.3259692030552
 20
-503.69547327377467
 10
-265.75483784908465
 20
-469.6714215836752
 10
-268.8713208981177
 20
-462.3388364527652
 10
-282.21222324380346
 20
-438.8124525042784
 10
-301.43782514688195
 20
-364.5587107275989
 10
-303.45884548627555
 20
-357.4331751203625
 10
-303.6695606705884
 20
-352.5706254493573
 10
-302.8731180700603
 20
-346.7927746932533
 10
-300.576222885639
 20
-340.02781412380045
 10
-298.6115510520818
 20
-335.64483549471413
 10
-256.89726574609716
 20
-287.3637491170988
 10
-237.98526815364738
 20
-265.5567226708309
 10
-234.07327446224065
 20
-261.1512487609526
 10
-228.33684789643243
 20
-255.07028842332852
 10
-222.43815339214567
 20
-250.10861997397006
 10
-215.3356203080314
 20
-245.84305661775488
 10
-205.6521666210523
 20
-241.94941535820422
 10
-193.66737870959176
 20
-237.93400377125002
 10
-173.820197034673
 20
-232.51480448760483
 10
-169.13795638090699
 20
-230.7377193072793
 10
-165.4041291677025
 20
-228.68862610548004
 10
-163.1526485196792
 20
-226.82126952996893
 10
-160.48297100036746
 20
-223.7764773440185
 10
-158.11976744706035
 20
-219.76312339217284
 10
-154.49815440695915
 20
-210.32543197076944
 10
-145.23200735136342
 20
-186.9366913851543
 10
-141.8795930313078
 20
-179.3180422258848
 10
-138.75448266985174
 20
-173.87618704990612
 10
-128.14688548507277
 20
-155.6760783183206
 10
-126.285552026419
 20
-152.29947029625782
 10
-124.65147819619928
 20
-148.07097377850454
 10
-123.36953654936946
 20
-142.77675030579292
 10
-120.7491247945065
 20
-131.52075909949795
 10
-118.08994574230792
 20
-122.20807212429332
 10
-115.04719007100574
 20
-114.29321432141651
 10
-101.59913664115889
 20
-93.46626212274668
 10
-84.89772101779846
 20
-68.83216001841882
 10
-78.2775717302557
 20
-59.823807332080996
  0
LWPOLYLINE
  5
78
330
17
100
AcDbEntity
  8
ROADS
 62
251
100
AcDbPolyline
 90
49
 70
0
 10
-260.45010307504185
 20
-643.922564466255
 10
-254.42101721835454
 20
-629.5933156630263
 10
-247.28310228226803
 20
-611.0905144262275
 10
-241.13371076210964
 20
-592.5122873277603
 10
-238.47148536317275
 20
-580.6304273890578
 10
-236.1615234200007
 20
-565.0801502968549
 10
-235.14249928959308
 20
-552.2476428164451
 10
-234.28910787090336
 20
-535.631368594116
 10
-234.9568306756989
 20
-526.5602134238561
 10
-235.9409510558786
 20
-521.8894802815942
 10
-240.2027110679289
 20
-511.66549387417473
 10
-244.79889180240565
 20
-501.5720928073618
 10
-261.2001181830183
 20
-467.60528802133314
 10
-264.38125894923303
 20
-460.12057364468484
 10
-277.537274903714
 20
-436.920232726394
 10
-296.61186377116843
 20
-363.2497383824173
 10
-298.4888739482335
 20
-356.6319411286624
 10
-298.65468236667454
 20
-352.80567833146665
 10
-297.9851279120297
 20
-347.948346855906
 10
-295.9173539744163
 20
-341.8582086339384
 10
-294.34882119215894
 20
-338.3589750488528
 10
-253.11685057397096
 20
-290.63613093601293
 10
-234.2270932677887
 20
-268.8547492958232
 10
-230.3845427455484
 20
-264.5274784951815
 10
-224.89764805606015
 20
-258.7110370920311
 10
-219.52348459630807
 20
-254.1905762916678
 10
-213.10181981421348
 20
-250.3339215382157
 10
-203.92378857360166
 20
-246.64350670534017
 10
-192.21348471456596
 20
-242.7200589021995
 10
-172.2710070476875
 20
-237.27483940168824
 10
-167.03794149186695
 20
-235.28869560118943
 10
-162.57984315798572
 20
-232.84212845512465
 10
-159.65497422595394
 20
-230.41627005943613
 10
-156.41320457577365
 20
-226.7190014462349
 10
-153.60047622601277
 20
-221.94223373099348
 10
-149.8397293111198
 20
-212.1419683509675
 10
-140.6178955241252
 20
-188.86507916783853
 10
-137.410660728054
 20
-181.57636293235183
 10
-134.42657281798031
 20
-176.38007468624843
 10
-123.79695628032886
 20
-158.14218599285846
 10
-121.74355706554462
 20
-154.41715530107012
 10
-119.8692120935924
 20
-149.56690861062367
 10
-118.50476877037005
 20
-143.93196579801418
 10
-115.90736233209536
 20
-132.77479403898164
 10
-113.34315588776326
 20
-123.79470977721525
 10
-110.5659378690958
 20
-116.57057215990434
 10
-97.4291312162269
 20
-96.22564673038187
 10
-80.81247471497016
 20
-71.71656186502716
 10
-74.24853993911707
 20
-62.7847029442217
  0
LWPOLYLINE
  5
79
330
17
100
AcDbEntity
  8
ROADS
 62
3
100
AcDbPolyline
 90
8
 70
0
 10
-345.42382213892415
 20
-176.60471276473254
 10
-342.32857957540546
 20
-172.83681707829237
 10
-337.0911193690263
 20
-164.82281154207885
 10
-332.8379713486647
 20
-159.37609202228487
 10
-326.925823628786
 20
-152.57860130630434
 10
-321.37431477510836
 20
-148.7667329814285
 10
-317.5573141480563
 20
-147.3014550767839
 10
-310.7658082495909
 20
-146.37524190265685
  0
LWPOLYLINE
  5
7A
330
17
100
AcDbEntity
  8
ROADS
 62
251
100
AcDbPolyline
 90
8
 70
0
 10
-347.35559115468357
 20
-175.0178074525756
 10
-344.34679492001453
 20
-171.35514447177871
 10
-339.1262906056635
 20
-163.36708368879107
 10
-334.76770385706385
 20
-157.78533590840343
 10
-328.6033006436069
 20
-150.6978144866799
 10
-322.54597420703965
 20
-146.53863337293862
 10
-318.18250421627846
 20
-144.86357570600285
 10
-311.1036266150967
 20
-143.89817130375843
  0
LWPOLYLINE
  5
7B
330
17
100
AcDbEntity
  8
ROADS
 62
251
100
AcDbPolyline
 90
8
 70
0
 10
-343.49205312316474
 20
-178.19161807688948
 10
-340.3103642307964
 20
-174.31848968480602
 10
-335.05594813238906
 20
-166.27853939536664
 10
-330.9082388402656
 20
-160.9668481361663
 10
-325.24834661396517
 20
-154.45938812592877
 10
-320.20265534317707
 20
-150.9948325899184
 10
-316.9321240798342
 20
-149.73933444756494
 10
-310.42798988408515
 20
-148.85231250155528
  0
LWPOLYLINE
  5
7C
330
17
100
AcDbEntity
  8
ROADS
 62
3
100
AcDbPolyline
 90
24
 70
0
 10
-410.56924737547524
 20
-130.40261317789555
 10
-411.9131956869969
 20
-141.17237759567797
 10
-414.8111475344049
 20
-146.36072032991797
 10
-419.41564796853345
 20
-151.09379147645086
 10
-428.8076388235204
 20
-159.60489415284246
 10
-439.89986783254426
 20
-169.46622126176953
 10
-448.03000006999355
 20
-176.9977152151987
 10
-463.2838164861314
 20
-192.40673767216504
 10
-467.12884189770557
 20
-197.43816806562245
 10
-469.43788665591273
 20
-201.81492794305086
 10
-469.8510234353598
 20
-204.11311479657888
 10
-469.7826384224463
 20
-206.66154983453453
 10
-469.23579053825233
 20
-208.9285388579592
 10
-468.0211649086559
 20
-210.6508404063061
 10
-460.3254059838364
 20
-216.03920905664563
 10
-447.17791480151936
 20
-223.40710937511176
 10
-443.31482760980725
 20
-225.36494629178196
 10
-439.4761867853813
 20
-226.84617834351957
 10
-434.4671950917691
 20
-227.24685929901898
 10
-424.3361698273802
 20
-225.05922374501824
 10
-414.2528207352152
 20
-221.82979025691748
 10
-408.1260557883652
 20
-218.95614348724484
 10
-392.35739893710706
 20
-208.91503454186022
 10
-345.42382213892415
 20
-176.60471276473254
  0
LWPOLYLINE
  5
7D
330
17
100
AcDbEntity
  8
ROADS
 62
251
100
AcDbPolyline
 90
24
 70
0
 10
-408.0884883189078
 20
-130.71218466117338
 10
-409.4928143872581
 20
-141.96578778878083
 10
-412.7893093810031
 20
-147.86766150850923
 10
-417.67858154908635
 20
-152.89345602354024
 10
-427.1376942588727
 20
-161.46538510051593
 10
-438.2196849758097
 20
-171.3176100580879
 10
-446.2913622268528
 20
-178.79495318545324
 10
-461.3945766777993
 20
-194.05184131744886
 10
-465.0153631992766
 20
-198.78984260543598
 10
-467.0458977138508
 20
-202.6386904727344
 10
-467.34503545106026
 20
-204.30272633022668
 10
-467.2906011164163
 20
-206.3312755658589
 10
-466.9174929054889
 20
-207.87801688674506
 10
-466.22969559655695
 20
-208.85329218248867
 10
-458.9940407057667
 20
-213.91950805009716
 10
-446.0012338905858
 20
-221.20072270495797
 10
-442.2971621749091
 20
-223.0779695769686
 10
-438.91491849829924
 20
-224.38308979261953
 10
-434.6349217267144
 20
-224.72545674007523
 10
-424.9828008179612
 20
-222.6412330489426
 10
-415.1686721270621
 20
-219.49802382736095
 10
-409.3332366043321
 20
-216.76101978281255
 10
-393.738056403408
 20
-206.83037667874308
 10
-346.8414395522973
 20
-174.54549911158693
  0
LWPOLYLINE
  5
7E
330
17
100
AcDbEntity
  8
ROADS
 62
251
100
AcDbPolyline
 90
24
 70
0
 10
-413.05000643204266
 20
-130.0930416946177
 10
-414.33357698673575
 20
-140.3789674025751
 10
-416.8329856878067
 20
-144.8537791513267
 10
-421.15271438798055
 20
-149.29412692936148
 10
-430.47758338816806
 20
-157.744403205169
 10
-441.58005068927883
 20
-167.61483246545117
 10
-449.7686379131343
 20
-175.20047724494415
 10
-465.1730562944635
 20
-190.7616340268812
 10
-469.24232059613456
 20
-196.08649352580892
 10
-471.82987559797465
 20
-200.99116541336733
 10
-472.3570114196594
 20
-203.9235032629311
 10
-472.2746757284763
 20
-206.99182410321015
 10
-471.55408817101574
 20
-209.97906082917336
 10
-469.8126342207549
 20
-212.4483886301235
 10
-461.6567712619061
 20
-218.1589100631941
 10
-448.3545957124529
 20
-225.61349604526555
 10
-444.3324930447054
 20
-227.65192300659533
 10
-440.03745507246333
 20
-229.3092668944196
 10
-434.2994684568238
 20
-229.76826185796273
 10
-423.6895388367992
 20
-227.47721444109388
 10
-413.3369693433683
 20
-224.161556686474
 10
-406.91887497239827
 20
-221.15126719167714
 10
-390.97674147080613
 20
-210.99969240497737
 10
-344.006204725551
 20
-178.66392641787814
  0
LWPOLYLINE
  5
7F
330
17
100
AcDbEntity
  8
ROADS
 62
3
100
AcDbPolyline
 90
2
 70
0
 10
-428.8076388235204
 20
-159.60489415284246
 10
-392.35739893710706
 20
-208.91503454186022
  0
LWPOLYLINE
  5
80
330
17
100
AcDbEntity
  8
ROADS
 62
251
100
AcDbPolyline
 90
2
 70
0
 10
-426.7972689085179
 20
-158.11882120549004
 10
-390.34702902210455
 20
-207.4289615945078
  0
LWPOLYLINE
  5
81
330
17
100
AcDbEntity
  8
ROADS
 62
251
100
AcDbPolyline
 90
2
 70
0
 10
-430.8180087385229
 20
-161.0909671001949
 10
-394.3677688521096
 20
-210.40110748921265
  0
LWPOLYLINE
  5
82
330
17
100
AcDbEntity
  8
ROADS
 62
3
100
AcDbPolyline
 90
2
 70
0
 10
-152.16894185903948
 20
-211.23370016086847
 10
-83.95367519569118
 20
-253.19251230172813
  0
LWPOLYLINE
  5
83
330
17
100
AcDbEntity
  8
ROADS
 62
251
100
AcDbPolyline
 90
2
 70
0
 10
-150.85914693717422
 20
-209.1042783467001
 10
-82.64388027382591
 20
-251.06309048755978
  0
LWPOLYLINE
  5
84
330
17
100
AcDbEntity
  8
ROADS
 62
251
100
AcDbPolyline
 90
2
 70
0
 10
-153.47873678090474
 20
-213.36312197503682
 10
-85.26347011755644
 20
-255.32193411589648
  0
LWPOLYLINE
  5
85
330
17
100
AcDbEntity
  8
ROADS
 62
3
100
AcDbPolyline
 90
2
 70
0
 10
-55.91708163975272
 20
-48.557025119662285
 10
-68.39239444106352
 20
-25.990478578954935
  0
LWPOLYLINE
  5
86
330
17
100
AcDbEntity
  8
ROADS
 62
251
100
AcDbPolyline
 90
2
 70
0
 10
-58.105007871770106
 20
-49.76656172648749
 10
-70.5803206730809
 20
-27.200015185780135
  0
LWPOLYLINE
  5
87
330
17
100
AcDbEntity
  8
ROADS
 62
251
100
AcDbPolyline
 90
2
 70
0
 10
-53.72915540773534
 20
-47.34748851283708
 10
-66.20446820904613
 20
-24.780941972129735
  0
LWPOLYLINE
  5
88
330
17
100
AcDbEntity
  8
ROADS
 62
3
100
AcDbPolyline
 90
5
 70
0
 10
75.97035375400446
 20
54.19707027729601
 10
63.14070428197738
 20
99.87337605282664
 10
61.468654274824075
 20
105.1131128128618
 10
59.53946803940926
 20
109.65857220813632
 10
52.75898595619947
 20
122.3670649509877
  0
LWPOLYLINE
  5
89
330
17
100
AcDbEntity
  8
ROADS
 62
251
100
AcDbPolyline
 90
5
 70
0
 10
73.56349565800785
 20
53.52102730104705
 10
60.74570135901758
 20
99.15512611606545
 10
59.1221490490116
 20
104.24288466645814
 10
57.28152562861676
 20
108.57967645245024
 10
50.5532923949798
 20
121.19024044665662
  0
LWPOLYLINE
  5
8A
330
17
100
AcDbEntity
  8
ROADS
 62
251
100
AcDbPolyline
 90
5
 70
0
 10
78.37721185000107
 20
54.873113253544965
 10
65.53570720493711
 20
100.59162598958802
 10
63.815159500636554
 20
105.98334095926546
 10
61.79741045020175
 20
110.7374679638224
 10
54.964679517419135
 20
123.54388945531878
  0
LWPOLYLINE
  5
8B
330
17
100
AcDbEntity
  8
ROADS
 62
3
100
AcDbPolyline
 90
3
 70
0
 10
29.90318461030256
 20
14.44393247179687
 10
10.723623175988905
 20
40.203595822677016
 10
30.4609750128584
 20
54.454335661605
  0
LWPOLYLINE
  5
8C
330
17
100
AcDbEntity
  8
ROADS
 62
251
100
AcDbPolyline
 90
3
 70
0
 10
27.897958759465894
 20
12.950925677727813
 10
7.20334450585416
 20
40.74542442969788
 10
28.997519564574873
 20
56.481229381287726
  0
LWPOLYLINE
  5
8D
330
17
100
AcDbEntity
  8
ROADS
 62
251
100
AcDbPolyline
 90
3
 70
0
 10
31.908410461139226
 20
15.936939265865927
 10
14.24390184612365
 20
39.661767215656155
 10
31.924430461141924
 20
52.427441941922275
  0
LWPOLYLINE
  5
8E
330
17
100
AcDbEntity
  8
ROADS
 62
3
100
AcDbPolyline
 90
7
 70
0
 10
127.68928656692151
 20
83.94851469062269
 10
125.89274979650509
 20
99.69013564661145
 10
125.5688325446099
 20
101.65504465345293
 10
125.01583760289941
 20
103.46802364848554
 10
123.64998883078806
 20
105.44719541072845
 10
117.04377894522622
 20
112.79248930886388
 10
113.24724782374687
 20
115.84608775563538
  0
LWPOLYLINE
  5
8F
330
17
100
AcDbEntity
  8
ROADS
 62
251
100
AcDbPolyline
 90
7
 70
0
 10
125.2054103141024
 20
83.66503848230654
 10
123.41592600085723
 20
99.34486437268555
 10
123.12914025401732
 20
101.08453057972615
 10
122.73782222591043
 20
102.36745617600903
 10
121.68369301878128
 20
103.89493330459368
 10
115.31980521648981
 20
110.97079481252919
 10
111.6803926818858
 20
113.89802077413204
  0
LWPOLYLINE
  5
90
330
17
100
AcDbEntity
  8
ROADS
 62
251
100
AcDbPolyline
 90
7
 70
0
 10
130.1731628197406
 20
84.23199089893883
 10
128.3695735921529
 20
100.03540692053764
 10
128.0085248352025
 20
102.22555872717972
 10
127.29385297988838
 20
104.56859112096205
 10
125.61628464279484
 20
106.99945751686323
 10
118.76775267396263
 20
114.61418380519856
 10
114.81410296560794
 20
117.79415473713873
  0
LWPOLYLINE
  5
91
330
17
100
AcDbEntity
  8
ROADS
 62
3
100
AcDbPolyline
 90
4
 70
0
 10
-277.7669876307482
 20
-214.16884976252913
 10
-301.09527548379265
 20
-208.10158459097147
 10
-319.38251583173405
 20
-203.8643283303827
 10
-340.36875441635493
 20
-199.31332040857524
  0
LWPOLYLINE
  5
92
330
17
100
AcDbEntity
  8
ROADS
 62
251
100
AcDbPolyline
 90
4
 70
0
 10
-278.3962578437821
 20
-216.58835777015966
 10
-301.6921743086682
 20
-210.5295118103832
 10
-319.9296135550174
 20
-206.30379474463692
 10
-340.8985814124418
 20
-201.75653209695133
  0
LWPOLYLINE
  5
93
330
17
100
AcDbEntity
  8
ROADS
 62
251
100
AcDbPolyline
 90
4
 70
0
 10
-277.13771741771427
 20
-211.7493417548986
 10
-300.4983766589171
 20
-205.67365737155973
 10
-318.8354181084507
 20
-201.4248619161285
 10
-339.8389274202681
 20
-196.87010872019914
  0
LWPOLYLINE
  5
94
330
17
100
AcDbEntity
  8
ROADS
 62
3
100
AcDbPolyline
 90
8
 70
0
 10
-345.42382213892415
 20
-176.60471276473254
 10
-340.36875441635493
 20
-199.31332040857524
 10
-333.8566304789856
 20
-236.96134752221406
 10
-331.7535704547772
 20
-244.64366611279547
 10
-329.2484838127857
 20
-248.57667880505323
 10
-325.31970962078776
 20
-251.01171670481563
 10
-320.2905472283019
 20
-251.44593902491033
 10
-304.5161594536621
 20
-252.31495718751103
  0
LWPOLYLINE
  5
95
330
17
100
AcDbEntity
  8
ROADS
 62
251
100
AcDbPolyline
 90
8
 70
0
 10
-342.9835528691257
 20
-176.06149467696568
 10
-337.91551188281267
 20
-198.82838141267942
 10
-331.41366498676854
 20
-236.4169946800555
 10
-329.44203060754825
 20
-243.61922536817616
 10
-327.44642957879597
 20
-246.752340224645
 10
-324.5100008362664
 20
-248.57232654317022
 10
-320.1142197534728
 20
-248.9518621619148
 10
-304.3786418440545
 20
-249.81874227147358
  0
LWPOLYLINE
  5
96
330
17
100
AcDbEntity
  8
ROADS
 62
251
100
AcDbPolyline
 90
8
 70
0
 10
-347.86409140872263
 20
-177.1479308524994
 10
-342.8219969498972
 20
-199.79825940447105
 10
-336.2995959712027
 20
-237.50570036437261
 10
-334.0651103020062
 20
-245.66810685741478
 10
-331.05053804677544
 20
-250.40101738546147
 10
-326.12941840530914
 20
-253.45110686646103
 10
-320.46687470313094
 20
-253.94001588790587
 10
-304.6536770632697
 20
-254.81117210354847
  0
LWPOLYLINE
  5
97
330
17
100
AcDbEntity
  8
ROADS
 62
3
100
AcDbPolyline
 90
9
 70
0
 10
-255.44362105196342
 20
-150.32110422104597
 10
-241.35670825350098
 20
-150.85698403790593
 10
-235.85133791295812
 20
-150.4227263201028
 10
-231.03292234882247
 20
-148.9157749619335
 10
-228.4700695812935
 20
-147.11216948367655
 10
-226.2455240766285
 20
-145.14887485839427
 10
-224.38904634432402
 20
-142.1836999086663
 10
-222.79626569943503
 20
-138.12946218345314
 10
-219.45867528545205
 20
-125.69230640027672
  0
LWPOLYLINE
  5
98
330
17
100
AcDbEntity
  8
ROADS
 62
251
100
AcDbPolyline
 90
9
 70
0
 10
-255.3485873662847
 20
-147.82291115433028
 10
-241.40765814938248
 20
-148.35323761425036
 10
-236.32872925334658
 20
-147.95261714099453
 10
-232.15212974328068
 20
-146.64639267354303
 10
-230.02127909659998
 20
-145.14680832426095
 10
-228.17189297642884
 20
-143.51461432229988
 10
-226.63109570890867
 20
-141.05364569296503
 10
-225.17445702331463
 20
-137.34594147764173
 10
-221.87324386627225
 20
-125.04434145638247
  0
LWPOLYLINE
  5
99
330
17
100
AcDbEntity
  8
ROADS
 62
251
100
AcDbPolyline
 90
9
 70
0
 10
-255.53865473764213
 20
-152.81929728776166
 10
-241.30575835761948
 20
-153.3607304615615
 10
-235.37394657256965
 20
-152.8928354992111
 10
-229.91371495436425
 20
-151.18515725032395
 10
-226.91886006598702
 20
-149.07753064309216
 10
-224.31915517682816
 20
-146.78313539448865
 10
-222.14699697973936
 20
-143.3137541243676
 10
-220.41807437555542
 20
-138.91298288926455
 10
-217.04410670463184
 20
-126.34027134417097
  0
LWPOLYLINE
  5
9A
330
17
100
AcDbEntity
  8
ROADS
 62
3
100
AcDbPolyline
 90
7
 70
0
 10
-310.7658082495909
 20
-146.37524190265685
 10
-276.0932790300576
 20
-146.05151816178113
 10
-255.44362105196342
 20
-150.32110422104597
 10
-243.7691171147162
 20
-160.5266840243712
 10
-238.72096552641597
 20
-165.61315480992198
 10
-235.8073345319135
 20
-169.85082173068076
 10
-230.14505176513921
 20
-176.0533004552126
  0
LWPOLYLINE
  5
9B
330
17
100
AcDbEntity
  8
ROADS
 62
251
100
AcDbPolyline
 90
7
 70
0
 10
-310.7891487470415
 20
-143.87535086079546
 10
-275.8490838897868
 20
-143.54912924510617
 10
-254.29338068273384
 20
-148.0060519703211
 10
-242.05706060833165
 20
-158.7027583734017
 10
-236.78822996065415
 20
-164.01158333530225
 10
-233.84486770647635
 20
-168.2924922369009
 10
-228.2987120468591
 20
-174.36776503739983
  0
LWPOLYLINE
  5
9C
330
17
100
AcDbEntity
  8
ROADS
 62
251
100
AcDbPolyline
 90
7
 70
0
 10
-310.7424677521403
 20
-148.87513294451824
 10
-276.3374741703284
 20
-148.5539070784561
 10
-256.593861421193
 20
-152.63615647177085
 10
-245.48117362110077
 20
-162.3506096753407
 10
-240.65370109217778
 20
-167.2147262845417
 10
-237.76980135735067
 20
-171.40915122446063
 10
-231.99139148341933
 20
-177.73883587302535
  0
LWPOLYLINE
  5
9D
330
17
100
AcDbEntity
  8
ROADS
 62
3
100
AcDbPolyline
 90
12
 70
0
 10
-178.71835806325544
 20
-129.08469544909894
 10
-172.52746599190868
 20
-121.52681454457343
 10
-148.64210308075417
 20
-89.8766364865005
 10
-135.2878237933619
 20
-74.57482246588916
 10
-128.83637727913447
 20
-68.3385754507035
 10
-124.29768698196858
 20
-66.16326181404293
 10
-119.72530271555297
 20
-64.54221586510539
 10
-99.152544717188
 20
-59.35194594785571
 10
-94.58013760764152
 20
-58.484083133749664
 10
-92.69048647792079
 20
-58.377012461423874
 10
-90.7313491756795
 20
-58.47026241756976
 10
-76.26305583468638
 20
-61.30425513815135
  0
LWPOLYLINE
  5
9E
330
17
100
AcDbEntity
  8
ROADS
 62
251
100
AcDbPolyline
 90
12
 70
0
 10
-180.65235162862007
 20
-127.50050199843446
 10
-174.49300181129072
 20
-119.98112808071737
 10
-150.58409539601396
 20
-88.29975283714002
 10
-137.1016324843534
 20
-72.85106140466465
 10
-130.28244714792012
 20
-66.25934215123111
 10
-125.25833983012609
 20
-63.851376759261534
 10
-120.45035697918165
 20
-62.14680411860846
 10
-99.69189615110314
 20
-56.90968351606482
 10
-94.88525169842845
 20
-55.99736143249618
 10
-92.70180118639256
 20
-55.87364361462134
 10
-90.43004070603335
 20
-55.98177363946702
 10
-75.78249773409644
 20
-58.8508770767924
  0
LWPOLYLINE
  5
9F
330
17
100
AcDbEntity
  8
ROADS
 62
251
100
AcDbPolyline
 90
12
 70
0
 10
-176.7843644978908
 20
-130.66888889976343
 10
-170.56193017252664
 20
-123.07250100842948
 10
-146.70011076549437
 20
-91.45352013586098
 10
-133.4740151023704
 20
-76.29858352711366
 10
-127.39030741034881
 20
-70.4178087501759
 10
-123.33703413381113
 20
-68.47514686882434
 10
-119.00024845192429
 20
-66.93762761160232
 10
-98.61319328327285
 20
-61.794208379646605
 10
-94.27502351685459
 20
-60.97080483500315
 10
-92.67917176944901
 20
-60.880381308226404
 10
-91.03265764532564
 20
-60.95875119567249
 10
-76.74361393527633
 20
-63.757633199510295
  0
LWPOLYLINE
  5
A0
330
17
100
AcDbEntity
  8
ROADS
 62
3
100
AcDbPolyline
 90
153
 70
0
 10
298.4137441822095
 20
-324.09757825918496
 10
322.3004430893343
 20
-328.5452330522239
 10
335.6274842132116
 20
-330.3117635753006
 10
344.6790558316279
 20
-330.8567115813494
 10
352.99289838736877
 20
-330.2728622397408
 10
356.53124963119626
 20
-329.5681813582778
 10
358.6244732015766
 20
-328.1569722443819
 10
363.35906394792255
 20
-320.72331289947033
 10
367.9888481613016
 20
-311.1505207978189
 10
370.327100229566
 20
-306.9182528704405
 10
372.08931474306155
 20
-304.81578662153333
 10
374.3975132317282
 20
-302.77618524059653
 10
380.88836964732036
 20
-298.9442007606849
 10
406.6172877216013
 20
-284.16687956266105
 10
411.0636125438614
 20
-282.71040278859437
 10
415.35685355449095
 20
-282.63634774275124
 10
419.75793562596664
 20
-284.4799471292645
 10
423.04944493668154
 20
-286.7292291317135
 10
431.9788696413161
 20
-291.6697844071314
 10
439.40233750792686
 20
-295.0722630918026
 10
447.54521142260637
 20
-296.42444489337504
 10
458.89270637289155
 20
-296.5800449391827
 10
469.7227790973848
 20
-293.8376803230494
 10
480.03633507492486
 20
-288.8840837124735
 10
488.56906482519116
 20
-282.1228084564209
 10
492.3731381149264
 20
-277.09102244488895
 10
493.52128983684815
 20
-273.8725303988904
 10
493.9952853897121
 20
-269.4042626544833
 10
493.0824606100796
 20
-260.73018688708544
 10
492.53337936720345
 20
-254.87444436363876
 10
493.69746760546695
 20
-251.246352924034
 10
495.24033694376703
 20
-249.34026108123362
 10
498.3099656543927
 20
-247.455108567141
 10
502.05572685506195
 20
-246.67576960287988
 10
506.3433608127525
 20
-247.0114794736728
 10
510.80617640411947
 20
-249.62020614743233
 10
515.2304100791225
 20
-255.04174988903105
 10
518.6145542255836
 20
-260.3161151371896
 10
521.081311705173
 20
-267.0288752131164
 10
521.4812496991362
 20
-273.22593517415226
 10
520.6599068358773
 20
-282.70693963207304
 10
516.7877758360701
 20
-292.69990635849535
 10
510.68846446834505
 20
-303.3379713781178
 10
503.92989222775213
 20
-311.64100214652717
 10
497.5816056370968
 20
-315.6078075002879
 10
489.5723120131297
 20
-319.56291091721505
 10
477.62523896677885
 20
-323.25356780178845
 10
440.9591107821325
 20
-332.78576926421374
 10
430.2829073551111
 20
-334.84353880304843
 10
424.1579826141242
 20
-336.819725766778
 10
420.5284298900515
 20
-339.66083913017064
 10
415.4704044974642
 20
-345.09634117782116
 10
412.4688672615448
 20
-351.8005682695657
 10
409.83942141605075
 20
-362.2204089900479
 10
405.43459166469984
 20
-400.5388966873288
 10
401.95746543619316
 20
-422.3666324671358
 10
395.55428496643435
 20
-445.39478296227753
 10
392.1913515491178
 20
-458.1416381187737
 10
389.9550234476337
 20
-465.4766226429492
 10
387.5829373751767
 20
-471.42522684670985
 10
385.3568149287021
 20
-475.00553516857326
 10
383.07776331075
 20
-477.1784464707598
 10
381.34470454312395
 20
-477.907866708003
 10
378.15469926118385
 20
-478.0413543032482
 10
373.1160511713242
 20
-477.5513883754611
 10
361.5316074168077
 20
-474.3687999192625
 10
349.8291442322079
 20
-470.0105306673795
 10
344.1237734275637
 20
-467.72817533649504
 10
335.85811806924175
 20
-464.80154287070036
 10
333.0671032234095
 20
-462.92464884743094
 10
328.1958035338903
 20
-458.5049580652267
 10
321.31855458021164
 20
-450.6352473422885
 10
312.63466365856584
 20
-443.59364516474307
 10
301.8607438860927
 20
-438.48388608172536
 10
293.45549236715306
 20
-437.4604628123343
 10
286.62369959568605
 20
-437.5662191770971
 10
282.23432445700746
 20
-437.8826632797718
 10
276.19092925358564
 20
-439.1843747161329
 10
268.02020095638
 20
-442.12943899445236
 10
259.5102642712882
 20
-447.24078438431025
 10
248.06017759838142
 20
-455.33564072847366
 10
232.49364842812065
 20
-470.18594046123326
 10
222.0775986488443
 20
-483.39000478293747
 10
218.76093096390832
 20
-492.7703693592921
 10
214.05270769214258
 20
-513.3518057912588
 10
214.30302131164353
 20
-524.4535306952894
 10
215.99086098000407
 20
-533.049587004818
 10
220.30708570755087
 20
-541.083537821658
 10
228.16266054066364
 20
-550.5947999171913
 10
267.02365783415735
 20
-599.950884822756
 10
285.8770983046852
 20
-633.6038232110441
 10
290.1666978208814
 20
-643.5757618164644
 10
292.76921513688285
 20
-655.4407560527325
 10
292.91965042287484
 20
-664.7910890635103
 10
290.8256624969654
 20
-676.048990316689
 10
285.10799249773845
 20
-689.7272140849382
 10
279.1684142277809
 20
-699.27099407278
 10
271.5877584632253
 20
-706.5992098264396
 10
263.20735035825055
 20
-712.8088548425585
 10
250.11635460995603
 20
-718.6881312988698
 10
231.95039895456284
 20
-721.4630214404315
 10
216.5837764509488
 20
-722.4930225303397
 10
206.4546042381553
 20
-724.5584110459313
 10
198.92876073578373
 20
-727.8889200314879
 10
193.759429474012
 20
-731.6726061459631
 10
189.64487268019002
 20
-739.0483370041475
 10
187.59070808521938
 20
-747.404840445146
 10
188.04035037953872
 20
-755.2529103653505
 10
189.89291058573872
 20
-761.6138422749937
 10
193.25639804301318
 20
-768.3942133663222
 10
204.55483014835045
 20
-781.8957467321306
 10
212.96958896669094
 20
-794.2612450569868
 10
217.2555363975698
 20
-804.4989429172128
 10
218.79390282952227
 20
-813.458470496349
 10
218.70909097173717
 20
-819.6488752355799
 10
216.40643720736261
 20
-825.8088944423944
 10
213.7099765202729
 20
-830.5900762472302
 10
208.6756835358683
 20
-835.0623261993751
 10
202.67658888874575
 20
-838.4137453222647
 10
194.32919677905738
 20
-841.4671691721305
 10
184.1794730796246
 20
-845.038638966158
 10
179.58602992410306
 20
-847.4567729672417
 10
178.1605165315559
 20
-850.5939475269988
 10
178.8082719274098
 20
-853.7705982644111
 10
181.26973792898934
 20
-855.5986517872661
 10
184.5857229102403
 20
-856.053893183358
 10
189.71359913726337
 20
-855.2934277560562
 10
202.3672606467735
 20
-851.2024576663971
 10
210.8373728262959
 20
-848.9814307875931
 10
220.41883562714793
 20
-846.2218272145838
 10
226.25287948630285
 20
-844.3745096158236
 10
230.9905977443559
 20
-841.9694414315745
 10
234.7550156834768
 20
-839.8168662320822
 10
239.11607686895877
 20
-834.7815919667482
 10
242.22698766191024
 20
-829.8731788657606
 10
243.3929635293316
 20
-825.34793383535
 10
244.16513365332503
 20
-819.4438502769917
 10
247.1008995232405
 20
-797.1988635677844
 10
249.13248370075598
 20
-790.4924018876627
 10
252.92514029715676
 20
-786.2800527960062
 10
258.34658778936137
 20
-784.4270911328495
 10
265.55626598082017
 20
-783.8391646835953
 10
307.54585172527004
 20
-778.7657794207335
 10
316.8572004752932
 20
-776.1465170122683
 10
325.0696491281269
 20
-772.4045816510916
 10
331.20669572020415
 20
-768.7781917052343
 10
339.4719794198172
 20
-761.1824853299186
 10
346.78353742987383
 20
-753.1638908348978
 10
351.9659596791025
 20
-748.4278821786866
 10
360.1916402511997
 20
-743.7225188715383
 10
366.0219469302101
 20
-742.1521008778363
 10
370.73345450044144
 20
-741.6628860067576
 10
381.7926871931413
 20
-742.5012312596664
  0
LWPOLYLINE
  5
A1
330
17
100
AcDbEntity
  8
ROADS
 62
251
100
AcDbPolyline
 90
153
 70
0
 10
298.8713737568277
 20
-321.6398200993094
 10
322.693780579864
 20
-326.0755038369479
 10
335.867165419847
 20
-327.8216668596141
 10
344.66655581803946
 20
-328.35143234721
 10
352.6598521214945
 20
-327.7900937420145
 10
355.5502709685864
 20
-327.21445193581474
 10
356.79542776588096
 20
-326.3749923360682
 10
361.17201736409976
 20
-319.50342140023787
 10
365.76779085143744
 20
-310.00095171419264
 10
368.255786653994
 20
-305.4976455986855
 10
370.29360052253804
 20
-303.06636674622047
 10
372.9209928779879
 20
-300.74471498934156
 10
379.63028919923516
 20
-296.783770896912
 10
405.5949329579611
 20
-281.8710614115296
 10
410.64360130298587
 20
-280.217275761934
 10
415.83859750997465
 20
-280.1276661450243
 10
420.9584499227002
 20
-282.27235615849054
 10
424.3627651224964
 20
-284.5987250630652
 10
433.1064639966618
 20
-289.43652022102225
 10
440.14084053823035
 20
-292.6606624511369
 10
447.76838458961976
 20
-293.9272700843937
 10
458.597989478857
 20
-294.0757686758649
 10
468.866236838884
 20
-291.4756681090278
 10
478.7024157412281
 20
-286.7513555074598
 10
486.7668613600113
 20
-280.36114531542137
 10
490.14744020630667
 20
-275.88953079748615
 10
491.06663364557267
 20
-273.31285324126554
 10
491.4813697809888
 20
-269.4032129817253
 10
490.59470437920623
 20
-260.9777155072938
 10
489.9965034281324
 20
-254.5981299865416
 10
491.45993003504674
 20
-250.03709640634162
 10
493.5668051944471
 20
-247.43422041714317
 10
497.3735048212912
 20
-245.09641019693652
 10
501.89548575736234
 20
-244.15557180646556
 10
507.1100534132935
 20
-244.56385802009478
 10
512.4576197980521
 20
-247.68976335541845
 10
517.2575108630118
 20
-253.57164511736454
 10
520.8666337767713
 20
-259.19665151449817
 10
523.5527990939185
 20
-266.5064837324938
 10
523.9882276634856
 20
-273.25347200339183
 10
523.1198134239767
 20
-283.27783532888395
 10
519.0506001209491
 20
-293.7794204100431
 10
512.7559453851843
 20
-304.7581919988292
 10
505.60671177503957
 20
-313.54115747178093
 10
498.80049651130366
 20
-317.7941052178354
 10
490.50057891124385
 20
-321.8927228989226
 10
478.30904449676746
 20
-325.6588981157088
 10
441.51076111732067
 20
-335.22545635381545
 10
430.90560977851663
 20
-337.26953105966913
 10
425.34880962122384
 20
-339.06241448195965
 10
422.2244594612865
 20
-341.50806926813823
 10
417.58284695969616
 20
-346.49608184193215
 10
414.83959963720673
 20
-352.6233931405228
 10
412.3040891140887
 20
-362.6709915123508
 10
407.9120222246488
 20
-400.8784525423767
 10
404.4040455353554
 20
-422.8998527630134
 10
397.9673457363344
 20
-446.048550877013
 10
394.5965269177301
 20
-458.82529484056914
 10
392.31589044249955
 20
-466.3056074297571
 10
389.8230305805188
 20
-472.5570823768718
 10
387.3120294244653
 20
-476.5955656819856
 10
384.47066534338364
 20
-479.30460135137395
 10
381.89931561817514
 20
-480.3868465479208
 10
378.085647362398
 20
-480.54643167695144
 10
372.66059915217255
 20
-480.01889160425566
 10
360.7627070423316
 20
-476.7501896376971
 10
348.92848269925196
 20
-472.342849468304
 10
343.24193262022334
 20
-470.0680231105417
 10
334.7255202638017
 20
-467.0526047542338
 10
331.5215432158568
 20
-464.89800303974994
 10
326.40865444040134
 20
-460.2591204351885
 10
319.57728579399105
 20
-452.4419110465067
 10
311.292730107319
 20
-445.7241222246947
 10
301.1559329415234
 20
-440.91653199899343
 10
293.32313910350945
 20
-439.9628111662375
 10
286.7330177275724
 20
-440.06482645027467
 10
282.5891541937233
 20
-440.3635708355564
 10
276.88107753022996
 20
-441.5930566498033
 10
269.09788315689747
 20
-444.39843786997653
 10
260.87737265254754
 20
-449.33594446063034
 10
249.6531310909226
 20
-457.27113531193913
 10
234.34708131776011
 20
-471.87294052939546
 10
224.2966706630581
 20
-484.61349683974044
 10
221.1658949839849
 20
-493.4681123955518
 10
216.55908019328146
 20
-513.6062537486376
 10
216.7975463845965
 20
-524.182530261955
 10
218.3714383254456
 20
-532.1982582971857
 10
222.39224812350133
 20
-539.6823422363942
 10
230.1088179611185
 20
-549.0253018241118
 10
269.10900862169785
 20
-598.5581716843262
 10
288.12200443174066
 20
-632.4959125211973
 10
292.55752143817523
 20
-642.8070623393708
 10
295.26485981451384
 20
-655.1499405340251
 10
295.423361799877
 20
-665.0016607354547
 10
293.23485721544586
 20
-676.7677116275362
 10
287.3369153602874
 20
-690.8771947697755
 10
281.12787556534886
 20
-700.8539485131136
 10
273.2076509699949
 20
-708.5104252685381
 10
264.47835588419974
 20
-714.9785856546131
 10
250.83019737454876
 20
-721.1080886000441
 10
232.22323633795332
 20
-723.950343294723
 10
216.918622509415
 20
-724.9761880384401
 10
207.21904384951793
 20
-726.9539802952374
 10
200.18743245789238
 20
-730.0657703444687
 10
195.67666292958313
 20
-733.3674229501117
 10
191.99220669545556
 20
-739.9721580172006
 10
190.10810051606273
 20
-747.636850422985
 10
190.52001694597428
 20
-754.8264519886486
 10
192.2311246718678
 20
-760.7016940984848
 10
195.3641046905077
 20
-767.0173909512121
 10
206.55179077340267
 20
-780.3865837317787
 10
215.17828405419948
 20
-793.0632261069089
 10
219.6713768596106
 20
-803.7957251264598
 10
221.29682354582022
 20
-813.2624127185878
 10
221.20290648725992
 20
-820.1174046924615
 10
218.67985611490508
 20
-826.8670250626293
 10
215.68245367725135
 20
-832.1818164353706
 10
210.1325615677408
 20
-837.1121025347411
 10
203.7222168034223
 20
-840.6932682424294
 10
195.173554494176
 20
-843.8203154730496
 10
185.18201647103027
 20
-847.3361231247926
 10
181.50798777673228
 20
-849.2702482256899
 10
180.77222264360526
 20
-850.889470934975
 10
181.0667504824647
 20
-852.3338619543163
 10
182.2453006250961
 20
-853.2091341452448
 10
184.57209467422774
 20
-853.528572555652
 10
189.14179228963621
 20
-852.8508851669767
 10
201.66511838454394
 20
-848.8020529425007
 10
210.17426692698123
 20
-846.5707899759748
 10
219.69541517753066
 20
-843.828557889134
 10
225.30341810514432
 20
-842.0528148964203
 10
229.80354829766148
 20
-839.7683565640564
 10
233.14418518149824
 20
-837.858108493053
 10
237.10427015943552
 20
-833.2858007152295
 10
239.90439465015226
 20
-828.8677480453262
 10
240.93389597412875
 20
-824.8721715670334
 10
241.6864337495424
 20
-819.1181987457525
 10
244.64909632192155
 20
-796.6694094121748
 10
246.9015064855805
 20
-789.2339791613992
 10
251.5019059213472
 20
-784.1245030219303
 10
257.8328658763563
 20
-781.9606849448429
 10
265.3046340581219
 20
-781.3513858859807
 10
307.0545196168871
 20
-776.3069623613212
 10
315.99537298615377
 20
-773.791919507872
 10
323.91219803805967
 20
-770.1846826334285
 10
329.7085946702031
 20
-766.7595832548215
 10
337.6990439389591
 20
-759.4164467506058
 10
345.0129546504645
 20
-751.3952720450663
 10
350.4840524837404
 20
-746.3954543051611
 10
359.2301388325583
 20
-741.3924015575894
 10
365.5648362050821
 20
-739.6861237773344
 10
370.698562063175
 20
-739.1530682751659
 10
381.98165754813743
 20
-740.0083834494436
  0
LWPOLYLINE
  5
A2
330
17
100
AcDbEntity
  8
ROADS
 62
251
100
AcDbPolyline
 90
153
 70
0
 10
297.95611460759125
 20
-326.5553364190605
 10
321.9071055988046
 20
-331.0149622674999
 10
335.3878030065761
 20
-332.80186029098707
 10
344.6915558452164
 20
-333.36199081548875
 10
353.325944653243
 20
-332.7556307374671
 10
357.5122282938061
 20
-331.92191078074086
 10
360.4535186372723
 20
-329.9389521526956
 10
365.54611053174534
 20
-321.9432043987028
 10
370.2099054711657
 20
-312.30008988144516
 10
372.398413805138
 20
-308.3388601421955
 10
373.88502896358506
 20
-306.5652064968462
 10
375.87403358546857
 20
-304.8076554918515
 10
382.14645009540556
 20
-301.1046306244578
 10
407.63964248524155
 20
-286.4626977137925
 10
411.4836237847369
 20
-285.20352981525474
 10
414.87510959900726
 20
-285.1450293404782
 10
418.5574213292331
 20
-286.6875381000384
 10
421.7361247508667
 20
-288.8597332003618
 10
430.8512752859705
 20
-293.9030485932405
 10
438.66383447762337
 20
-297.4838637324683
 10
447.322038255593
 20
-298.9216197023564
 10
459.1874232669261
 20
-299.0843212025005
 10
470.57932135588555
 20
-296.19969253707103
 10
481.37025440862163
 20
-291.01681191748725
 10
490.371268290371
 20
-283.88447159742043
 10
494.59883602354614
 20
-278.29251409229175
 10
495.97594602812364
 20
-274.4322075565152
 10
496.50920099843535
 20
-269.40531232724135
 10
495.5702168409529
 20
-260.4826582668771
 10
495.0702553062745
 20
-255.1507587407359
 10
495.93500517588717
 20
-252.45560944172638
 10
496.91386869308695
 20
-251.24630174532408
 10
499.24642648749426
 20
-249.81380693734548
 10
502.21596795276156
 20
-249.1959673992942
 10
505.5766682122116
 20
-249.45910092725083
 10
509.15473301018693
 20
-251.55064893944626
 10
513.2033092952332
 20
-256.51185466069757
 10
516.3624746743958
 20
-261.4355787598811
 10
518.6098243164275
 20
-267.551266693739
 10
518.9742717347868
 20
-273.1983983449127
 10
518.200000247778
 20
-282.13604393526214
 10
514.5249515511911
 20
-291.6203923069476
 10
508.6209835515057
 20
-301.9177507574066
 10
502.2530726804647
 20
-309.7408468212734
 10
496.36271476288994
 20
-313.4215097827404
 10
488.64404511501556
 20
-317.2330989355075
 10
476.94143343679025
 20
-320.8482374878681
 10
440.4074604469443
 20
-330.34608217461204
 10
429.66020493170555
 20
-332.41754654642773
 10
422.96715560702455
 20
-334.57703705159634
 10
418.8324003188165
 20
-337.81360899220306
 10
413.3579620352322
 20
-343.69660051371017
 10
410.09813488588287
 20
-350.9777433986086
 10
407.3747537180128
 20
-361.76982646774496
 10
402.95716110475087
 20
-400.19934083228094
 10
399.5108853370309
 20
-421.83341217125815
 10
393.1412241965343
 20
-444.7410150475421
 10
389.78617618050555
 20
-457.45798139697825
 10
387.5941564527679
 20
-464.64763785614133
 10
385.3428441698346
 20
-470.2933713165479
 10
383.40160043293884
 20
-473.41550465516093
 10
381.6848612781164
 20
-475.05229159014567
 10
380.79009346807277
 20
-475.42888686808516
 10
378.2237511599697
 20
-475.536276929545
 10
373.5715031904759
 20
-475.08388514666655
 10
362.30050779128374
 20
-471.987410200828
 10
350.72980576516386
 20
-467.678211866455
 10
345.0056142349041
 20
-465.3883275624484
 10
336.9907158746818
 20
-462.5504809871669
 10
334.6126632309622
 20
-460.95129465511195
 10
329.98295262737923
 20
-456.75079569526486
 10
323.0598233664322
 20
-448.8285836380703
 10
313.97659720981267
 20
-441.4631681047914
 10
302.56555483066194
 20
-436.0512401644573
 10
293.58784563079666
 20
-434.9581144584311
 10
286.5143814637997
 20
-435.0676119039195
 10
281.87949472029163
 20
-435.4017557239872
 10
275.5007809769413
 20
-436.77569278246244
 10
266.9425187558625
 20
-439.8604401189282
 10
258.1431558900288
 20
-445.14562430799015
 10
246.46722410584022
 20
-453.4001461450082
 10
230.6402155384812
 20
-468.49894039307105
 10
219.85852663463046
 20
-482.1665127261345
 10
216.35596694383173
 20
-492.07262632303235
 10
211.5463351910037
 20
-513.09735783388
 10
211.80849623869057
 20
-524.7245311286238
 10
213.61028363456253
 20
-533.9009157124503
 10
218.2219232916004
 20
-542.4847334069217
 10
226.21650312020878
 20
-552.1642980102707
 10
264.93830704661684
 20
-601.3435979611859
 10
283.63219217762975
 20
-634.7117339008909
 10
287.77587420358753
 20
-644.344461293558
 10
290.27357045925186
 20
-655.7315715714399
 10
290.4159390458727
 20
-664.5805173915659
 10
288.4164677784849
 20
-675.3302690058418
 10
282.8790696351895
 20
-688.5772334001008
 10
277.2089528902129
 20
-697.6880396324465
 10
269.96786595645574
 20
-704.6879943843411
 10
261.93634483230136
 20
-710.6391240305039
 10
249.4025118453633
 20
-716.2681739976956
 10
231.67756157117236
 20
-718.97569958614
 10
216.24893039248258
 20
-720.0098570222392
 10
205.69016462679267
 20
-722.1628417966251
 10
197.67008901367507
 20
-725.7120697185072
 10
191.84219601844086
 20
-729.9777893418144
 10
187.29753866492447
 20
-738.1245159910943
 10
185.07331565437602
 20
-747.1728304673069
 10
185.56068381310317
 20
-755.6793687420525
 10
187.55469649960963
 20
-762.5259904515025
 10
191.14869139551865
 20
-769.7710357814324
 10
202.55786952329822
 20
-783.4049097324826
 10
210.7608938791824
 20
-795.4592640070647
 10
214.83969593552902
 20
-805.2021607079658
 10
216.29098211322432
 20
-813.6545282741102
 10
216.2152754562144
 20
-819.1803457786983
 10
214.13301829982015
 20
-824.7507638221595
 10
211.73749936329446
 20
-828.9983360590898
 10
207.2188055039958
 20
-833.0125498640091
 10
201.6309609740692
 20
-836.1342224021
 10
193.48483906393878
 20
-839.1140228712114
 10
183.1769296882189
 20
-842.7411548075235
 10
177.66407207147384
 20
-845.6432977087935
 10
175.54881041950657
 20
-850.2984241190227
 10
176.5497933723549
 20
-855.2073345745059
 10
180.2941752328826
 20
-857.9881694292875
 10
184.59935114625284
 20
-858.579213811064
 10
190.28540598489053
 20
-857.7359703451357
 10
203.06940290900306
 20
-853.6028623902935
 10
211.50047872561058
 20
-851.3920715992115
 10
221.1422560767652
 20
-848.6150965400335
 10
227.20234086746137
 20
-846.696204335227
 10
232.17764719105034
 20
-844.1705262990927
 10
236.36584618545538
 20
-841.7756239711115
 10
241.12788357848203
 20
-836.277383218267
 10
244.54958067366823
 20
-830.878609686195
 10
245.85203108453447
 20
-825.8236961036665
 10
246.64383355710765
 20
-819.769501808231
 10
249.55270272455948
 20
-797.7283177233941
 10
251.36346091593146
 20
-791.7508246139262
 10
254.34837467296632
 20
-788.4356025700821
 10
258.8603097023664
 20
-786.893497320856
 10
265.80789790351844
 20
-786.3269434812099
 10
308.037183833653
 20
-781.2245964801457
 10
317.71902796443266
 20
-778.5011145166646
 10
326.22710021819415
 20
-774.6244806687547
 10
332.7047967702052
 20
-770.7968001556472
 10
341.2449149006753
 20
-762.9485239092313
 10
348.55412020928316
 20
-754.9325096247292
 10
353.44786687446464
 20
-750.460310052212
 10
361.15314166984115
 20
-746.0526361854872
 10
366.4790576553381
 20
-744.6180779783383
 10
370.76834693770786
 20
-744.1727037383494
 10
381.6037168381452
 20
-744.9940790698892
  0
LWPOLYLINE
  5
A3
330
17
100
AcDbEntity
  8
ROADS
 62
3
100
AcDbPolyline
 90
28
 70
0
 10
146.87864694360178
 20
86.04503255337477
 10
153.95994390326086
 20
100.59073123522103
 10
155.16249773430172
 20
104.77212117984891
 10
155.63244044326711
 20
110.45881886035204
 10
154.9914349509636
 20
114.88697112724185
 10
152.63126853085123
 20
119.60448678676039
 10
149.64166975102853
 20
123.56636603921652
 10
144.37963219278026
 20
127.34890784136951
 10
131.4543228688417
 20
133.61772072780877
 10
124.06772001227364
 20
140.4863496934995
 10
121.65536112489644
 20
144.4070924576372
 10
119.27879173320252
 20
149.4349576663226
 10
117.97903633269016
 20
155.48923888523132
 10
118.39404917578213
 20
160.93301324546337
 10
119.35734460677486
 20
165.72686719987541
 10
124.66129118110985
 20
174.0499706286937
 10
128.09670354344416
 20
177.02672803588212
 10
133.46230792824645
 20
180.05459554307163
 10
141.37784346356057
 20
182.42729126662016
 10
157.68226903281175
 20
185.57122818939388
 10
171.49670592020266
 20
188.47233692090958
 10
180.94284296920523
 20
191.1009609401226
 10
193.0355343655683
 20
195.60951242875308
 10
200.12579209753312
 20
197.9934803172946
 10
205.2652300952468
 20
199.57344864681363
 10
210.8200519902166
 20
200.59392053633928
 10
218.7110455953516
 20
201.17258161865175
 10
227.83710864454042
 20
200.7707010190934
  0
LWPOLYLINE
  5
A4
330
17
100
AcDbEntity
  8
ROADS
 62
251
100
AcDbPolyline
 90
28
 70
0
 10
144.63086393804625
 20
87.13932299011255
 10
151.61725811826105
 20
101.4900817842899
 10
152.69139838214855
 20
105.22496598041077
 10
153.11754584548137
 20
110.38170475953194
 10
152.57504662407214
 20
114.12936244096058
 10
150.49784744086315
 20
118.28128138668522
 10
147.87451703698142
 20
121.75777407514316
 10
143.0951055031309
 20
125.19338693734021
 10
130.02626952013713
 20
131.53181067387854
 10
122.11651152145079
 20
138.8869093513541
 10
119.45397220589861
 20
143.2142637140514
 10
116.89512034615666
 20
148.62776532891755
 10
115.45875581302471
 20
155.31837404885005
 10
115.91290980031621
 20
161.2755675978381
 10
116.99826860384937
 20
166.67687173037334
 10
122.74879500110549
 20
175.70076088606558
 10
126.64935330418247
 20
179.08056354037203
 10
132.47692325243625
 20
182.36912311851952
 10
140.78074354317457
 20
184.85820788164773
 10
157.18865820668685
 20
188.02210031792114
 10
170.90407768649254
 20
190.90241484203924
 10
180.16964325605144
 20
193.48079032837705
 10
192.2002617848351
 20
197.96619901857204
 10
199.3599772796262
 20
200.37352079387585
 10
204.67004308202732
 20
202.0059435994799
 10
210.50184047335338
 20
203.07729843601325
 10
218.67449330602952
 20
203.67661410779925
 10
227.94709350211426
 20
203.26828051354485
  0
LWPOLYLINE
  5
A5
330
17
100
AcDbEntity
  8
ROADS
 62
251
100
AcDbPolyline
 90
28
 70
0
 10
149.1264299491573
 20
84.95074211663699
 10
156.30262968826068
 20
99.69138068615216
 10
157.6335970864549
 20
104.31927637928705
 10
158.14733504105286
 20
110.53593296117214
 10
157.40782327785504
 20
115.64457981352312
 10
154.7646896208393
 20
120.92769218683556
 10
151.40882246507564
 20
125.37495800328988
 10
145.66415888242963
 20
129.50442874539883
 10
132.88237621754627
 20
135.703630781739
 10
126.01892850309649
 20
142.08579003564492
 10
123.85675004389428
 20
145.59992120122297
 10
121.66246312024839
 20
150.24215000372763
 10
120.4993168523556
 20
155.6601037216126
 10
120.87518855124804
 20
160.59045889308865
 10
121.71642060970035
 20
164.7768626693775
 10
126.5737873611142
 20
172.39918037132182
 10
129.54405378270584
 20
174.9728925313922
 10
134.44769260405664
 20
177.74006796762373
 10
141.97494338394657
 20
179.9963746515926
 10
158.17587985893664
 20
183.1203560608666
 10
172.08933415391277
 20
186.04225899977993
 10
181.71604268235902
 20
188.72113155186815
 10
193.8708069463015
 20
193.25282583893411
 10
200.89160691544004
 20
195.61343984071334
 10
205.8604171084663
 20
197.14095369414736
 10
211.1382635070798
 20
198.11054263666531
 10
218.7475978846737
 20
198.66854912950424
 10
227.7271237869666
 20
198.27312152464194
  0
LWPOLYLINE
  5
A6
330
17
100
AcDbEntity
  8
ROADS
 62
3
100
AcDbPolyline
 90
28
 70
0
 10
-242.91034258774016
 20
25.374028714373708
 10
-236.0100658959709
 20
38.02832655142993
 10
-228.8597253203625
 20
44.81994460709393
 10
-219.4709852859378
 20
53.07624180614948
 10
-214.47554067813326
 20
56.96213739365339
 10
-205.68457135010976
 20
62.24712475389242
 10
-187.8093275333522
 20
71.6279334910214
 10
-161.17158777592704
 20
86.47129585687071
 10
-146.51295087917242
 20
96.0400248048827
 10
-139.37586752453353
 20
101.85709135979414
 10
-134.2267450086074
 20
107.16968192532659
 10
-131.48930483625736
 20
111.92821098305285
 10
-129.00098491238896
 20
117.33256031014025
 10
-127.0799808508018
 20
125.76844468060881
 10
-125.78265851677861
 20
134.62267248891294
 10
-125.97095350909512
 20
141.22660966403782
 10
-126.91219791630283
 20
148.60509321652353
 10
-128.4603011595318
 20
156.87796269729733
 10
-130.64902822359
 20
163.57570662349463
 10
-134.4779201732017
 20
171.813301471062
 10
-141.21219605510123
 20
180.36751866526902
 10
-152.78083800058812
 20
194.5591047341004
 10
-165.7795628720196
 20
210.56455838494003
 10
-177.3014671485871
 20
222.89469668082893
 10
-193.16081452462822
 20
237.21135079488158
 10
-202.61871374037582
 20
243.53215904347599
 10
-223.20016438420862
 20
256.60633436217904
 10
-242.8794176998781
 20
269.25833546277136
  0
LWPOLYLINE
  5
A7
330
17
100
AcDbEntity
  8
ROADS
 62
251
100
AcDbPolyline
 90
28
 70
0
 10
-245.10523226114668
 20
26.570882640955165
 10
-238.01677734111175
 20
39.57027726953049
 10
-230.54666091433393
 20
46.66562847211282
 10
-221.0653809327082
 20
55.00330371594063
 10
-215.8921646479334
 20
59.02748572824899
 10
-206.91051715268932
 20
64.42710569224673
 10
-188.9988285716184
 20
73.82704039862111
 10
-162.4648925631455
 20
88.61256014438842
 10
-147.99005946956663
 20
98.06130735162944
 10
-141.06898423088384
 20
103.70231689214422
 10
-136.23854650871814
 20
108.68610544850445
 10
-133.71279325557083
 20
113.07665628835358
 10
-131.38075854574194
 20
118.14157181385201
 10
-129.5393528438032
 20
126.22790848085666
 10
-128.28785720535174
 20
134.76936899019975
 10
-128.46643033082808
 20
141.0323380012346
 10
-129.3829073168372
 20
148.2166679326714
 10
-130.88751656738557
 20
156.25711097404715
 10
-132.97900494986285
 20
162.6572939116476
 10
-136.62230253608686
 20
170.49559538878307
 10
-143.1633759861793
 20
178.80439710059662
 10
-154.72002368724813
 20
192.98126948455547
 10
-167.66545605995626
 20
208.9211035745004
 10
-179.05554254143442
 20
221.1101773723431
 10
-194.70107622282603
 20
235.23381618516277
 10
-203.98370554566097
 20
241.4374898185978
 10
-224.5464119874719
 20
254.49975805710113
 10
-244.23139126088958
 20
267.1554404367832
  0
LWPOLYLINE
  5
A8
330
17
100
AcDbEntity
  8
ROADS
 62
251
100
AcDbPolyline
 90
28
 70
0
 10
-240.71545291433364
 20
24.17717478779225
 10
-234.00335445083007
 20
36.48637583332936
 10
-227.17278972639104
 20
42.97426074207504
 10
-217.87658963916738
 20
51.14917989635833
 10
-213.0589167083331
 20
54.896789059057795
 10
-204.4586255475302
 20
60.06714381553811
 10
-186.619826495086
 20
69.42882658342168
 10
-159.87828298870858
 20
84.330031569353
 10
-145.0358422887782
 20
94.01874225813597
 10
-137.68275081818322
 20
100.01186582744405
 10
-132.21494350849665
 20
105.65325840214872
 10
-129.2658164169439
 20
110.77976567775212
 10
-126.62121127903595
 20
116.52354880642855
 10
-124.62060885780048
 20
125.30898088036079
 10
-123.27745982820547
 20
134.4759759876262
 10
-123.47547668736216
 20
141.42088132684106
 10
-124.44148851576847
 20
148.99351850037564
 10
-126.03308575167806
 20
157.49881442054752
 10
-128.31905149731713
 20
164.49411933534165
 10
-132.33353781031656
 20
173.13100755334094
 10
-139.26101612402317
 20
181.93064022994142
 10
-150.8416523139281
 20
196.13693998364533
 10
-163.89366968408294
 20
212.20801319537966
 10
-175.5473917557398
 20
224.67921598931477
 10
-191.6205528264304
 20
239.1888854046004
 10
-201.25372193509068
 20
245.62682826835416
 10
-221.85391678095274
 20
258.71291066726167
 10
-241.52744413886663
 20
271.36123048875953
  0
LWPOLYLINE
  5
A9
330
17
100
AcDbEntity
  8
ROADS
 62
3
100
AcDbPolyline
 90
7
 70
0
 10
-230.14505176513921
 20
-176.0533004552126
 10
-224.0905809890246
 20
-178.47311285324395
 10
-216.27247951726895
 20
-177.92648481577635
 10
-212.2843860151479
 20
-175.2673509446904
 10
-208.92026596597861
 20
-172.21202482748777
 10
-201.3245108369738
 20
-163.0229981802404
 10
-178.71835806325544
 20
-129.08469544909894
  0
LWPOLYLINE
  5
AA
330
17
100
AcDbEntity
  8
ROADS
 62
251
100
AcDbPolyline
 90
7
 70
0
 10
-229.21722823161554
 20
-173.7318475716417
 10
-223.69411707692416
 20
-175.93928953346486
 10
-217.10797195117868
 20
-175.47879773790947
 10
-213.82680345380953
 20
-173.29101897007115
 10
-210.73332944602242
 20
-170.4814961852902
 10
-203.3336414598496
 20
-161.5296633613736
 10
-180.7990320761875
 20
-127.69876772662955
  0
LWPOLYLINE
  5
AB
330
17
100
AcDbEntity
  8
ROADS
 62
251
100
AcDbPolyline
 90
7
 70
0
 10
-231.0728752986629
 20
-178.37475333878348
 10
-224.48704490112505
 20
-181.00693617302304
 10
-215.4369870833592
 20
-180.37417189364322
 10
-210.74196857648627
 20
-177.24368291930966
 10
-207.1072024859348
 20
-173.94255346968532
 10
-199.31538021409798
 20
-164.5163329991072
 10
-176.63768405032337
 20
-130.47062317156835
  0
LWPOLYLINE
  5
AC
330
17
100
AcDbEntity
  8
ROADS
 62
3
100
AcDbPolyline
 90
16
 70
0
 10
558.2913343711989
 20
158.22832450270653
 10
543.7094914526679
 20
146.77620722725987
 10
536.9809569368372
 20
140.67691796086729
 10
531.779224199825
 20
134.55668682791293
 10
527.2480251790257
 20
126.92090108990669
 10
521.953811045154
 20
114.05655652564019
 10
507.42838041030336
 20
74.35944071598351
 10
499.5471814115299
 20
54.92917881347239
 10
494.4616698072059
 20
46.747180201113224
 10
470.6644020524109
 20
15.617211760021746
 10
446.3958492745878
 20
-17.533259386196733
 10
440.48708928830456
 20
-24.053637634962797
 10
434.18541984597687
 20
-29.8819096731022
 10
418.5415936628124
 20
-40.5442302916199
 10
411.6942568785744
 20
-45.534318438731134
 10
407.87590052722953
 20
-50.853909673169255
  0
LWPOLYLINE
  5
AD
330
17
100
AcDbEntity
  8
ROADS
 62
251
100
AcDbPolyline
 90
16
 70
0
 10
559.8354676261137
 20
156.2621982374157
 10
545.3230863619451
 20
144.8646339438075
 10
538.7805214982246
 20
138.93392264938217
 10
533.8211856910735
 20
133.09888979778376
 10
529.4907310419454
 20
125.80139001966477
 10
524.2845485306726
 20
113.15095239173071
 10
509.76130029821724
 20
73.45980095468379
 10
501.78342762036544
 20
53.79120032936367
 10
496.52117953648883
 20
45.32485321031284
 10
472.66630039354703
 20
14.11952146645331
 10
448.3359905299865
 20
-19.115308912371976
 10
442.2655430209829
 20
-25.814111028191352
 10
435.74670635040616
 20
-31.843236141152875
 10
419.98214480542725
 20
-42.587846036129235
 10
413.49111016029474
 20
-47.31827423994203
 10
409.90686130567354
 20
-52.31171566726518
  0
LWPOLYLINE
  5
AE
330
17
100
AcDbEntity
  8
ROADS
 62
251
100
AcDbPolyline
 90
16
 70
0
 10
556.7472011162841
 20
160.19445076799735
 10
542.0958965433906
 20
148.68778051071226
 10
535.1813923754497
 20
142.4199132723524
 10
529.7372627085764
 20
136.0144838580421
 10
525.005319316106
 20
128.04041216014858
 10
519.6230735596354
 20
114.96216065954967
 10
505.0954605223895
 20
75.25908047728325
 10
497.31093520269434
 20
56.06715729758111
 10
492.402160077923
 20
48.16950719191361
 10
468.6625037112747
 20
17.114902053590182
 10
444.45570801918916
 20
-15.951209860021487
 10
438.70863555562624
 20
-22.293164241734242
 10
432.6241333415476
 20
-27.920583205051525
 10
417.1010425201975
 20
-38.50061454711056
 10
409.897403596854
 20
-43.75036263752024
 10
405.8449397487855
 20
-49.39610367907333
  0
LWPOLYLINE
  5
AF
330
17
100
AcDbEntity
  8
ROADS
 62
3
100
AcDbPolyline
 90
81
 70
0
 10
344.1237734275637
 20
-467.72817533649504
 10
339.1604110429762
 20
-460.9923031721264
 10
334.2674334523035
 20
-454.3903115261346
 10
326.69647924310993
 20
-441.4271376822144
 10
321.2992467714939
 20
-431.71691852156073
 10
315.29396110842936
 20
-425.71995523385704
 10
311.94421727163717
 20
-423.20406850241125
 10
302.9540116209537
 20
-417.4320331197232
 10
293.02277230797336
 20
-414.82596315816045
 10
277.6440192452865
 20
-412.20063887909055
 10
270.4000387209235
 20
-412.26752721052617
 10
263.4257841790095
 20
-413.7337087197229
 10
253.57356743211858
 20
-417.40892150532454
 10
242.67536119301803
 20
-423.6283997055143
 10
197.93348067614716
 20
-449.5428751818836
 10
191.0929096796317
 20
-454.0568565502763
 10
185.06729374825954
 20
-460.0883574578911
 10
180.26895888941363
 20
-466.91199881676584
 10
171.35769954766147
 20
-482.4959202799946
 10
165.3022358919261
 20
-493.72172808274627
 10
157.81002807430923
 20
-509.65737331751734
 10
156.48674037121236
 20
-512.1092304270715
 10
155.2289840345038
 20
-513.5429801940918
 10
153.09454132337123
 20
-514.953648111783
 10
149.93550066789612
 20
-515.8407827019691
 10
144.25623092486057
 20
-516.172827322036
 10
138.6004703376675
 20
-515.5415718462318
 10
132.79406760213897
 20
-514.6091999523342
 10
128.2680206578225
 20
-512.0993981556967
 10
120.16116590437014
 20
-505.11011287011206
 10
118.29415190673899
 20
-502.81394114531577
 10
116.43319726793561
 20
-499.32162989117205
 10
115.2620378852589
 20
-496.69162610545754
 10
110.33250273938756
 20
-479.94347073417157
 10
114.67593340354506
 20
-464.14191238116473
 10
113.56667060405016
 20
-462.26593383867294
 10
109.68259216716979
 20
-457.32817903906107
 10
103.5860880537657
 20
-453.4677486587316
 10
100.48254767095204
 20
-452.5613200291991
 10
95.8882279562531
 20
-452.0221472661942
 10
90.7940573595697
 20
-452.5726701617241
 10
82.88505742419511
 20
-454.49132948275656
 10
65.86377225827891
 20
-459.5527151096612
 10
63.30698362621479
 20
-460.16013221722096
 10
61.2183463020483
 20
-460.48597845993936
 10
57.60479343181942
 20
-460.6580381821841
 10
54.71637653501239
 20
-460.6185016389936
 10
36.15010501688812
 20
-460.2093140920624
 10
34.471362077165395
 20
-459.9869674053043
 10
33.48438222124241
 20
-459.7297841887921
 10
32.48404588375706
 20
-458.94076396897435
 10
31.56850910221692
 20
-457.9867624640465
 10
16.26227146910969
 20
-442.52545293048024
 10
-3.018989932956174
 20
-421.98120491206646
 10
-6.313563313684426
 20
-419.2003190200776
 10
-11.138221662375145
 20
-415.88899526558816
 10
-15.834079999942333
 20
-412.96710001677275
 10
-25.609570419183
 20
-409.53265876322985
 10
-32.0823145970935
 20
-407.5279275216162
 10
-38.95538078097161
 20
-406.8800854533911
 10
-44.77016150893178
 20
-406.5568565055728
 10
-51.65731773315929
 20
-406.9389068642631
 10
-56.027554842992686
 20
-408.119645209983
 10
-58.60041767032817
 20
-409.1477552931756
 10
-63.024642139906064
 20
-411.2581512797624
 10
-66.19913872843608
 20
-413.2748832311481
 10
-68.93338794098236
 20
-415.5413129031658
 10
-73.0317158451071
 20
-419.472653738223
 10
-78.16689303342719
 20
-425.2838291525841
 10
-80.78868012421299
 20
-429.88886077608913
 10
-82.06383906758856
 20
-432.59614398516715
 10
-82.4015945608262
 20
-436.92228769604117
 10
-81.339979742188
 20
-444.54610572196543
 10
-74.6672041217098
 20
-467.3766655717045
 10
-69.703759395401
 20
-477.8893492827192
 10
-65.64195239311084
 20
-484.9228737000376
 10
-58.01241562364157
 20
-492.11597007513046
 10
-50.665844205766916
 20
-497.36687759310007
 10
-42.6358884354122
 20
-500.9324917756021
 10
-33.710448662168346
 20
-503.9011759040877
 10
2.890599993057549
 20
-517.9148900341243
  0
LWPOLYLINE
  5
B0
330
17
100
AcDbEntity
  8
ROADS
 62
251
100
AcDbPolyline
 90
81
 70
0
 10
342.11114641361627
 20
-469.21119000355975
 10
337.14983736420794
 20
-462.47810445886665
 10
332.17755878269764
 20
-455.76911365554645
 10
324.5242703058736
 20
-442.66496505532535
 10
319.2845137472954
 20
-433.2380625085407
 10
313.65191487733614
 20
-427.61326952903903
 10
310.51627443215136
 20
-425.25818908856576
 10
301.9365079247539
 20
-419.74967039832484
 10
292.4941417712365
 20
-417.2718863047932
 10
277.44362615464695
 20
-414.7025958103238
 10
270.6713938519069
 20
-414.7651281870056
 10
264.12374269827706
 20
-416.1416258459924
 10
254.63694254561923
 20
-419.6805257820396
 10
243.9214412212344
 20
-425.7957364349641
 10
199.24956679325192
 20
-451.66966441863224
 10
192.6819422531349
 20
-456.00353286671765
 10
186.98829244782922
 20
-461.70274343032924
 10
182.38118712985997
 20
-468.2544400745163
 10
173.54330034296348
 20
-483.71004834557147
 10
167.5352958785004
 20
-494.847874816094
 10
160.04297061183007
 20
-510.7837698606
 10
158.55250854843442
 20
-513.5453764243919
 10
156.88717761842545
 20
-515.4437312672388
 10
154.14682618321308
 20
-517.254848442083
 10
150.351217799225
 20
-518.3207465597285
 10
144.1900594201121
 20
-518.6809653177252
 10
138.26343878887775
 20
-518.0194783843934
 10
131.96497270011443
 20
-517.0080926739436
 10
126.8305349754432
 20
-514.1609235692825
 10
118.36109054659501
 20
-506.85903336353834
 10
116.20170026814976
 20
-504.2032788236918
 10
114.18534215447296
 20
-500.4193337527332
 10
112.91066689353363
 20
-497.55687044379823
 10
107.733347490033
 20
-479.96686505571915
 10
111.98431867225358
 20
-464.5016776527936
 10
111.49916016091787
 20
-463.6811805105587
 10
107.98279918316561
 20
-459.21089789983733
 10
102.54663218090482
 20
-455.76860640659754
 10
99.98292463521346
 20
-455.019842855773
 10
95.87669212853213
 20
-454.537950244102
 10
91.224881502382
 20
-455.04066765545684
 10
83.53645161520456
 20
-456.9058184694249
 10
66.50947368293679
 20
-461.96889687601737
 10
63.78932809032935
 20
-462.61512274986643
 10
61.47120390227879
 20
-462.97677101119507
 10
57.647176373260315
 20
-463.1588525077521
 10
54.67172497477543
 20
-463.11812463953567
 10
35.957858295311205
 20
-462.7056841992085
 10
33.990215999963254
 20
-462.4450732773434
 10
32.34727718272787
 20
-462.01696292938277
 10
30.800027963854006
 20
-460.7965624770133
 10
29.77819604309288
 20
-459.73180002306844
 10
14.462168647235133
 20
-444.2606015438466
 10
-4.742515718257434
 20
-423.79794661206085
 10
-7.830937316058696
 20
-421.191069466729
 10
-12.506637173005911
 20
-417.9819808875607
 10
-16.921758043926886
 20
-415.2347683934178
 10
-26.39400060947358
 20
-411.90686777304103
 10
-32.57465791593001
 20
-409.9926013575312
 10
-39.142129696324076
 20
-409.37356403308337
 10
-44.770304531598136
 20
-409.0607080346799
 10
-51.25772602828416
 20
-409.42058395865934
 10
-55.2350113851909
 20
-410.4951557072272
 10
-57.59735531892272
 20
-411.43914292350405
 10
-61.81175772574644
 20
-413.44945184575255
 10
-64.72528128393184
 20
-415.3003897463122
 10
-67.2681746157614
 20
-417.4082037939817
 10
-71.2266496740857
 20
-421.2053901112804
 10
-76.12227747487061
 20
-426.7454816934154
 10
-78.56823494215053
 20
-431.0416777980336
 10
-79.60706178241689
 20
-433.2472055688288
 10
-79.8880542071229
 20
-436.8462991003437
 10
-78.88908487980905
 20
-444.02023849080024
 10
-72.322679371209
 20
-466.4868584535146
 10
-67.48716887377184
 20
-476.7285746897005
 10
-63.66030741050662
 20
-483.3552616613845
 10
-56.42078875551661
 20
-490.18065053728714
 10
-49.41894258836981
 20
-495.18516823506434
 10
-41.73197514463027
 20
-498.59848219614713
 10
-32.86856319344491
 20
-501.54653529517674
 10
3.784511841179833
 20
-515.5801691497815
  0
LWPOLYLINE
  5
B1
330
17
100
AcDbEntity
  8
ROADS
 62
251
100
AcDbPolyline
 90
81
 70
0
 10
346.13640044151117
 20
-466.24516066943033
 10
341.17098472174445
 20
-459.5065018853862
 10
336.3573081219094
 20
-453.0115093967228
 10
328.8686881803463
 20
-440.1893103091034
 10
323.31397979569243
 20
-430.1957745345808
 10
316.9360073395226
 20
-423.82664093867504
 10
313.372160111123
 20
-421.14994791625674
 10
303.97151531715343
 20
-415.11439584112156
 10
293.5514028447102
 20
-412.3800400115277
 10
277.844412335926
 20
-409.69868194785727
 10
270.12868358994007
 20
-409.76992623404675
 10
262.72782565974194
 20
-411.32579159345346
 10
252.51019231861792
 20
-415.1373172286095
 10
241.42928116480167
 20
-421.4610629760645
 10
196.6173945590424
 20
-447.4160859451349
 10
189.5038771061285
 20
-452.1101802338349
 10
183.14629504868986
 20
-458.473971485453
 10
178.15673064896728
 20
-465.5695575590154
 10
169.17209875235946
 20
-481.28179221441775
 10
163.0691759053518
 20
-492.5955813493985
 10
155.5770855367884
 20
-508.5309767744347
 10
154.42097219399048
 20
-510.67308442975076
 10
153.57079045058205
 20
-511.6422291209448
 10
152.04225646352938
 20
-512.6524477814829
 10
149.51978353656725
 20
-513.3608188442098
 10
144.32240242960904
 20
-513.6646893263469
 10
138.93750188645726
 20
-513.0636653080702
 10
133.62316250416353
 20
-512.2103072307248
 10
129.70550634020182
 20
-510.0378727421108
 10
121.96124126214528
 20
-503.3611923766858
 10
120.38660354532821
 20
-501.42460346693974
 10
118.68105238139826
 20
-498.2239260296109
 10
117.61340887698418
 20
-495.82638176711686
 10
112.93165798874213
 20
-479.920076412624
 10
117.36754813483654
 20
-463.78214710953586
 10
115.63418104718245
 20
-460.85068716678717
 10
111.38238515117396
 20
-455.4454601782848
 10
104.62554392662659
 20
-451.1668909108656
 10
100.98217070669062
 20
-450.10279720262525
 10
95.89976378397408
 20
-449.50634428828647
 10
90.36323321675741
 20
-450.10467266799134
 10
82.23366323318567
 20
-452.0768404960882
 10
65.21807083362104
 20
-457.1365333433051
 10
62.824639162100226
 20
-457.7051416845755
 10
60.96548870181782
 20
-457.99518590868365
 10
57.56241049037852
 20
-458.1572238566161
 10
54.761028095249344
 20
-458.1188786384516
 10
36.342351738465034
 20
-457.7129439849163
 10
34.952508154367536
 20
-457.52886153326523
 10
34.621487259756954
 20
-457.44260544820145
 10
34.16806380366012
 20
-457.0849654609354
 10
33.35882216134097
 20
-456.2417249050245
 10
18.06237429098425
 20
-440.7903043171139
 10
-1.2954641476549116
 20
-420.16446321207206
 10
-4.796189311310156
 20
-417.20956857342617
 10
-9.769806151744378
 20
-413.7960096436156
 10
-14.746401955957777
 20
-410.69943164012767
 10
-24.825140228892423
 20
-407.15844975341867
 10
-31.589971278256993
 20
-405.0632536857012
 10
-38.76863186561914
 20
-404.3866068736988
 10
-44.77001848626542
 20
-404.0530049764657
 10
-52.05690943803442
 20
-404.4572297698669
 10
-56.82009830079447
 20
-405.7441347127388
 10
-59.60348002173362
 20
-406.8563676628471
 10
-64.23752655406564
 20
-409.0668507137722
 10
-67.67299617294033
 20
-411.24937671598406
 10
-70.59860126620332
 20
-413.6744220123499
 10
-74.8367820161285
 20
-417.73991736516564
 10
-80.21150859198376
 20
-423.82217661175275
 10
-83.00912530627545
 20
-428.73604375414465
 10
-84.52061635276023
 20
-431.9450824015055
 10
-84.91513491452949
 20
-436.99827629173865
 10
-83.79087460456697
 20
-445.0719729531306
 10
-77.0117288722106
 20
-468.2664726898944
 10
-71.92034991703015
 20
-479.0501238757379
 10
-67.6235973757151
 20
-486.49048573869067
 10
-59.604042491766535
 20
-494.0512896129738
 10
-51.91274582316402
 20
-499.5485869511358
 10
-43.53980172619413
 20
-503.2665013550571
 10
-34.55233413089177
 20
-506.2558165129987
 10
1.996688144935265
 20
-520.249610918467
  0
LWPOLYLINE
  5
B2
330
17
100
AcDbEntity
  8
ROADS
 62
3
100
AcDbPolyline
 90
10
 70
0
 10
414.3740121735027
 20
-142.84181796386838
 10
428.25669053709134
 20
-179.35084743611515
 10
431.2188288833713
 20
-185.30612481944263
 10
435.5537397788139
 20
-191.97802209667861
 10
441.69029717333615
 20
-198.94045086950064
 10
459.723305929685
 20
-215.69118381105363
 10
472.3324705514824
 20
-224.66963337548077
 10
479.17140515497886
 20
-230.82207598164678
 10
483.5346815463854
 20
-235.42313743568957
 10
495.24033694376703
 20
-249.34026108123362
  0
LWPOLYLINE
  5
B3
330
17
100
AcDbEntity
  8
ROADS
 62
251
100
AcDbPolyline
 90
10
 70
0
 10
416.7107745378719
 20
-141.95325640017805
 10
430.5497917096226
 20
-178.3474645319128
 10
433.39334522116786
 20
-184.0643311788923
 10
437.5503313849411
 20
-190.46238302737322
 10
443.48322998027174
 20
-197.19374415229942
 10
461.30572601088517
 20
-213.7489333275715
 10
473.8985938641273
 20
-222.71577865659324
 10
480.91716999353827
 20
-229.0298303790839
 10
485.39996010555683
 20
-233.75691868171694
 10
497.15356475415035
 20
-247.73105029778236
  0
LWPOLYLINE
  5
B4
330
17
100
AcDbEntity
  8
ROADS
 62
251
100
AcDbPolyline
 90
10
 70
0
 10
412.0372498091335
 20
-143.7303795275587
 10
425.9635893645601
 20
-180.35423034031749
 10
429.04431254557477
 20
-186.54791845999296
 10
433.5571481726867
 20
-193.493661165984
 10
439.89736436640055
 20
-200.68715758670186
 10
458.14088584848486
 20
-217.63343429453576
 10
470.7663472388375
 20
-226.6234880943683
 10
477.42564031641945
 20
-232.61432158420965
 10
481.66940298721397
 20
-237.0893561896622
 10
493.3271091333837
 20
-250.94947186468488
  0
LWPOLYLINE
  5
B5
330
17
100
AcDbEntity
  8
ROADS
 62
3
100
AcDbPolyline
 90
7
 70
0
 10
444.05635308497585
 20
194.9061706745997
 10
452.15364463813603
 20
190.9628174714744
 10
454.20822872489225
 20
189.55013178754598
 10
455.3026445324067
 20
188.09522842150182
 10
455.4928761716001
 20
186.9185484610498
 10
455.1214771937812
 20
185.41728360950947
 10
446.75593446707353
 20
169.7927584014833
  0
LWPOLYLINE
  5
B6
330
17
100
AcDbEntity
  8
ROADS
 62
251
100
AcDbPolyline
 90
7
 70
0
 10
445.1509443598001
 20
197.15380719794564
 10
453.4161637924803
 20
193.12867369368485
 10
455.96083985740967
 20
191.37901181791486
 10
457.67197888680045
 20
189.1042439312154
 10
458.04229373506195
 20
186.81365723988054
 10
457.4731645901849
 20
184.51312968805817
 10
448.9599125659697
 20
168.61272427503363
  0
LWPOLYLINE
  5
B7
330
17
100
AcDbEntity
  8
ROADS
 62
251
100
AcDbPolyline
 90
7
 70
0
 10
442.9617618101516
 20
192.65853415125378
 10
450.89112548379177
 20
188.79696124926397
 10
452.45561759237484
 20
187.7212517571771
 10
452.93331017801296
 20
187.08621291178824
 10
452.9434586081382
 20
187.02343968221905
 10
452.7697897973774
 20
186.32143753096076
 10
444.55195636817734
 20
170.97279252793297
  0
LWPOLYLINE
  5
B8
330
17
100
AcDbEntity
  8
ROADS
 62
3
100
AcDbPolyline
 90
19
 70
0
 10
465.68385040119756
 20
178.39418582431972
 10
471.06492418574635
 20
187.81267188861966
 10
472.2205262798816
 20
190.8206175453961
 10
472.5339855168713
 20
193.36383482348174
 10
472.53100670606364
 20
198.41460094600916
 10
472.37281227030326
 20
201.92791000567377
 10
471.9412415063707
 20
205.82155629433692
 10
471.70885922934394
 20
209.19189246371388
 10
471.81417166255414
 20
211.60504966415465
 10
471.8395271153422
 20
213.45441936142743
 10
471.67191862280015
 20
216.2811359912157
 10
470.8750190580031
 20
219.11648033559322
 10
469.87254535465036
 20
221.2568455133587
 10
467.6096672102576
 20
223.2815769566223
 10
465.47907007148024
 20
224.41840237751603
 10
463.00029350689147
 20
224.9951172117144
 10
461.4707559417002
 20
224.8167158961296
 10
459.4552845462458
 20
223.8142650295049
 10
457.1385020558955
 20
221.1545221209526
  0
LWPOLYLINE
  5
B9
330
17
100
AcDbEntity
  8
ROADS
 62
251
100
AcDbPolyline
 90
19
 70
0
 10
463.51315138737436
 20
179.63437362920533
 10
468.79961727059657
 20
188.88726761357955
 10
469.7768230894454
 20
191.43086113378902
 10
470.03389499343143
 20
193.5165859451117
 10
470.0310398838681
 20
198.35760861808703
 10
469.879020861184
 20
201.7337691452904
 10
469.45073589152094
 20
205.59777088494351
 10
469.2051013898106
 20
209.1603095438881
 10
469.31491907394644
 20
211.67670126640527
 10
469.33851166672406
 20
213.39749191951
 10
469.1922532978152
 20
215.86413879026114
 10
468.52387515836944
 20
218.2422078234221
 10
467.8250922896876
 20
219.73416767627762
 10
466.1670882615755
 20
221.21768233087565
 10
464.5922903914518
 20
222.05794923020756
 10
462.85765232037954
 20
222.46153199835373
 10
462.1935884741558
 20
222.38407730453338
 10
461.01381952983587
 20
221.79728634172548
 10
459.023624529846
 20
219.5124766714578
  0
LWPOLYLINE
  5
BA
330
17
100
AcDbEntity
  8
ROADS
 62
251
100
AcDbPolyline
 90
19
 70
0
 10
467.85454941502076
 20
177.1539980194341
 10
473.3302311008961
 20
186.73807616365977
 10
474.6642294703178
 20
190.21037395700316
 10
475.0340760403112
 20
193.21108370185178
 10
475.03097352825915
 20
198.4715932739313
 10
474.8666036794225
 20
202.12205086605712
 10
474.4317471212205
 20
206.04534170373032
 10
474.2126170688773
 20
209.22347538353966
 10
474.31342425116185
 20
211.53339806190402
 10
474.34054256396035
 20
213.51134680334485
 10
474.15158394778507
 20
216.69813319217027
 10
473.22616295763675
 20
219.99075284776436
 10
471.91999841961314
 20
222.7795233504398
 10
469.05224615893974
 20
225.34547158236896
 10
466.3658497515087
 20
226.7788555248245
 10
463.1429346934034
 20
227.52870242507504
 10
460.7479234092446
 20
227.24935448772584
 10
457.89674956265577
 20
225.8312437172843
 10
455.253379581945
 20
222.79656757044742
  0
LWPOLYLINE
  5
BB
330
17
100
AcDbEntity
  8
ROADS
 62
3
100
AcDbPolyline
 90
14
 70
0
 10
457.1385020558955
 20
221.1545221209526
 10
444.05635308497585
 20
194.9061706745997
 10
435.2180739470059
 20
177.1614999640733
 10
435.05557550350204
 20
175.09248754475266
 10
435.72034758131485
 20
173.15612464770675
 10
437.7712870420655
 20
171.47766336798668
 10
440.11397119623143
 20
170.75882743112743
 10
446.75593446707353
 20
169.7927584014833
 10
454.61278097867034
 20
168.6328126778826
 10
456.55420233518817
 20
168.75018661655486
 10
459.3976888337638
 20
169.1874777553603
 10
460.938607821241
 20
170.19643408246338
 10
462.0641535257455
 20
171.764892606996
 10
465.68385040119756
 20
178.39418582431972
  0
LWPOLYLINE
  5
BC
330
17
100
AcDbEntity
  8
ROADS
 62
251
100
AcDbPolyline
 90
14
 70
0
 10
459.3760011982649
 20
220.0393550536948
 10
446.2939943284075
 20
193.7912887224734
 10
437.67237429795557
 20
176.48160591619035
 10
437.5885060877593
 20
175.41375342024864
 10
437.85398479050775
 20
174.6404611489347
 10
438.97437653725353
 20
173.72354760710718
 10
440.66379301070083
 20
173.2051622023669
 10
447.11841826053217
 20
172.26634136016273
 10
454.72106685793915
 20
171.1439241517338
 10
456.2882028724959
 20
171.2386696462377
 10
458.48180326823444
 20
171.5760167782241
 10
459.1792047563991
 20
172.03265833416134
 10
459.94350871809104
 20
173.09772309275104
 10
463.48962910829084
 20
179.59226466886827
  0
LWPOLYLINE
  5
BD
330
17
100
AcDbEntity
  8
ROADS
 62
251
100
AcDbPolyline
 90
14
 70
0
 10
454.90100291352616
 20
222.2696891882104
 10
441.81856981318623
 20
196.02076747546474
 10
432.76377359605624
 20
177.84139401195625
 10
432.5226449192448
 20
174.77122166925668
 10
433.58671037212196
 20
171.6717881464788
 10
436.5681975468775
 20
169.23177912886618
 10
439.56414938176204
 20
168.31249265988797
 10
446.3934506736149
 20
167.31917544280387
 10
454.50449509940154
 20
166.1217012040314
 10
456.82020179788043
 20
166.26170358687202
 10
460.3135743992932
 20
166.7989387324965
 10
462.69801088608295
 20
168.36020983076543
 10
464.18479833339995
 20
170.43206212124096
 10
467.8780716941043
 20
177.19610697977117
  0
LWPOLYLINE
  5
BE
330
17
100
AcDbEntity
  8
ROADS
 62
3
100
AcDbPolyline
 90
2
 70
0
 10
465.68385040119756
 20
178.39418582431972
 10
480.9117069316562
 20
169.98904929868877
  0
LWPOLYLINE
  5
BF
330
17
100
AcDbEntity
  8
ROADS
 62
251
100
AcDbPolyline
 90
2
 70
0
 10
466.891936071677
 20
180.58291353986183
 10
482.11979260213565
 20
172.17777701423088
  0
LWPOLYLINE
  5
C0
330
17
100
AcDbEntity
  8
ROADS
 62
251
100
AcDbPolyline
 90
2
 70
0
 10
464.47576473071814
 20
176.2054581087776
 10
479.7036212611768
 20
167.80032158314665
  0
LWPOLYLINE
  5
C1
330
17
100
AcDbEntity
  8
ROADS
 62
3
100
AcDbPolyline
 90
29
 70
0
 10
346.16057891154196
 20
271.9311681780964
 10
371.3088789389003
 20
299.2436986910179
 10
379.03642750694416
 20
308.2202414833009
 10
384.5581165456679
 20
317.359924454242
 10
388.27536417229567
 20
325.83761373721063
 10
390.18543881666847
 20
334.20715496502817
 10
391.164324990008
 20
344.64962031971663
 10
391.72403621987905
 20
355.3747337348759
 10
390.73522413964383
 20
363.78400200791657
 10
388.36675567855127
 20
373.1647252906114
 10
386.11463764845394
 20
380.49476682953537
 10
382.0785500142956
 20
388.6578129865229
 10
381.57245602237526
 20
392.38633234240115
 10
381.62329321040306
 20
396.0961436405778
 10
383.0472655148478
 20
399.11149349436164
 10
385.71375130093656
 20
401.68892288580537
 10
388.91653078619856
 20
402.7415709653869
 10
391.68510970519856
 20
402.9805341027677
 10
394.65045503072906
 20
402.5190031649545
 10
398.02298761473503
 20
400.8999723913148
 10
410.5793230488198
 20
393.29579636082053
 10
430.9824288188247
 20
383.0365443825722
 10
447.3586741605541
 20
376.3436018470675
 10
471.7309625695925
 20
367.3479447364807
 10
514.6871189756785
 20
351.62895995751023
 10
526.133361469605
 20
348.85803042538464
 10
534.421001446899
 20
347.5038510411978
 10
538.1542991689639
 20
347.3640448600054
 10
543.6924996586749
 20
347.16625685896724
  0
LWPOLYLINE
  5
C2
330
17
100
AcDbEntity
  8
ROADS
 62
251
100
AcDbPolyline
 90
29
 70
0
 10
344.3214484694602
 20
273.624566895767
 10
369.44146438271713
 20
300.90637919995925
 10
377.0050120446929
 20
309.6924138202999
 10
382.3340075100643
 20
318.51314399280795
 10
385.8907112635596
 20
326.62469111646703
 10
387.7116452041273
 20
334.60363672134866
 10
388.6704151071297
 20
344.8315077117658
 10
389.2163854901442
 20
355.293320815816
 10
388.2713726746023
 20
363.33010196584337
 10
385.95836284852896
 20
372.4911718660685
 10
383.78415896759697
 20
379.5676236986719
 10
379.6562692090209
 20
387.9163409923784
 10
379.0701406093673
 20
392.23449505808844
 10
379.1309634505452
 20
396.67300301147367
 10
380.9815753295062
 20
400.5917886797185
 10
384.38849155644397
 20
403.8849193100438
 10
388.412019436341
 20
405.207320341837
 10
391.77109348639476
 20
405.4972506263546
 10
395.3996477018659
 20
404.93249683004154
 10
399.21427811609345
 20
403.10123089654525
 10
411.7902561736833
 20
395.48515920050295
 10
432.01844468946115
 20
385.31386050773415
 10
448.26467007270037
 20
378.67405689952835
 10
472.5933472252331
 20
369.6944964271851
 10
515.413109874491
 20
354.02542233778513
 10
526.6297503975314
 20
351.310075315125
 10
534.6703183047184
 20
349.9962668814939
 10
538.2456903158826
 20
349.862374772041
 10
543.7817262891683
 20
349.6646640732561
  0
LWPOLYLINE
  5
C3
330
17
100
AcDbEntity
  8
ROADS
 62
251
100
AcDbPolyline
 90
29
 70
0
 10
347.9997093536237
 20
270.23776946042585
 10
373.1762934950835
 20
297.5810181820766
 10
381.06784296919545
 20
306.74806914630193
 10
386.78222558127146
 20
316.206704915676
 10
390.66001708103175
 20
325.05053635795423
 10
392.6592324292096
 20
333.81067320870767
 10
393.65823487288634
 20
344.46773292766744
 10
394.2316869496139
 20
355.45614665393583
 10
393.1990756046854
 20
364.23790204998977
 10
390.7751485085736
 20
373.8382787151543
 10
388.4451163293109
 20
381.4219099603988
 10
384.50083081957035
 20
389.3992849806674
 10
384.07477143538324
 20
392.53816962671385
 10
384.1156229702609
 20
395.5192842696819
 10
385.11295570018945
 20
397.6311983090048
 10
387.03901104542916
 20
399.4929264615669
 10
389.42104213605614
 20
400.2758215889369
 10
391.59912592400235
 20
400.4638175791808
 10
393.90126235959224
 20
400.1055094998674
 10
396.8316971133766
 20
398.69871388608436
 10
409.3683899239563
 20
391.1064335211381
 10
429.94641294818825
 20
380.7592282574102
 10
446.4526782484078
 20
374.0131467946066
 10
470.8685779139519
 20
365.00139304577635
 10
513.9611280768659
 20
349.23249757723534
 10
525.6369725416786
 20
346.4059855356443
 10
534.1716845890796
 20
345.01143520090164
 10
538.0629080220452
 20
344.86571494796976
 10
543.6032730281815
 20
344.66784964467837
  0
LWPOLYLINE
  5
C4
330
17
100
AcDbEntity
  8
ROADS
 62
3
100
AcDbPolyline
 90
32
 70
0
 10
285.1585049969144
 20
61.72213361784816
 10
288.2064667510567
 20
62.023738611489534
 10
289.45471868792083
 20
62.0066380854696
 10
290.97392061317805
 20
61.43201845884323
 10
292.2728425845271
 20
60.5945890750736
 10
293.22268446022645
 20
59.13060186058283
 10
294.7652472773334
 20
55.7423218106851
 10
295.8276546356501
 20
52.70398010313511
 10
297.31013998761773
 20
49.449436431750655
 10
299.55419780279044
 20
46.80472270678729
 10
301.4062439443078
 20
45.67173468135297
 10
304.3012801067671
 20
44.60198977496475
 10
308.23930734593887
 20
44.3486650865525
 10
313.85886519553605
 20
45.57865581475198
 10
317.1299895399716
 20
47.10664924047887
 10
336.4325690144906
 20
61.98325304687023
 10
338.881291583064
 20
63.732958225533366
 10
340.140924951178
 20
64.54640856664628
 10
341.24854519742075
 20
64.80813460610807
 10
342.4254952382762
 20
64.85846379585564
 10
343.93255888530985
 20
64.15109147690237
 10
345.0906919449335
 20
62.828236335888505
 10
345.8191833818564
 20
60.27074031997472
 10
345.53653024241794
 20
54.70331259816885
 10
344.2260610803496
 20
50.18005074188113
 10
341.79674417420756
 20
44.57558214664459
 10
338.4051491911523
 20
39.52703041769564
 10
331.9675683234818
 20
33.567667631432414
 10
326.375009413925
 20
29.78980055358261
 10
312.7178275423357
 20
22.544835538603365
 10
301.73556884622667
 20
19.250623078085482
 10
281.21289397601504
 20
16.231093865819275
  0
LWPOLYLINE
  5
C5
330
17
100
AcDbEntity
  8
ROADS
 62
251
100
AcDbPolyline
 90
32
 70
0
 10
284.9123247939977
 20
64.20998315262551
 10
288.10016453412567
 20
64.5254294941829
 10
289.9282479273181
 20
64.5003855213208
 10
292.10602545416094
 20
63.67666769385829
 10
294.0782121483611
 20
62.40517708515958
 10
295.42102786829133
 20
60.33550096780835
 10
297.08763084283004
 20
56.67476342953399
 10
298.1499531942512
 20
53.63666483023621
 10
299.441193673595
 20
50.801966649437176
 10
301.20095390634094
 20
48.728017391659385
 10
302.5022000093617
 20
47.93198093240698
 10
304.8257070179552
 20
47.073421782220485
 10
308.04857587351904
 20
46.86610167013285
 10
313.0527230512419
 20
47.961393291979206
 10
315.82220262813263
 20
49.25506058817126
 10
334.9423076961027
 20
63.99103036921808
 10
337.4756777124945
 20
65.80121936083295
 10
339.14666627687706
 20
66.8803160663513
 10
340.90461528018307
 20
67.29571207574337
 10
342.9320146010225
 20
67.38240850428375
 10
345.46870706433134
 20
66.19175804053329
 10
347.34132484683875
 20
64.05279651088934
 10
348.336959118719
 20
60.55744906467024
 10
348.018590977479
 20
54.28654183611248
 10
346.5830733370948
 20
49.3316582152497
 10
343.9995323184052
 20
43.37139240260801
 10
340.317614011599
 20
37.89068048784678
 10
333.52550119735764
 20
31.603122292101933
 10
327.66414821860496
 20
27.643680324982594
 10
313.67191683387017
 20
20.220975713075585
 10
302.27952983771564
 20
16.80374213333207
 10
281.5768045806094
 20
13.757721861477076
  0
LWPOLYLINE
  5
C6
330
17
100
AcDbEntity
  8
ROADS
 62
251
100
AcDbPolyline
 90
32
 70
0
 10
285.40468519983114
 20
59.23428408307081
 10
288.3127689679878
 20
59.52204772879618
 10
288.98118944852354
 20
59.51289064961842
 10
289.84181577219516
 20
59.18736922382817
 10
290.4674730206931
 20
58.78400106498762
 10
291.02434105216156
 20
57.92570275335731
 10
292.44286371183676
 20
54.80988019183621
 10
293.505356077049
 20
51.77129537603401
 10
295.17908630164044
 20
48.096906214064134
 10
297.90744169923994
 20
44.88142802191519
 10
300.3102878792539
 20
43.41148843029897
 10
303.77685319557895
 20
42.130557767709014
 10
308.4300388183587
 20
41.83122850297215
 10
314.6650073398302
 20
43.19591833752476
 10
318.4377764518105
 20
44.958237892786485
 10
337.92283033287845
 20
59.97547572452238
 10
340.28690545363355
 20
61.66469709023378
 10
341.135183625479
 20
62.21250106694125
 10
341.5924751146585
 20
62.32055713647278
 10
341.9189758755299
 20
62.33451908742754
 10
342.39641070628835
 20
62.110424913271444
 10
342.84005904302825
 20
61.60367616088769
 10
343.30140764499384
 20
59.984031575279204
 10
343.0544695073569
 20
55.12008336022522
 10
341.86904882360443
 20
51.02844326851256
 10
339.5939560300099
 20
45.779771890681175
 10
336.4926843707056
 20
41.1633803475445
 10
330.409635449606
 20
35.53221297076289
 10
325.08587060924503
 20
31.935920782182624
 10
311.7637382508013
 20
24.868695364131145
 10
301.1916078547377
 20
21.697504022838896
 10
280.8489833714207
 20
18.704465870161474
  0
LWPOLYLINE
  5
C7
330
17
100
AcDbEntity
  8
ROADS
 62
3
100
AcDbPolyline
 90
19
 70
0
 10
77.60101431363728
 20
-241.2809828137979
 10
33.52203955000732
 20
-221.75966691877693
 10
25.903512844932266
 20
-217.52401354908943
 10
21.670427618199028
 20
-213.20177759230137
 10
19.3186179229524
 20
-207.87520664650947
 10
18.158886806690134
 20
-201.3908791616559
 10
14.165683062165044
 20
-180.29159797821194
 10
12.219078169204295
 20
-175.5133038070053
 10
6.741763596888632
 20
-166.35593398846686
 10
-17.70778592012357
 20
-117.80704688094556
 10
-29.675886872923
 20
-92.11285388097167
 10
-30.98869673034642
 20
-87.01095472089946
 10
-31.27549648412969
 20
-83.08608434628695
 10
-30.245496058254503
 20
-78.691878573969
 10
-28.610774235217832
 20
-75.34710091911256
 10
-27.88096931844484
 20
-72.5326738525182
 10
-27.986899560899474
 20
-70.47106614150107
 10
-29.58657644118648
 20
-65.97442939691246
 10
-47.56087869743351
 20
-44.13011669740081
  0
LWPOLYLINE
  5
C8
330
17
100
AcDbEntity
  8
ROADS
 62
251
100
AcDbPolyline
 90
19
 70
0
 10
76.58867173113566
 20
-243.56684424784282
 10
32.406187320087696
 20
-223.9996868935714
 10
24.371431341907176
 20
-219.53262356872585
 10
19.566753623867804
 20
-214.6267571187573
 10
16.910473365465613
 20
-208.6105963397271
 10
15.700152316824743
 20
-201.84340872947075
 10
11.755888619035284
 20
-181.00271685758437
 10
9.975739732682824
 20
-176.63301909390498
 10
4.549715155712279
 20
-167.56139959135905
 10
-19.95784126472015
 20
-118.89732955976604
 10
-32.03952205885167
 20
-92.95929316512138
 10
-33.4657068535929
 20
-87.41679135859263
 10
-33.796681658407095
 20
-82.88738298559917
 10
-32.61525246444063
 20
-77.8471491630731
 10
-30.967497630276345
 20
-74.47570487675628
 10
-30.397396224128393
 20
-72.2771600447195
 10
-30.46484334725406
 20
-70.96450837981509
 10
-31.795230752008194
 20
-67.22483509799456
 10
-49.491360344499135
 20
-45.71858785242465
  0
LWPOLYLINE
  5
C9
330
17
100
AcDbEntity
  8
ROADS
 62
251
100
AcDbPolyline
 90
19
 70
0
 10
78.6133568961389
 20
-238.99512137975296
 10
34.637891779926946
 20
-219.51964694398245
 10
27.435594347957355
 20
-215.515403529453
 10
23.774101612530252
 20
-211.77679806584544
 10
21.726762480439184
 20
-207.13981695329184
 10
20.617621296555523
 20
-200.93834959384105
 10
16.575477505294803
 20
-179.58047909883948
 10
14.462416605725766
 20
-174.3935885201056
 10
8.933812038064984
 20
-165.15046838557467
 10
-15.457730575527009
 20
-116.71676420212505
 10
-27.312251686994344
 20
-91.26641459682195
 10
-28.511686607099946
 20
-86.60511808320629
 10
-28.754311309852287
 20
-83.28478570697473
 10
-27.87573965206838
 20
-79.53660798486493
 10
-26.25405084015932
 20
-76.21849696146884
 10
-25.36454241276129
 20
-72.78818766031691
 10
-25.508955774544887
 20
-69.97762390318705
 10
-27.377922130364766
 20
-64.72402369583035
 10
-45.63039705036788
 20
-42.54164554237697
  0
LWPOLYLINE
  5
CA
330
17
100
AcDbEntity
  8
ROADS
 62
3
100
AcDbPolyline
 90
6
 70
0
 10
117.98987651441712
 20
80.90243941824883
 10
113.85803341818973
 20
88.10310103185475
 10
108.47870813915506
 20
93.86986372899264
 10
77.72576331510209
 20
76.91233369428664
 10
78.60062256956007
 20
68.46035180054605
 10
82.68380313215312
 20
59.2112828604877
  0
LWPOLYLINE
  5
CB
330
17
100
AcDbEntity
  8
ROADS
 62
251
100
AcDbPolyline
 90
6
 70
0
 10
115.82150066297538
 20
79.65819419849338
 10
111.83319671505956
 20
86.60870671126811
 10
107.97965133062074
 20
90.7397976236023
 10
80.3829641289082
 20
75.52266460564788
 10
81.04677495489523
 20
69.10961353083555
 10
84.97085019110736
 20
60.220944066105076
  0
LWPOLYLINE
  5
CC
330
17
100
AcDbEntity
  8
ROADS
 62
251
100
AcDbPolyline
 90
6
 70
0
 10
120.15825236585886
 20
82.14668463800429
 10
115.88287012131991
 20
89.59749535244138
 10
108.97776494768938
 20
96.99992983438298
 10
75.06856250129597
 20
78.30200278292541
 10
76.15447018422492
 20
67.81109007025655
 10
80.39675607319887
 20
58.20162165487032
  0
LWPOLYLINE
  5
CD
330
17
100
AcDbEntity
  8
PARKS
 62
10
100
AcDbPolyline
 90
5
 70
1
 10
-308.3020255608717
 20
-132.187187416479
 10
-277.0707104217727
 20
-133.01266199722886
 10
-277.80780008470174
 20
-143.15937836281955
 10
-309.02579427638557
 20
-145.1363393831998
 10
-308.3020255608717
 20
-132.187187416479
  0
LWPOLYLINE
  5
CE
330
17
100
AcDbEntity
  8
PARKS
 62
10
100
AcDbPolyline
 90
12
 70
1
 10
-243.9664766822243
 20
-156.0935436198488
 10
-272.98984162474517
 20
-141.68563638161868
 10
-273.5685503903078
 20
-134.201357152313
 10
-268.4775820899522
 20
-130.87056116387248
 10
-217.92318967473693
 20
-128.0946574313566
 10
-194.63228189270012
 20
-128.6013186899945
 10
-190.52552621625364
 20
-131.60370375867933
 10
-191.92944762774277
 20
-140.7112274011597
 10
-211.70347594085615
 20
-171.26573958992958
 10
-229.24617871118244
 20
-176.7190766558051
 10
-233.5278031761991
 20
-165.37400129809976
 10
-243.9664766822243
 20
-156.0935436198488
  0
LWPOLYLINE
  5
CF
330
17
100
AcDbEntity
  8
PARKS
 62
10
100
AcDbPolyline
 90
7
 70
1
 10
69.13768904178869
 20
112.85005854070187
 10
73.95663260843139
 20
95.5385812483728
 10
79.40587846923154
 20
80.55553743429482
 10
114.30710998305585
 20
99.80442212428898
 10
110.37053429114167
 20
104.68749832175672
 10
93.89708327117842
 20
111.04915163293481
 10
69.13768904178869
 20
112.85005854070187
  0
LWPOLYLINE
  5
D0
330
17
100
AcDbEntity
  8
WATERWAYS
 62
5
100
AcDbPolyline
 90
355
 70
0
 10
3630.4727335370844
 20
-2876.5095048695803
 10
3738.3292432687012
 20
-2644.17823078949
 10
3806.233755418798
 20
-2425.047396928072
 10
3819.8889609335456
 20
-2314.32959439978
 10
3826.8599399992963
 20
-2232.4059129841626
 10
3837.6171024215873
 20
-2106.0853632614017
 10
3841.601650942932
 20
-2059.2987519223243
 10
3813.8449137816206
 20
-1972.9921394940466
 10
3792.269141127006
 20
-1877.700169319287
 10
3752.5672858025646
 20
-1837.1057617571205
 10
3638.7100404785015
 20
-1848.080500556156
 10
3437.811808503
 20
-1928.5011025480926
 10
3235.444845064776
 20
-1939.587740383111
 10
3122.9872307803016
 20
-1911.5635467972606
 10
3083.1857665176503
 20
-1878.0363264232874
 10
2993.1020895849215
 20
-1769.233950983733
 10
2992.8963740328327
 20
-1726.830824173987
 10
3003.7489395019365
 20
-1628.0696860933676
 10
2992.1171723958105
 20
-1441.8366343677044
 10
2998.040212049382
 20
-1299.8093346636742
 10
2968.3827503247885
 20
-1160.4339005406946
 10
2921.4934565232834
 20
-1068.713587699458
 10
2904.18816348759
 20
-1006.4460161728784
 10
2903.7859166273847
 20
-921.6510970294476
 10
2938.2147495971294
 20
-773.7390885399655
 10
3001.2711865175515
 20
-611.3045292412862
 10
3012.1675866695587
 20
-509.38730021752417
 10
2920.073147701216
 20
-202.67986235581338
 10
2950.322742342134
 20
-128.51143984869123
 10
2976.098909042543
 20
-35.429090674966574
 10
2953.687302788603
 20
114.06879220344126
 10
2849.395722393645
 20
167.3298951741308
 10
2813.7446132285986
 20
195.52591778710485
 10
2739.247354692314
 20
254.44303907081485
 10
2552.859504224849
 20
195.78344258666039
 10
2445.869708470651
 20
168.99746807850897
 10
2385.6642135876464
 20
155.69704787619412
 10
2304.987544746953
 20
31.972079498693347
 10
2270.5988380014896
 20
-170.12648071534932
 10
2194.125074296724
 20
-275.85560362040997
 10
2051.113018373144
 20
-566.7359036048874
 10
2023.6942986019421
 20
-629.7909042751417
 10
1953.8537885452388
 20
-790.3957285135984
 10
1937.7526529353345
 20
-827.4117675116286
 10
1853.44795046933
 20
-927.5290496647358
 10
1786.074378022342
 20
-946.2261933423579
 10
1712.6483083475614
 20
-945.2129862327129
 10
1581.7903594324598
 20
-871.9552900353447
 10
1459.1956002424704
 20
-828.6520426357165
 10
1451.2993638268672
 20
-771.2348115658388
 10
1513.7015437802766
 20
-655.1075733024627
 10
1511.377939585247
 20
-594.6214645942673
 10
1392.9265532632126
 20
-422.6149772964418
 10
1396.5642300191103
 20
-330.79888809565455
 10
1379.1540936011588
 20
-276.38531872909516
 10
1343.7070921215927
 20
-212.29756998084486
 10
1374.0733271455392
 20
-71.39423230290413
 10
1363.7869035077747
 20
41.813414617441595
 10
1302.9556720308028
 20
97.61099356785417
 10
1194.9954403127776
 20
114.01623580232263
 10
1026.0868088840507
 20
62.95176899433136
 10
925.6733403021935
 20
54.119548545219004
 10
893.5924189175712
 20
75.76012877747416
 10
868.7630110377213
 20
165.6078279260546
 10
764.939689781866
 20
253.4055807068944
 10
710.9226787370862
 20
287.90723205544055
 10
635.010767300264
 20
281.0959482276812
 10
558.2145796687109
 20
223.34610931947827
 10
548.8154897752684
 20
209.10924672987312
 10
530.3227557633072
 20
181.08544234372675
 10
484.3915073472308
 20
111.48139876965433
 10
432.3703867739532
 20
31.150417195633054
 10
421.71323221281637
 20
14.693361746147275
 10
391.6921944570495
 20
-20.36095740646124
 10
357.9888856639154
 20
-59.85069727152586
 10
339.02190677274484
 20
-94.66892688162625
 10
338.3798656628933
 20
-163.3543925723061
 10
336.36675073893275
 20
-219.90376739017665
 10
335.81719481025357
 20
-235.1591682843864
 10
318.3710457740817
 20
-253.12927479017526
 10
292.960421207943
 20
-279.31952844094485
 10
252.2779649789445
 20
-309.38768865168095
 10
199.46373671013862
 20
-331.0380500163883
 10
133.38992743077688
 20
-340.73308431729674
 10
71.88446044747252
 20
-334.7849663756788
 10
0.13695119344629347
 20
-296.9084601216018
 10
-75.90084301691968
 20
-285.26834315247834
 10
-167.38833197101485
 20
-305.60455060657114
 10
-207.97277808282524
 20
-357.2624966567382
 10
-223.48168131627608
 20
-394.3437594026327
 10
-221.44104558427352
 20
-476.02475892566144
 10
-212.18032373453025
 20
-549.5638463720679
 10
-214.45777258148883
 20
-578.795806741342
 10
-217.44614705222193
 20
-617.011854076758
 10
-267.9336070457939
 20
-699.5476085022092
 10
-307.4752159516793
 20
-761.808722935617
 10
-350.55457632476464
 20
-793.8059447184205
 10
-396.5066566983005
 20
-776.2981349695474
 10
-520.4425808122614
 20
-743.9912021569908
 10
-715.307559697656
 20
-615.3193486081436
 10
-747.3966867799172
 20
-635.8597905635834
 10
-756.7330047900323
 20
-641.8353864233941
 10
-816.1345859451685
 20
-712.4771913420409
 10
-867.0813632273348
 20
-771.4494788516313
 10
-968.0672457263572
 20
-881.1662246016786
 10
-992.0669667172479
 20
-903.999297272414
 10
-1003.4055785086239
 20
-982.7507238797843
 10
-1040.9572796426946
 20
-1043.8664056453854
 10
-1103.4626772658667
 20
-1139.5872918013483
 10
-1155.2512742282124
 20
-1260.5637032007799
 10
-1207.037857121206
 20
-1323.8450672738254
 10
-1243.3341423416277
 20
-1350.4430517395958
 10
-1244.2869599472033
 20
-1391.6440869644284
 10
-1203.3469434356084
 20
-1458.9346199594438
 10
-1214.2679763766937
 20
-1485.877988461405
 10
-1218.0579496658174
 20
-1495.2410455271602
 10
-1268.7657489472767
 20
-1536.9389082305133
 10
-1327.9770571194822
 20
-1565.1856381893158
 10
-1383.844817850273
 20
-1579.7326771691442
 10
-1436.6942434393568
 20
-1546.8268709592521
 10
-1518.0702282618731
 20
-1434.2400898607448
 10
-1559.0839878371917
 20
-1401.8833269234747
 10
-1588.730963336886
 20
-1404.6260260622948
 10
-1650.9942767428001
 20
-1454.0209340695292
 10
-1699.7308968961006
 20
-1495.7579456679523
 10
-1771.7213694577804
 20
-1535.2077975943685
 10
-1794.750780477072
 20
-1573.3621438601986
 10
-1786.9531374996295
 20
-1609.974580226466
 10
-1730.7894636496203
 20
-1660.1916951807216
 10
-1715.2771453126334
 20
-1709.8679213523865
 10
-1745.6536519288784
 20
-1766.3750603599474
 10
-1807.7288690466667
 20
-1802.814034123905
 10
-1881.8526434437372
 20
-1853.6214277204126
 10
-2028.9298791347537
 20
-1900.2495456393808
 10
-2159.428337033023
 20
-1941.6210689488798
 10
-2328.45768994058
 20
-1983.7121728723869
 10
-2401.4248424784746
 20
-2001.8743741381913
 10
-2502.5166260288097
 20
-1995.034327391535
 10
-2561.750700259232
 20
-1966.5760525269434
 10
-2579.2913847039454
 20
-1930.1646065302193
 10
-2566.850648452877
 20
-1869.237850189209
 10
-2498.4492456846638
 20
-1739.4668900594115
 10
-2500.1423082168913
 20
-1661.0260735917836
 10
-2525.2115199593827
 20
-1616.006378494203
 10
-2588.763771346654
 20
-1568.029458861798
 10
-2647.352024516673
 20
-1537.4538407791406
 10
-2682.5373013059143
 20
-1517.2185900639743
 10
-2707.638784957002
 20
-1428.7367706429213
 10
-2816.0245536356233
 20
-1395.661277383566
 10
-3003.1139318685746
 20
-1418.0556029044092
 10
-3079.4660304000136
 20
-1434.6580279543996
 10
-3125.0171124482295
 20
-1479.9420900121331
 10
-3146.576418239274
 20
-1537.09101318568
 10
-3186.3015658374643
 20
-1672.1245215982199
 10
-3299.2022116002627
 20
-1827.093778773211
 10
-3378.171505269478
 20
-1935.4926032423973
 10
-3833.8498097833944
 20
-2289.8336511356756
 10
-3970.7535584481666
 20
-2354.8578942809254
 10
-4037.005053856992
 20
-2348.7950124982744
 10
-4056.96252559789
 20
-2309.318220362067
 10
-4070.951972376439
 20
-2213.3903719652444
 10
-4119.222391345422
 20
-2119.7378183659166
 10
-4227.27498253691
 20
-1993.672326464206
 10
-4269.165594509221
 20
-1971.8333181217313
 10
-4301.5722968823975
 20
-1995.1118293888867
 10
-4336.077784165274
 20
-2037.1911952067167
 10
-4488.479309840361
 20
-2140.9214669940993
 10
-4566.3139931549085
 20
-2223.157305609435
 10
-4609.554017153685
 20
-2233.520720884204
 10
-4669.876942755072
 20
-2218.42462182045
 10
-4713.137204710743
 20
-2230.3054355662316
 10
-5042.008621155983
 20
-2477.258390459232
 10
-5090.675870068371
 20
-2503.2116508539766
 10
-5156.538514021086
 20
-2538.3385347276926
 10
-5393.547463372932
 20
-2614.8069755937904
 10
-5481.832279868773
 20
-2655.8713951092213
 10
-5569.97678723617
 20
-2693.416043398902
 10
-5606.340521180886
 20
-2708.913257310167
 10
-5705.186870770645
 20
-2694.226482262835
 10
-5753.188644403475
 20
-2664.988871173002
 10
-5817.799718331196
 20
-2657.4711689045653
 10
-5877.138979458599
 20
-2637.5305123627186
 10
-5944.542322245543
 20
-2617.360861979425
 10
-5983.401936144219
 20
-2605.7233192948624
 10
-6005.74348205328
 20
-2607.851436778903
 10
-6038.736588361091
 20
-2628.9988377280533
 10
-6064.177844709251
 20
-2680.328554518521
 10
-6037.92145838181
 20
-2935.054898152128
 10
-6060.46360957576
 20
-3066.9660699516535
 10
-6043.636885433109
 20
-3157.4575185626745
 10
-6044.130393786472
 20
-3194.521509069018
 10
-6062.933362826705
 20
-3229.226245716214
 10
-6168.745376888197
 20
-3302.5791257582605
 10
-6252.77635834238
 20
-3346.140641896054
 10
-6295.983382121543
 20
-3354.3711471464485
 10
-6318.0936111530755
 20
-3339.1912995744497
 10
-6346.65018606605
 20
-3233.9575424827635
 10
-6319.548535167822
 20
-3195.7189562749118
 10
-6282.962746242061
 20
-3133.904452033341
 10
-6277.500684329192
 20
-3044.3189702546224
 10
-6336.679023014964
 20
-3035.635050205514
 10
-6343.812395654037
 20
-2997.2403153618798
 10
-6329.424531911383
 20
-2881.0366977434605
 10
-6343.778093026485
 20
-2834.0398221928626
 10
-6372.907022091327
 20
-2817.548500755802
 10
-6506.100247167749
 20
-2787.8124821353704
 10
-6748.60120299249
 20
-2841.4226278178394
 10
-6887.844784673769
 20
-2922.5548927718773
 10
-6954.735010201926
 20
-2988.221947609447
 10
-7030.180421281955
 20
-3030.0738925123587
 10
-7153.683389135171
 20
-3076.4619844583794
 10
-7346.458474058309
 20
-3138.0272069228813
 10
-7475.0105840006145
 20
-3220.8230222277343
 10
-7601.006866317242
 20
-3271.124348817393
 10
-7633.077948073973
 20
-3315.6787592675537
 10
-7634.821002907236
 20
-3355.4727055924013
 10
-7623.561324399663
 20
-3382.358134187758
 10
-7632.707707418944
 20
-3426.6063421610743
 10
-7675.417207975057
 20
-3466.7671721922234
 10
-7710.20723188913
 20
-3531.34377585724
 10
-7838.701936983736
 20
-3610.188887210563
 10
-7884.750152443419
 20
-3671.2723114155233
 10
-7914.328370316653
 20
-3758.401615427807
 10
-7961.289058864815
 20
-3842.5658728200942
 10
-8002.249131909455
 20
-3889.440202073194
 10
-8019.094940382754
 20
-3984.9446805901825
 10
-7999.701475668931
 20
-4090.3526913318783
 10
-8034.500438495539
 20
-4248.828968486749
 10
-8021.366057525971
 20
-4318.889573218301
 10
-7946.3125298976665
 20
-4421.687478931621
 10
-7945.618744018022
 20
-4462.11168094445
 10
-7973.957585639437
 20
-4501.554553832859
 10
-8026.500537759974
 20
-4522.735493917018
 10
-8074.748333095573
 20
-4519.363188838586
 10
-8100.88547530293
 20
-4484.982935609296
 10
-8101.427298862138
 20
-4433.008889783174
 10
-8148.351262395387
 20
-4445.769351631403
 10
-8185.934094062424
 20
-4468.211386470124
 10
-8214.464050127193
 20
-4476.042263638228
 10
-8347.025403528125
 20
-4468.978826839477
 10
-8409.888659922173
 20
-4485.162845035084
 10
-8505.481095465831
 20
-4471.698702420108
 10
-8552.664771311102
 20
-4465.0524474596605
 10
-8634.481693203212
 20
-4527.184230070561
 10
-8698.343710274203
 20
-4526.033976844512
 10
-8790.663405655301
 20
-4527.256558056921
 10
-8889.569474640884
 20
-4564.2448078505695
 10
-8996.302231759764
 20
-4599.5581036917865
 10
-9073.507391790044
 20
-4606.806597964838
 10
-9104.499344151467
 20
-4616.821822559461
 10
-9162.070357730961
 20
-4635.4151590857655
 10
-9204.57010446873
 20
-4649.144915388897
 10
-9337.50077257806
 20
-4740.391601645388
 10
-9384.293278517784
 20
-4742.513704571873
 10
-9422.891871915548
 20
-4726.202872109599
 10
-9429.760768545908
 20
-4667.157653170638
 10
-9468.386421681265
 20
-4629.282501297072
 10
-9557.525564188953
 20
-4598.022343938239
 10
-9593.526205511065
 20
-4662.885447383858
 10
-9602.468961358187
 20
-4762.138109330088
 10
-9660.724073516205
 20
-4846.468634640798
 10
-9716.100001712679
 20
-4873.997349938378
 10
-9832.110261566588
 20
-4887.973824057728
 10
-9942.01330779388
 20
-4905.818825945258
 10
-10051.750201995135
 20
-4982.00150215812
 10
-10066.924087034422
 20
-5076.066927865148
 10
-10151.598300714279
 20
-5153.973248749971
 10
-10197.339791402803
 20
-5181.562914663926
 10
-10426.813729722751
 20
-5319.9571349089965
 10
-10642.021027296782
 20
-5449.757462864742
 10
-10851.247158261831
 20
-5564.85256947577
 10
-10990.358093576622
 20
-5648.976238433272
 10
-11108.812130501145
 20
-5658.7543042209
 10
-11144.855237230775
 20
-5661.730036616325
 10
-11208.072517263005
 20
-5666.94422769174
 10
-11364.22819246049
 20
-5667.683894209564
 10
-11537.34380970383
 20
-5794.343087834306
 10
-11775.348190387012
 20
-6086.493212684989
 10
-11960.14296290907
 20
-6146.474993338808
 10
-12067.284339408507
 20
-6131.2210059165955
 10
-12136.631295460393
 20
-5995.879039735533
 10
-12196.296440685866
 20
-5866.200463730842
 10
-12308.468571627513
 20
-5916.028654539958
 10
-12525.276002042927
 20
-6187.674412325025
 10
-12662.693155357148
 20
-6249.660681003705
 10
-12834.396571226884
 20
-6268.23337074928
 10
-13000.87073649047
 20
-6313.212476483546
 10
-13112.304804309737
 20
-6306.227881897241
 10
-13150.458259664243
 20
-6237.822493546642
 10
-13213.239369697985
 20
-6210.256077536382
 10
-13329.285310704494
 20
-6159.28899811022
 10
-13360.475621526013
 20
-6200.464462440461
 10
-13375.163870481309
 20
-6366.604678990319
 10
-13428.7027483118
 20
-6410.272639891133
 10
-13593.902553835185
 20
-6898.796126248315
 10
-13653.184921919485
 20
-6956.246050491929
 10
-13703.125628068112
 20
-6937.584827068262
 10
-13815.217485872214
 20
-6873.769038381055
 10
-13901.685810362571
 20
-6876.823344055563
 10
-13967.279278302914
 20
-6882.9147622752935
 10
-14100.531320405775
 20
-7163.935544925742
 10
-14152.432233855943
 20
-7189.607113208622
 10
-14267.761838729493
 20
-7160.407581299543
 10
-14332.608377861441
 20
-7108.298357214779
 10
-14496.238352986635
 20
-7150.54876338318
 10
-14829.267668541172
 20
-7358.347882146016
 10
-14913.823319907882
 20
-7430.718653867021
 10
-15008.985572506092
 20
-7459.9935709042475
 10
-15128.582421358908
 20
-7530.94342725724
 10
-15187.36224347481
 20
-7565.822520274669
 10
-15527.059798056609
 20
-7751.355209819041
 10
-15783.212111559347
 20
-7835.411898013204
 10
-15961.09593183396
 20
-7948.697658468038
 10
-16176.459324695752
 20
-8181.3537453487515
 10
-16335.259526921785
 20
-8315.728969667107
 10
-16499.553160878946
 20
-8359.839915720746
 10
-16584.816811783006
 20
-8453.352114068344
 10
-16629.358603655826
 20
-8583.341558011249
 10
-16796.957948775846
 20
-8610.324504710734
 10
-16865.982603084878
 20
-8612.906317492947
 10
-17032.286907409434
 20
-8702.2721175123
 10
-17124.88774187432
 20
-8750.983830044046
 10
-17201.722189311055
 20
-8654.401497839019
 10
-17245.690277478774
 20
-8549.208492308855
 10
-17305.698420649744
 20
-8554.697069841437
 10
-17383.44259103795
 20
-8530.845585268922
 10
-17461.232342356234
 20
-8509.773782018572
 10
-17461.338977808016
 20
-8462.647922666743
 10
-17439.943563674926
 20
-8443.879769033752
 10
-17427.296216429793
 20
-8432.798124354333
 10
-17416.942534076166
 20
-8423.714288501069
 10
-17426.994503216352
 20
-8336.969157898799
 10
-17463.978466233355
 20
-8230.49182456918
 10
-17510.444654683
 20
-8157.153534889221
 10
-17515.611569364206
 20
-8124.516556720249
 10
-17510.28078945831
 20
-8088.55653340742
 10
-17582.715920815826
 20
-8029.43266030401
 10
-17696.908946862328
 20
-8077.189101268537
 10
-17734.625791918603
 20
-8138.3910399489105
 10
-17836.626519570476
 20
-8269.453566011041
 10
-17873.70225962915
 20
-8335.503639673814
 10
-17919.23666753061
 20
-8354.334005489945
 10
-17969.45554484648
 20
-8357.85519657936
 10
-18039.059841598035
 20
-8350.744304902852
 10
-18080.725963129662
 20
-8339.134160639718
 10
-18099.22747394326
 20
-8313.960499946028
 10
-18163.193494553794
 20
-8302.070209790021
 10
-18214.313710830756
 20
-8321.5178532172
 10
-18279.654158568825
 20
-8308.226393093355
 10
-18353.89520482777
 20
-8337.78349918127
 10
-18391.316502246424
 20
-8542.412148746662
 10
-18431.915658811922
 20
-8612.57219858095
 10
-18436.85290637717
 20
-8617.36107994616
 10
-18491.478657777538
 20
-8693.59148365818
 10
-18517.703497292357
 20
-8718.557724892162
  0
LWPOLYLINE
  5
D1
330
17
100
AcDbEntity
  8
WATERWAYS
 62
5
100
AcDbPolyline
 90
20
 70
0
 10
666.6628890868742
 20
-997.0745447315276
 10
624.0516866327962
 20
-955.7624353710562
 10
574.7771456761984
 20
-916.5631758933887
 10
504.93206142087
 20
-844.0748916212469
 10
476.42156477167737
 20
-743.5220207050443
 10
450.30938583402894
 20
-629.810431689024
 10
414.370098552783
 20
-586.386405358091
 10
397.01527002768125
 20
-560.8394340332597
 10
363.9410798647441
 20
-510.85344950668514
 10
359.8145175492391
 20
-488.2347590178251
 10
370.38282241718844
 20
-444.36299294419587
 10
366.2213211026974
 20
-425.0445179641247
 10
343.40963408502284
 20
-393.364182905294
 10
348.73156822798774
 20
-368.67085174284875
 10
362.1663871173514
 20
-357.302569671534
 10
366.8332421015948
 20
-339.75545672979206
 10
368.0982386181131
 20
-328.76310125458986
 10
362.1179711917648
 20
-300.61416362039745
 10
340.30803337635007
 20
-276.37968239560723
 10
318.3710457740817
 20
-253.12927479017526
  0
LWPOLYLINE
  5
D2
330
17
100
AcDbEntity
  8
WATERWAYS
 62
5
100
AcDbPolyline
 90
6
 70
0
 10
432.3703867739532
 20
31.150417195633054
 10
394.48330652411096
 20
21.424324854277074
 10
358.7862810099032
 20
2.098341657780111
 10
317.2009184980998
 20
-44.10636753682047
 10
320.01011053379625
 20
-81.56007703952491
 10
339.02190677274484
 20
-94.66892688162625
  0
LWPOLYLINE
  5
D3
330
17
100
AcDbEntity
  8
WATERWAYS
 62
5
100
AcDbPolyline
 90
23
 70
0
 10
749.648787675309
 20
-676.8386873342097
 10
753.4841862263856
 20
-639.4760172888637
 10
740.5857973831007
 20
-611.7745717894286
 10
722.1476595257409
 20
-584.0081499107182
 10
693.7746972528985
 20
-553.9011970246211
 10
605.3993781182216
 20
-460.23532889410853
 10
573.5985127214808
 20
-437.79061330948025
 10
580.6343852333957
 20
-409.2774123204872
 10
585.2864388548769
 20
-392.82667858712375
 10
562.5127887168201
 20
-358.3996209036559
 10
541.6400529022794
 20
-347.10356155224144
 10
522.0817166548222
 20
-340.7766070533544
 10
510.5574902702356
 20
-333.1975058298558
 10
504.97231768327765
 20
-316.8832476167008
 10
499.26701656985097
 20
-289.014910120517
 10
487.01937372109387
 20
-273.9938068604097
 10
465.2732234689174
 20
-265.43277521058917
 10
460.93819633929525
 20
-258.7719405181706
 10
445.7721660822863
 20
-254.16674909647554
 10
408.94948298635427
 20
-235.22010113112628
 10
398.1854219638044
 20
-233.14528893493116
 10
378.6833650036715
 20
-222.69897662568837
 10
336.36675073893275
 20
-219.90376739017665
  0
CIRCLE
  5
D4
330
17
100
AcDbEntity
  8
EQUIPAMENTOS
 62
4
100
AcDbCircle
 10
-253.0410913376836
 20
-108.15397109277546
 30
0.0
 40
2.0
  0
CIRCLE
  5
D5
330
17
100
AcDbEntity
  8
EQUIPAMENTOS
 62
4
100
AcDbCircle
 10
-37.328408880741335
 20
-45.10079672932625
 30
0.0
 40
2.0
  0
CIRCLE
  5
D6
330
17
100
AcDbEntity
  8
EQUIPAMENTOS
 62
4
100
AcDbCircle
 10
-49.62738515448291
 20
-53.3947138460353
 30
0.0
 40
2.0
  0
CIRCLE
  5
D7
330
17
100
AcDbEntity
  8
EQUIPAMENTOS
 62
4
100
AcDbCircle
 10
408.1967108073877
 20
133.63711621798575
 30
0.0
 40
2.0
  0
CIRCLE
  5
D8
330
17
100
AcDbEntity
  8
EQUIPAMENTOS
 62
4
100
AcDbCircle
 10
-186.9233042554697
 20
-157.1723080193624
 30
0.0
 40
2.0
  0
CIRCLE
  5
D9
330
17
100
AcDbEntity
  8
EQUIPAMENTOS
 62
4
100
AcDbCircle
 10
-15.56451629998628
 20
-133.09926670230925
 30
0.0
 40
2.0
  0
CIRCLE
  5
DA
330
17
100
AcDbEntity
  8
EQUIPAMENTOS
 62
4
100
AcDbCircle
 10
-173.96533845248632
 20
-62.17242702841759
 30
0.0
 40
2.0
  0
CIRCLE
  5
DB
330
17
100
AcDbEntity
  8
EQUIPAMENTOS
 62
4
100
AcDbCircle
 10
-220.99519178003538
 20
-13.149122333154082
 30
0.0
 40
2.0
  0
LWPOLYLINE
  5
DC
330
17
100
AcDbEntity
  8
FOOTWAYS
  6
DASHED
 62
8
100
AcDbPolyline
 90
11
 70
0
 10
122.02608246996533
 20
-399.8015893474221
 10
125.12558078242
 20
-407.0324396789074
 10
130.70463134429883
 20
-409.50127471238375
 10
135.45130267809145
 20
-414.7388247232884
 10
132.89001622772776
 20
-425.46975894644856
 10
130.33904830669053
 20
-436.2008346738294
 10
126.67333193833474
 20
-440.935533166863
 10
127.77170695120003
 20
-448.12790920678526
 10
131.2950429103803
 20
-454.5449315980077
 10
138.05978762020823
 20
-457.8274884680286
 10
144.8457638521213
 20
-460.3128573242575
  0
CIRCLE
  5
DD
330
17
100
AcDbEntity
  8
TRANSPORT
 62
1
100
AcDbCircle
 10
-233.46766611922067
 20
-269.67854392901063
 30
0.0
 40
1.6666666666666667
  0
CIRCLE
  5
DE
330
17
100
AcDbEntity
  8
TRANSPORT
 62
1
100
AcDbCircle
 10
-239.67113485722803
 20
-265.3294520955533
 30
0.0
 40
1.6666666666666667
  0
CIRCLE
  5
DF
330
17
100
AcDbEntity
  8
TRANSPORT
 62
1
100
AcDbCircle
 10
426.7410866445862
 20
94.6939305504784
 30
0.0
 40
1.6666666666666667
  0
CIRCLE
  5
E0
330
17
100
AcDbEntity
  8
TRANSPORT
 62
1
100
AcDbCircle
 10
420.7088839848293
 20
97.23552510887384
 30
0.0
 40
1.6666666666666667
  0
CIRCLE
  5
E1
330
17
100
AcDbEntity
  8
TRANSPORT
 62
1
100
AcDbCircle
 10
92.86302856786642
 20
63.39165196754038
 30
0.0
 40
1.6666666666666667
  0
CIRCLE
  5
E2
330
17
100
AcDbEntity
  8
TRANSPORT
 62
1
100
AcDbCircle
 10
-57.38807443820406
 20
-53.51008199900389
 30
0.0
 40
1.6666666666666667
  0
TEXT
  5
E3
330
17
100
AcDbEntity
  8
LABELS
100
AcDbText
 10
204.54334559570998
 20
76.02905436977744
 30
0.0
 40
2.5
  1
Rua Professora Maria Emilia Esteves
 50
-24.460515757827324
 72
1
 11
204.54334559570998
 21
76.02905436977744
 31
0.0
100
AcDbText
 73
2
  0
TEXT
  5
E4
330
17
100
AcDbEntity
  8
LABELS
100
AcDbText
 10
-128.83637727913447
 20
-68.3385754507035
 30
0.0
 40
2.5
  1
Rua Alfredo Maurcio da Silva
 72
1
 11
-128.83637727913447
 21
-68.3385754507035
 31
0.0
100
AcDbText
 73
2
  0
TEXT
  5
E5
330
17
100
AcDbEntity
  8
LABELS
100
AcDbText
 10
-344.4222672568867
 20
-316.27696559298784
 30
0.0
 40
2.5
  1
Rua Coronel Joo Limogni
 50
85.47853903491334
 72
1
 11
-344.4222672568867
 21
-316.27696559298784
 31
0.0
100
AcDbText
 73
2
  0
TEXT
  5
E6
330
17
100
AcDbEntity
  8
LABELS
100
AcDbText
 10
-621.6331745623611
 20
793.1549157239497
 30
0.0
 40
2.5
  1
Rua Waldemiro de Souza
 50
-55.73981377014418
 72
1
 11
-621.6331745623611
 21
793.1549157239497
 31
0.0
100
AcDbText
 73
2
  0
TEXT
  5
E7
330
17
100
AcDbEntity
  8
LABELS
100
AcDbText
 10
-130.06732671998907
 20
19.72228425554931
 30
0.0
 40
2.5
  1
Rua dos Arajos
 50
-9.261779346560218
 72
1
 11
-130.06732671998907
 21
19.72228425554931
 31
0.0
100
AcDbText
 73
2
  0
TEXT
  5
E8
330
17
100
AcDbEntity
  8
LABELS
100
AcDbText
 10
-241.16348335170187
 20
-60.467513668350875
 30
0.0
 40
2.5
  1
Rua Verador Meirelles Guerra
 50
81.43576758488692
 72
1
 11
-241.16348335170187
 21
-60.467513668350875
 31
0.0
100
AcDbText
 73
2
  0
TEXT
  5
E9
330
17
100
AcDbEntity
  8
LABELS
100
AcDbText
 10
252.26762954553124
 20
-341.77419144660234
 30
0.0
 40
2.5
  1
Rua Santa F
 50
24.26814201266484
 72
1
 11
252.26762954553124
 21
-341.77419144660234
 31
0.0
100
AcDbText
 73
2
  0
TEXT
  5
EA
330
17
100
AcDbEntity
  8
LABELS
100
AcDbText
 10
-276.0932790300576
 20
-146.05151816178113
 30
0.0
 40
2.5
  1
Praa Domingos Scali
 72
1
 11
-276.0932790300576
 21
-146.05151816178113
 31
0.0
100
AcDbText
 73
2
  0
TEXT
  5
EB
330
17
100
AcDbEntity
  8
LABELS
100
AcDbText
 10
-310.7658082495909
 20
-146.37524190265685
 30
0.0
 40
2.5
  1
Praa Domingos Scali
 72
1
 11
-310.7658082495909
 21
-146.37524190265685
 31
0.0
100
AcDbText
 73
2
  0
TEXT
  5
EC
330
17
100
AcDbEntity
  8
LABELS
100
AcDbText
 10
-226.31186446000356
 20
32.69001551158726
 30
0.0
 40
2.5
  1
Rua Alfredo Maurcio da Silva
 50
-4.319335468126496
 72
1
 11
-226.31186446000356
 21
32.69001551158726
 31
0.0
100
AcDbText
 73
2
  0
TEXT
  5
ED
330
17
100
AcDbEntity
  8
LABELS
100
AcDbText
 10
-566.4811994064366
 20
-255.79321341216564
 30
0.0
 40
2.5
  1
Rua Domingos Lopes Carvalho
 50
51.615804286443336
 72
1
 11
-566.4811994064366
 21
-255.79321341216564
 31
0.0
100
AcDbText
 73
2
  0
TEXT
  5
EE
330
17
100
AcDbEntity
  8
LABELS
100
AcDbText
 10
-276.4674682666082
 20
-130.39586819522083
 30
0.0
 40
2.5
  1
Rua Domingos Lopes Carvalho
 72
1
 11
-276.4674682666082
 21
-130.39586819522083
 31
0.0
100
AcDbText
 73
2
  0
TEXT
  5
EF
330
17
100
AcDbEntity
  8
LABELS
100
AcDbText
 10
-5.221453299862333
 20
-236.83576847426593
 30
0.0
 40
2.5
  1
Rua Francisco Rodrigues Nogueira
 50
-8.107229347823658
 72
1
 11
-5.221453299862333
 21
-236.83576847426593
 31
0.0
100
AcDbText
 73
2
  0
TEXT
  5
F0
330
17
100
AcDbEntity
  8
LABELS
100
AcDbText
 10
-201.29422358691227
 20
-125.33140829391778
 30
0.0
 40
2.5
  1
Rua Manoel Damas
 50
-1.080598674136553
 72
1
 11
-201.29422358691227
 21
-125.33140829391778
 31
0.0
100
AcDbText
 73
2
  0
TEXT
  5
F1
330
17
100
AcDbEntity
  8
LABELS
100
AcDbText
 10
-226.6172479762463
 20
-256.8906627576798
 30
0.0
 40
2.5
  1
Rua Paulo Franco Werneck
 50
43.54212222840868
 72
1
 11
-226.6172479762463
 21
-256.8906627576798
 31
0.0
100
AcDbText
 73
2
  0
TEXT
  5
F2
330
17
100
AcDbEntity
  8
LABELS
100
AcDbText
 10
-326.925823628786
 20
-152.57860130630434
 30
0.0
 40
2.5
  1
Rua Bencio Scali da Silva
 50
42.78357313618402
 72
1
 11
-326.925823628786
 21
-152.57860130630434
 31
0.0
100
AcDbText
 73
2
  0
TEXT
  5
F3
330
17
100
AcDbEntity
  8
LABELS
100
AcDbText
 10
-469.23579053825233
 20
-208.9285388579592
 30
0.0
 40
2.5
  1
Rua Senhor dos Passos
 50
-66.17611698332061
 72
1
 11
-469.23579053825233
 21
-208.9285388579592
 31
0.0
100
AcDbText
 73
2
  0
TEXT
  5
F4
330
17
100
AcDbEntity
  8
LABELS
100
AcDbText
 10
-392.35739893710706
 20
-208.91503454186022
 30
0.0
 40
2.5
  1
Travessa Martinho Gabriel de Castro
 72
1
 11
-392.35739893710706
 21
-208.91503454186022
 31
0.0
100
AcDbText
 73
2
  0
TEXT
  5
F5
330
17
100
AcDbEntity
  8
LABELS
100
AcDbText
 10
61.468654274824075
 20
105.1131128128618
 30
0.0
 40
2.5
  1
Rua Dona Cotinha
 50
-69.7949199684725
 72
1
 11
61.468654274824075
 21
105.1131128128618
 31
0.0
100
AcDbText
 73
2
  0
TEXT
  5
F6
330
17
100
AcDbEntity
  8
LABELS
100
AcDbText
 10
10.723623175988905
 20
40.203595822677016
 30
0.0
 40
2.5
  1
Rua Olivia do Alto
 50
89.20128358765524
 72
1
 11
10.723623175988905
 21
40.203595822677016
 31
0.0
100
AcDbText
 73
2
  0
TEXT
  5
F7
330
17
100
AcDbEntity
  8
LABELS
100
AcDbText
 10
125.01583760289941
 20
103.46802364848554
 30
0.0
 40
2.5
  1
Rua Dona Cotinha
 50
-63.16040402811777
 72
1
 11
125.01583760289941
 21
103.46802364848554
 31
0.0
100
AcDbText
 73
2
  0
TEXT
  5
F8
330
17
100
AcDbEntity
  8
LABELS
100
AcDbText
 10
-319.38251583173405
 20
-203.8643283303827
 30
0.0
 40
2.5
  1
Travessa Constantino Andriolo
 50
-12.613340381505168
 72
1
 11
-319.38251583173405
 21
-203.8643283303827
 31
0.0
100
AcDbText
 73
2
  0
TEXT
  5
F9
330
17
100
AcDbEntity
  8
LABELS
100
AcDbText
 10
-329.2484838127857
 20
-248.57667880505323
 30
0.0
 40
2.5
  1
Rua Augusto Rampini
 50
-44.70546461588552
 72
1
 11
-329.2484838127857
 21
-248.57667880505323
 31
0.0
100
AcDbText
 73
2
  0
TEXT
  5
FA
330
17
100
AcDbEntity
  8
LABELS
100
AcDbText
 10
-228.4700695812935
 20
-147.11216948367655
 30
0.0
 40
2.5
  1
Praa Joo Werneck
 50
38.1969632158185
 72
1
 11
-228.4700695812935
 21
-147.11216948367655
 31
0.0
100
AcDbText
 73
2
  0
TEXT
  5
FB
330
17
100
AcDbEntity
  8
LABELS
100
AcDbText
 10
-243.7691171147162
 20
-160.5266840243712
 30
0.0
 40
2.5
  1
Rua Adelino Peixoto de Faria
 50
-42.44139047791464
 72
1
 11
-243.7691171147162
 21
-160.5266840243712
 31
0.0
100
AcDbText
 73
2
  0
TEXT
  5
FC
330
17
100
AcDbEntity
  8
LABELS
100
AcDbText
 10
-119.72530271555297
 20
-64.54221586510539
 30
0.0
 40
2.5
  1
Rua Antonio Coelho Guerra
 50
15.15655852731366
 72
1
 11
-119.72530271555297
 21
-64.54221586510539
 31
0.0
100
AcDbText
 73
2
  0
TEXT
  5
FD
330
17
100
AcDbEntity
  8
LABELS
100
AcDbText
 10
282.23432445700746
 20
-437.8826632797718
 30
0.0
 40
2.5
  1
Rua Jarbas da Costa Carvalho
 50
8.81650427479201
 72
1
 11
282.23432445700746
 21
-437.8826632797718
 31
0.0
100
AcDbText
 73
2
  0
TEXT
  5
FE
330
17
100
AcDbEntity
  8
LABELS
100
AcDbText
 10
119.35734460677486
 20
165.72686719987541
 30
0.0
 40
2.5
  1
Rua Idalina Dias
 50
64.46167208260785
 72
1
 11
119.35734460677486
 21
165.72686719987541
 31
0.0
100
AcDbText
 73
2
  0
TEXT
  5
FF
330
17
100
AcDbEntity
  8
LABELS
100
AcDbText
 10
-125.78265851677861
 20
134.62267248891294
 30
0.0
 40
2.5
  1
Rua Waldemiro de Souza
 50
85.89641461041258
 72
1
 11
-125.78265851677861
 21
134.62267248891294
 31
0.0
100
AcDbText
 73
2
  0
TEXT
  5
100
330
17
100
AcDbEntity
  8
LABELS
100
AcDbText
 10
-212.2843860151479
 20
-175.2673509446904
 30
0.0
 40
2.5
  1
Praa Joo Werneck
 50
37.85590417115451
 72
1
 11
-212.2843860151479
 21
-175.2673509446904
 31
0.0
100
AcDbText
 73
2
  0
TEXT
  5
101
330
17
100
AcDbEntity
  8
LABELS
100
AcDbText
 10
494.4616698072059
 20
46.747180201113224
 30
0.0
 40
2.5
  1
Rua Santa F
 50
53.695012712529575
 72
1
 11
494.4616698072059
 21
46.747180201113224
 31
0.0
100
AcDbText
 73
2
  0
TEXT
  5
102
330
17
100
AcDbEntity
  8
LABELS
100
AcDbText
 10
90.7940573595697
 20
-452.5726701617241
 30
0.0
 40
2.5
  1
Rua Manoel Evangelista do Carmo
 50
10.751927251999831
 72
1
 11
90.7940573595697
 21
-452.5726701617241
 31
0.0
100
AcDbText
 73
2
  0
TEXT
  5
103
330
17
100
AcDbEntity
  8
LABELS
100
AcDbText
 10
459.723305929685
 20
-215.69118381105363
 30
0.0
 40
2.5
  1
Rua Jarbas da Costa Carvalho
 50
-40.01902796914911
 72
1
 11
459.723305929685
 21
-215.69118381105363
 31
0.0
100
AcDbText
 73
2
  0
CIRCLE
  5
104
330
17
100
AcDbEntity
  8
TREES
100
AcDbCircle
 10
4.104526601382531
 20
300.02219469007105
 30
0.0
 40
1.4285714285714286
  0
CIRCLE
  5
105
330
17
100
AcDbEntity
  8
TREES
100
AcDbCircle
 10
261.8793439626461
 20
146.4564665593207
 30
0.0
 40
1.4285714285714286
  0
CIRCLE
  5
106
330
17
100
AcDbEntity
  8
TREES
100
AcDbCircle
 10
257.77456768322736
 20
-153.56613450217992
 30
0.0
 40
1.4285714285714286
  0
CIRCLE
  5
107
330
17
100
AcDbEntity
  8
TREES
100
AcDbCircle
 10
-4.105003219214268
 20
-300.02218157052994
 30
0.0
 40
1.4285714285714286
  0
CIRCLE
  5
108
330
17
100
AcDbEntity
  8
TREES
100
AcDbCircle
 10
-261.87909429124556
 20
-146.45606035739183
 30
0.0
 40
1.4285714285714286
  0
CIRCLE
  5
109
330
17
100
AcDbEntity
  8
TREES
100
AcDbCircle
 10
-257.77434073609766
 20
153.565715177916
 30
0.0
 40
1.4285714285714286
  0
ENDSEC
  0
SECTION
  2
OBJECTS
  0
DICTIONARY
  5
A
330
0
100
AcDbDictionary
281
1
  3
ACAD_COLOR
350
B
  3
ACAD_GROUP
350
C
  3
ACAD_LAYOUT
350
D
  3
ACAD_MATERIAL
350
E
  3
ACAD_MLEADERSTYLE
350
F
  3
ACAD_MLINESTYLE
350
10
  3
ACAD_PLOTSETTINGS
350
11
  3
ACAD_PLOTSTYLENAME
350
12
  3
ACAD_SCALELIST
350
14
  3
ACAD_TABLESTYLE
350
15
  3
ACAD_VISUALSTYLE
350
16
  3
EZDXF_META
350
2D
  0
DICTIONARY
  5
B
330
A
100
AcDbDictionary
281
1
  0
DICTIONARY
  5
C
330
A
100
AcDbDictionary
281
1
  0
DICTIONARY
  5
D
330
A
100
AcDbDictionary
281
1
  3
Model
350
1A
  3
Layout1
350
1E
  0
DICTIONARY
  5
E
330
A
100
AcDbDictionary
281
1
  3
ByBlock
350
1F
  3
ByLayer
350
20
  3
Global
350
21
  0
DICTIONARY
  5
F
330
A
100
AcDbDictionary
281
1
  3
Standard
350
2C
  0
DICTIONARY
  5
10
330
A
100
AcDbDictionary
281
1
  3
Standard
350
22
  0
DICTIONARY
  5
11
330
A
100
AcDbDictionary
281
1
  0
ACDBDICTIONARYWDFLT
  5
12
330
A
100
AcDbDictionary
281
1
  3
Normal
350
13
100
AcDbDictionaryWithDefault
340
13
  0
ACDBPLACEHOLDER
  5
13
330
12
  0
DICTIONARY
  5
14
330
A
100
AcDbDictionary
281
1
  0
DICTIONARY
  5
15
330
A
100
AcDbDictionary
281
1
  0
DICTIONARY
  5
16
330
A
100
AcDbDictionary
281
1
  0
LAYOUT
  5
1A
330
D
100
AcDbPlotSettings
  1

  4
A3
  6

 40
7.5
 41
20.0
 42
7.5
 43
20.0
 44
420.0
 45
297.0
 46
0.0
 47
0.0
 48
0.0
 49
0.0
140
0.0
141
0.0
142
1.0
143
1.0
 70
1024
 72
1
 73
0
 74
5
  7

 75
16
 76
0
 77
2
 78
300
147
1.0
148
0.0
149
0.0
100
AcDbLayout
  1
Model
 70
1
 71
0
 10
0.0
 20
0.0
 11
420.0
 21
297.0
 12
0.0
 22
0.0
 32
0.0
 14
1e+20
 24
1e+20
 34
1e+20
 15
-1e+20
 25
-1e+20
 35
-1e+20
146
0.0
 13
0.0
 23
0.0
 33
0.0
 16
1.0
 26
0.0
 36
0.0
 17
0.0
 27
1.0
 37
0.0
 76
1
330
17
  0
LAYOUT
  5
1E
330
D
100
AcDbPlotSettings
  1

  4
A3
  6

 40
7.5
 41
20.0
 42
7.5
 43
20.0
 44
420.0
 45
297.0
 46
0.0
 47
0.0
 48
0.0
 49
0.0
140
0.0
141
0.0
142
1.0
143
1.0
 70
0
 72
1
 73
0
 74
5
  7

 75
16
 76
0
 77
2
 78
300
147
1.0
148
0.0
149
0.0
100
AcDbLayout
  1
Layout1
 70
1
 71
1
 10
0.0
 20
0.0
 11
420.0
 21
297.0
 12
0.0
 22
0.0
 32
0.0
 14
1e+20
 24
1e+20
 34
1e+20
 15
-1e+20
 25
-1e+20
 35
-1e+20
146
0.0
 13
0.0
 23
0.0
 33
0.0
 16
1.0
 26
0.0
 36
0.0
 17
0.0
 27
1.0
 37
0.0
 76
1
330
1B
  0
MATERIAL
  5
1F
102
{ACAD_REACTORS
330
E
102
}
330
E
100
AcDbMaterial
  1
ByBlock
  2

 70
0
 40
1.0
 71
1
 41
1.0
 91
-1023410177
 42
1.0
 72
1
  3

 73
1
 74
1
 75
1
 44
0.5
 73
0
 45
1.0
 46
1.0
 77
1
  4

 78
1
 79
1
170
1
 48
1.0
171
1
  6

172
1
173
1
174
1
140
1.0
141
1.0
175
1
  7

176
1
177
1
178
1
143
1.0
179
1
  8

270
1
271
1
272
1
145
1.0
146
1.0
273
1
  9

274
1
275
1
276
1
 42
1.0
 72
1
  3

 73
1
 74
1
 75
1
 94
63
  0
MATERIAL
  5
20
102
{ACAD_REACTORS
330
E
102
}
330
E
100
AcDbMaterial
  1
ByLayer
  2

 70
0
 40
1.0
 71
1
 41
1.0
 91
-1023410177
 42
1.0
 72
1
  3

 73
1
 74
1
 75
1
 44
0.5
 73
0
 45
1.0
 46
1.0
 77
1
  4

 78
1
 79
1
170
1
 48
1.0
171
1
  6

172
1
173
1
174
1
140
1.0
141
1.0
175
1
  7

176
1
177
1
178
1
143
1.0
179
1
  8

270
1
271
1
272
1
145
1.0
146
1.0
273
1
  9

274
1
275
1
276
1
 42
1.0
 72
1
  3

 73
1
 74
1
 75
1
 94
63
  0
MATERIAL
  5
21
102
{ACAD_REACTORS
330
E
102
}
330
E
100
AcDbMaterial
  1
Global
  2

 70
0
 40
1.0
 71
1
 41
1.0
 91
-1023410177
 42
1.0
 72
1
  3

 73
1
 74
1
 75
1
 44
0.5
 73
0
 45
1.0
 46
1.0
 77
1
  4

 78
1
 79
1
170
1
 48
1.0
171
1
  6

172
1
173
1
174
1
140
1.0
141
1.0
175
1
  7

176
1
177
1
178
1
143
1.0
179
1
  8

270
1
271
1
272
1
145
1.0
146
1.0
273
1
  9

274
1
275
1
276
1
 42
1.0
 72
1
  3

 73
1
 74
1
 75
1
 94
63
  0
MLINESTYLE
  5
22
102
{ACAD_REACTORS
330
10
102
}
330
10
100
AcDbMlineStyle
  2
Standard
 70
0
  3

 62
256
 51
90.0
 52
90.0
 71
2
 49
0.5
 62
256
  6
BYLAYER
 49
-0.5
 62
256
  6
BYLAYER
  0
MLEADERSTYLE
  5
2C
102
{ACAD_REACTORS
330
F
102
}
330
F
100
AcDbMLeaderStyle
179
2
170
2
171
1
172
0
 90
2
 40
0.0
 41
0.0
173
1
 91
-1056964608
 92
-2
290
1
 42
2.0
291
1
 43
8.0
  3
Standard
 44
4.0
300

342
29
174
1
175
1
176
0
178
1
 93
-1056964608
 45
4.0
292
0
297
0
 46
4.0
 94
-1056964608
 47
1.0
 49
1.0
140
1.0
294
1
141
0.0
177
0
142
1.0
295
0
296
0
143
3.75
271
0
272
9
273
9
  0
DICTIONARY
  5
2D
330
A
100
AcDbDictionary
280
1
281
1
  3
CREATED_BY_EZDXF
350
2E
  3
WRITTEN_BY_EZDXF
350
10C
  0
DICTIONARYVAR
  5
2E
330
2D
100
DictionaryVariables
280
0
  1
1.4.3 @ 2026-02-19T13:00:33.724561+00:00
  0
DICTIONARYVAR
  5
10C
330
2D
100
DictionaryVariables
280
0
  1
1.4.3 @ 2026-02-19T13:00:49.808943+00:00
  0
ENDSEC
  0
EOF
